<?xml version="1.0" encoding="utf-8"?>
<!-- Generator: Adobe Illustrator 26.0.1, SVG Export Plug-In . SVG Version: 6.00 Build 0)  -->
<svg version="1.1" id="레이어_1" xmlns="http://www.w3.org/2000/svg" xmlns:xlink="http://www.w3.org/1999/xlink" x="0px"
	 y="0px" viewBox="0 0 500 500" style="enable-background:new 0 0 500 500;" xml:space="preserve">
<style type="text/css">
	.st0{fill:#A7E9E8;}
	.st1{fill:#FFFFFF;}
	.st2{fill:#4FD5D3;}
	.st3{fill:#FF8AC9;}
	.st4{fill:#FFB2B1;}
	.st5{fill:#FF6865;}
	.st6{fill:none;stroke:#FFFFFF;stroke-width:17;stroke-linecap:round;stroke-linejoin:round;stroke-miterlimit:10;}
	.st7{fill:#A7C0FF;}
	.st8{fill:#5281FF;}
	.st9{fill:#FFDC9B;}
	.st10{fill:#FFBB32;}
</style>
<g>
	<rect class="st0" width="500" height="500"/>
	<g>
		<path class="st1" d="M78.83,111.2H61.24l-14.12,22.35H33.28l14.13-22.35H35.06L43.8,97.5h12.22l10.9-17.29H54.7l8.67-13.83h12.29
			l14.01-22.22h13.83L89.48,66.38h17.53l14.01-22.22h13.83l-14.01,22.22h12.29l-8.79,13.83h-12.22l-10.9,17.29h12.35l-8.74,13.71
			H92.6l-14.13,22.35H64.77L78.83,111.2z M87.45,97.5l10.9-17.29H80.75L69.85,97.5H87.45z"/>
		<path class="st1" d="M186.24,107.13l-15.38,12.59c-9.25-5.99-12.21-17.1-10.54-30.62c-11.7,14.51-25.9,26.42-41.56,32.72
			l-3.82-12.72c23.16-8.77,42.13-30.25,51.86-51.12l7.83-16.79h15.8l-7.83,16.79C173.16,78.11,172.27,98.42,186.24,107.13z
			 M225.95,32.55h15.8l-20.21,43.34h16.55l-6.22,13.33h-16.55l-25.97,55.69h-15.8L225.95,32.55z"/>
		<path class="st1" d="M263.16,39.34h51.61l-15.6,33.46h-35.81l-4.61,9.88c18.58-0.12,31.49-0.8,46.99-3.33l-4.14,12.59
			c-17.52,3.03-32.23,3.58-55.01,3.58h-9.51l16.12-34.57h36.18l4.32-9.26h-36.3L263.16,39.34z M282,102.19
			c23.34,0,34.32,8.09,28.08,21.61c-6.25,13.27-24.6,20.99-47.94,20.99c-23.77,0-34.92-7.72-28.74-20.99
			C239.71,110.28,258.24,102.19,282,102.19z M267.61,133.06c14.82,0,24.06-3.15,26.91-9.26c2.91-6.24-3.37-9.45-18.22-9.38
			c-14.97-0.06-24.56,3.15-27.34,9.38C245.99,129.91,252.61,133.06,267.61,133.06z M339.25,58.85h15.19l-6.05,12.96h-15.19
			l-13.13,28.15h-15.8l31.38-67.29h15.8L339.25,58.85z"/>
		<path class="st1" d="M412.03,62.19H357.7l5.82-12.47h19.51l6.56-14.08h15.56l-6.56,14.08h19.26L412.03,62.19z M382.75,67.25
			c14.36,0.06,19.48,11.05,12.26,26.67c-7.37,15.68-22.8,26.79-37.19,26.79c-14.32,0-19.64-11.11-12.32-26.79
			C352.78,78.3,368.4,67.31,382.75,67.25z M364.04,107.38c6.3,0,13.08-4.88,17.14-13.46c3.88-8.46,1.77-13.58-4.53-13.58
			c-6.54,0-13.38,5.12-17.32,13.58C355.32,102.5,357.49,107.38,364.04,107.38z M429.01,34.78h14.69l-20.27,43.46h9.14l21.3-45.68
			h14.94l-52.39,112.36h-14.94l25.22-54.08h-9.14l-22.97,49.26H379.9L429.01,34.78z"/>
	</g>
	<path class="st2" d="M500,225.38V500H49.72c-2.66-15.6-4.04-31.63-4.04-47.99c0-156.67,127.01-283.68,283.68-283.68
		C393.42,168.33,452.52,189.57,500,225.38z"/>
	<circle class="st1" cx="211.79" cy="308.64" r="24.29"/>
	<circle class="st1" cx="335.47" cy="308.64" r="24.29"/>
	<g>
		<path class="st1" d="M273.56,398.72c-22.67,0-38.44-12.01-39.42-12.78c-5.02-3.91-5.9-11.15-1.99-16.16
			c3.89-4.99,11.09-5.93,16.11-2.04c1.09,0.81,23.89,17.47,51.34-0.52c5.33-3.49,12.46-1.99,15.95,3.33
			c3.48,5.32,1.99,12.46-3.33,15.95C298.24,395.65,285.02,398.72,273.56,398.72z"/>
	</g>
	<path class="st3" d="M142.86,205.26l-58.8,58.8l-45.22-45.22l-13.57-13.57c-12.49-12.49-12.49-32.74,0-45.22l0,0
		c12.49-12.49,32.74-12.49,45.22,0l13.57,13.57l13.57-13.57c12.49-12.49,32.74-12.49,45.22,0l0,0
		C155.35,172.53,155.35,192.78,142.86,205.26z"/>
</g>
</svg>
