<?xml version="1.0" encoding="utf-8"?>
<!-- Generator: Adobe Illustrator 26.0.1, SVG Export Plug-In . SVG Version: 6.00 Build 0)  -->
<svg version="1.1" id="레이어_1" xmlns="http://www.w3.org/2000/svg" xmlns:xlink="http://www.w3.org/1999/xlink" x="0px"
	 y="0px" viewBox="0 0 500 500" style="enable-background:new 0 0 500 500;" xml:space="preserve">
<style type="text/css">
	.st0{fill:#A7E9E8;}
	.st1{fill:#FFFFFF;}
	.st2{fill:#4FD5D3;}
	.st3{fill:#FF8AC9;}
	.st4{fill:#FFB2B1;}
	.st5{fill:#FF6865;}
	.st6{fill:none;stroke:#FFFFFF;stroke-width:17;stroke-linecap:round;stroke-linejoin:round;stroke-miterlimit:10;}
	.st7{fill:#A7C0FF;}
	.st8{fill:#5281FF;}
	.st9{fill:#FFDC9B;}
	.st10{fill:#FFBB32;}
</style>
<g>
	<rect class="st4" width="500" height="500"/>
	<g>
		<path class="st1" d="M79.27,111.21H61.67l-14.13,22.35H33.72l14.12-22.35H35.5l8.74-13.71h12.22l10.9-17.29H55.13l8.67-13.83
			h12.29l14.01-22.22h13.83L89.92,66.39h17.53l14.01-22.22h13.83l-14.01,22.22h12.29l-8.79,13.83h-12.22l-10.9,17.29h12.35
			l-8.74,13.71H93.03l-14.13,22.35H65.2L79.27,111.21z M87.88,97.51l10.9-17.29H81.18l-10.9,17.29H87.88z"/>
		<path class="st1" d="M195.99,86.89l-14.17,11.85c-10.2-3.95-14.97-11.85-15.21-21.79c-10.24,11.24-23.46,20.25-38.77,24.76
			l-2.4-12.59c21.59-6.05,36.93-20.8,43.7-35.19l0.23-0.49h-22.6l5.82-12.47h60.87l-5.82,12.47h-22.35l-0.23,0.49
			C178.7,67.44,180.39,81.02,195.99,86.89z M135.23,106.77h15.68l-11,23.58h61.24l-5.87,12.59h-76.92L135.23,106.77z M226.88,32.56
			h15.8l-15.26,32.72h15.19l-6.05,12.96h-15.19l-17.1,36.67h-15.8L226.88,32.56z"/>
		<path class="st1" d="M319.54,131.46H216.69l5.87-12.59h42.97l11.86-25.43h15.68l-11.86,25.43h44.2L319.54,131.46z M298.42,47.01
			l3.74-8.03h16.79l-3.74,8.03c-7.55,16.05-0.93,32.97,22.91,36.92l-12.77,13.09c-18.09-3.58-27.86-14.14-28.73-28.15
			c-13.85,13.95-33.46,24.63-54.74,28.15l-0.56-13.09C268.6,79.97,290.9,62.87,298.42,47.01z"/>
		<path class="st1" d="M373.63,41.94h53.46l-20.21,43.34h-37.04l-9.62,20.62c17.22-0.12,32.13-0.99,49.88-3.7l-4.57,12.72
			c-19.98,3.27-37.03,3.95-57.53,3.95h-10.12l21.48-46.05h37.29l8.46-18.15H367.7L373.63,41.94z M413.77,145.16h-15.68l52.51-112.6
			h15.68L413.77,145.16z"/>
	</g>
	<path class="st5" d="M478.17,500H43.54L0,384.27V211.36c9.74-7.52,21.63-13.96,35.82-19.29l60.51-22.76
		c85.27-32.09,160.73-34.45,226.68-6.6c65.89,27.98,114.26,81.44,144.49,161.78C490.92,386.76,494.38,445.55,478.17,500z"/>
	<g>
		<path class="st1" d="M260.64,300.71c-5.26,1.98-11.31-0.18-14.06-5.27c-3-5.55-0.93-12.48,4.62-15.48l48.3-26.1
			c5.55-2.99,12.48-0.93,15.48,4.62c3,5.55,0.93,12.48-4.62,15.48l-48.3,26.1C261.6,300.31,261.13,300.52,260.64,300.71z"/>
	</g>
	<g>
		<path class="st1" d="M200.2,323.45c-0.46,0.17-0.93,0.32-1.42,0.43l-56.26,13.24c-6.14,1.45-12.29-2.36-13.74-8.5
			c-1.45-6.14,2.38-12.29,8.5-13.74l56.26-13.24c6.14-1.45,12.29,2.36,13.74,8.5C208.61,315.8,205.49,321.46,200.2,323.45z"/>
	</g>
	<path class="st1" d="M269.64,417.17L269.64,417.17c-13.53,5.09-28.62-1.75-33.71-15.28l-11.43-30.37
		c-5.09-13.53,1.75-28.62,15.28-33.7l0,0c13.53-5.09,28.62,1.75,33.7,15.28l11.43,30.37C290,396.99,283.16,412.08,269.64,417.17z"/>
	<line class="st6" x1="175.63" y1="262.74" x2="203.58" y2="283.05"/>
</g>
</svg>
