<?xml version="1.0" encoding="utf-8"?>
<!-- Generator: Adobe Illustrator 26.0.1, SVG Export Plug-In . SVG Version: 6.00 Build 0)  -->
<svg version="1.1" id="레이어_1" xmlns="http://www.w3.org/2000/svg" xmlns:xlink="http://www.w3.org/1999/xlink" x="0px"
	 y="0px" viewBox="0 0 500 500" style="enable-background:new 0 0 500 500;" xml:space="preserve">
<style type="text/css">
	.st0{fill:#A7E9E8;}
	.st1{fill:#FFFFFF;}
	.st2{fill:#4FD5D3;}
	.st3{fill:#FF8AC9;}
	.st4{fill:#FFB2B1;}
	.st5{fill:#FF6865;}
	.st6{fill:none;stroke:#FFFFFF;stroke-width:17;stroke-linecap:round;stroke-linejoin:round;stroke-miterlimit:10;}
	.st7{fill:#A7C0FF;}
	.st8{fill:#5281FF;}
	.st9{fill:#FFDC9B;}
	.st10{fill:#FFBB32;}
</style>
<g>
	<rect class="st7" width="500" height="500"/>
	<g>
		<path class="st1" d="M137.2,111.14h-17.59l-14.12,22.35H91.66l14.13-22.35H93.43l8.74-13.71h12.22l10.9-17.29h-12.22l8.67-13.83
			h12.29l14.01-22.22h13.83l-14.01,22.22h17.53l14.01-22.22h13.83l-14.01,22.22h12.29l-8.79,13.83h-12.22l-10.9,17.29h12.35
			l-8.74,13.71h-12.22l-14.13,22.35h-13.71L137.2,111.14z M145.82,97.44l10.9-17.29h-17.59l-10.9,17.29H145.82z"/>
		<path class="st1" d="M258.09,87.68l-4.42,11.61c-10.12,1.85-20.18,3.02-29.91,3.77l-17.93,38.46h-15.68l17.5-37.53
			c-10.08,0.43-19.43,0.49-27.57,0.62l4.01-12.84C204.05,91.69,232.44,91.32,258.09,87.68z M264.48,61.01
			c-6.53,14.01-23.64,23.95-40.75,23.83c-17.16,0.12-24.99-9.82-18.4-23.83c6.53-14.14,23.58-23.95,40.62-23.83
			C263.18,37.06,271.07,46.88,264.48,61.01z M229.72,72c8.59,0.12,16.54-3.95,19.82-10.99c3.34-7.16-0.78-11.3-9.45-11.24
			c-8.37-0.06-16.28,4.07-19.56,11.24C217.18,68.05,221.27,72.12,229.72,72z M290.56,32.61h15.56l-52.34,112.23h-15.56L290.56,32.61
			z"/>
		<path class="st1" d="M377.02,132.38H274.17l6.05-12.96h43.34l7.89-16.92h-31.48l17.62-37.78h63.59l5.76-12.35H323.2l5.87-12.59
			h79.27l-17.39,37.29h-63.34l-5.87,12.59h65.93l-5.99,12.84h-34.57l-7.89,16.92h43.83L377.02,132.38z"/>
	</g>
	<path class="st8" d="M463.32,237.6v121.66c0,28.28-22.93,51.21-51.21,51.21H90.42c-28.28,0-51.21-22.93-51.21-51.21V237.6
		c0-28.28,22.93-51.21,51.21-51.21h321.7C440.4,186.39,463.32,209.32,463.32,237.6z"/>
	<path class="st8" d="M116.68,383.43l-16.86,45.75c-2.13,5.79,4.2,11.05,9.5,7.89l62.17-37.04L116.68,383.43z"/>
	<g>
		<path class="st1" d="M126.32,294.36c-10.19,0-18.48-7.18-18.48-16.01v-2.46c0-2.9,2.35-5.26,5.26-5.26c2.9,0,5.26,2.35,5.26,5.26
			v2.46c0,2.98,3.65,5.5,7.97,5.5c4.32,0,7.97-2.52,7.97-5.5v-2.46c0-2.9,2.35-5.26,5.26-5.26s5.26,2.35,5.26,5.26v2.46
			C144.8,287.18,136.51,294.36,126.32,294.36z"/>
	</g>
	<g>
		<path class="st1" d="M198.81,294.36c-10.19,0-18.48-7.18-18.48-16.01v-2.46c0-2.9,2.35-5.26,5.26-5.26c2.9,0,5.26,2.35,5.26,5.26
			v2.46c0,2.98,3.65,5.5,7.97,5.5c4.32,0,7.97-2.52,7.97-5.5v-2.46c0-2.9,2.35-5.26,5.26-5.26s5.26,2.35,5.26,5.26v2.46
			C217.29,287.18,209,294.36,198.81,294.36z"/>
	</g>
	<g>
		<path class="st1" d="M181.72,307.77v2.46c0,8.83-8.29,16.01-18.48,16.01c-10.18,0-18.48-7.18-18.48-16.01v-2.46
			c0-2.9,2.35-5.26,5.26-5.26h26.44C179.38,302.51,181.72,304.87,181.72,307.77z"/>
	</g>
	<path class="st3" d="M392.94,296.37l-57.66,57.66l-44.35-44.35l-13.31-13.31c-12.25-12.25-12.25-32.1,0-44.35l0,0
		c12.25-12.25,32.1-12.25,44.35,0l13.31,13.31l13.31-13.31c12.25-12.25,32.1-12.25,44.35,0l0,0
		C405.19,264.27,405.19,284.13,392.94,296.37z"/>
</g>
</svg>
