<?xml version="1.0" encoding="utf-8"?>
<!-- Generator: Adobe Illustrator 26.0.1, SVG Export Plug-In . SVG Version: 6.00 Build 0)  -->
<svg version="1.1" id="레이어_1" xmlns="http://www.w3.org/2000/svg" xmlns:xlink="http://www.w3.org/1999/xlink" x="0px"
	 y="0px" viewBox="0 0 500 500" style="enable-background:new 0 0 500 500;" xml:space="preserve">
<style type="text/css">
	.st0{fill:#A7E9E8;}
	.st1{fill:#FFFFFF;}
	.st2{fill:#4FD5D3;}
	.st3{fill:#FF8AC9;}
	.st4{fill:#FFB2B1;}
	.st5{fill:#FF6865;}
	.st6{fill:none;stroke:#FFFFFF;stroke-width:17;stroke-linecap:round;stroke-linejoin:round;stroke-miterlimit:10;}
	.st7{fill:#A7C0FF;}
	.st8{fill:#5281FF;}
	.st9{fill:#FFDC9B;}
	.st10{fill:#FFBB32;}
</style>
<g>
	<rect class="st9" width="500" height="500"/>
	<g>
		<path class="st1" d="M79.27,111.2H61.67l-14.13,22.35H33.72l14.12-22.35H35.5l8.74-13.71h12.22l10.9-17.29H55.14l8.67-13.83h12.28
			L90.1,44.15h13.83L89.92,66.38h17.53l14.01-22.22h13.83l-14.01,22.22h12.29l-8.79,13.83h-12.22l-10.9,17.29H114l-8.74,13.71H93.04
			l-14.13,22.35H65.2L79.27,111.2z M87.88,97.49l10.9-17.29H81.19l-10.9,17.29H87.88z"/>
		<path class="st1" d="M191.08,80.45c-11.58,24.69-31.18,40.13-48.34,40.13c-17.22,0-22.5-15.43-10.92-40.13
			c11.37-24.51,31.06-40,48.29-40C197.27,40.45,202.45,55.94,191.08,80.45z M149.42,106.26c8.74,0.06,18.74-9.08,26.6-25.81
			c7.71-16.67,6.23-25.81-2.54-25.81c-8.58,0-18.71,9.14-26.48,25.81C139.2,97.18,140.81,106.32,149.42,106.26z M226.39,32.55h15.8
			L222.44,74.9h16.55l-6.1,13.09h-16.55L189.8,144.9h-15.8L226.39,32.55z"/>
		<path class="st1" d="M330.36,107.99H286.4l-17.16,36.79h-15.56l17.16-36.79h-43.34l5.87-12.59h102.85L330.36,107.99z
			 M272.25,37.98h78.4l-21.13,45.31h-78.4L272.25,37.98z M319.6,70.95l9.56-20.5h-47.17l-9.56,20.5H319.6z"/>
		<path class="st1" d="M372.93,37.86h53.96l-21.76,46.67h-53.96L372.93,37.86z M358.38,93.17h74.58l-14.28,30.62h-58.9l-3.51,7.53
			h62.11l-5.76,12.35h-77.54l14.57-31.24h58.65l3.34-7.16h-58.9L358.38,93.17z M395.39,72.06l10.19-21.85h-22.84l-10.19,21.85
			H395.39z M451.09,54.28h15.19l-6.05,12.96h-15.19l-10.02,21.48h-15.8l26.2-56.18h15.8L451.09,54.28z"/>
	</g>
	<path class="st10" d="M428.43,300.52V500H71.56V300.52c0-98.55,79.89-178.44,178.44-178.44c49.28,0,93.88,19.97,126.17,52.26
		S428.43,251.24,428.43,300.52z"/>
	<circle class="st1" cx="200.44" cy="259.1" r="19.47"/>
	<circle class="st1" cx="299.56" cy="259.1" r="19.47"/>
	<g>
		<g>
			<path class="st1" d="M248.58,316.81c-8.95,0-16.23-7.28-16.23-16.23c0-8.96,7.28-16.25,16.23-16.25c2.28,0,4.12,1.85,4.12,4.12
				c0,2.28-1.85,4.12-4.12,4.12c-4.4,0-7.98,3.59-7.98,8c0,4.4,3.58,7.98,7.98,7.98c2.28,0,4.12,1.85,4.12,4.12
				C252.71,314.97,250.86,316.81,248.58,316.81z"/>
		</g>
		<g>
			<path class="st1" d="M248.58,341.05c-8.95,0-16.23-7.28-16.23-16.23c0-8.96,7.28-16.25,16.23-16.25c2.28,0,4.12,1.85,4.12,4.12
				c0,2.28-1.85,4.12-4.12,4.12c-4.4,0-7.98,3.59-7.98,8c0,4.4,3.58,7.98,7.98,7.98c2.28,0,4.12,1.85,4.12,4.12
				S250.86,341.05,248.58,341.05z"/>
		</g>
	</g>
</g>
</svg>
