<?xml version="1.0" standalone="no"?>
<!DOCTYPE svg PUBLIC "-//W3C//DTD SVG 20010904//EN"
 "http://www.w3.org/TR/2001/REC-SVG-20010904/DTD/svg10.dtd">
<svg version="1.0" xmlns="http://www.w3.org/2000/svg"
 width="480.000000pt" height="480.000000pt" viewBox="0 0 480.000000 480.000000"
 preserveAspectRatio="xMidYMid meet">

<g transform="translate(0.000000,480.000000) scale(0.100000,-0.100000)"
fill="#000000" stroke="none">
<path d="M2170 4305 c-488 -61 -927 -298 -1238 -670 -740 -884 -545 -2210 419
-2841 559 -367 1276 -414 1878 -124 401 194 707 500 901 901 379 787 175 1734
-495 2297 -407 342 -942 502 -1465 437z m1278 -1292 c61 -45 85 -117 63 -184
-8 -25 -187 -210 -648 -671 -564 -563 -642 -637 -675 -643 -90 -17 -89 -17
-417 308 -168 168 -309 316 -317 334 -32 74 -1 169 66 204 39 21 110 25 143 8
12 -6 127 -115 255 -243 l232 -231 563 562 c309 309 573 567 587 573 37 15
117 6 148 -17z"/>
</g>
</svg>
