<?xml version="1.0" encoding="utf-8"?>
<!-- Generator: Adobe Illustrator 26.0.1, SVG Export Plug-In . SVG Version: 6.00 Build 0)  -->
<svg version="1.1" id="레이어_1" xmlns="http://www.w3.org/2000/svg" xmlns:xlink="http://www.w3.org/1999/xlink" x="0px"
	 y="0px" viewBox="0 0 500 500" style="enable-background:new 0 0 500 500;" xml:space="preserve">
<style type="text/css">
	.st0{fill:#989898;}
	.st1{fill:#818181;}
	.st2{enable-background:new    ;}
	.st3{fill:#757575;}
</style>
<rect class="st0" width="500" height="500"/>
<g>
	<path class="st1" d="M370.66,277.22c0,43.09-13.92,77.98-41.18,103.97C302.16,407.18,265.42,420,220.2,420h-36.22
		c-36.27,0-54.64-16.4-54.64-48.81V178.62c0-13.86,4.51-24.89,13.46-33.1c9.36-8.89,22.35-13.51,39.8-13.51h34.02
		c47.94,0,85.54,12.82,112.86,38.76C356.74,196.76,370.66,232.05,370.66,277.22z"/>
	<circle class="st0" cx="225.49" cy="221.16" r="12.18"/>
	<circle class="st0" cx="287.51" cy="221.16" r="12.18"/>
	<path class="st0" d="M256.04,278.64L256.04,278.64c-6.88,0-12.45-5.57-12.45-12.45v-15.44c0-6.88,5.57-12.45,12.45-12.45l0,0
		c6.88,0,12.45,5.57,12.45,12.45v15.44C268.49,273.07,262.92,278.64,256.04,278.64z"/>
</g>
<g class="st2">
	<path class="st3" d="M118.29,71.17c-0.02,7.76-3.92,12.62-9.32,12.62c-5.42,0-9.34-4.85-9.32-12.62
		c-0.02-7.71,3.9-12.58,9.32-12.58C114.36,58.59,118.27,63.46,118.29,71.17z M108.97,79.28c2.76,0.02,4.56-2.85,4.58-8.11
		c-0.02-5.24-1.82-8.11-4.58-8.11c-2.7,0-4.54,2.87-4.54,8.11C104.43,76.42,106.27,79.3,108.97,79.28z M122.36,56.1h4.97v13.32h5.2
		v4.11h-5.2v17.9h-4.97V56.1z"/>
	<path class="st3" d="M142.55,62.12h-7.26v-3.96h19.41v3.96h-7.1c0.02,4.15,2.66,8.46,8.42,10.21l-2.52,3.84
		c-3.96-1.24-6.73-3.78-8.33-6.99c-1.61,3.49-4.48,6.27-8.64,7.65l-2.56-3.84C139.82,71.11,142.52,66.53,142.55,62.12z M139.1,78.93
		h24.3v12.5h-4.97v-8.54H139.1V78.93z M163.4,77.38h-4.97V56.1h4.97V77.38z"/>
	<path class="st3" d="M198.7,79.55l-2.99,3.96c-3.78-1.88-6.35-5.38-7.8-9.63c-1.55,4.56-4.27,8.31-8.27,10.29l-3.07-4
		c6-2.76,8.81-9.51,8.81-16.07v-5.28h4.97v5.28C190.33,70.43,193.03,76.81,198.7,79.55z M200.25,56.1h4.97v13.63h5.2v4.19h-5.2
		v17.51h-4.97V56.1z"/>
	<path class="st3" d="M233.91,73.38l-2.52,3.88c-3.96-1.26-6.73-3.8-8.33-6.99c-1.61,3.49-4.48,6.27-8.64,7.65l-2.56-3.88
		c5.88-1.88,8.58-6.48,8.58-10.95v-0.5h-7.26v-3.96h19.41v3.96h-7.1v0.5C225.47,67.3,228.11,71.61,233.91,73.38z M217.61,79.36h5.01
		v7.49h19.6v3.96h-24.61V79.36z M236.32,56.14h4.97v25.54h-4.97V56.14z"/>
	<path class="st3" d="M256.47,58.59c5.32,0,9.28,4.87,9.28,12.58c0,7.76-3.96,12.62-9.28,12.62c-5.43,0-9.37-4.85-9.35-12.62
		C247.1,63.46,251.04,58.59,256.47,58.59z M256.47,79.28c2.68,0.02,4.48-2.85,4.5-8.11c-0.02-5.24-1.82-8.11-4.5-8.11
		c-2.76,0-4.6,2.87-4.58,8.11C251.87,76.42,253.72,79.3,256.47,79.28z M275.65,91.5h-5.01V56.1h5.01V91.5z"/>
	<path class="st3" d="M299.45,57.42c4.48,0.02,8.07,2.5,9.04,6.25h5.94V56.1h4.93v18.71h-4.93v-7.06h-5.92
		c-0.95,3.82-4.56,6.37-9.06,6.37c-5.43,0-9.43-3.45-9.39-8.38C290.02,60.88,294.02,57.44,299.45,57.42z M298.1,80.29h3.8v-3.53
		h4.58v10.73c3.92-1.79,5.59-5.08,5.59-8.29v-2.72h4.97v2.72c-0.02,3.61,1.71,7.03,6.13,8.46l-2.56,3.69
		c-3.05-1.05-5.01-3.07-6.13-5.61c-1.16,2.46-3.11,4.5-5.98,5.61l-2.02-3.05v2.74h-12.97V76.75h4.58V80.29z M299.45,70.08
		c2.68-0.02,4.6-1.67,4.62-4.35c-0.02-2.6-1.94-4.21-4.62-4.23c-2.78,0.02-4.72,1.63-4.7,4.23
		C294.74,68.41,296.68,70.06,299.45,70.08z M301.9,87.27v-3.34h-3.8v3.34H301.9z"/>
	<path class="st3" d="M342.74,68.87h6.13V56.1h4.89v35.4h-4.89V72.83h-6.07c-0.52,6.79-4.17,10.95-9.1,10.95
		c-5.36,0-9.2-4.85-9.16-12.62c-0.04-7.71,3.8-12.58,9.16-12.58C338.47,58.59,342.04,62.51,342.74,68.87z M333.7,79.28
		c2.66,0.02,4.43-2.85,4.43-8.11c0-5.24-1.77-8.11-4.43-8.11c-2.64,0-4.44,2.87-4.42,8.11C329.25,76.42,331.06,79.3,333.7,79.28z"/>
	<path class="st3" d="M390.65,87.31h-32.34v-4.08h7.22v-8.66c-2.74-1.65-4.39-4.15-4.39-7.26c0-5.73,5.59-9.49,13.28-9.51
		c7.65,0.02,13.29,3.78,13.31,9.51c-0.02,3.05-1.61,5.51-4.27,7.16v8.75h7.18V87.31z M374.43,72.91c4.99,0,8.4-2.13,8.42-5.59
		c-0.02-3.55-3.44-5.61-8.42-5.59c-5.07-0.02-8.38,2.04-8.38,5.59C366.04,70.78,369.36,72.91,374.43,72.91z M378.46,83.24v-6.87
		c-1.26,0.25-2.62,0.39-4.04,0.39c-1.42,0-2.76-0.14-4-0.37v6.85H378.46z"/>
	<path class="st3" d="M394,84.95c-0.04-1.79,1.44-3.24,3.26-3.22c1.73-0.02,3.22,1.44,3.22,3.22c0,1.8-1.49,3.26-3.22,3.26
		C395.44,88.21,393.96,86.75,394,84.95z"/>
</g>
</svg>
