<?xml version="1.0" encoding="utf-8"?>
<!-- Generator: Adobe Illustrator 26.0.1, SVG Export Plug-In . SVG Version: 6.00 Build 0)  -->
<svg version="1.1" id="레이어_1" xmlns="http://www.w3.org/2000/svg" xmlns:xlink="http://www.w3.org/1999/xlink" x="0px"
	 y="0px" viewBox="0 0 500 500" style="enable-background:new 0 0 500 500;" xml:space="preserve">
<style type="text/css">
	.st0{fill:#C2C2C2;}
	.st1{fill:#A8A8A8;}
	.st2{fill:#989898;}
</style>
<rect class="st0" width="500" height="500"/>
<path class="st1" d="M370.66,225.78c0,43.09-13.92,77.98-41.18,103.97c-27.32,25.99-64.06,38.81-109.28,38.81h-36.22
	c-36.27,0-54.64-16.4-54.64-48.81V127.18c0-13.86,4.51-24.89,13.46-33.1c9.36-8.89,22.35-13.51,39.8-13.51h34.02
	c47.94,0,85.54,12.82,112.86,38.76C356.74,145.32,370.66,180.61,370.66,225.78z"/>
<g>
	<circle class="st0" cx="225.49" cy="169.72" r="12.18"/>
	<circle class="st0" cx="287.51" cy="169.72" r="12.18"/>
	<path class="st0" d="M256.04,227.2L256.04,227.2c-6.88,0-12.45-5.57-12.45-12.45v-15.44c0-6.88,5.57-12.45,12.45-12.45l0,0
		c6.88,0,12.45,5.57,12.45,12.45v15.44C268.49,221.63,262.92,227.2,256.04,227.2z"/>
</g>
<g>
	<path class="st2" d="M118.23,413c-0.02,7.76-3.92,12.62-9.32,12.62c-5.42,0-9.34-4.85-9.32-12.62c-0.02-7.71,3.9-12.58,9.32-12.58
		C114.3,400.42,118.21,405.29,118.23,413z M108.91,421.11c2.76,0.02,4.56-2.85,4.58-8.11c-0.02-5.24-1.82-8.11-4.58-8.11
		c-2.7,0-4.54,2.87-4.54,8.11C104.37,418.25,106.21,421.13,108.91,421.11z M122.3,397.93h4.97v13.32h5.2v4.11h-5.2v17.9h-4.97
		V397.93z"/>
	<path class="st2" d="M142.49,403.95h-7.26v-3.96h19.41v3.96h-7.1c0.02,4.15,2.66,8.46,8.42,10.21l-2.52,3.84
		c-3.96-1.24-6.73-3.78-8.33-6.99c-1.61,3.49-4.48,6.27-8.64,7.65l-2.56-3.84C139.76,412.94,142.46,408.36,142.49,403.95z
		 M139.04,420.76h24.3v12.5h-4.97v-8.54h-19.33V420.76z M163.34,419.21h-4.97v-21.28h4.97V419.21z"/>
	<path class="st2" d="M198.64,421.38l-2.99,3.96c-3.78-1.88-6.35-5.38-7.8-9.63c-1.55,4.56-4.27,8.31-8.27,10.29l-3.07-4
		c6-2.76,8.81-9.51,8.81-16.07v-5.28h4.97v5.28C190.27,412.26,192.97,418.64,198.64,421.38z M200.19,397.93h4.97v13.63h5.2v4.19
		h-5.2v17.51h-4.97V397.93z"/>
	<path class="st2" d="M233.85,415.21l-2.52,3.88c-3.96-1.26-6.73-3.8-8.33-6.99c-1.61,3.49-4.48,6.27-8.64,7.65l-2.56-3.88
		c5.88-1.88,8.58-6.48,8.58-10.95v-0.5h-7.26v-3.96h19.41v3.96h-7.1v0.5C225.41,409.13,228.05,413.44,233.85,415.21z M217.55,421.19
		h5.01v7.49h19.6v3.96h-24.61V421.19z M236.26,397.97h4.97v25.54h-4.97V397.97z"/>
	<path class="st2" d="M256.41,400.42c5.32,0,9.28,4.87,9.28,12.58c0,7.76-3.96,12.62-9.28,12.62c-5.43,0-9.37-4.85-9.35-12.62
		C247.04,405.29,250.98,400.42,256.41,400.42z M256.41,421.11c2.68,0.02,4.48-2.85,4.5-8.11c-0.02-5.24-1.82-8.11-4.5-8.11
		c-2.76,0-4.6,2.87-4.58,8.11C251.81,418.25,253.66,421.13,256.41,421.11z M275.59,433.33h-5.01v-35.4h5.01V433.33z"/>
	<path class="st2" d="M299.39,399.25c4.48,0.02,8.07,2.5,9.04,6.25h5.94v-7.57h4.93v18.71h-4.93v-7.06h-5.92
		c-0.95,3.82-4.56,6.37-9.06,6.37c-5.43,0-9.43-3.45-9.39-8.38C289.96,402.71,293.96,399.27,299.39,399.25z M298.04,422.12h3.8
		v-3.53h4.58v10.73c3.92-1.79,5.59-5.08,5.59-8.29v-2.72h4.97v2.72c-0.02,3.61,1.71,7.03,6.13,8.46l-2.56,3.69
		c-3.05-1.05-5.01-3.07-6.13-5.61c-1.16,2.46-3.11,4.5-5.98,5.61l-2.02-3.05v2.74h-12.97v-14.29h4.58v3.54H298.04z M299.39,411.91
		c2.68-0.02,4.6-1.67,4.62-4.35c-0.02-2.6-1.94-4.21-4.62-4.23c-2.78,0.02-4.72,1.63-4.7,4.23
		C294.68,410.24,296.62,411.89,299.39,411.91z M301.84,429.1v-3.34h-3.8v3.34H301.84z"/>
	<path class="st2" d="M342.68,410.7h6.13v-12.77h4.89v35.4h-4.89v-18.67h-6.07c-0.52,6.79-4.17,10.95-9.1,10.95
		c-5.36,0-9.2-4.85-9.16-12.62c-0.04-7.71,3.8-12.58,9.16-12.58C338.41,400.42,341.98,404.34,342.68,410.7z M333.64,421.11
		c2.66,0.02,4.43-2.85,4.43-8.11c0-5.24-1.77-8.11-4.43-8.11c-2.64,0-4.44,2.87-4.42,8.11C329.19,418.25,331,421.13,333.64,421.11z"
		/>
	<path class="st2" d="M390.59,429.14h-32.34v-4.08h7.22v-8.66c-2.74-1.65-4.39-4.15-4.39-7.26c0-5.73,5.59-9.49,13.28-9.51
		c7.65,0.02,13.29,3.78,13.31,9.51c-0.02,3.05-1.61,5.51-4.27,7.16v8.75h7.18v4.09H390.59z M374.37,414.74
		c4.99,0,8.4-2.13,8.42-5.59c-0.02-3.55-3.44-5.61-8.42-5.59c-5.07-0.02-8.38,2.04-8.38,5.59
		C365.98,412.61,369.3,414.74,374.37,414.74z M378.4,425.07v-6.87c-1.26,0.25-2.62,0.39-4.04,0.39s-2.76-0.14-4-0.37v6.85
		C370.36,425.07,378.4,425.07,378.4,425.07z"/>
	<path class="st2" d="M393.94,426.78c-0.04-1.79,1.44-3.24,3.26-3.22c1.73-0.02,3.22,1.44,3.22,3.22c0,1.8-1.49,3.26-3.22,3.26
		C395.38,430.04,393.9,428.58,393.94,426.78z"/>
</g>
</svg>
