<?xml version="1.0" encoding="utf-8"?>
<!-- Generator: Adobe Illustrator 26.0.1, SVG Export Plug-In . SVG Version: 6.00 Build 0)  -->
<svg version="1.1" id="레이어_1" xmlns="http://www.w3.org/2000/svg" xmlns:xlink="http://www.w3.org/1999/xlink" x="0px"
	 y="0px" viewBox="0 0 500 500" style="enable-background:new 0 0 500 500;" xml:space="preserve">
<style type="text/css">
	.st0{fill:#C1C1C1;}
	.st1{fill:#A7A7A7;}
	.st2{fill:#979797;}
</style>
<rect class="st0" width="500" height="500"/>
<path class="st1" d="M370.66,225.78c0,43.09-13.92,77.98-41.18,103.97c-27.32,25.99-64.06,38.81-109.28,38.81h-36.22
	c-36.27,0-54.64-16.4-54.64-48.81V127.18c0-13.86,4.51-24.89,13.46-33.1c9.36-8.89,22.35-13.51,39.8-13.51h34.02
	c47.94,0,85.54,12.82,112.86,38.76C356.74,145.32,370.66,180.61,370.66,225.78z"/>
<g>
	<circle class="st0" cx="225.49" cy="169.72" r="12.18"/>
	<circle class="st0" cx="287.51" cy="169.72" r="12.18"/>
	<path class="st0" d="M256.04,227.2L256.04,227.2c-6.88,0-12.45-5.57-12.45-12.45v-15.44c0-6.88,5.57-12.45,12.45-12.45l0,0
		c6.88,0,12.45,5.57,12.45,12.45v15.44C268.49,221.63,262.92,227.2,256.04,227.2z"/>
</g>
<g>
	<path class="st2" d="M66.68,412.99c-0.02,7.76-3.92,12.62-9.32,12.62c-5.42,0-9.34-4.85-9.32-12.62
		c-0.02-7.71,3.9-12.58,9.32-12.58C62.76,400.42,66.66,405.29,66.68,412.99z M57.37,421.11c2.76,0.02,4.56-2.85,4.58-8.11
		c-0.02-5.24-1.82-8.11-4.58-8.11c-2.7,0-4.54,2.87-4.54,8.11C52.82,418.25,54.67,421.13,57.37,421.11z M70.76,397.93h4.97v13.31
		h5.2v4.12h-5.2v17.9h-4.97V397.93z"/>
	<path class="st2" d="M90.95,403.95h-7.26v-3.96h19.41v3.96H96c0.02,4.15,2.66,8.46,8.42,10.21L101.9,418
		c-3.96-1.24-6.74-3.79-8.33-6.99c-1.61,3.49-4.48,6.27-8.64,7.65l-2.56-3.84C88.21,412.94,90.91,408.36,90.95,403.95z M87.5,420.76
		h24.3v12.5h-4.97v-8.54H87.5V420.76z M111.8,419.21h-4.97v-21.28h4.97V419.21z"/>
	<path class="st2" d="M125.74,414.39h32.22v3.96h-32.22V414.39z M154.7,405.5c-0.02,4.29-4.99,6.85-12.85,6.83
		c-7.82,0.02-12.89-2.54-12.89-6.83c0-4.31,5.07-6.93,12.89-6.91C149.71,398.57,154.68,401.19,154.7,405.5z M129.47,420.84h24.65
		v12.03h-24.65V420.84z M141.85,408.49c4.87,0,7.72-1.01,7.72-2.99c0-2.04-2.85-3.07-7.72-3.07c-4.95,0-7.76,1.03-7.73,3.07
		C134.09,407.48,136.9,408.49,141.85,408.49z M149.27,428.91v-4.15h-14.91v4.15H149.27z"/>
	<path class="st2" d="M181.53,413.58l-2.6,3.88c-3.8-1.32-6.39-3.75-7.88-6.93c-1.55,3.69-4.41,6.58-8.66,8.02l-2.6-3.96
		c6.04-1.94,8.64-6.68,8.66-11.61v-3.22h5.01v2.99C173.44,407.46,175.86,411.83,181.53,413.58z M177.8,419.56
		c7.55-0.02,12.17,2.52,12.19,6.87c-0.02,4.37-4.64,6.85-12.19,6.83c-7.53,0.02-12.15-2.46-12.15-6.83
		C165.65,422.08,170.27,419.54,177.8,419.56z M177.8,429.41c4.7,0,7.24-1.03,7.26-2.99c-0.02-2.02-2.56-3.03-7.26-3.03
		c-4.68,0-7.22,1.01-7.22,3.03C170.59,428.39,173.13,429.41,177.8,429.41z M178.31,404.42h6.64v-6.49h4.93v20.69h-4.93v-10.17h-6.64
		V404.42z"/>
	<path class="st2" d="M209.53,410.78h3.53v-12.34h4.66v33.19h-4.66v-16.89h-3.53v9.63h-14.05v-22.79h14.05V410.78z M204.91,420.49
		V405.5h-4.81v14.98h4.81V420.49z M220.36,397.93h4.74v35.32h-4.74V397.93z"/>
	<path class="st2" d="M251.5,421.46l-2.91,3.96c-4.04-1.82-6.83-5.36-8.44-9.72c-1.59,4.77-4.48,8.62-8.79,10.58l-2.99-4.11
		c6.17-2.6,9.18-9.37,9.2-16.23v-5.28h5.01v5.28C242.55,412.41,245.5,418.91,251.5,421.46z M253.4,397.93h5.01v35.4h-5.01V397.93z"
		/>
	<path class="st2" d="M285.74,421.85l-2.68,3.88c-4.15-1.77-7.03-5.28-8.62-9.55c-1.59,4.64-4.52,8.52-8.7,10.44l-2.83-3.92
		c5.86-2.62,8.89-9.16,8.89-15.14v-2.17h-7.49v-4.04h19.95v4.04h-7.38v2.17C276.87,413.27,279.82,419.38,285.74,421.85z
		 M287.76,397.93h5.01v35.32h-5.01V397.93z"/>
	<path class="st2" d="M310.96,405.58h-11.78v-4.04h16.81c-0.04,10.56-4.15,19.7-16.03,25.54l-2.79-3.8
		C305.53,419.09,310.03,413.46,310.96,405.58z M325.42,411.48h5.01v4.08h-5.01v17.62h-4.97v-35.25h4.97V411.48z"/>
	<path class="st2" d="M350.94,399.25c4.48,0.02,8.07,2.5,9.04,6.25h5.94v-7.57h4.93v18.71h-4.93v-7.06H360
		c-0.95,3.82-4.56,6.37-9.06,6.37c-5.43,0-9.43-3.46-9.39-8.38C341.5,402.71,345.5,399.27,350.94,399.25z M349.58,422.12h3.8v-3.53
		h4.58v10.73c3.92-1.79,5.59-5.09,5.59-8.29v-2.72h4.97v2.72c-0.02,3.61,1.71,7.03,6.13,8.46l-2.56,3.69
		c-3.05-1.05-5.01-3.07-6.13-5.61c-1.17,2.46-3.11,4.5-5.98,5.61l-2.02-3.05v2.74H345v-14.29h4.58L349.58,422.12L349.58,422.12z
		 M350.94,411.91c2.68-0.02,4.6-1.67,4.62-4.35c-0.02-2.6-1.94-4.21-4.62-4.23c-2.78,0.02-4.72,1.63-4.7,4.23
		C346.22,410.24,348.16,411.89,350.94,411.91z M353.38,429.1v-3.34h-3.8v3.34H353.38z"/>
	<path class="st2" d="M394.23,410.7h6.13v-12.77h4.89v35.4h-4.89v-18.67h-6.08c-0.52,6.79-4.17,10.95-9.1,10.95
		c-5.36,0-9.2-4.85-9.16-12.62c-0.04-7.71,3.8-12.58,9.16-12.58C389.96,400.42,393.53,404.34,394.23,410.7z M385.18,421.11
		c2.66,0.02,4.42-2.85,4.42-8.11c0-5.24-1.77-8.11-4.42-8.11c-2.64,0-4.45,2.87-4.43,8.11
		C380.74,418.25,382.54,421.13,385.18,421.11z"/>
	<path class="st2" d="M442.14,429.14H409.8v-4.08h7.22v-8.66c-2.74-1.65-4.39-4.15-4.39-7.26c0-5.73,5.59-9.49,13.28-9.51
		c7.65,0.02,13.3,3.78,13.32,9.51c-0.02,3.05-1.61,5.51-4.27,7.16v8.75h7.18V429.14z M425.91,414.74c4.99,0,8.4-2.14,8.42-5.59
		c-0.02-3.55-3.44-5.61-8.42-5.59c-5.07-0.02-8.38,2.04-8.38,5.59C417.52,412.61,420.84,414.74,425.91,414.74z M429.95,425.07v-6.87
		c-1.26,0.25-2.62,0.39-4.04,0.39s-2.76-0.14-4-0.37v6.85C421.91,425.07,429.95,425.07,429.95,425.07z"/>
	<path class="st2" d="M445.48,426.77c-0.04-1.79,1.44-3.24,3.26-3.22c1.73-0.02,3.22,1.44,3.22,3.22c0,1.81-1.49,3.26-3.22,3.26
		C446.92,430.04,445.44,428.58,445.48,426.77z"/>
</g>
</svg>
