<?xml version="1.0" encoding="utf-8"?>
<!-- Generator: Adobe Illustrator 26.0.1, SVG Export Plug-In . SVG Version: 6.00 Build 0)  -->
<svg version="1.1" id="레이어_1" xmlns="http://www.w3.org/2000/svg" xmlns:xlink="http://www.w3.org/1999/xlink" x="0px"
	 y="0px" viewBox="0 0 500 500" style="enable-background:new 0 0 500 500;" xml:space="preserve">
<style type="text/css">
	.st0{fill:#989898;}
	.st1{fill:#818181;}
	.st2{fill:#757575;}
</style>
<g>
	<rect class="st0" width="500" height="500"/>
	<g>
		<path class="st1" d="M370.66,277.22c0,43.09-13.92,77.98-41.18,103.97C302.16,407.18,265.42,420,220.2,420h-36.22
			c-36.27,0-54.64-16.4-54.64-48.81V178.62c0-13.86,4.51-24.89,13.46-33.1c9.36-8.89,22.35-13.51,39.8-13.51h34.02
			c47.94,0,85.54,12.82,112.86,38.76C356.74,196.76,370.66,232.05,370.66,277.22z"/>
		<circle class="st0" cx="225.49" cy="221.16" r="12.18"/>
		<circle class="st0" cx="287.51" cy="221.16" r="12.18"/>
		<path class="st0" d="M256.04,278.64L256.04,278.64c-6.88,0-12.45-5.57-12.45-12.45v-15.44c0-6.88,5.57-12.45,12.45-12.45h0
			c6.88,0,12.45,5.57,12.45,12.45v15.44C268.49,273.07,262.92,278.64,256.04,278.64z"/>
	</g>
	<g>
		<path class="st2" d="M66.74,71.16c-0.02,7.76-3.92,12.62-9.32,12.62c-5.42,0-9.34-4.85-9.32-12.62
			c-0.02-7.71,3.9-12.58,9.32-12.58C62.82,58.59,66.72,63.46,66.74,71.16z M57.43,79.28c2.76,0.02,4.56-2.85,4.58-8.11
			c-0.02-5.24-1.82-8.11-4.58-8.11c-2.7,0-4.54,2.87-4.54,8.11C52.88,76.42,54.73,79.3,57.43,79.28z M70.82,56.1h4.97v13.31h5.2
			v4.12h-5.2v17.9h-4.97V56.1z"/>
		<path class="st2" d="M91.01,62.12h-7.26v-3.96h19.41v3.96h-7.1c0.02,4.15,2.66,8.46,8.42,10.21l-2.52,3.84
			c-3.96-1.24-6.74-3.79-8.33-6.99c-1.61,3.49-4.48,6.27-8.64,7.65l-2.56-3.84C88.27,71.11,90.97,66.53,91.01,62.12z M87.56,78.93
			h24.3v12.5h-4.97v-8.54H87.56V78.93z M111.86,77.38h-4.97V56.1h4.97V77.38z"/>
		<path class="st2" d="M125.8,72.56h32.22v3.96H125.8V72.56z M154.76,63.67c-0.02,4.29-4.99,6.85-12.85,6.83
			c-7.82,0.02-12.89-2.54-12.89-6.83c0-4.31,5.07-6.93,12.89-6.91C149.77,56.74,154.74,59.36,154.76,63.67z M129.53,79.01h24.65
			v12.03h-24.65V79.01z M141.91,66.66c4.87,0,7.72-1.01,7.72-2.99c0-2.04-2.85-3.07-7.72-3.07c-4.95,0-7.76,1.03-7.73,3.07
			C134.15,65.65,136.96,66.66,141.91,66.66z M149.33,87.08v-4.15h-14.91v4.15H149.33z"/>
		<path class="st2" d="M181.59,71.75l-2.6,3.88c-3.8-1.32-6.39-3.75-7.88-6.93c-1.55,3.69-4.41,6.58-8.66,8.02l-2.6-3.96
			c6.04-1.94,8.64-6.68,8.66-11.61v-3.22h5.01v2.99C173.5,65.63,175.92,70,181.59,71.75z M177.86,77.73
			c7.55-0.02,12.17,2.52,12.19,6.87c-0.02,4.37-4.64,6.85-12.19,6.83c-7.53,0.02-12.15-2.46-12.15-6.83
			C165.71,80.25,170.33,77.71,177.86,77.73z M177.86,87.58c4.7,0,7.24-1.03,7.26-2.99c-0.02-2.02-2.56-3.03-7.26-3.03
			c-4.68,0-7.22,1.01-7.22,3.03C170.65,86.56,173.19,87.58,177.86,87.58z M178.37,62.59h6.64V56.1h4.93v20.69h-4.93V66.62h-6.64
			V62.59z"/>
		<path class="st2" d="M209.59,68.95h3.53V56.61h4.66V89.8h-4.66V72.91h-3.53v9.63h-14.05V59.75h14.05V68.95z M204.97,78.66V63.67
			h-4.81v14.98H204.97z M220.42,56.1h4.74v35.32h-4.74V56.1z"/>
		<path class="st2" d="M251.56,79.63l-2.91,3.96c-4.04-1.82-6.83-5.36-8.44-9.72c-1.59,4.77-4.48,8.62-8.79,10.58l-2.99-4.11
			c6.17-2.6,9.18-9.37,9.2-16.23v-5.28h5.01v5.28C242.61,70.58,245.56,77.08,251.56,79.63z M253.46,56.1h5.01v35.4h-5.01V56.1z"/>
		<path class="st2" d="M285.8,80.02l-2.68,3.88c-4.15-1.77-7.03-5.28-8.62-9.55c-1.59,4.64-4.52,8.52-8.7,10.44l-2.83-3.92
			c5.86-2.62,8.89-9.16,8.89-15.14v-2.17h-7.49v-4.04h19.95v4.04h-7.38v2.17C276.93,71.44,279.88,77.55,285.8,80.02z M287.82,56.1
			h5.01v35.32h-5.01V56.1z"/>
		<path class="st2" d="M311.02,63.75h-11.78v-4.04h16.81c-0.04,10.56-4.15,19.7-16.03,25.54l-2.79-3.8
			C305.59,77.26,310.09,71.63,311.02,63.75z M325.48,69.65h5.01v4.08h-5.01v17.62h-4.97V56.1h4.97V69.65z"/>
		<path class="st2" d="M351,57.42c4.48,0.02,8.07,2.5,9.04,6.25h5.94V56.1h4.93v18.71h-4.93v-7.06h-5.92
			c-0.95,3.82-4.56,6.37-9.06,6.37c-5.43,0-9.43-3.46-9.39-8.38C341.56,60.88,345.56,57.44,351,57.42z M349.64,80.29h3.8v-3.53h4.58
			v10.73c3.92-1.79,5.59-5.09,5.59-8.29v-2.72h4.97v2.72c-0.02,3.61,1.71,7.03,6.13,8.46l-2.56,3.69c-3.05-1.05-5.01-3.07-6.13-5.61
			c-1.17,2.46-3.11,4.5-5.98,5.61l-2.02-3.05v2.74h-12.96V76.75h4.58V80.29z M351,70.08c2.68-0.02,4.6-1.67,4.62-4.35
			c-0.02-2.6-1.94-4.21-4.62-4.23c-2.78,0.02-4.72,1.63-4.7,4.23C346.28,68.41,348.22,70.06,351,70.08z M353.44,87.27v-3.34h-3.8
			v3.34H353.44z"/>
		<path class="st2" d="M394.29,68.87h6.13V56.1h4.89v35.4h-4.89V72.83h-6.08c-0.52,6.79-4.17,10.95-9.1,10.95
			c-5.36,0-9.2-4.85-9.16-12.62c-0.04-7.71,3.8-12.58,9.16-12.58C390.02,58.59,393.59,62.51,394.29,68.87z M385.24,79.28
			c2.66,0.02,4.42-2.85,4.42-8.11c0-5.24-1.77-8.11-4.42-8.11c-2.64,0-4.45,2.87-4.43,8.11C380.8,76.42,382.6,79.3,385.24,79.28z"/>
		<path class="st2" d="M442.2,87.31h-32.34v-4.08h7.22v-8.66c-2.74-1.65-4.39-4.15-4.39-7.26c0-5.73,5.59-9.49,13.28-9.51
			c7.65,0.02,13.3,3.78,13.32,9.51c-0.02,3.05-1.61,5.51-4.27,7.16v8.75h7.18V87.31z M425.97,72.91c4.99,0,8.4-2.14,8.42-5.59
			c-0.02-3.55-3.44-5.61-8.42-5.59c-5.07-0.02-8.38,2.04-8.38,5.59C417.58,70.78,420.9,72.91,425.97,72.91z M430.01,83.24v-6.87
			c-1.26,0.25-2.62,0.39-4.04,0.39c-1.42,0-2.76-0.14-4-0.37v6.85H430.01z"/>
		<path class="st2" d="M445.54,84.94c-0.04-1.79,1.44-3.24,3.26-3.22c1.73-0.02,3.22,1.44,3.22,3.22c0,1.81-1.49,3.26-3.22,3.26
			C446.98,88.21,445.5,86.75,445.54,84.94z"/>
	</g>
</g>
</svg>
