<svg width="527" height="235" viewBox="0 0 527 235" fill="none" xmlns="http://www.w3.org/2000/svg">
<path fill-rule="evenodd" clip-rule="evenodd" d="M35.6085 234.362H138.924H138.925C138.524 234.362 138.125 234.35 137.729 234.328C134.902 234.168 132.209 233.446 129.738 232.259C128.097 231.471 126.553 230.478 125.134 229.308C124.201 228.54 123.323 227.696 122.505 226.785C121.656 225.839 120.873 224.821 120.163 223.74C117.358 219.463 115.703 214.191 115.703 208.487V164.322L35.6085 234.362ZM115.702 164.322H59.1786V162.109C59.1786 160.231 58.2492 158.533 56.739 157.3C55.2287 156.068 53.157 155.306 50.8529 155.306C47.1031 155.306 43.9342 157.326 42.8886 160.108C42.2432 159.818 41.5203 159.656 40.7588 159.656C38.061 159.656 35.8408 161.702 35.5633 164.322C25.9145 164.335 17.1757 168.253 10.8508 174.578C4.51292 180.916 0.588867 189.673 0.588867 199.341C0.588867 218.684 16.2722 234.362 35.6085 234.362" fill="#C2C2C2"/>
<path d="M176.707 156.861V214.877C176.707 225.636 184.536 234.354 194.197 234.354H254.265C263.927 234.354 271.756 225.636 271.756 214.877V187.828H245.507C241.325 187.828 237.543 185.943 234.806 182.897C232.07 179.851 230.379 175.636 230.379 170.976C230.379 161.657 237.149 154.112 245.507 154.112H271.691C270.407 126.153 249.651 103.919 224.235 103.919C211.107 103.919 199.232 109.844 190.628 119.428C182.025 129.006 176.707 142.243 176.707 156.861Z" fill="#D9DEFF"/>
<path d="M340.244 233.877C338.805 234.194 337.321 234.354 335.798 234.354H138.924C126.093 234.354 115.702 222.77 115.702 208.481V136.77C115.702 62.084 170.549 -0.068992 237.587 0.0729967C291.575 0.189169 337.314 39.482 353.107 93.7927C343.613 104.138 337.792 117.989 337.792 133.136V229.928C337.792 231.664 338.792 233.161 340.244 233.877Z" fill="#F5F5F5"/>
<path d="M271.756 156.861V214.877C271.756 225.636 263.927 234.354 254.265 234.354H194.197C184.536 234.354 176.707 225.636 176.707 214.877V187.828H202.956C207.138 187.828 210.92 185.943 213.656 182.897C216.393 179.851 218.084 175.636 218.084 170.976C218.084 161.657 211.314 154.112 202.956 154.112H176.772C178.056 126.153 198.812 103.919 224.228 103.919C237.356 103.919 249.231 109.844 257.834 119.428C266.437 129.006 271.756 142.243 271.756 156.861Z" fill="#A8A8A8"/>
<path fill-rule="evenodd" clip-rule="evenodd" d="M484.983 234.354C507.669 234.354 526.425 216.109 526.399 193.423C526.386 181.173 521.416 170.092 513.387 162.063C505.346 154.021 494.238 149.051 481.969 149.051H468.623C464.002 149.051 459.825 147.18 456.798 144.153C453.771 141.126 451.9 136.944 451.9 132.33C451.9 101.731 427.807 76.7533 397.551 75.3399C380.028 74.5202 364.1 81.8133 353.108 93.7984C353.108 93.7991 353.108 93.7991 353.108 93.7991C343.615 104.145 337.793 117.995 337.793 133.143V229.934C337.793 231.67 338.793 233.168 340.246 233.883C340.839 234.187 341.504 234.354 342.214 234.354H484.983Z" fill="#757575"/>
<path d="M230.404 133.543C232.086 133.543 233.45 132.179 233.45 130.497C233.45 128.814 232.086 127.451 230.404 127.451C228.722 127.451 227.357 128.814 227.357 130.497C227.357 132.179 228.722 133.543 230.404 133.543Z" fill="white"/>
<path d="M245.913 133.543C247.595 133.543 248.96 132.179 248.96 130.497C248.96 128.814 247.595 127.451 245.913 127.451C244.231 127.451 242.867 128.814 242.867 130.497C242.867 132.179 244.231 133.543 245.913 133.543Z" fill="white"/>
<path d="M238.156 141.792C235.31 141.792 233.335 140.288 233.212 140.191C232.586 139.701 232.47 138.79 232.96 138.164C233.451 137.538 234.348 137.422 234.981 137.906C235.116 138.01 237.975 140.094 241.422 137.842C242.093 137.403 242.984 137.59 243.422 138.261C243.861 138.926 243.674 139.823 243.003 140.262C241.254 141.411 239.595 141.792 238.156 141.792Z" fill="white"/>
<path d="M374.703 115.717C377.048 115.717 378.95 113.816 378.95 111.47C378.95 109.125 377.048 107.224 374.703 107.224C372.357 107.224 370.456 109.125 370.456 111.47C370.456 113.816 372.357 115.717 374.703 115.717Z" fill="white"/>
<path d="M396.318 115.717C398.663 115.717 400.564 113.816 400.564 111.47C400.564 109.125 398.663 107.224 396.318 107.224C393.972 107.224 392.071 109.125 392.071 111.47C392.071 113.816 393.972 115.717 396.318 115.717Z" fill="white"/>
<path d="M34.7894 188.364C36.7462 188.364 38.3326 186.777 38.3326 184.82C38.3326 182.863 36.7462 181.277 34.7894 181.277C32.8324 181.277 31.2461 182.863 31.2461 184.82C31.2461 186.777 32.8324 188.364 34.7894 188.364Z" fill="#5B5B5B"/>
<path d="M52.8411 188.364C54.798 188.364 56.3844 186.777 56.3844 184.82C56.3844 182.863 54.798 181.277 52.8411 181.277C50.8843 181.277 49.2979 182.863 49.2979 184.82C49.2979 186.777 50.8843 188.364 52.8411 188.364Z" fill="#5B5B5B"/>
<g opacity="0.8">
<path opacity="0.8" d="M49.743 193.308V194.114C49.743 196.993 47.0387 199.336 43.7149 199.336C40.3908 199.336 37.6865 196.993 37.6865 194.114V193.308C37.6865 192.365 38.4546 191.591 39.4033 191.591H48.0327C48.9814 191.591 49.7488 192.359 49.7488 193.308H49.743Z" fill="#5B5B5B"/>
</g>
<path fill-rule="evenodd" clip-rule="evenodd" d="M353.109 45.1932L353.108 45.1939L337.676 29.7616L333.042 25.1347C328.783 20.8686 328.783 13.9628 333.042 9.70316C335.172 7.56687 337.967 6.50195 340.761 6.50195C343.556 6.50195 346.344 7.56687 348.474 9.70316L353.108 14.3307H353.109L357.743 9.70316C359.872 7.56687 362.661 6.50195 365.455 6.50195C368.25 6.50195 371.044 7.56687 373.174 9.70316C377.434 13.9628 377.434 20.8686 373.174 25.1347L368.54 29.7616L353.109 45.1939V45.1932Z" fill="#5B5B5B"/>
<path fill-rule="evenodd" clip-rule="evenodd" d="M247.805 57.6567C249.409 57.6567 250.709 58.9566 250.709 60.5611V61.9228C250.709 63.073 252.086 64.9627 255.111 64.9627C258.135 64.9627 259.512 63.073 259.512 61.9228V60.5611C259.512 58.9566 260.813 57.6567 262.417 57.6567C264.02 57.6567 265.321 58.9566 265.321 60.5611V61.9228C265.321 67.3423 260.167 70.7713 255.111 70.7713C250.055 70.7713 244.9 67.3423 244.9 61.9228V60.5611C244.9 58.9566 246.201 57.6567 247.805 57.6567Z" fill="#5B5B5B"/>
<path fill-rule="evenodd" clip-rule="evenodd" d="M287.864 57.6567C289.468 57.6567 290.768 58.9566 290.768 60.5611V61.9228C290.768 63.073 292.146 64.9627 295.17 64.9627C298.194 64.9627 299.571 63.073 299.571 61.9228V60.5611C299.571 58.9566 300.872 57.6567 302.476 57.6567C304.08 57.6567 305.38 58.9566 305.38 60.5611V61.9228C305.38 67.3423 300.226 70.7713 295.17 70.7713C290.114 70.7713 284.959 67.3423 284.959 61.9228V60.5611C284.959 58.9566 286.26 57.6567 287.864 57.6567Z" fill="#5B5B5B"/>
<path d="M285.721 78.1807V79.5425C285.721 84.4217 281.139 88.391 275.511 88.391C269.883 88.391 265.301 84.4217 265.301 79.5425V78.1807C265.301 76.5801 266.598 75.2764 268.205 75.2764H282.817C284.424 75.2764 285.721 76.5801 285.721 78.1807Z" fill="#5B5B5B"/>
</svg>
