<svg width="24" height="24" viewBox="0 0 24 24" fill="none" xmlns="http://www.w3.org/2000/svg">
<path fill-rule="evenodd" clip-rule="evenodd" d="M21.5 12C21.5 13.9089 21.5 15.1963 21.4556 15.9065C21.3668 17.6379 20.8785 18.9696 19.9019 19.9019C18.9252 20.8341 17.6379 21.3668 15.9065 21.4556C15.1963 21.5 13.8645 21.5 12 21.5C10.0911 21.5 8.80374 21.5 8.09346 21.4556C6.36215 21.3668 5.03037 20.8785 4.09813 19.9019C3.16589 18.9696 2.63318 17.6379 2.54439 15.9065C2.5 15.1963 2.5 13.8645 2.5 12C2.5 10.1355 2.5 8.80374 2.54439 8.09346C2.63318 6.36215 3.1215 5.03037 4.09813 4.09813C5.03037 3.16589 6.36215 2.63318 8.09346 2.54439C8.80374 2.5 10.1355 2.5 12 2.5C13.9089 2.5 15.1963 2.5 15.9065 2.54439C17.6379 2.63318 18.9696 3.1215 19.9019 4.09813C20.8341 5.07477 21.3668 6.36215 21.4556 8.09346C21.4556 8.3625 21.462 8.71434 21.4699 9.1514V9.15149V9.1516V9.15173L21.4699 9.15191V9.152V9.15213C21.4829 9.86883 21.5 10.8146 21.5 12ZM12.9545 4H12H11.0455H9.72727C9.40909 4 9 4 8.5 4.04545C8 4.04545 7.54545 4.09091 7.18182 4.18182C6.81818 4.22727 6.5 4.31818 6.27273 4.40909C5.86364 4.59091 5.5 4.81818 5.13636 5.13636C4.81818 5.45455 4.59091 5.81818 4.40909 6.27273C4.31818 6.5 4.22727 6.81818 4.18182 7.18182C4.13636 7.54545 4.09091 7.95455 4.04545 8.5C4.04545 8.77813 4.03139 9.02812 4.01891 9.24999L4.01891 9.25L4.01891 9.25C4.00895 9.42699 4 9.58608 4 9.72727V11.0455V12V12.9545V14.2727C4 14.5909 4 15 4.04545 15.5C4.04545 16 4.09091 16.4545 4.18182 16.8182C4.21402 16.947 4.24052 17.0701 4.26536 17.1855C4.31064 17.3958 4.35039 17.5805 4.40909 17.7273C4.59091 18.1364 4.81818 18.5 5.13636 18.8636C5.45455 19.1818 5.81818 19.4091 6.27273 19.5909C6.5 19.6818 6.81818 19.7727 7.18182 19.8182C7.54545 19.8636 7.95455 19.9091 8.5 19.9545C9.04545 20 9.40909 20 9.72727 20H11.0455H12H12.9545H14.2727C14.5909 20 15 20 15.5 19.9545C16 19.9545 16.4545 19.9091 16.8182 19.8182C17.1818 19.7727 17.5 19.6818 17.7273 19.5909C18.1364 19.4091 18.5 19.1818 18.8636 18.8636C19.1818 18.5455 19.4091 18.1818 19.5909 17.7273C19.6818 17.5 19.7727 17.1818 19.8182 16.8182C19.8636 16.4545 19.9091 16.0455 19.9545 15.5C19.9545 15.2219 19.9686 14.9719 19.9811 14.7501V14.7501V14.75V14.75C19.991 14.573 20 14.4139 20 14.2727V12.9545V12V11.0455V9.72727C20 9.40909 20 9 19.9545 8.5C19.9545 8 19.9091 7.54545 19.8182 7.18182C19.7727 6.81818 19.6818 6.5 19.5909 6.27273C19.4091 5.86364 19.1818 5.5 18.8636 5.13636C18.5455 4.81818 18.1818 4.59091 17.7273 4.40909C17.5 4.31818 17.1818 4.22727 16.8182 4.18182C16.4545 4.13636 16.0455 4.09091 15.5 4.04545C15.2219 4.04545 14.9719 4.03139 14.75 4.01891C14.573 4.00895 14.4139 4 14.2727 4H12.9545ZM17 13C17 11.5909 16.5 10.4091 15.5455 9.45455C14.5909 8.45455 13.4091 8 12 8C10.5909 8 9.40909 8.5 8.45455 9.45455C7.5 10.4545 7 11.5909 7 13C7 14.4091 7.5 15.5909 8.45455 16.5455C9.45455 17.5 10.5909 18 12 18C13.4091 18 14.5909 17.5 15.5455 16.5455C16.5 15.5455 17 14.4091 17 13ZM14.4792 15.472C15.1597 14.7867 15.5 13.9545 15.5 13.0245C15.5 12.0944 15.1597 11.2133 14.4792 10.528C13.7986 9.84266 12.9722 9.5 12 9.5C11.0278 9.5 10.2014 9.84266 9.52083 10.528C8.84028 11.2133 8.5 12.0455 8.5 13.0245C8.5 14.0035 8.84028 14.8357 9.52083 15.472C10.2014 16.1573 11.0278 16.5 12 16.5C12.9722 16.5 13.7986 16.1573 14.4792 15.472ZM18.3197 6.65985C18.3197 6.34758 18.1859 6.07993 17.9628 5.85688C17.7398 5.63383 17.4721 5.5 17.1599 5.5C16.8476 5.5 16.5799 5.63383 16.3569 5.85688C16.1338 6.07993 16 6.34758 16 6.65985C16 6.97212 16.1338 7.23978 16.3569 7.46283C16.5799 7.68587 16.8476 7.8197 17.1599 7.8197C17.4721 7.8197 17.7398 7.68587 17.9628 7.46283C18.1859 7.23978 18.3197 6.97212 18.3197 6.65985Z" fill="#757575"/>
</svg>
