<svg width="118" height="28" viewBox="0 0 118 28" fill="none" xmlns="http://www.w3.org/2000/svg">
<path d="M14.5379 28C22.567 28 29.0759 21.732 29.0759 14C29.0759 6.26801 22.567 0 14.5379 0C6.50886 0 0 6.26801 0 14C0 21.732 6.50886 28 14.5379 28Z" fill="#DBDBDB"/>
<path d="M15.9331 13.2263C16.7035 13.2263 17.3281 12.6248 17.3281 11.8829C17.3281 11.141 16.7035 10.5396 15.9331 10.5396C15.1626 10.5396 14.5381 11.141 14.5381 11.8829C14.5381 12.6248 15.1626 13.2263 15.9331 13.2263Z" fill="#757575"/>
<path d="M23.0268 13.2263C23.7973 13.2263 24.4218 12.6248 24.4218 11.8829C24.4218 11.141 23.7973 10.5396 23.0268 10.5396C22.2564 10.5396 21.6318 11.141 21.6318 11.8829C21.6318 12.6248 22.2564 13.2263 23.0268 13.2263Z" fill="#757575"/>
<path d="M22.3237 14.9172V15.2859C22.3237 16.6128 21.0312 17.6928 19.4414 17.6928C17.8515 17.6928 16.5591 16.6128 16.5591 15.2859V14.9172C16.5591 14.4826 16.9249 14.127 17.3797 14.127H21.5031C21.9544 14.127 22.3237 14.4826 22.3237 14.9172Z" fill="#757575"/>
<path d="M41.4184 10.1466V10.9006C41.4184 11.6677 42.0646 12.2933 42.8647 12.2933H50.9919C51.9355 12.2933 52.7014 13.0309 52.7014 13.9396V14.5981C52.7014 15.5069 51.9355 16.2444 50.9919 16.2444H39.0387C37.5207 16.2444 36.2898 15.0591 36.2898 13.5972V7.44996C36.2898 5.98806 37.5207 4.80273 39.0387 4.80273H50.9919C51.9355 4.80273 52.7014 5.54027 52.7014 6.44902V7.10753C52.7014 8.01628 51.9355 8.75381 50.9919 8.75381H42.8647C42.0646 8.75381 41.4184 9.37611 41.4184 10.1466Z" fill="#C2C2C2"/>
<path d="M66.5695 7.44996V9.37611C66.5695 10.4857 65.6361 11.3879 64.4805 11.3879H62.2512C61.8033 11.3879 61.4409 11.7369 61.4409 12.1682C61.4409 12.5995 61.8033 12.9486 62.2512 12.9486H64.86C65.8036 12.9486 66.5695 13.6861 66.5695 14.5948C66.5695 15.5036 65.8036 16.2411 64.86 16.2411H59.0612C57.5431 16.2411 56.3123 15.0558 56.3123 13.5939V11.6677C56.3123 10.5581 57.2457 9.65598 58.4013 9.65598H60.6306C61.0785 9.65598 61.4409 9.30697 61.4409 8.87564C61.4409 8.44432 61.0785 8.0953 60.6306 8.0953H58.0218C57.0781 8.0953 56.3123 7.35777 56.3123 6.44902C56.3123 5.54027 57.0781 4.80273 58.0218 4.80273H63.8206C65.3386 4.80273 66.5695 5.98806 66.5695 7.44996Z" fill="#C2C2C2"/>
<path d="M75.5104 9.48926V10.7075C75.5104 11.7348 74.6453 12.5678 73.5786 12.5678H72.5734V16.7033C72.5734 17.4704 71.9272 18.096 71.1271 18.096H69.9133C69.1167 18.096 68.467 17.4737 68.467 16.7033V5.33074C68.467 4.56358 69.1132 3.93799 69.9133 3.93799H71.1271C71.9237 3.93799 72.5734 4.56028 72.5734 5.33074V7.62896H73.5786C74.6453 7.62896 75.5104 8.46198 75.5104 9.48926Z" fill="#C2C2C2"/>
<path d="M72.8904 21.5023V22.6712C72.8904 23.4384 72.2442 24.0639 71.4441 24.0639H59.2277C57.7096 24.0639 56.4788 22.8786 56.4788 21.4167V19.27C56.4788 18.2427 57.3438 17.4097 58.4105 17.4097H60.0141C61.0808 17.4097 61.9459 18.2427 61.9459 19.27V19.3358C61.9459 19.7671 62.3083 20.1162 62.7562 20.1162H71.4407C72.2442 20.1096 72.8904 20.7319 72.8904 21.5023Z" fill="#C2C2C2"/>
<path d="M54.07 21.5036V22.6692C54.07 23.4397 53.4238 24.0619 52.6237 24.0619H36.3694C35.5693 24.0619 34.9231 23.4397 34.9231 22.6692V21.5036C34.9231 20.7332 35.5693 20.1109 36.3694 20.1109H41.9322V18.8564C41.9322 17.8291 42.7972 16.9961 43.864 16.9961H45.1291C46.1958 16.9961 47.0608 17.8291 47.0608 18.8564V20.1109H52.6237C53.4238 20.1109 54.07 20.7332 54.07 21.5036Z" fill="#C2C2C2"/>
<path d="M83.9077 10.1466V10.9006C83.9077 11.6677 84.5539 12.2933 85.3539 12.2933H93.4811C94.4248 12.2933 95.1907 13.0309 95.1907 13.9396V14.5981C95.1907 15.5069 94.4248 16.2444 93.4811 16.2444H81.528C80.0099 16.2444 78.7791 15.0591 78.7791 13.5972V7.44996C78.7791 5.98806 80.0099 4.80273 81.528 4.80273H93.4811C94.4248 4.80273 95.1907 5.54027 95.1907 6.44902V7.10753C95.1907 8.01628 94.4248 8.75381 93.4811 8.75381H85.3539C84.5539 8.75381 83.9077 9.37611 83.9077 10.1466Z" fill="#C2C2C2"/>
<path d="M109.058 7.44996V9.37611C109.058 10.4857 108.124 11.3879 106.968 11.3879H104.739C104.291 11.3879 103.929 11.7369 103.929 12.1682C103.929 12.5995 104.291 12.9486 104.739 12.9486H107.348C108.292 12.9486 109.058 13.6861 109.058 14.5948C109.058 15.5036 108.292 16.2411 107.348 16.2411H101.549C100.031 16.2411 98.8003 15.0558 98.8003 13.5939V11.6677C98.8003 10.5581 99.7337 9.65598 100.889 9.65598H103.119C103.566 9.65598 103.929 9.30697 103.929 8.87564C103.929 8.44432 103.566 8.0953 103.119 8.0953H100.51C99.5662 8.0953 98.8003 7.35777 98.8003 6.44902C98.8003 5.54027 99.5662 4.80273 100.51 4.80273H106.309C107.827 4.80273 109.058 5.98806 109.058 7.44996Z" fill="#C2C2C2"/>
<path d="M118 9.48926V10.7075C118 11.7348 117.135 12.5678 116.068 12.5678H115.063V16.7033C115.063 17.4704 114.417 18.096 113.617 18.096H112.403C111.606 18.096 110.957 17.4737 110.957 16.7033V5.33074C110.957 4.56358 111.603 3.93799 112.403 3.93799H113.617C114.413 3.93799 115.063 4.56028 115.063 5.33074V7.62896H116.068C117.135 7.62896 118 8.46198 118 9.48926Z" fill="#C2C2C2"/>
<path d="M115.38 21.5023V22.6712C115.38 23.4384 114.734 24.0639 113.934 24.0639H101.718C100.2 24.0639 98.9688 22.8786 98.9688 21.4167V19.27C98.9688 18.2427 99.8338 17.4097 100.901 17.4097H102.504C103.571 17.4097 104.436 18.2427 104.436 19.27V19.3358C104.436 19.7671 104.798 20.1162 105.246 20.1162H113.931C114.734 20.1096 115.38 20.7319 115.38 21.5023Z" fill="#C2C2C2"/>
<path d="M96.5578 21.5036V22.6692C96.5578 23.4397 95.9115 24.0619 95.1115 24.0619H78.8572C78.0571 24.0619 77.4109 23.4397 77.4109 22.6692V21.5036C77.4109 20.7332 78.0571 20.1109 78.8572 20.1109H84.42V18.8564C84.42 17.8291 85.285 16.9961 86.3518 16.9961H87.6169C88.6836 16.9961 89.5486 17.8291 89.5486 18.8564V20.1109H95.1115C95.9115 20.1109 96.5578 20.7332 96.5578 21.5036Z" fill="#C2C2C2"/>
</svg>
