<svg width="24" height="24" viewBox="0 0 24 24" fill="none" xmlns="http://www.w3.org/2000/svg">
<path fill-rule="evenodd" clip-rule="evenodd" d="M12 1.5C6.20101 1.5 1.5 6.20101 1.5 12C1.5 17.799 6.20101 22.5 12 22.5C17.799 22.5 22.5 17.799 22.5 12C22.5 9.21523 21.3938 6.54451 19.4246 4.57538C17.4555 2.60625 14.7848 1.5 12 1.5ZM11.4286 5.50001H12.5714C14.465 5.50001 16 7.03503 16 8.92858C16 10.8221 14.465 12.3571 12.5714 12.3571V14.2619H11.0476V10.8333H12.5714C13.6234 10.8333 14.4762 9.98055 14.4762 8.92858C14.4762 7.87661 13.6234 7.02382 12.5714 7.02382H11.4286C10.3766 7.02382 9.52382 7.87661 9.52382 8.92858V9.30953H8.00001V8.92858C7.99798 8.01864 8.35855 7.14539 9.00197 6.50197C9.64539 5.85855 10.5186 5.49798 11.4286 5.50001ZM12.9524 17.3095C12.9524 17.9407 12.4407 18.4524 11.8095 18.4524C11.1783 18.4524 10.6667 17.9407 10.6667 17.3095C10.6667 16.6783 11.1783 16.1667 11.8095 16.1667C12.4407 16.1667 12.9524 16.6783 12.9524 17.3095ZM3 12C3 16.9706 7.02944 21 12 21C16.9706 21 21 16.9706 21 12C21 7.02944 16.9706 3 12 3C7.02944 3 3 7.02944 3 12Z" fill="#757575"/>
</svg>
