<?xml version="1.0" encoding="utf-8"?>
<!-- Generator: Adobe Illustrator 26.0.1, SVG Export Plug-In . SVG Version: 6.00 Build 0)  -->
<svg version="1.1" id="레이어_1" xmlns="http://www.w3.org/2000/svg" xmlns:xlink="http://www.w3.org/1999/xlink" x="0px"
	 y="0px" viewBox="0 0 380 130" style="enable-background:new 0 0 380 130;" xml:space="preserve">
<style type="text/css">
	.st0{fill:#FFDC65;}
	.st1{fill:#626CFA;}
</style>
<g>
	<g>
		<circle class="st0" cx="59.96" cy="65" r="42.52"/>
		<circle class="st1" cx="64.04" cy="58.57" r="4.08"/>
		<circle class="st1" cx="84.79" cy="58.57" r="4.08"/>
		<g>
			<path class="st1" d="M82.73,67.79v1.12c0,4.03-3.78,7.31-8.43,7.31c-4.65,0-8.43-3.28-8.43-7.31v-1.12c0-1.32,1.07-2.4,2.4-2.4
				h12.06C81.65,65.39,82.73,66.47,82.73,67.79z"/>
		</g>
	</g>
	<g>
		<path class="st1" d="M138.58,53.3v2.29c0,2.33,1.89,4.23,4.23,4.23h23.77c2.76,0,5,2.24,5,5v2c0,2.76-2.24,5-5,5h-34.96
			c-4.44,0-8.04-3.6-8.04-8.04V45.11c0-4.44,3.6-8.04,8.04-8.04h34.96c2.76,0,5,2.24,5,5v2c0,2.76-2.24,5-5,5h-23.77
			C140.47,49.07,138.58,50.96,138.58,53.3z"/>
		<path class="st1" d="M212.14,45.11v5.85c0,3.37-2.73,6.11-6.11,6.11h-6.52c-1.31,0-2.37,1.06-2.37,2.37v0
			c0,1.31,1.06,2.37,2.37,2.37h7.63c2.76,0,5,2.24,5,5v0c0,2.76-2.24,5-5,5h-16.96c-4.44,0-8.04-3.6-8.04-8.04v-5.85
			c0-3.37,2.73-6.11,6.11-6.11h6.52c1.31,0,2.37-1.06,2.37-2.37v0c0-1.31-1.06-2.37-2.37-2.37h-7.63c-2.76,0-5-2.24-5-5v0
			c0-2.76,2.24-5,5-5h16.96C208.54,37.07,212.14,40.67,212.14,45.11z"/>
		<path class="st1" d="M238.29,51.3V55c0,3.12-2.53,5.65-5.65,5.65h-2.94v12.56c0,2.33-1.89,4.23-4.23,4.23h-3.55
			c-2.33,0-4.23-1.89-4.23-4.23V38.67c0-2.33,1.89-4.23,4.23-4.23h3.55c2.33,0,4.23,1.89,4.23,4.23v6.98h2.94
			C235.76,45.65,238.29,48.18,238.29,51.3z"/>
		<path class="st1" d="M230.63,87.79v3.55c0,2.33-1.89,4.23-4.23,4.23h-35.73c-4.44,0-8.04-3.6-8.04-8.04v-6.52
			c0-3.12,2.53-5.65,5.65-5.65h4.69c3.12,0,5.65,2.53,5.65,5.65v0.2c0,1.31,1.06,2.37,2.37,2.37h25.4
			C228.74,83.56,230.63,85.45,230.63,87.79z"/>
		<path class="st1" d="M175.58,87.79v3.54c0,2.34-1.89,4.23-4.23,4.23h-47.54c-2.34,0-4.23-1.89-4.23-4.23v-3.54
			c0-2.34,1.89-4.23,4.23-4.23h16.27v-3.81c0-3.12,2.53-5.65,5.65-5.65h3.7c3.12,0,5.65,2.53,5.65,5.65v3.81h16.27
			C173.69,83.56,175.58,85.45,175.58,87.79z"/>
		<path class="st1" d="M262.85,53.3v2.29c0,2.33,1.89,4.23,4.23,4.23h23.77c2.76,0,5,2.24,5,5v2c0,2.76-2.24,5-5,5h-34.96
			c-4.44,0-8.04-3.6-8.04-8.04V45.11c0-4.44,3.6-8.04,8.04-8.04h34.96c2.76,0,5,2.24,5,5v2c0,2.76-2.24,5-5,5h-23.77
			C264.74,49.07,262.85,50.96,262.85,53.3z"/>
		<path class="st1" d="M336.41,45.11v5.85c0,3.37-2.73,6.11-6.11,6.11h-6.52c-1.31,0-2.37,1.06-2.37,2.37v0
			c0,1.31,1.06,2.37,2.37,2.37h7.63c2.76,0,5,2.24,5,5v0c0,2.76-2.24,5-5,5h-16.96c-4.44,0-8.04-3.6-8.04-8.04v-5.85
			c0-3.37,2.73-6.11,6.11-6.11h6.52c1.31,0,2.37-1.06,2.37-2.37v0c0-1.31-1.06-2.37-2.37-2.37h-7.63c-2.76,0-5-2.24-5-5v0
			c0-2.76,2.24-5,5-5h16.96C332.81,37.07,336.41,40.67,336.41,45.11z"/>
		<path class="st1" d="M362.56,51.3V55c0,3.12-2.53,5.65-5.65,5.65h-2.94v12.56c0,2.33-1.89,4.23-4.23,4.23h-3.55
			c-2.33,0-4.23-1.89-4.23-4.23V38.67c0-2.33,1.89-4.23,4.23-4.23h3.55c2.33,0,4.23,1.89,4.23,4.23v6.98h2.94
			C360.03,45.65,362.56,48.18,362.56,51.3z"/>
		<path class="st1" d="M354.9,87.79v3.55c0,2.33-1.89,4.23-4.23,4.23h-35.73c-4.44,0-8.04-3.6-8.04-8.04v-6.52
			c0-3.12,2.53-5.65,5.65-5.65h4.69c3.12,0,5.65,2.53,5.65,5.65v0.2c0,1.31,1.06,2.37,2.37,2.37h25.4
			C353.01,83.56,354.9,85.45,354.9,87.79z"/>
		<path class="st1" d="M299.85,87.79v3.54c0,2.34-1.89,4.23-4.23,4.23h-47.54c-2.34,0-4.23-1.89-4.23-4.23v-3.54
			c0-2.34,1.89-4.23,4.23-4.23h16.27v-3.81c0-3.12,2.53-5.65,5.65-5.65h3.7c3.12,0,5.65,2.53,5.65,5.65v3.81h16.27
			C297.96,83.56,299.85,85.45,299.85,87.79z"/>
	</g>
</g>
</svg>
