<?xml version="1.0" encoding="utf-8"?>
<!-- Generator: Adobe Illustrator 26.0.1, SVG Export Plug-In . SVG Version: 6.00 Build 0)  -->
<svg version="1.1" id="레이어_1" xmlns="http://www.w3.org/2000/svg" xmlns:xlink="http://www.w3.org/1999/xlink" x="0px"
	 y="0px" viewBox="0 0 380 130" style="enable-background:new 0 0 380 130;" xml:space="preserve">
<style type="text/css">
	.st0{fill:#FFFFFF;}
	.st1{fill:#626CFA;}
	.st2{fill:#FFDC65;}
</style>
<path class="st0" d="M350,130H30c-16.57,0-30-13.43-30-30V30C0,13.43,13.43,0,30,0h320c16.57,0,30,13.43,30,30v70
	C380,116.57,366.57,130,350,130z"/>
<g>
	<path class="st1" d="M164.31,59.01h-24.29c-2.23,0-3.31-1.11-3.31-3.41v-3.83c0-2.22,1.08-3.34,3.31-3.34h24.42
		c1.33,0,2.41-0.56,3.18-1.74c0.7-1.04,1.02-2.37,1.02-3.9c0-1.67-0.39-3.06-1.09-4.25c-0.82-1.25-1.9-1.88-3.24-1.88h-38.6
		c-1.4,0-2.61,0.56-3.69,1.61c-1.21,1.11-1.84,2.5-1.84,4.1v20.68c0,2.09,0.38,3.83,1.14,5.22c0.96,1.68,2.42,2.51,4.39,2.51h38.73
		c1.33,0,2.41-0.56,3.18-1.74c0.7-1.04,1.02-2.37,1.02-3.97c0-1.6-0.39-2.92-1.09-4.11C166.73,59.64,165.65,59.01,164.31,59.01z
		 M169.4,83.31h-16.66V77.6c0-3.62-3.82-5.91-8.21-5.91c-2.16,0-4,0.48-5.47,1.46c-1.59,1.04-2.41,2.57-2.41,4.45v5.71h-17.81
		c-2.99,0-4.77,2.65-4.77,5.78c0,3.27,1.91,6.06,4.77,6.06h50.56c2.48,0,3.81-2.58,3.81-5.71C173.21,86.1,171.69,83.31,169.4,83.31z
		"/>
	<path class="st1" d="M226.32,86.79c-1.34-1.25-3.18-1.88-5.47-1.88h-19.84c-3.12,0-4.64-0.97-4.64-2.85v-1.53
		c0-1.95-0.89-3.48-2.67-4.6c-1.59-1.04-3.5-1.53-5.79-1.53c-2.35,0-4.33,0.49-5.98,1.53c-1.78,1.19-2.67,2.72-2.67,4.6v7.87
		c0,4.66,3.75,8.28,9.54,8.28h32.05c4.9,0,7.38-1.88,7.38-5.71C228.23,89.3,227.59,87.91,226.32,86.79z M207.11,60.62
		c-0.63-1.19-1.52-1.82-2.6-1.82c-0.45,0-1.91,0.28-4.39,0.77c-2.48,0.49-4.77,0.7-6.81,0.7c-0.76,0-1.14-0.63-1.14-1.88
		c0-1.12,0.38-1.67,1.14-1.67h8.14c1.78,0,2.99-0.63,3.57-1.88c0.44-0.91,0.63-2.37,0.63-4.32V41.4c0-2.51-0.44-4.25-1.4-5.15
		c-0.82-0.77-2.16-1.12-4.07-1.12H179.9c-2.36,0-3.76,2.65-3.76,5.71c0,3.27,1.4,5.85,3.76,5.85h8.84c0.44,0,0.63,0.56,0.63,1.6
		c0,0.98-0.19,1.46-0.63,1.46h-9.8c-1.59,0-2.67,2.3-2.67,4.04v12.53c0,3.63,1.46,5.44,4.39,5.44c6.8,0,10.81,0,12.02-0.07
		c6.23-0.21,10.55-0.77,12.91-1.68c1.52-0.62,2.29-2.43,2.29-5.5C207.88,62.91,207.62,61.66,207.11,60.62z"/>
	<path class="st1" d="M228.23,40.63v30.5c0,2.44-0.77,4.32-2.32,5.64c-1.38,1.25-3.11,1.88-5.09,1.88c-1.99,0-3.72-0.63-5.1-1.88
		c-1.55-1.32-2.32-3.2-2.32-5.64v-30.5c0-2.3,0.77-4.11,2.38-5.5c1.44-1.18,3.15-1.81,5.2-1.81c1.93,0,3.59,0.56,4.98,1.74
		C227.46,36.39,228.23,38.27,228.23,40.63z"/>
	<path class="st1" d="M288.96,59.01h-24.29c-2.23,0-3.31-1.11-3.31-3.41v-3.83c0-2.22,1.08-3.34,3.31-3.34h24.42
		c1.34,0,2.42-0.56,3.18-1.74c0.7-1.04,1.02-2.37,1.02-3.9c0-1.67-0.38-3.06-1.08-4.25c-0.83-1.25-1.91-1.88-3.25-1.88h-38.6
		c-1.4,0-2.61,0.56-3.69,1.61c-1.21,1.11-1.84,2.5-1.84,4.1v20.68c0,2.09,0.38,3.83,1.14,5.22c0.96,1.68,2.42,2.51,4.39,2.51h38.73
		c1.34,0,2.42-0.56,3.18-1.74c0.7-1.04,1.02-2.37,1.02-3.97c0-1.6-0.38-2.92-1.08-4.11C291.38,59.64,290.3,59.01,288.96,59.01z
		 M294.05,83.31h-16.66V77.6c0-3.62-3.82-5.91-8.21-5.91c-2.16,0-4,0.48-5.46,1.46c-1.59,1.04-2.42,2.57-2.42,4.45v5.71h-17.81
		c-2.99,0-4.77,2.65-4.77,5.78c0,3.27,1.91,6.06,4.77,6.06h50.56c2.48,0,3.82-2.58,3.82-5.71C297.87,86.1,296.34,83.31,294.05,83.31
		z"/>
	<path class="st1" d="M331.77,60.62c-0.64-1.19-1.53-1.82-2.61-1.82c-0.45,0-1.91,0.28-4.39,0.77c-2.48,0.49-4.77,0.7-6.8,0.7
		c-0.77,0-1.15-0.63-1.15-1.88c0-1.12,0.38-1.67,1.15-1.67h8.14c1.78,0,2.98-0.63,3.56-1.88c0.44-0.91,0.63-2.37,0.63-4.32V41.4
		c0-2.51-0.44-4.25-1.4-5.15c-0.82-0.77-2.16-1.12-4.07-1.12h-20.28c-2.36,0-3.75,2.65-3.75,5.71c0,3.27,1.39,5.85,3.75,5.85h8.84
		c0.44,0,0.63,0.56,0.63,1.6c0,0.98-0.19,1.46-0.63,1.46h-9.8c-1.59,0-2.67,2.3-2.67,4.04v12.53c0,3.63,1.47,5.44,4.39,5.44
		c6.81,0,10.81,0,12.02-0.07c6.23-0.21,10.56-0.77,12.91-1.68c1.53-0.62,2.29-2.43,2.29-5.5C332.53,62.91,332.27,61.66,331.77,60.62
		z M350.97,86.79c-1.33-1.25-3.18-1.88-5.47-1.88h-19.84c-3.12,0-4.64-0.97-4.64-2.85v-1.53c0-1.95-0.89-3.48-2.67-4.6
		c-1.59-1.04-3.5-1.53-5.79-1.53c-2.35,0-4.32,0.49-5.98,1.53c-1.78,1.19-2.67,2.72-2.67,4.6v7.87c0,4.66,3.75,8.28,9.54,8.28h32.05
		c4.9,0,7.38-1.88,7.38-5.71C352.88,89.3,352.24,87.91,350.97,86.79z"/>
	<path class="st1" d="M352.88,40.63v30.5c0,2.44-0.77,4.32-2.32,5.64c-1.38,1.25-3.1,1.88-5.09,1.88c-1.99,0-3.71-0.63-5.09-1.88
		c-1.55-1.32-2.32-3.2-2.32-5.64v-30.5c0-2.3,0.77-4.11,2.38-5.5c1.44-1.18,3.15-1.81,5.21-1.81c1.93,0,3.6,0.56,4.98,1.74
		C352.11,36.39,352.88,38.27,352.88,40.63z"/>
	<g>
		<circle class="st2" cx="57.07" cy="65" r="42.52"/>
		<circle class="st1" cx="61.15" cy="58.57" r="4.08"/>
		<circle class="st1" cx="81.91" cy="58.57" r="4.08"/>
		<g>
			<path class="st1" d="M79.84,67.79v1.12c0,4.03-3.78,7.31-8.43,7.31c-4.65,0-8.43-3.28-8.43-7.31v-1.12c0-1.32,1.07-2.4,2.4-2.4
				h12.06C78.77,65.39,79.84,66.47,79.84,67.79z"/>
		</g>
	</g>
	<path class="st1" d="M235.41,50.81c0,3.69-1.71,7.03-4.26,7.03h-2.92V44.61h2.92c1.34,0,2.42,0.63,3.25,1.95
		C235.09,47.67,235.41,49.07,235.41,50.81z"/>
	<path class="st1" d="M360.06,50.81c0,3.69-1.71,7.03-4.26,7.03h-2.92V44.61h2.92c1.34,0,2.42,0.63,3.25,1.95
		C359.75,47.67,360.06,49.07,360.06,50.81z"/>
</g>
</svg>
