<svg width="800" height="800" viewBox="0 0 800 800" fill="none" xmlns="http://www.w3.org/2000/svg">
<path fill-rule="evenodd" clip-rule="evenodd" d="M138.294 619.574H257.169H257.17C256.709 619.574 256.25 619.561 255.795 619.535C252.542 619.351 249.443 618.52 246.6 617.155C244.711 616.248 242.935 615.105 241.302 613.76C240.229 612.876 239.218 611.904 238.277 610.856C237.301 609.768 236.399 608.597 235.583 607.352C232.356 602.432 230.451 596.365 230.451 589.803V538.987L138.294 619.574ZM230.45 538.987H165.414V536.439C165.414 534.279 164.344 532.325 162.607 530.907C160.869 529.489 158.485 528.612 155.834 528.612C151.52 528.612 147.873 530.937 146.67 534.137C145.928 533.803 145.096 533.618 144.22 533.618C141.116 533.618 138.561 535.972 138.242 538.987C127.14 539.001 117.085 543.509 109.807 550.787C102.515 558.079 98 568.155 98 579.28C98 601.535 116.045 619.574 138.294 619.574" fill="#C2C2C2"/>
<path d="M300.642 530.402V597.155C300.642 609.534 309.65 619.566 320.767 619.566H389.881C400.998 619.566 410.006 609.534 410.006 597.155V566.032H379.804C374.992 566.032 370.64 563.864 367.491 560.359C364.343 556.854 362.397 552.004 362.397 546.643C362.397 535.92 370.187 527.238 379.804 527.238H409.931C408.453 495.069 384.571 469.486 355.328 469.486C340.223 469.486 326.559 476.303 316.66 487.331C306.761 498.351 300.642 513.582 300.642 530.402Z" fill="#D9DEFF"/>
<path d="M488.81 619.017C487.154 619.381 485.446 619.566 483.694 619.566H257.169C242.406 619.566 230.45 606.237 230.45 589.796V507.285C230.45 421.351 293.557 349.837 370.691 350C432.81 350.134 485.439 395.344 503.61 457.835C492.687 469.739 485.988 485.675 485.988 503.104V614.472C485.988 616.47 487.139 618.193 488.81 619.017Z" fill="#F5F5F5"/>
<path d="M410.006 530.402V597.155C410.006 609.534 400.998 619.566 389.881 619.566H320.767C309.65 619.566 300.642 609.534 300.642 597.155V566.032H330.844C335.656 566.032 340.008 563.864 343.156 560.359C346.305 556.854 348.25 552.004 348.25 546.643C348.25 535.92 340.461 527.238 330.844 527.238H300.716C302.194 495.069 326.076 469.486 355.32 469.486C370.425 469.486 384.089 476.303 393.988 487.331C403.886 498.351 410.006 513.582 410.006 530.402Z" fill="#A8A8A8"/>
<path fill-rule="evenodd" clip-rule="evenodd" d="M655.346 619.566C681.449 619.566 703.03 598.572 703 572.47C702.985 558.375 697.266 545.625 688.028 536.387C678.775 527.134 665.995 521.416 651.878 521.416H636.522C631.205 521.416 626.4 519.262 622.917 515.779C619.434 512.297 617.281 507.485 617.281 502.176C617.281 466.969 589.56 438.229 554.746 436.603C534.585 435.66 516.257 444.051 503.611 457.841C503.611 457.842 503.611 457.842 503.611 457.842C492.687 469.746 485.989 485.682 485.989 503.111V614.48C485.989 616.477 487.14 618.2 488.81 619.024C489.494 619.373 490.259 619.566 491.075 619.566H655.346Z" fill="#A8A8A8"/>
<path d="M362.426 503.572C364.362 503.572 365.931 502.002 365.931 500.067C365.931 498.131 364.362 496.562 362.426 496.562C360.491 496.562 358.921 498.131 358.921 500.067C358.921 502.002 360.491 503.572 362.426 503.572Z" fill="white"/>
<path d="M380.271 503.572C382.207 503.572 383.777 502.002 383.777 500.067C383.777 498.131 382.207 496.562 380.271 496.562C378.335 496.562 376.766 498.131 376.766 500.067C376.766 502.002 378.335 503.572 380.271 503.572Z" fill="white"/>
<path d="M371.346 513.062C368.071 513.062 365.798 511.332 365.657 511.221C364.937 510.656 364.803 509.609 365.368 508.889C365.932 508.168 366.964 508.035 367.692 508.592C367.848 508.711 371.138 511.109 375.103 508.518C375.876 508.013 376.9 508.228 377.405 509C377.91 509.765 377.695 510.797 376.923 511.302C374.91 512.624 373.002 513.062 371.346 513.062Z" fill="white"/>
<path d="M528.458 483.061C531.156 483.061 533.344 480.873 533.344 478.175C533.344 475.476 531.156 473.288 528.458 473.288C525.759 473.288 523.571 475.476 523.571 478.175C523.571 480.873 525.759 483.061 528.458 483.061Z" fill="white"/>
<path d="M553.328 483.061C556.026 483.061 558.214 480.873 558.214 478.175C558.214 475.476 556.026 473.288 553.328 473.288C550.629 473.288 548.441 475.476 548.441 478.175C548.441 480.873 550.629 483.061 553.328 483.061Z" fill="white"/>
<path d="M137.351 566.649C139.602 566.649 141.428 564.823 141.428 562.571C141.428 560.319 139.602 558.495 137.351 558.495C135.099 558.495 133.274 560.319 133.274 562.571C133.274 564.823 135.099 566.649 137.351 566.649Z" fill="#8F8F8F"/>
<path d="M158.122 566.649C160.373 566.649 162.198 564.823 162.198 562.571C162.198 560.319 160.373 558.495 158.122 558.495C155.87 558.495 154.045 560.319 154.045 562.571C154.045 564.823 155.87 566.649 158.122 566.649Z" fill="#8F8F8F"/>
<g opacity="0.8">
<path opacity="0.8" d="M154.557 572.337V573.265C154.557 576.577 151.445 579.273 147.621 579.273C143.796 579.273 140.685 576.577 140.685 573.265V572.337C140.685 571.253 141.568 570.362 142.66 570.362H152.589C153.681 570.362 154.563 571.245 154.563 572.337H154.557Z" fill="#8F8F8F"/>
</g>
<path fill-rule="evenodd" clip-rule="evenodd" d="M382.448 416.256C384.293 416.256 385.789 417.752 385.789 419.598V421.165C385.789 422.488 387.374 424.662 390.854 424.662C394.334 424.662 395.919 422.488 395.919 421.165V419.598C395.919 417.752 397.415 416.256 399.26 416.256C401.106 416.256 402.602 417.752 402.602 419.598V421.165C402.602 427.4 396.672 431.346 390.854 431.346C385.036 431.346 379.106 427.4 379.106 421.165V419.598C379.106 417.752 380.602 416.256 382.448 416.256Z" fill="#8F8F8F"/>
<path fill-rule="evenodd" clip-rule="evenodd" d="M428.54 416.256C430.386 416.256 431.881 417.752 431.881 419.598V421.165C431.881 422.488 433.467 424.662 436.946 424.662C440.426 424.662 442.011 422.488 442.011 421.165V419.598C442.011 417.752 443.507 416.256 445.352 416.256C447.198 416.256 448.694 417.752 448.694 419.598V421.165C448.694 427.4 442.764 431.346 436.946 431.346C431.128 431.346 425.198 427.4 425.198 421.165V419.598C425.198 417.752 426.694 416.256 428.54 416.256Z" fill="#8F8F8F"/>
<path d="M426.075 439.871V441.438C426.075 447.052 420.803 451.619 414.327 451.619C407.852 451.619 402.579 447.052 402.579 441.438V439.871C402.579 438.03 404.072 436.53 405.921 436.53H422.733C424.582 436.53 426.075 438.03 426.075 439.871Z" fill="#8F8F8F"/>
<rect x="231" y="181" width="338" height="106.877" rx="53.4387" fill="#F5F5F5"/>
<path d="M280.519 209.786C281.583 209.786 282.531 210.095 283.36 210.714C284.19 211.324 284.84 212.197 285.309 213.332C285.787 214.459 286.03 215.774 286.037 217.277C286.03 218.788 285.787 220.111 285.309 221.246C284.84 222.381 284.19 223.258 283.36 223.876C282.531 224.487 281.583 224.792 280.519 224.792C279.446 224.792 278.491 224.487 277.654 223.876C276.816 223.258 276.162 222.381 275.693 221.246C275.231 220.111 275 218.788 275 217.277C275 215.774 275.231 214.459 275.693 213.332C276.162 212.197 276.816 211.324 277.654 210.714C278.491 210.095 279.446 209.786 280.519 209.786ZM277.513 217.277C277.513 218.342 277.638 219.266 277.889 220.049C278.139 220.824 278.491 221.415 278.945 221.822C279.399 222.229 279.924 222.436 280.519 222.444C281.121 222.436 281.646 222.229 282.092 221.822C282.546 221.415 282.898 220.824 283.149 220.049C283.399 219.274 283.525 218.35 283.525 217.277C283.525 216.213 283.399 215.293 283.149 214.518C282.898 213.743 282.546 213.152 282.092 212.745C281.638 212.338 281.114 212.134 280.519 212.134C279.924 212.134 279.399 212.342 278.945 212.757C278.491 213.164 278.139 213.755 277.889 214.53C277.638 215.297 277.513 216.213 277.513 217.277ZM288.832 208.236H291.439V216.385H294.703V218.593H291.439V229.466H288.832V208.236ZM303.65 211.923C303.65 212.808 303.85 213.669 304.249 214.506C304.656 215.336 305.247 216.076 306.022 216.726C306.805 217.375 307.744 217.872 308.84 218.217L307.502 220.236C306.32 219.853 305.294 219.285 304.425 218.534C303.556 217.775 302.871 216.878 302.37 215.845C301.885 216.964 301.192 217.939 300.292 218.769C299.4 219.598 298.335 220.221 297.098 220.636L295.76 218.616C296.863 218.24 297.811 217.708 298.601 217.019C299.392 216.322 299.991 215.536 300.398 214.659C300.805 213.774 301.012 212.862 301.02 211.923V211.665H296.441V209.575H308.112V211.665H303.65V211.923ZM298.789 222.021H313.279V229.466H310.648V224.135H298.789V222.021ZM310.648 208.236H313.279V221.035H310.648V208.236ZM341.459 220.213H322.085V218.076H341.459V220.213ZM324.34 225.544C324.34 224.73 324.633 224.033 325.22 223.454C325.815 222.874 326.664 222.436 327.768 222.139C328.88 221.841 330.203 221.692 331.737 221.692C333.256 221.692 334.567 221.841 335.67 222.139C336.774 222.436 337.62 222.874 338.207 223.454C338.794 224.033 339.087 224.73 339.087 225.544C339.087 226.374 338.794 227.078 338.207 227.657C337.62 228.244 336.774 228.687 335.67 228.984C334.575 229.289 333.263 229.442 331.737 229.442C330.203 229.442 328.88 229.289 327.768 228.984C326.664 228.687 325.815 228.244 325.22 227.657C324.633 227.07 324.34 226.366 324.34 225.544ZM324.457 208.917H339.111V211.031H327.064V214.318H339.228V216.409H324.457V208.917ZM326.993 225.544C326.985 226.17 327.385 226.64 328.191 226.953C328.997 227.266 330.179 227.422 331.737 227.422C333.271 227.422 334.441 227.266 335.248 226.953C336.062 226.64 336.473 226.17 336.481 225.544C336.465 224.941 336.05 224.483 335.236 224.17C334.422 223.849 333.256 223.689 331.737 223.689C330.195 223.689 329.017 223.849 328.203 224.17C327.389 224.483 326.985 224.941 326.993 225.544ZM362.242 221.833H342.845V219.72H351.252V217.958H345.311V212.322H357.24V210.749H345.24V208.706H359.847V214.225H347.894V215.915H360.27V217.958H353.835V219.72H362.242V221.833ZM345.005 223.172H359.964V229.325H357.334V225.238H345.005V223.172ZM376.004 216.996H372.059V219.403C373.937 219.324 375.667 219.203 377.249 219.039L377.436 220.917C375.393 221.199 373.26 221.395 371.037 221.505C368.822 221.606 366.509 221.661 364.098 221.669L363.745 219.579C366.242 219.563 368.137 219.536 369.428 219.497V216.996H365.577V209.551H375.84V211.665H368.207V214.906H376.004V216.996ZM367.127 223.007H369.757V226.929H381.969V229.043H367.127V223.007ZM378.728 208.236H381.358V224.182H378.728V208.236ZM396.153 208.917C397.218 208.917 398.177 209.125 399.03 209.54C399.883 209.947 400.552 210.514 401.038 211.242C401.531 211.97 401.781 212.792 401.789 213.708C401.781 214.632 401.531 215.457 401.038 216.185C400.552 216.906 399.883 217.473 399.03 217.888C398.177 218.295 397.218 218.499 396.153 218.499C395.081 218.499 394.114 218.295 393.253 217.888C392.4 217.473 391.73 216.906 391.245 216.185C390.76 215.457 390.517 214.632 390.517 213.708C390.517 212.792 390.76 211.97 391.245 211.242C391.73 210.514 392.4 209.947 393.253 209.54C394.114 209.125 395.081 208.917 396.153 208.917ZM393.053 213.708C393.053 214.248 393.186 214.722 393.452 215.129C393.719 215.528 394.086 215.837 394.556 216.056C395.026 216.275 395.558 216.385 396.153 216.385C396.748 216.385 397.276 216.275 397.738 216.056C398.208 215.837 398.576 215.528 398.842 215.129C399.116 214.722 399.253 214.248 399.253 213.708C399.253 213.183 399.116 212.722 398.842 212.322C398.576 211.923 398.208 211.618 397.738 211.406C397.276 211.187 396.748 211.078 396.153 211.078C395.558 211.078 395.026 211.187 394.556 211.406C394.086 211.618 393.719 211.923 393.452 212.322C393.186 212.722 393.053 213.183 393.053 213.708ZM393.734 219.884H407.825V225.426H396.341V227.141H408.459V229.207H393.781V223.501H405.218V221.927H393.734V219.884ZM405.194 208.236H407.825V218.968H405.194V208.236ZM428.702 220.847H426.095V215.657H422.478V213.52H426.095V208.236H428.702V220.847ZM410.854 218.733C411.958 218.358 412.901 217.814 413.684 217.101C414.474 216.389 415.069 215.583 415.468 214.682C415.868 213.782 416.067 212.855 416.067 211.9V211.735H411.652V209.622H423.112V211.735H418.721V211.876C418.721 212.753 418.913 213.606 419.296 214.436C419.68 215.258 420.247 215.998 420.999 216.655C421.75 217.305 422.658 217.81 423.723 218.17L422.408 220.236C421.257 219.845 420.263 219.27 419.426 218.51C418.588 217.743 417.926 216.847 417.441 215.821C416.964 216.98 416.283 217.99 415.398 218.851C414.513 219.712 413.453 220.362 412.216 220.8L410.854 218.733ZM414.306 225.426C414.298 224.589 414.584 223.869 415.163 223.266C415.742 222.655 416.572 222.189 417.652 221.869C418.741 221.548 420.028 221.387 421.516 221.387C423.011 221.387 424.302 221.548 425.39 221.869C426.478 222.189 427.312 222.651 427.891 223.254C428.479 223.857 428.772 224.581 428.772 225.426C428.772 226.272 428.479 226.996 427.891 227.599C427.312 228.201 426.478 228.663 425.39 228.984C424.302 229.305 423.011 229.466 421.516 229.466C420.028 229.466 418.741 229.305 417.652 228.984C416.572 228.663 415.742 228.197 415.163 227.587C414.584 226.984 414.298 226.264 414.306 225.426ZM416.889 225.426C416.881 226.076 417.273 226.577 418.063 226.929C418.862 227.274 419.989 227.446 421.445 227.446C422.964 227.446 424.13 227.274 424.944 226.929C425.758 226.585 426.165 226.084 426.165 225.426C426.165 224.769 425.762 224.264 424.956 223.912C424.158 223.559 423.011 223.383 421.516 223.383C420.036 223.383 418.893 223.559 418.087 223.912C417.281 224.264 416.881 224.769 416.889 225.426ZM449.367 229.489H446.737V208.236H449.367V229.489ZM432.389 217.277C432.389 215.782 432.623 214.467 433.093 213.332C433.563 212.197 434.216 211.324 435.054 210.714C435.899 210.095 436.858 209.786 437.931 209.786C438.988 209.786 439.935 210.095 440.772 210.714C441.618 211.324 442.279 212.197 442.757 213.332C443.234 214.467 443.473 215.782 443.473 217.277C443.473 218.788 443.234 220.111 442.757 221.246C442.279 222.381 441.618 223.258 440.772 223.876C439.935 224.487 438.988 224.792 437.931 224.792C436.858 224.792 435.899 224.487 435.054 223.876C434.216 223.258 433.563 222.381 433.093 221.246C432.623 220.111 432.389 218.788 432.389 217.277ZM434.901 217.277C434.901 218.35 435.027 219.274 435.277 220.049C435.535 220.824 435.892 221.415 436.346 221.822C436.8 222.229 437.328 222.436 437.931 222.444C438.526 222.436 439.05 222.229 439.504 221.822C439.958 221.415 440.31 220.824 440.561 220.049C440.811 219.274 440.937 218.35 440.937 217.277C440.937 216.213 440.811 215.297 440.561 214.53C440.31 213.755 439.958 213.164 439.504 212.757C439.05 212.342 438.526 212.134 437.931 212.134C437.328 212.134 436.8 212.342 436.346 212.757C435.892 213.164 435.535 213.755 435.277 214.53C435.027 215.297 434.901 216.213 434.901 217.277ZM463.011 222.937H465.806V220.659H468.225V227.399C469.031 227.062 469.704 226.616 470.244 226.06C470.792 225.505 471.2 224.894 471.466 224.229C471.732 223.563 471.865 222.882 471.865 222.186V220.495H474.472V222.186C474.464 222.945 474.593 223.669 474.859 224.358C475.133 225.039 475.552 225.649 476.115 226.19C476.679 226.722 477.384 227.133 478.229 227.422L476.89 229.372C475.113 228.73 473.865 227.54 473.145 225.802C472.777 226.608 472.284 227.317 471.665 227.927C471.055 228.546 470.323 229.027 469.47 229.372L468.225 227.528V229.207H460.569V220.659H463.011V222.937ZM458.479 214.037C458.479 213.082 458.718 212.232 459.195 211.489C459.681 210.737 460.35 210.154 461.203 209.739C462.056 209.316 463.019 209.105 464.092 209.105C464.992 209.105 465.822 209.266 466.581 209.586C467.34 209.9 467.974 210.346 468.483 210.925C469 211.504 469.348 212.174 469.528 212.933H473.368V208.236H475.975V219.485H473.368V215.093H469.54C469.368 215.868 469.027 216.553 468.518 217.148C468.01 217.743 467.372 218.205 466.605 218.534C465.837 218.855 465 219.015 464.092 219.015C463.019 219.015 462.056 218.808 461.203 218.393C460.35 217.97 459.681 217.383 459.195 216.632C458.718 215.872 458.479 215.007 458.479 214.037ZM460.968 214.037C460.968 214.6 461.101 215.097 461.368 215.528C461.634 215.958 462.002 216.291 462.471 216.526C462.949 216.761 463.489 216.878 464.092 216.878C464.687 216.878 465.215 216.761 465.677 216.526C466.139 216.291 466.503 215.958 466.769 215.528C467.035 215.097 467.168 214.6 467.168 214.037C467.168 213.489 467.035 213.003 466.769 212.581C466.503 212.158 466.135 211.833 465.665 211.606C465.203 211.379 464.679 211.266 464.092 211.266C463.489 211.266 462.949 211.379 462.471 211.606C462.002 211.833 461.634 212.158 461.368 212.581C461.101 213.003 460.968 213.489 460.968 214.037ZM465.806 227.211V224.886H463.011V227.211H465.806ZM484.781 209.786C485.728 209.786 486.585 210.041 487.352 210.549C488.12 211.058 488.746 211.786 489.231 212.733C489.716 213.673 490.022 214.78 490.147 216.056H494.198V208.236H496.781V229.489H494.198V218.17H490.171C490.077 219.516 489.791 220.69 489.313 221.692C488.836 222.687 488.206 223.454 487.423 223.994C486.64 224.526 485.759 224.792 484.781 224.792C483.716 224.792 482.769 224.487 481.939 223.876C481.117 223.258 480.476 222.381 480.014 221.246C479.56 220.111 479.333 218.788 479.333 217.277C479.333 215.774 479.56 214.459 480.014 213.332C480.476 212.197 481.121 211.324 481.951 210.714C482.781 210.095 483.724 209.786 484.781 209.786ZM481.845 217.277C481.845 218.35 481.967 219.274 482.209 220.049C482.452 220.824 482.793 221.415 483.231 221.822C483.677 222.229 484.194 222.436 484.781 222.444C485.368 222.436 485.885 222.229 486.331 221.822C486.777 221.415 487.122 220.824 487.364 220.049C487.615 219.274 487.74 218.35 487.74 217.277C487.74 216.213 487.615 215.293 487.364 214.518C487.122 213.743 486.777 213.152 486.331 212.745C485.885 212.338 485.368 212.134 484.781 212.134C484.194 212.134 483.677 212.342 483.231 212.757C482.793 213.164 482.452 213.755 482.209 214.53C481.967 215.297 481.845 216.213 481.845 217.277ZM519.161 226.882H499.764V224.745H504.249V219.379C503.388 218.886 502.719 218.264 502.241 217.512C501.772 216.761 501.541 215.923 501.548 215C501.548 213.888 501.881 212.909 502.546 212.064C503.22 211.211 504.155 210.553 505.353 210.091C506.55 209.622 507.905 209.387 509.416 209.387C510.934 209.387 512.292 209.622 513.49 210.091C514.695 210.553 515.635 211.211 516.308 212.064C516.989 212.909 517.33 213.888 517.33 215C517.337 215.908 517.11 216.729 516.649 217.465C516.187 218.201 515.537 218.82 514.699 219.321V224.745H519.161V226.882ZM504.108 215C504.108 215.712 504.327 216.338 504.766 216.878C505.212 217.411 505.834 217.821 506.633 218.111C507.439 218.401 508.367 218.546 509.416 218.546C510.464 218.546 511.392 218.401 512.198 218.111C513.012 217.821 513.643 217.411 514.089 216.878C514.543 216.338 514.77 215.712 514.77 215C514.77 214.279 514.543 213.649 514.089 213.109C513.643 212.569 513.012 212.158 512.198 211.876C511.392 211.594 510.464 211.453 509.416 211.453C508.359 211.453 507.427 211.594 506.621 211.876C505.822 212.158 505.204 212.569 504.766 213.109C504.327 213.641 504.108 214.272 504.108 215ZM512.046 224.745V220.319C511.216 220.499 510.339 220.589 509.416 220.589C508.531 220.589 507.67 220.503 506.832 220.33V224.745H512.046ZM523.13 227.563C522.801 227.563 522.496 227.481 522.214 227.317C521.932 227.152 521.709 226.929 521.545 226.647C521.381 226.366 521.298 226.06 521.298 225.732C521.298 225.411 521.381 225.113 521.545 224.839C521.709 224.557 521.932 224.334 522.214 224.17C522.496 224.006 522.801 223.923 523.13 223.923C523.451 223.923 523.748 224.006 524.022 224.17C524.304 224.334 524.527 224.557 524.692 224.839C524.856 225.113 524.938 225.411 524.938 225.732C524.938 226.06 524.856 226.366 524.692 226.647C524.527 226.929 524.304 227.152 524.022 227.317C523.748 227.481 523.451 227.563 523.13 227.563ZM328.085 255.125H319.678V261.489H317.095V255.125H308.735V252.988H328.085V255.125ZM309.791 249.63C311.161 249.465 312.382 249.14 313.455 248.655C314.527 248.162 315.377 247.579 316.003 246.906C316.629 246.225 316.985 245.528 317.071 244.816H310.519V242.749H317.095V240.26H319.678V242.749H326.277V244.816H319.725C319.811 245.528 320.163 246.221 320.782 246.894C321.408 247.567 322.257 248.15 323.33 248.643C324.402 249.137 325.619 249.465 326.981 249.63L326.019 251.696C324.289 251.477 322.762 251.011 321.439 250.299C320.116 249.587 319.107 248.71 318.41 247.669C317.705 248.718 316.684 249.598 315.345 250.311C314.014 251.015 312.476 251.477 310.731 251.696L309.791 249.63ZM346.144 248.526H349.291V250.71H346.144V261.419H343.538V240.236H346.144V248.526ZM329.4 255.618C331.991 254.326 333.987 252.773 335.389 250.957C336.79 249.133 337.62 247.015 337.878 244.604H330.551V242.444H340.532C340.516 249.411 337.299 254.475 330.88 257.638L329.4 255.618ZM366.927 248.69H370.192V250.851H366.927V261.466H364.344V240.236H366.927V248.69ZM350.183 243.5H355.209V240.541H357.816V243.5H362.7V245.59H350.183V243.5ZM351.17 251.978C351.162 251.015 351.389 250.154 351.851 249.395C352.313 248.628 352.951 248.033 353.765 247.61C354.579 247.187 355.499 246.976 356.524 246.976C357.534 246.976 358.442 247.187 359.248 247.61C360.055 248.033 360.689 248.628 361.15 249.395C361.62 250.154 361.855 251.015 361.855 251.978C361.855 252.941 361.62 253.802 361.15 254.561C360.689 255.313 360.055 255.9 359.248 256.323C358.442 256.745 357.534 256.957 356.524 256.957C355.499 256.957 354.579 256.745 353.765 256.323C352.951 255.9 352.313 255.313 351.851 254.561C351.389 253.802 351.162 252.941 351.17 251.978ZM353.659 251.978C353.659 252.542 353.78 253.039 354.023 253.469C354.266 253.892 354.602 254.221 355.033 254.456C355.471 254.683 355.968 254.796 356.524 254.796C357.064 254.796 357.55 254.683 357.98 254.456C358.411 254.229 358.747 253.9 358.99 253.469C359.233 253.039 359.358 252.542 359.366 251.978C359.358 251.414 359.229 250.917 358.978 250.487C358.736 250.048 358.399 249.712 357.968 249.477C357.546 249.234 357.064 249.113 356.524 249.113C355.968 249.113 355.471 249.234 355.033 249.477C354.602 249.712 354.266 250.048 354.023 250.487C353.78 250.917 353.659 251.414 353.659 251.978ZM388.861 261.489H386.255V250.193H382.615V248.056H386.255V240.236H388.861V261.489ZM371.789 242.091H381.393V249.865H374.442V254.326C376.188 254.319 377.714 254.272 379.022 254.186C380.337 254.099 381.66 253.935 382.99 253.692L383.202 255.829C381.722 256.088 380.243 256.264 378.763 256.358C377.292 256.452 375.554 256.503 373.55 256.51H371.859V247.751H378.834V244.205H371.789V242.091ZM414.2 248.526H417.347V250.71H414.2V261.419H411.594V240.236H414.2V248.526ZM397.456 255.618C400.047 254.326 402.044 252.773 403.445 250.957C404.846 249.133 405.676 247.015 405.934 244.604H398.607V242.444H408.588C408.572 249.411 405.355 254.475 398.936 257.638L397.456 255.618ZM423.453 242.232H432.612V240.565H435.195V247.634H429.277V249.254H437.708V251.321H418.357V249.254H426.694V247.634H420.87V240.565H423.453V242.232ZM420.635 252.659H435.289V257.802H423.218V259.282H435.876V261.278H420.658V255.97H432.729V254.585H420.635V252.659ZM432.612 245.684V244.134H423.453V245.684H432.612ZM456.072 248.714H459.007V250.874H456.072V261.466H453.442V240.236H456.072V248.714ZM438.835 255.383C439.806 254.35 440.584 253.278 441.172 252.166C441.759 251.054 442.193 249.888 442.475 248.667C442.765 247.446 442.945 246.091 443.015 244.604H439.68V242.467H445.504C445.496 244.502 445.367 246.334 445.117 247.962C444.866 249.583 444.401 251.14 443.72 252.636C443.046 254.131 442.099 255.54 440.878 256.863L438.835 255.383ZM444.847 256.792C445.817 255.626 446.588 254.405 447.16 253.129C447.739 251.845 448.158 250.518 448.416 249.148C448.675 247.771 448.835 246.256 448.898 244.604H446.209V242.467H451.375C451.367 244.635 451.25 246.6 451.023 248.362C450.804 250.123 450.369 251.845 449.72 253.528C449.078 255.203 448.15 256.769 446.937 258.225L444.847 256.792ZM479.321 258.882H459.923V256.745H464.409V251.379C463.548 250.886 462.878 250.264 462.401 249.512C461.931 248.761 461.7 247.923 461.708 247C461.708 245.888 462.041 244.909 462.706 244.064C463.379 243.211 464.315 242.553 465.513 242.091C466.71 241.622 468.064 241.387 469.575 241.387C471.094 241.387 472.452 241.622 473.65 242.091C474.855 242.553 475.795 243.211 476.468 244.064C477.149 244.909 477.489 245.888 477.489 247C477.497 247.908 477.27 248.729 476.808 249.465C476.346 250.201 475.697 250.82 474.859 251.321V256.745H479.321V258.882ZM464.268 247C464.268 247.712 464.487 248.338 464.925 248.878C465.372 249.411 465.994 249.821 466.792 250.111C467.599 250.401 468.526 250.546 469.575 250.546C470.624 250.546 471.552 250.401 472.358 250.111C473.172 249.821 473.802 249.411 474.248 248.878C474.703 248.338 474.93 247.712 474.93 247C474.93 246.279 474.703 245.649 474.248 245.109C473.802 244.569 473.172 244.158 472.358 243.876C471.552 243.594 470.624 243.453 469.575 243.453C468.518 243.453 467.587 243.594 466.781 243.876C465.982 244.158 465.364 244.569 464.925 245.109C464.487 245.641 464.268 246.272 464.268 247ZM472.205 256.745V252.319C471.376 252.499 470.499 252.589 469.575 252.589C468.691 252.589 467.83 252.503 466.992 252.33V256.745H472.205ZM484.3 254.162C484.307 253.199 484.401 252.42 484.581 251.825C484.761 251.231 485.012 250.753 485.333 250.393C485.662 250.033 486.1 249.684 486.648 249.348C487.204 248.988 487.638 248.6 487.951 248.185C488.264 247.771 488.417 247.289 488.409 246.741C488.409 246.311 488.307 245.935 488.104 245.614C487.908 245.285 487.634 245.031 487.282 244.851C486.93 244.671 486.538 244.581 486.108 244.581C485.709 244.581 485.333 244.667 484.981 244.839C484.628 245.011 484.339 245.273 484.112 245.626C483.885 245.978 483.759 246.405 483.736 246.906H480.8C480.824 245.888 481.074 245.023 481.552 244.311C482.029 243.59 482.664 243.05 483.454 242.69C484.253 242.322 485.145 242.138 486.131 242.138C487.18 242.138 488.108 242.326 488.914 242.702C489.728 243.07 490.358 243.598 490.805 244.287C491.259 244.976 491.486 245.778 491.486 246.694C491.478 247.61 491.259 248.397 490.828 249.054C490.405 249.712 489.795 250.279 488.996 250.757C488.527 251.047 488.151 251.34 487.869 251.638C487.595 251.935 487.392 252.283 487.259 252.683C487.125 253.082 487.055 253.575 487.047 254.162V254.373H484.3V254.162ZM483.924 257.732C483.924 257.411 484.006 257.113 484.17 256.839C484.335 256.557 484.558 256.334 484.84 256.17C485.122 256.006 485.427 255.923 485.756 255.923C486.077 255.923 486.374 256.006 486.648 256.17C486.93 256.334 487.153 256.557 487.317 256.839C487.482 257.113 487.564 257.411 487.564 257.732C487.564 258.06 487.482 258.366 487.317 258.647C487.153 258.929 486.93 259.152 486.648 259.317C486.374 259.481 486.077 259.563 485.756 259.563C485.427 259.563 485.122 259.481 484.84 259.317C484.558 259.152 484.335 258.929 484.17 258.647C484.006 258.366 483.924 258.06 483.924 257.732Z" fill="#757575"/>
<path d="M324.419 282.587L336.559 299.276C338.727 302.26 335.223 306.06 332.075 304.133L304.762 287.444C301.856 285.669 303.114 281.198 306.52 281.198H321.693C322.771 281.198 323.784 281.714 324.419 282.587V282.587Z" fill="#F5F5F5"/>
</svg>
