<svg width="800" height="800" viewBox="0 0 800 800" fill="none" xmlns="http://www.w3.org/2000/svg">
<path fill-rule="evenodd" clip-rule="evenodd" d="M138.294 603.574H257.169H257.17C256.709 603.574 256.25 603.561 255.795 603.535C252.542 603.351 249.443 602.52 246.6 601.155C244.711 600.248 242.935 599.105 241.302 597.76C240.229 596.876 239.218 595.904 238.277 594.856C237.301 593.768 236.399 592.597 235.583 591.352C232.356 586.432 230.451 580.365 230.451 573.803V522.987L138.294 603.574ZM230.45 522.987H165.414V520.439C165.414 518.279 164.344 516.325 162.607 514.907C160.869 513.489 158.485 512.612 155.834 512.612C151.52 512.612 147.873 514.937 146.67 518.137C145.928 517.803 145.096 517.618 144.22 517.618C141.116 517.618 138.561 519.972 138.242 522.987C127.14 523.001 117.085 527.509 109.807 534.787C102.515 542.079 98 552.155 98 563.28C98 585.535 116.045 603.574 138.294 603.574" fill="#C2C2C2"/>
<path d="M300.642 514.402V581.155C300.642 593.534 309.65 603.566 320.767 603.566H389.881C400.998 603.566 410.006 593.534 410.006 581.155V550.032H379.804C374.992 550.032 370.64 547.864 367.491 544.359C364.343 540.854 362.397 536.004 362.397 530.643C362.397 519.92 370.187 511.238 379.804 511.238H409.931C408.453 479.069 384.571 453.486 355.328 453.486C340.223 453.486 326.559 460.303 316.66 471.331C306.761 482.351 300.642 497.582 300.642 514.402Z" fill="#D9DEFF"/>
<path d="M488.81 603.017C487.154 603.381 485.446 603.566 483.694 603.566H257.169C242.406 603.566 230.45 590.237 230.45 573.796V491.285C230.45 405.351 293.557 333.837 370.691 334C432.81 334.134 485.439 379.344 503.61 441.835C492.687 453.739 485.988 469.675 485.988 487.104V598.472C485.988 600.47 487.139 602.193 488.81 603.017Z" fill="#F5F5F5"/>
<path d="M410.006 514.402V581.155C410.006 593.534 400.998 603.566 389.881 603.566H320.767C309.65 603.566 300.642 593.534 300.642 581.155V550.032H330.844C335.656 550.032 340.008 547.864 343.156 544.359C346.305 540.854 348.25 536.004 348.25 530.643C348.25 519.92 340.461 511.238 330.844 511.238H300.716C302.194 479.069 326.076 453.486 355.32 453.486C370.425 453.486 384.089 460.303 393.988 471.331C403.886 482.351 410.006 497.582 410.006 514.402Z" fill="#A8A8A8"/>
<path fill-rule="evenodd" clip-rule="evenodd" d="M655.346 603.566C681.449 603.566 703.03 582.572 703 556.47C702.985 542.375 697.266 529.625 688.028 520.387C678.775 511.134 665.995 505.416 651.878 505.416H636.522C631.205 505.416 626.4 503.262 622.917 499.779C619.434 496.297 617.281 491.485 617.281 486.176C617.281 450.969 589.56 422.229 554.746 420.603C534.585 419.66 516.257 428.051 503.611 441.841C503.611 441.842 503.611 441.842 503.611 441.842C492.687 453.746 485.989 469.682 485.989 487.111V598.48C485.989 600.477 487.14 602.2 488.81 603.024C489.494 603.373 490.259 603.566 491.075 603.566H655.346Z" fill="#A8A8A8"/>
<path d="M362.426 487.572C364.362 487.572 365.931 486.002 365.931 484.067C365.931 482.131 364.362 480.562 362.426 480.562C360.491 480.562 358.921 482.131 358.921 484.067C358.921 486.002 360.491 487.572 362.426 487.572Z" fill="white"/>
<path d="M380.271 487.572C382.207 487.572 383.777 486.002 383.777 484.067C383.777 482.131 382.207 480.562 380.271 480.562C378.335 480.562 376.766 482.131 376.766 484.067C376.766 486.002 378.335 487.572 380.271 487.572Z" fill="white"/>
<path d="M371.346 497.062C368.071 497.062 365.798 495.332 365.657 495.221C364.937 494.656 364.803 493.609 365.368 492.889C365.932 492.168 366.964 492.035 367.692 492.592C367.848 492.711 371.138 495.109 375.103 492.517C375.876 492.012 376.9 492.228 377.405 493C377.91 493.765 377.695 494.797 376.923 495.302C374.91 496.624 373.002 497.062 371.346 497.062Z" fill="white"/>
<path d="M528.458 467.061C531.156 467.061 533.344 464.873 533.344 462.175C533.344 459.476 531.156 457.288 528.458 457.288C525.759 457.288 523.571 459.476 523.571 462.175C523.571 464.873 525.759 467.061 528.458 467.061Z" fill="white"/>
<path d="M553.328 467.061C556.026 467.061 558.214 464.873 558.214 462.175C558.214 459.476 556.026 457.288 553.328 457.288C550.629 457.288 548.441 459.476 548.441 462.175C548.441 464.873 550.629 467.061 553.328 467.061Z" fill="white"/>
<path d="M137.351 550.649C139.602 550.649 141.428 548.823 141.428 546.571C141.428 544.319 139.602 542.495 137.351 542.495C135.099 542.495 133.274 544.319 133.274 546.571C133.274 548.823 135.099 550.649 137.351 550.649Z" fill="#8F8F8F"/>
<path d="M158.122 550.649C160.373 550.649 162.198 548.823 162.198 546.571C162.198 544.319 160.373 542.495 158.122 542.495C155.87 542.495 154.045 544.319 154.045 546.571C154.045 548.823 155.87 550.649 158.122 550.649Z" fill="#8F8F8F"/>
<g opacity="0.8">
<path opacity="0.8" d="M154.557 556.337V557.265C154.557 560.577 151.445 563.273 147.621 563.273C143.796 563.273 140.685 560.577 140.685 557.265V556.337C140.685 555.253 141.568 554.362 142.66 554.362H152.589C153.681 554.362 154.563 555.245 154.563 556.337H154.557Z" fill="#8F8F8F"/>
</g>
<path fill-rule="evenodd" clip-rule="evenodd" d="M382.448 400.256C384.293 400.256 385.789 401.752 385.789 403.598V405.165C385.789 406.488 387.374 408.663 390.854 408.663C394.334 408.663 395.919 406.488 395.919 405.165V403.598C395.919 401.752 397.415 400.256 399.26 400.256C401.106 400.256 402.602 401.752 402.602 403.598V405.165C402.602 411.401 396.672 415.346 390.854 415.346C385.036 415.346 379.106 411.401 379.106 405.165V403.598C379.106 401.752 380.602 400.256 382.448 400.256Z" fill="#8F8F8F"/>
<path fill-rule="evenodd" clip-rule="evenodd" d="M428.54 400.256C430.386 400.256 431.881 401.752 431.881 403.598V405.165C431.881 406.488 433.467 408.663 436.946 408.663C440.426 408.663 442.011 406.488 442.011 405.165V403.598C442.011 401.752 443.507 400.256 445.352 400.256C447.198 400.256 448.694 401.752 448.694 403.598V405.165C448.694 411.401 442.764 415.346 436.946 415.346C431.128 415.346 425.198 411.401 425.198 405.165V403.598C425.198 401.752 426.694 400.256 428.54 400.256Z" fill="#8F8F8F"/>
<path d="M426.075 423.871V425.438C426.075 431.052 420.803 435.619 414.327 435.619C407.852 435.619 402.579 431.052 402.579 425.438V423.871C402.579 422.03 404.072 420.53 405.921 420.53H422.733C424.582 420.53 426.075 422.03 426.075 423.871Z" fill="#8F8F8F"/>
<rect x="180" y="196" width="439.502" height="75.751" rx="37.8755" fill="#F5F5F5"/>
<path d="M245.439 229.272C245.439 230.438 245.658 231.593 246.096 232.735C246.543 233.87 247.177 234.892 247.999 235.8C248.828 236.7 249.799 237.381 250.911 237.843L249.478 239.91C248.249 239.377 247.181 238.591 246.272 237.55C245.364 236.501 244.66 235.283 244.159 233.898C243.658 235.385 242.95 236.7 242.034 237.843C241.118 238.986 240.053 239.847 238.84 240.426L237.337 238.383C238.425 237.882 239.38 237.146 240.202 236.176C241.024 235.205 241.658 234.113 242.104 232.9C242.55 231.686 242.777 230.477 242.785 229.272V227.487H238.112V225.326H250.089V227.487H245.439V229.272ZM252.46 223.236H255.091V244.466H252.46V223.236ZM261.76 232.747C263.255 232.731 264.719 232.661 266.152 232.536C267.592 232.403 269.04 232.184 270.496 231.878L270.778 234.015C269.15 234.352 267.529 234.587 265.917 234.72C264.304 234.853 262.629 234.923 260.891 234.931H259.13V224.716H261.76V232.747ZM261.384 237.068H264.015V241.929H275.662V244.043H261.384V237.068ZM272.351 223.26H274.958V229.342H277.917V231.526H274.958V238.524H272.351V223.26ZM295.929 239.299H285.831V225.232H295.929V239.299ZM293.393 237.209V227.275H288.414V237.209H293.393ZM299.733 223.236H302.364V244.489H299.733V223.236ZM313.213 226.994C313.205 228.011 313.389 228.99 313.765 229.929C314.141 230.861 314.7 231.694 315.444 232.43C316.188 233.166 317.088 233.733 318.145 234.133L316.689 236.152C315.577 235.714 314.618 235.076 313.812 234.238C313.006 233.401 312.376 232.418 311.922 231.291C311.452 232.497 310.786 233.546 309.925 234.438C309.072 235.323 308.047 235.996 306.849 236.458L305.44 234.391C306.536 233.992 307.467 233.416 308.235 232.665C309.01 231.913 309.593 231.052 309.984 230.082C310.375 229.103 310.575 228.074 310.583 226.994V224.457H313.213V226.994ZM309.268 237.467H311.922V241.929H323.734V244.043H309.268V237.467ZM316.783 230.352H320.657V228.262H316.783V226.148H320.657V223.26H323.264V239.017H320.657V232.442H316.783V230.352ZM345.621 236.293H326.27V234.203H345.621V236.293ZM328.266 228.215C328.266 227.33 328.579 226.563 329.206 225.913C329.84 225.264 330.732 224.77 331.883 224.434C333.033 224.089 334.38 223.917 335.922 223.917C337.456 223.917 338.799 224.089 339.949 224.434C341.108 224.77 342 225.264 342.627 225.913C343.261 226.563 343.578 227.33 343.578 228.215C343.578 229.107 343.261 229.882 342.627 230.54C342 231.189 341.108 231.69 339.949 232.043C338.799 232.387 337.456 232.559 335.922 232.559C334.38 232.559 333.033 232.387 331.883 232.043C330.732 231.69 329.84 231.189 329.206 230.54C328.579 229.882 328.266 229.107 328.266 228.215ZM328.665 237.867H331.272V241.929H343.437V244.043H328.665V237.867ZM330.99 228.215C330.983 228.927 331.405 229.475 332.258 229.859C333.12 230.234 334.317 230.422 335.852 230.422C337.448 230.422 338.685 230.234 339.562 229.859C340.439 229.483 340.877 228.935 340.877 228.215C340.877 227.518 340.439 226.978 339.562 226.594C338.693 226.203 337.48 226.007 335.922 226.007C334.897 226.007 334.012 226.093 333.268 226.266C332.525 226.438 331.957 226.692 331.566 227.029C331.174 227.358 330.983 227.753 330.99 228.215ZM369.504 229.929H372.463V232.09H369.504V239.111H366.897V223.26H369.504V229.929ZM352.783 225.608H357.785V223.236H360.392V225.608H365.371V227.698H352.783V225.608ZM353.864 232.63C353.864 231.823 354.083 231.115 354.521 230.504C354.96 229.886 355.574 229.409 356.365 229.072C357.155 228.735 358.059 228.567 359.077 228.567C360.087 228.567 360.983 228.735 361.766 229.072C362.557 229.409 363.171 229.886 363.609 230.504C364.048 231.115 364.267 231.823 364.267 232.63C364.267 233.428 364.048 234.133 363.609 234.743C363.171 235.346 362.56 235.816 361.778 236.152C360.995 236.481 360.095 236.645 359.077 236.645C358.052 236.645 357.144 236.481 356.353 236.152C355.57 235.816 354.96 235.346 354.521 234.743C354.083 234.133 353.864 233.428 353.864 232.63ZM355.907 237.867H358.513V241.929H370.349V244.043H355.907V237.867ZM356.4 232.63C356.392 233.256 356.627 233.745 357.104 234.097C357.59 234.45 358.236 234.626 359.042 234.626C359.872 234.626 360.533 234.454 361.026 234.109C361.527 233.757 361.778 233.264 361.778 232.63C361.778 231.996 361.531 231.499 361.038 231.138C360.545 230.771 359.891 230.587 359.077 230.587C358.263 230.587 357.609 230.771 357.116 231.138C356.631 231.499 356.392 231.996 356.4 232.63ZM389.582 226.477H382.655V231.197C384.643 231.182 386.287 231.127 387.586 231.033C388.886 230.931 390.177 230.751 391.461 230.493L391.743 232.512C390.451 232.802 389.128 232.998 387.774 233.099C386.42 233.193 384.647 233.24 382.455 233.24H381.786H380.072V224.387H389.582V226.477ZM382.115 234.767H395.994V240.403H384.721V242.094H396.651V244.207H382.138V238.43H393.387V236.857H382.115V234.767ZM393.387 223.236H395.994V227.416H398.953V229.553H395.994V233.851H393.387V223.236ZM417.693 244.489H415.062V223.236H417.693V244.489ZM400.714 232.277C400.714 230.782 400.949 229.467 401.418 228.332C401.888 227.197 402.542 226.324 403.379 225.714C404.225 225.095 405.184 224.786 406.256 224.786C407.313 224.786 408.26 225.095 409.098 225.714C409.943 226.324 410.604 227.197 411.082 228.332C411.559 229.467 411.798 230.782 411.798 232.277C411.798 233.788 411.559 235.111 411.082 236.246C410.604 237.381 409.943 238.258 409.098 238.876C408.26 239.487 407.313 239.792 406.256 239.792C405.184 239.792 404.225 239.487 403.379 238.876C402.542 238.258 401.888 237.381 401.418 236.246C400.949 235.111 400.714 233.788 400.714 232.277ZM403.227 232.277C403.227 233.35 403.352 234.274 403.602 235.049C403.861 235.824 404.217 236.415 404.671 236.822C405.125 237.229 405.653 237.436 406.256 237.444C406.851 237.436 407.375 237.229 407.829 236.822C408.283 236.415 408.636 235.824 408.886 235.049C409.137 234.274 409.262 233.35 409.262 232.277C409.262 231.213 409.137 230.297 408.886 229.53C408.636 228.755 408.283 228.164 407.829 227.757C407.375 227.342 406.851 227.134 406.256 227.134C405.653 227.134 405.125 227.342 404.671 227.757C404.217 228.164 403.861 228.755 403.602 229.53C403.352 230.297 403.227 231.213 403.227 232.277ZM434.531 229.272C434.531 230.438 434.75 231.593 435.188 232.735C435.634 233.87 436.268 234.892 437.09 235.8C437.92 236.7 438.891 237.381 440.002 237.843L438.57 239.91C437.341 239.377 436.272 238.591 435.364 237.55C434.456 236.501 433.752 235.283 433.251 233.898C432.75 235.385 432.041 236.7 431.125 237.843C430.209 238.986 429.145 239.847 427.932 240.426L426.429 238.383C427.517 237.882 428.472 237.146 429.294 236.176C430.116 235.205 430.75 234.113 431.196 232.9C431.642 231.686 431.869 230.477 431.877 229.272V227.487H427.204V225.326H439.18V227.487H434.531V229.272ZM441.552 223.236H444.182V244.466H441.552V223.236ZM467.079 233.569H463.932V244.419H461.326V223.236H463.932V231.432H467.079V233.569ZM448.057 225.303H450.64V237.021C453.85 236.966 456.864 236.645 459.682 236.058L459.963 238.266C458.296 238.602 456.633 238.837 454.973 238.97C453.314 239.103 451.603 239.174 449.842 239.182H448.057V225.303ZM473.795 224.786C474.86 224.786 475.807 225.095 476.637 225.714C477.467 226.324 478.116 227.197 478.586 228.332C479.064 229.459 479.306 230.774 479.314 232.277C479.306 233.788 479.064 235.111 478.586 236.246C478.116 237.381 477.467 238.258 476.637 238.876C475.807 239.487 474.86 239.792 473.795 239.792C472.723 239.792 471.768 239.487 470.93 238.876C470.093 238.258 469.439 237.381 468.97 236.246C468.508 235.111 468.277 233.788 468.277 232.277C468.277 230.774 468.508 229.459 468.97 228.332C469.439 227.197 470.093 226.324 470.93 225.714C471.768 225.095 472.723 224.786 473.795 224.786ZM470.79 232.277C470.79 233.342 470.915 234.266 471.165 235.049C471.416 235.824 471.768 236.415 472.222 236.822C472.676 237.229 473.201 237.436 473.795 237.444C474.398 237.436 474.923 237.229 475.369 236.822C475.823 236.415 476.175 235.824 476.426 235.049C476.676 234.274 476.801 233.35 476.801 232.277C476.801 231.213 476.676 230.293 476.426 229.518C476.175 228.743 475.823 228.152 475.369 227.745C474.915 227.338 474.39 227.134 473.795 227.134C473.201 227.134 472.676 227.342 472.222 227.757C471.768 228.164 471.416 228.755 471.165 229.53C470.915 230.297 470.79 231.213 470.79 232.277ZM482.109 223.236H484.715V228.309H487.862V230.493H484.715V234.579H487.862V236.716H484.715V244.466H482.109V223.236ZM501.201 227.181C501.209 227.964 501.365 228.724 501.671 229.459C501.976 230.187 502.438 230.849 503.056 231.444C503.675 232.031 504.434 232.497 505.334 232.841L503.949 234.837C503.033 234.493 502.238 234 501.565 233.358C500.9 232.716 500.371 231.968 499.98 231.115C499.573 232.101 499.017 232.974 498.313 233.733C497.616 234.485 496.778 235.064 495.8 235.471L494.391 233.475C495.33 233.06 496.121 232.512 496.763 231.831C497.405 231.15 497.882 230.41 498.195 229.612C498.516 228.806 498.68 227.996 498.688 227.181V224.551H501.201V227.181ZM498.289 240.52C498.289 239.714 498.583 239.017 499.17 238.43C499.757 237.843 500.598 237.397 501.694 237.092C502.79 236.779 504.082 236.622 505.569 236.622C507.041 236.622 508.324 236.779 509.42 237.092C510.516 237.397 511.362 237.843 511.957 238.43C512.552 239.017 512.849 239.714 512.849 240.52C512.849 241.327 512.552 242.023 511.957 242.61C511.362 243.205 510.516 243.659 509.42 243.972C508.324 244.286 507.041 244.442 505.569 244.442C504.082 244.442 502.79 244.286 501.694 243.972C500.598 243.659 499.757 243.205 499.17 242.61C498.583 242.023 498.289 241.327 498.289 240.52ZM500.896 240.52C500.888 241.139 501.287 241.616 502.093 241.953C502.9 242.282 504.035 242.446 505.499 242.446C506.994 242.446 508.152 242.282 508.974 241.953C509.796 241.624 510.211 241.147 510.219 240.52C510.211 239.902 509.8 239.428 508.986 239.099C508.172 238.763 507.033 238.595 505.569 238.595C504.082 238.595 502.927 238.763 502.105 239.099C501.291 239.428 500.888 239.902 500.896 240.52ZM505.686 223.659H508.129V228.614H510.242V223.26H512.732V236.27H510.242V230.751H508.129V235.612H505.686V223.659ZM526.188 225.491C526.188 226.68 526.098 227.792 525.918 228.825H530.532V223.236H533.139V244.442H530.532V236.669H525.131V234.555H530.532V230.915H525.436C524.16 235.15 521.209 238.399 516.583 240.661L515.221 238.595C517.828 237.295 519.808 235.737 521.162 233.921C522.517 232.105 523.311 229.984 523.546 227.557H516.207V225.491H526.188ZM555.543 241.882H536.145V239.745H540.63V234.379C539.769 233.886 539.1 233.264 538.623 232.512C538.153 231.761 537.922 230.923 537.93 230C537.93 228.888 538.262 227.909 538.928 227.064C539.601 226.211 540.536 225.553 541.734 225.091C542.932 224.622 544.286 224.387 545.797 224.387C547.315 224.387 548.674 224.622 549.871 225.091C551.077 225.553 552.016 226.211 552.689 227.064C553.37 227.909 553.711 228.888 553.711 230C553.719 230.908 553.492 231.729 553.03 232.465C552.568 233.201 551.918 233.82 551.081 234.321V239.745H555.543V241.882ZM540.49 230C540.49 230.712 540.709 231.338 541.147 231.878C541.593 232.411 542.216 232.821 543.014 233.111C543.82 233.401 544.748 233.546 545.797 233.546C546.846 233.546 547.773 233.401 548.58 233.111C549.394 232.821 550.024 232.411 550.47 231.878C550.924 231.338 551.151 230.712 551.151 230C551.151 229.279 550.924 228.649 550.47 228.109C550.024 227.569 549.394 227.158 548.58 226.876C547.773 226.594 546.846 226.453 545.797 226.453C544.74 226.453 543.809 226.594 543.002 226.876C542.204 227.158 541.585 227.569 541.147 228.109C540.709 228.641 540.49 229.272 540.49 230ZM548.427 239.745V235.319C547.597 235.499 546.721 235.589 545.797 235.589C544.912 235.589 544.051 235.503 543.214 235.33V239.745H548.427ZM559.511 242.563C559.183 242.563 558.877 242.481 558.596 242.317C558.314 242.152 558.091 241.929 557.926 241.647C557.762 241.366 557.68 241.06 557.68 240.732C557.68 240.411 557.762 240.113 557.926 239.839C558.091 239.557 558.314 239.334 558.596 239.17C558.877 239.006 559.183 238.923 559.511 238.923C559.832 238.923 560.13 239.006 560.404 239.17C560.686 239.334 560.909 239.557 561.073 239.839C561.237 240.113 561.32 240.411 561.32 240.732C561.32 241.06 561.237 241.366 561.073 241.647C560.909 241.929 560.686 242.152 560.404 242.317C560.13 242.481 559.832 242.563 559.511 242.563Z" fill="#757575"/>
<path d="M273.419 266.389L285.559 283.079C287.727 286.063 284.223 289.862 281.075 287.936L253.762 271.246C250.856 269.472 252.115 265 255.521 265H270.694C271.771 265 272.784 265.516 273.419 266.389V266.389Z" fill="#F5F5F5"/>
</svg>
