<svg width="800" height="800" viewBox="0 0 800 800" fill="none" xmlns="http://www.w3.org/2000/svg">
<path fill-rule="evenodd" clip-rule="evenodd" d="M138.294 619.574H257.169H257.17C256.709 619.574 256.25 619.561 255.795 619.535C252.542 619.351 249.443 618.52 246.6 617.155C244.711 616.248 242.935 615.105 241.302 613.76C240.229 612.876 239.218 611.904 238.277 610.856C237.301 609.768 236.399 608.597 235.583 607.352C232.356 602.432 230.451 596.365 230.451 589.803V538.987L138.294 619.574ZM230.45 538.987H165.414V536.439C165.414 534.279 164.344 532.325 162.607 530.907C160.869 529.489 158.485 528.612 155.834 528.612C151.52 528.612 147.873 530.937 146.67 534.137C145.928 533.803 145.096 533.618 144.22 533.618C141.116 533.618 138.561 535.972 138.242 538.987C127.14 539.001 117.085 543.509 109.807 550.787C102.515 558.079 98 568.155 98 579.28C98 601.535 116.045 619.574 138.294 619.574" fill="#C2C2C2"/>
<path d="M300.642 530.402V597.155C300.642 609.534 309.65 619.566 320.767 619.566H389.881C400.998 619.566 410.006 609.534 410.006 597.155V566.032H379.804C374.992 566.032 370.64 563.864 367.491 560.359C364.343 556.854 362.397 552.004 362.397 546.643C362.397 535.92 370.187 527.238 379.804 527.238H409.931C408.453 495.069 384.571 469.486 355.328 469.486C340.223 469.486 326.559 476.303 316.66 487.331C306.761 498.351 300.642 513.582 300.642 530.402Z" fill="#D9DEFF"/>
<path d="M488.81 619.017C487.154 619.381 485.446 619.566 483.694 619.566H257.169C242.406 619.566 230.45 606.237 230.45 589.796V507.285C230.45 421.351 293.557 349.837 370.691 350C432.81 350.134 485.439 395.344 503.61 457.835C492.687 469.739 485.988 485.675 485.988 503.104V614.472C485.988 616.47 487.139 618.193 488.81 619.017Z" fill="#F5F5F5"/>
<path d="M410.006 530.402V597.155C410.006 609.534 400.998 619.566 389.881 619.566H320.767C309.65 619.566 300.642 609.534 300.642 597.155V566.032H330.844C335.656 566.032 340.008 563.864 343.156 560.359C346.305 556.854 348.25 552.004 348.25 546.643C348.25 535.92 340.461 527.238 330.844 527.238H300.716C302.194 495.069 326.076 469.486 355.32 469.486C370.425 469.486 384.089 476.303 393.988 487.331C403.886 498.351 410.006 513.582 410.006 530.402Z" fill="#A8A8A8"/>
<path fill-rule="evenodd" clip-rule="evenodd" d="M655.346 619.566C681.449 619.566 703.03 598.572 703 572.47C702.985 558.375 697.266 545.625 688.028 536.387C678.775 527.134 665.995 521.416 651.878 521.416H636.522C631.205 521.416 626.4 519.262 622.917 515.779C619.434 512.297 617.281 507.485 617.281 502.176C617.281 466.969 589.56 438.229 554.746 436.603C534.585 435.66 516.257 444.051 503.611 457.841C503.611 457.842 503.611 457.842 503.611 457.842C492.687 469.746 485.989 485.682 485.989 503.111V614.48C485.989 616.477 487.14 618.2 488.81 619.024C489.494 619.373 490.259 619.566 491.075 619.566H655.346Z" fill="#A8A8A8"/>
<path d="M362.426 503.572C364.362 503.572 365.931 502.002 365.931 500.067C365.931 498.131 364.362 496.562 362.426 496.562C360.491 496.562 358.921 498.131 358.921 500.067C358.921 502.002 360.491 503.572 362.426 503.572Z" fill="white"/>
<path d="M380.271 503.572C382.207 503.572 383.777 502.002 383.777 500.067C383.777 498.131 382.207 496.562 380.271 496.562C378.335 496.562 376.766 498.131 376.766 500.067C376.766 502.002 378.335 503.572 380.271 503.572Z" fill="white"/>
<path d="M371.346 513.062C368.071 513.062 365.798 511.332 365.657 511.221C364.937 510.656 364.803 509.609 365.368 508.889C365.932 508.168 366.964 508.035 367.692 508.592C367.848 508.711 371.138 511.109 375.103 508.517C375.876 508.012 376.9 508.228 377.405 509C377.91 509.765 377.695 510.797 376.923 511.302C374.91 512.624 373.002 513.062 371.346 513.062Z" fill="white"/>
<path d="M528.458 483.061C531.156 483.061 533.344 480.873 533.344 478.175C533.344 475.476 531.156 473.288 528.458 473.288C525.759 473.288 523.571 475.476 523.571 478.175C523.571 480.873 525.759 483.061 528.458 483.061Z" fill="white"/>
<path d="M553.328 483.061C556.026 483.061 558.214 480.873 558.214 478.175C558.214 475.476 556.026 473.288 553.328 473.288C550.629 473.288 548.441 475.476 548.441 478.175C548.441 480.873 550.629 483.061 553.328 483.061Z" fill="white"/>
<path d="M137.351 566.649C139.602 566.649 141.428 564.823 141.428 562.571C141.428 560.319 139.602 558.495 137.351 558.495C135.099 558.495 133.274 560.319 133.274 562.571C133.274 564.823 135.099 566.649 137.351 566.649Z" fill="#8F8F8F"/>
<path d="M158.122 566.649C160.373 566.649 162.198 564.823 162.198 562.571C162.198 560.319 160.373 558.495 158.122 558.495C155.87 558.495 154.045 560.319 154.045 562.571C154.045 564.823 155.87 566.649 158.122 566.649Z" fill="#8F8F8F"/>
<g opacity="0.8">
<path opacity="0.8" d="M154.557 572.337V573.265C154.557 576.577 151.445 579.273 147.621 579.273C143.796 579.273 140.685 576.577 140.685 573.265V572.337C140.685 571.253 141.568 570.362 142.66 570.362H152.589C153.681 570.362 154.563 571.245 154.563 572.337H154.557Z" fill="#8F8F8F"/>
</g>
<path fill-rule="evenodd" clip-rule="evenodd" d="M382.448 416.256C384.293 416.256 385.789 417.752 385.789 419.598V421.165C385.789 422.488 387.374 424.663 390.854 424.663C394.334 424.663 395.919 422.488 395.919 421.165V419.598C395.919 417.752 397.415 416.256 399.26 416.256C401.106 416.256 402.602 417.752 402.602 419.598V421.165C402.602 427.401 396.672 431.346 390.854 431.346C385.036 431.346 379.106 427.401 379.106 421.165V419.598C379.106 417.752 380.602 416.256 382.448 416.256Z" fill="#8F8F8F"/>
<path fill-rule="evenodd" clip-rule="evenodd" d="M428.54 416.256C430.386 416.256 431.881 417.752 431.881 419.598V421.165C431.881 422.488 433.467 424.663 436.946 424.663C440.426 424.663 442.011 422.488 442.011 421.165V419.598C442.011 417.752 443.507 416.256 445.352 416.256C447.198 416.256 448.694 417.752 448.694 419.598V421.165C448.694 427.401 442.764 431.346 436.946 431.346C431.128 431.346 425.198 427.401 425.198 421.165V419.598C425.198 417.752 426.694 416.256 428.54 416.256Z" fill="#8F8F8F"/>
<path d="M426.075 439.871V441.438C426.075 447.052 420.803 451.619 414.327 451.619C407.852 451.619 402.579 447.052 402.579 441.438V439.871C402.579 438.03 404.072 436.53 405.921 436.53H422.733C424.582 436.53 426.075 438.03 426.075 439.871Z" fill="#8F8F8F"/>
<rect x="231" y="181" width="338" height="106.877" rx="53.4387" fill="#F5F5F5"/>
<path d="M280.519 209.786C281.583 209.786 282.531 210.095 283.36 210.714C284.19 211.324 284.84 212.197 285.309 213.332C285.787 214.459 286.03 215.774 286.037 217.277C286.03 218.788 285.787 220.111 285.309 221.246C284.84 222.381 284.19 223.258 283.36 223.876C282.531 224.487 281.583 224.792 280.519 224.792C279.446 224.792 278.491 224.487 277.654 223.876C276.816 223.258 276.162 222.381 275.693 221.246C275.231 220.111 275 218.788 275 217.277C275 215.774 275.231 214.459 275.693 213.332C276.162 212.197 276.816 211.324 277.654 210.714C278.491 210.095 279.446 209.786 280.519 209.786ZM277.513 217.277C277.513 218.342 277.638 219.266 277.889 220.049C278.139 220.824 278.491 221.415 278.945 221.822C279.399 222.229 279.924 222.436 280.519 222.444C281.121 222.436 281.646 222.229 282.092 221.822C282.546 221.415 282.898 220.824 283.149 220.049C283.399 219.274 283.525 218.35 283.525 217.277C283.525 216.213 283.399 215.293 283.149 214.518C282.898 213.743 282.546 213.152 282.092 212.745C281.638 212.338 281.114 212.134 280.519 212.134C279.924 212.134 279.399 212.342 278.945 212.757C278.491 213.164 278.139 213.755 277.889 214.53C277.638 215.297 277.513 216.213 277.513 217.277ZM288.832 208.236H291.439V216.385H294.703V218.593H291.439V229.466H288.832V208.236ZM303.65 211.923C303.65 212.808 303.85 213.669 304.249 214.506C304.656 215.336 305.247 216.076 306.022 216.726C306.805 217.375 307.744 217.872 308.84 218.217L307.502 220.236C306.32 219.853 305.294 219.285 304.425 218.534C303.556 217.775 302.871 216.878 302.37 215.845C301.885 216.964 301.192 217.939 300.292 218.769C299.4 219.598 298.335 220.221 297.098 220.636L295.76 218.616C296.863 218.24 297.811 217.708 298.601 217.019C299.392 216.322 299.991 215.536 300.398 214.659C300.805 213.774 301.012 212.862 301.02 211.923V211.665H296.441V209.575H308.112V211.665H303.65V211.923ZM298.789 222.021H313.279V229.466H310.648V224.135H298.789V222.021ZM310.648 208.236H313.279V221.035H310.648V208.236ZM329.694 211.923C329.694 212.816 329.882 213.673 330.257 214.495C330.641 215.317 331.209 216.052 331.96 216.702C332.719 217.352 333.639 217.857 334.719 218.217L333.404 220.236C332.238 219.845 331.232 219.274 330.387 218.522C329.549 217.771 328.891 216.886 328.414 215.868C327.936 216.98 327.255 217.947 326.371 218.769C325.494 219.583 324.449 220.197 323.236 220.612L321.85 218.593C322.954 218.225 323.897 217.696 324.68 217.007C325.471 216.319 326.066 215.536 326.465 214.659C326.864 213.774 327.064 212.862 327.064 211.923V211.665H322.578V209.575H334.109V211.665H329.694V211.923ZM324.692 222.021H338.829V229.466H336.222V224.111H324.692V222.021ZM336.222 208.236H338.829V213.544H341.788V215.728H338.829V221.035H336.222V208.236ZM350.641 211.289C350.634 212.268 350.818 213.195 351.193 214.072C351.577 214.941 352.144 215.708 352.896 216.373C353.647 217.031 354.563 217.528 355.643 217.865L354.234 219.908C353.099 219.501 352.125 218.925 351.311 218.182C350.497 217.438 349.859 216.553 349.397 215.528C348.919 216.71 348.234 217.735 347.342 218.604C346.45 219.465 345.373 220.119 344.113 220.565L342.727 218.452C343.87 218.076 344.837 217.532 345.628 216.82C346.418 216.107 347.009 215.289 347.401 214.365C347.8 213.434 348.003 212.448 348.011 211.406V209.387H350.641V211.289ZM346.25 225.379C346.242 224.526 346.528 223.794 347.107 223.184C347.686 222.565 348.516 222.096 349.596 221.775C350.684 221.454 351.972 221.293 353.459 221.293C354.955 221.293 356.246 221.454 357.334 221.775C358.422 222.096 359.256 222.565 359.835 223.184C360.422 223.794 360.716 224.526 360.716 225.379C360.716 226.233 360.422 226.965 359.835 227.575C359.256 228.186 358.422 228.648 357.334 228.961C356.246 229.282 354.955 229.442 353.459 229.442C351.972 229.442 350.684 229.282 349.596 228.961C348.516 228.648 347.686 228.186 347.107 227.575C346.528 226.965 346.242 226.233 346.25 225.379ZM348.833 225.379C348.825 226.021 349.225 226.518 350.031 226.871C350.837 227.215 351.98 227.391 353.459 227.399C354.947 227.391 356.094 227.215 356.9 226.871C357.706 226.518 358.109 226.021 358.109 225.379C358.109 224.714 357.706 224.205 356.9 223.853C356.101 223.501 354.955 223.321 353.459 223.313C351.972 223.321 350.825 223.501 350.019 223.853C349.221 224.205 348.825 224.714 348.833 225.379ZM353.812 212.346H358.039V208.236H360.646V220.73H358.039V214.483H353.812V212.346ZM376.004 216.996H372.059V219.403C373.937 219.324 375.667 219.203 377.249 219.039L377.436 220.917C375.393 221.199 373.26 221.395 371.037 221.505C368.822 221.606 366.509 221.661 364.098 221.669L363.745 219.579C366.242 219.563 368.137 219.536 369.428 219.497V216.996H365.577V209.551H375.84V211.665H368.207V214.906H376.004V216.996ZM367.127 223.007H369.757V226.929H381.969V229.043H367.127V223.007ZM378.728 208.236H381.358V224.182H378.728V208.236ZM401.366 224.299H391.268V210.232H401.366V224.299ZM398.83 222.209V212.275H393.852V222.209H398.83ZM405.171 208.236H407.801V229.489H405.171V208.236ZM418.651 211.994C418.643 213.011 418.827 213.99 419.202 214.929C419.578 215.861 420.138 216.694 420.882 217.43C421.625 218.166 422.525 218.733 423.582 219.133L422.126 221.152C421.015 220.714 420.056 220.076 419.249 219.238C418.443 218.401 417.813 217.418 417.359 216.291C416.889 217.497 416.224 218.546 415.363 219.438C414.51 220.323 413.484 220.996 412.286 221.458L410.877 219.391C411.973 218.992 412.905 218.416 413.672 217.665C414.447 216.913 415.03 216.052 415.422 215.082C415.813 214.103 416.013 213.074 416.02 211.994V209.457H418.651V211.994ZM414.705 222.467H417.359V226.929H429.171V229.043H414.705V222.467ZM422.22 215.352H426.095V213.262H422.22V211.148H426.095V208.26H428.702V224.017H426.095V217.442H422.22V215.352ZM449.367 229.489H446.737V208.236H449.367V229.489ZM432.389 217.277C432.389 215.782 432.623 214.467 433.093 213.332C433.563 212.197 434.216 211.324 435.054 210.714C435.899 210.095 436.858 209.786 437.931 209.786C438.988 209.786 439.935 210.095 440.772 210.714C441.618 211.324 442.279 212.197 442.757 213.332C443.234 214.467 443.473 215.782 443.473 217.277C443.473 218.788 443.234 220.111 442.757 221.246C442.279 222.381 441.618 223.258 440.772 223.876C439.935 224.487 438.988 224.792 437.931 224.792C436.858 224.792 435.899 224.487 435.054 223.876C434.216 223.258 433.563 222.381 433.093 221.246C432.623 220.111 432.389 218.788 432.389 217.277ZM434.901 217.277C434.901 218.35 435.027 219.274 435.277 220.049C435.535 220.824 435.892 221.415 436.346 221.822C436.8 222.229 437.328 222.436 437.931 222.444C438.526 222.436 439.05 222.229 439.504 221.822C439.958 221.415 440.31 220.824 440.561 220.049C440.811 219.274 440.937 218.35 440.937 217.277C440.937 216.213 440.811 215.297 440.561 214.53C440.31 213.755 439.958 213.164 439.504 212.757C439.05 212.342 438.526 212.134 437.931 212.134C437.328 212.134 436.8 212.342 436.346 212.757C435.892 213.164 435.535 213.755 435.277 214.53C435.027 215.297 434.901 216.213 434.901 217.277ZM463.011 222.937H465.806V220.659H468.225V227.399C469.031 227.062 469.704 226.616 470.244 226.06C470.792 225.505 471.2 224.894 471.466 224.229C471.732 223.563 471.865 222.882 471.865 222.186V220.495H474.472V222.186C474.464 222.945 474.593 223.669 474.859 224.358C475.133 225.039 475.552 225.649 476.115 226.19C476.679 226.722 477.384 227.133 478.229 227.422L476.89 229.372C475.113 228.73 473.865 227.54 473.145 225.802C472.777 226.608 472.284 227.317 471.665 227.927C471.055 228.546 470.323 229.027 469.47 229.372L468.225 227.528V229.207H460.569V220.659H463.011V222.937ZM458.479 214.037C458.479 213.082 458.718 212.232 459.195 211.489C459.681 210.737 460.35 210.154 461.203 209.739C462.056 209.316 463.019 209.105 464.092 209.105C464.992 209.105 465.822 209.266 466.581 209.586C467.34 209.9 467.974 210.346 468.483 210.925C469 211.504 469.348 212.174 469.528 212.933H473.368V208.236H475.975V219.485H473.368V215.093H469.54C469.368 215.868 469.027 216.553 468.518 217.148C468.01 217.743 467.372 218.205 466.605 218.534C465.837 218.855 465 219.015 464.092 219.015C463.019 219.015 462.056 218.808 461.203 218.393C460.35 217.97 459.681 217.383 459.195 216.632C458.718 215.872 458.479 215.007 458.479 214.037ZM460.968 214.037C460.968 214.6 461.101 215.097 461.368 215.528C461.634 215.958 462.002 216.291 462.471 216.526C462.949 216.761 463.489 216.878 464.092 216.878C464.687 216.878 465.215 216.761 465.677 216.526C466.139 216.291 466.503 215.958 466.769 215.528C467.035 215.097 467.168 214.6 467.168 214.037C467.168 213.489 467.035 213.003 466.769 212.581C466.503 212.158 466.135 211.833 465.665 211.606C465.203 211.379 464.679 211.266 464.092 211.266C463.489 211.266 462.949 211.379 462.471 211.606C462.002 211.833 461.634 212.158 461.368 212.581C461.101 213.003 460.968 213.489 460.968 214.037ZM465.806 227.211V224.886H463.011V227.211H465.806ZM484.781 209.786C485.728 209.786 486.585 210.041 487.352 210.549C488.12 211.058 488.746 211.786 489.231 212.733C489.716 213.673 490.022 214.78 490.147 216.056H494.198V208.236H496.781V229.489H494.198V218.17H490.171C490.077 219.516 489.791 220.69 489.313 221.692C488.836 222.687 488.206 223.454 487.423 223.994C486.64 224.526 485.759 224.792 484.781 224.792C483.716 224.792 482.769 224.487 481.939 223.876C481.117 223.258 480.476 222.381 480.014 221.246C479.56 220.111 479.333 218.788 479.333 217.277C479.333 215.774 479.56 214.459 480.014 213.332C480.476 212.197 481.121 211.324 481.951 210.714C482.781 210.095 483.724 209.786 484.781 209.786ZM481.845 217.277C481.845 218.35 481.967 219.274 482.209 220.049C482.452 220.824 482.793 221.415 483.231 221.822C483.677 222.229 484.194 222.436 484.781 222.444C485.368 222.436 485.885 222.229 486.331 221.822C486.777 221.415 487.122 220.824 487.364 220.049C487.615 219.274 487.74 218.35 487.74 217.277C487.74 216.213 487.615 215.293 487.364 214.518C487.122 213.743 486.777 213.152 486.331 212.745C485.885 212.338 485.368 212.134 484.781 212.134C484.194 212.134 483.677 212.342 483.231 212.757C482.793 213.164 482.452 213.755 482.209 214.53C481.967 215.297 481.845 216.213 481.845 217.277ZM519.161 226.882H499.764V224.745H504.249V219.379C503.388 218.886 502.719 218.264 502.241 217.512C501.772 216.761 501.541 215.923 501.548 215C501.548 213.888 501.881 212.909 502.546 212.064C503.22 211.211 504.155 210.553 505.353 210.091C506.55 209.622 507.905 209.387 509.416 209.387C510.934 209.387 512.292 209.622 513.49 210.091C514.695 210.553 515.635 211.211 516.308 212.064C516.989 212.909 517.33 213.888 517.33 215C517.337 215.908 517.11 216.729 516.649 217.465C516.187 218.201 515.537 218.82 514.699 219.321V224.745H519.161V226.882ZM504.108 215C504.108 215.712 504.327 216.338 504.766 216.878C505.212 217.411 505.834 217.821 506.633 218.111C507.439 218.401 508.367 218.546 509.416 218.546C510.464 218.546 511.392 218.401 512.198 218.111C513.012 217.821 513.643 217.411 514.089 216.878C514.543 216.338 514.77 215.712 514.77 215C514.77 214.279 514.543 213.649 514.089 213.109C513.643 212.569 513.012 212.158 512.198 211.876C511.392 211.594 510.464 211.453 509.416 211.453C508.359 211.453 507.427 211.594 506.621 211.876C505.822 212.158 505.204 212.569 504.766 213.109C504.327 213.641 504.108 214.272 504.108 215ZM512.046 224.745V220.319C511.216 220.499 510.339 220.589 509.416 220.589C508.531 220.589 507.67 220.503 506.832 220.33V224.745H512.046ZM523.13 227.563C522.801 227.563 522.496 227.481 522.214 227.317C521.932 227.152 521.709 226.929 521.545 226.647C521.381 226.366 521.298 226.06 521.298 225.732C521.298 225.411 521.381 225.113 521.545 224.839C521.709 224.557 521.932 224.334 522.214 224.17C522.496 224.006 522.801 223.923 523.13 223.923C523.451 223.923 523.748 224.006 524.022 224.17C524.304 224.334 524.527 224.557 524.692 224.839C524.856 225.113 524.938 225.411 524.938 225.732C524.938 226.06 524.856 226.366 524.692 226.647C524.527 226.929 524.304 227.152 524.022 227.317C523.748 227.481 523.451 227.563 523.13 227.563ZM329.905 252.096H319.854V242.068H329.905V252.096ZM322.273 254.233H324.88V258.929H336.716V261.043H322.273V254.233ZM327.345 250.029V244.158H322.414V250.029H327.345ZM333.263 240.236H335.87V246.459H338.829V248.643H335.87V255.735H333.263V240.236ZM359.283 250.804H339.909V248.737H359.283V250.804ZM342.187 252.26H356.841V257.591H344.77V259.211H357.428V261.254H342.211V255.712H354.281V254.233H342.187V252.26ZM342.375 240.776H356.794V242.866H344.982V245.309H356.982V247.375H342.375V240.776ZM378.47 261.489H375.863V250.193H372.223V248.056H375.863V240.236H378.47V261.489ZM361.397 242.091H371.002V249.865H364.051V254.326C365.796 254.319 367.323 254.272 368.63 254.186C369.945 254.099 371.268 253.935 372.599 253.692L372.81 255.829C371.331 256.088 369.851 256.264 368.372 256.358C366.9 256.452 365.162 256.503 363.158 256.51H361.467V247.751H368.442V244.205H361.397V242.091ZM403.809 248.526H406.956V250.71H403.809V261.419H401.202V240.236H403.809V248.526ZM387.065 255.618C389.656 254.326 391.652 252.773 393.053 250.957C394.454 249.133 395.284 247.015 395.542 244.604H388.216V242.444H398.196C398.18 249.411 394.963 254.475 388.544 257.638L387.065 255.618ZM413.061 242.232H422.22V240.565H424.803V247.634H418.885V249.254H427.316V251.321H407.965V249.254H416.302V247.634H410.478V240.565H413.061V242.232ZM410.243 252.659H424.897V257.802H412.827V259.282H425.484V261.278H410.267V255.97H422.338V254.585H410.243V252.659ZM422.22 245.684V244.134H413.061V245.684H422.22ZM445.68 248.714H448.616V250.874H445.68V261.466H443.05V240.236H445.68V248.714ZM428.443 255.383C429.414 254.35 430.193 253.278 430.78 252.166C431.367 251.054 431.801 249.888 432.083 248.667C432.373 247.446 432.553 246.091 432.623 244.604H429.289V242.467H435.113C435.105 244.502 434.976 246.334 434.725 247.962C434.475 249.583 434.009 251.14 433.328 252.636C432.655 254.131 431.708 255.54 430.486 256.863L428.443 255.383ZM434.455 256.792C435.426 255.626 436.197 254.405 436.768 253.129C437.348 251.845 437.766 250.518 438.025 249.148C438.283 247.771 438.443 246.256 438.506 244.604H435.817V242.467H440.984C440.976 244.635 440.858 246.6 440.631 248.362C440.412 250.123 439.978 251.845 439.328 253.528C438.686 255.203 437.759 256.769 436.545 258.225L434.455 256.792ZM468.929 258.882H449.532V256.745H454.017V251.379C453.156 250.886 452.487 250.264 452.009 249.512C451.54 248.761 451.309 247.923 451.317 247C451.317 245.888 451.649 244.909 452.315 244.064C452.988 243.211 453.923 242.553 455.121 242.091C456.319 241.622 457.673 241.387 459.184 241.387C460.702 241.387 462.06 241.622 463.258 242.091C464.464 242.553 465.403 243.211 466.076 244.064C466.757 244.909 467.098 245.888 467.098 247C467.105 247.908 466.878 248.729 466.417 249.465C465.955 250.201 465.305 250.82 464.467 251.321V256.745H468.929V258.882ZM453.876 247C453.876 247.712 454.095 248.338 454.534 248.878C454.98 249.411 455.602 249.821 456.401 250.111C457.207 250.401 458.135 250.546 459.184 250.546C460.233 250.546 461.16 250.401 461.966 250.111C462.781 249.821 463.411 249.411 463.857 248.878C464.311 248.338 464.538 247.712 464.538 247C464.538 246.279 464.311 245.649 463.857 245.109C463.411 244.569 462.781 244.158 461.966 243.876C461.16 243.594 460.233 243.453 459.184 243.453C458.127 243.453 457.195 243.594 456.389 243.876C455.591 244.158 454.972 244.569 454.534 245.109C454.095 245.641 453.876 246.272 453.876 247ZM461.814 256.745V252.319C460.984 252.499 460.107 252.589 459.184 252.589C458.299 252.589 457.438 252.503 456.6 252.33V256.745H461.814ZM473.908 254.162C473.916 253.199 474.01 252.42 474.19 251.825C474.37 251.231 474.62 250.753 474.941 250.393C475.27 250.033 475.708 249.684 476.256 249.348C476.812 248.988 477.247 248.6 477.56 248.185C477.873 247.771 478.025 247.289 478.018 246.741C478.018 246.311 477.916 245.935 477.712 245.614C477.517 245.285 477.243 245.031 476.89 244.851C476.538 244.671 476.147 244.581 475.716 244.581C475.317 244.581 474.941 244.667 474.589 244.839C474.237 245.011 473.947 245.273 473.72 245.626C473.493 245.978 473.368 246.405 473.344 246.906H470.409C470.432 245.888 470.683 245.023 471.16 244.311C471.638 243.59 472.272 243.05 473.063 242.69C473.861 242.322 474.753 242.138 475.74 242.138C476.789 242.138 477.716 242.326 478.523 242.702C479.337 243.07 479.967 243.598 480.413 244.287C480.867 244.976 481.094 245.778 481.094 246.694C481.086 247.61 480.867 248.397 480.436 249.054C480.014 249.712 479.403 250.279 478.605 250.757C478.135 251.047 477.759 251.34 477.478 251.638C477.204 251.935 477 252.283 476.867 252.683C476.734 253.082 476.663 253.575 476.656 254.162V254.373H473.908V254.162ZM473.532 257.732C473.532 257.411 473.614 257.113 473.779 256.839C473.943 256.557 474.166 256.334 474.448 256.17C474.73 256.006 475.035 255.923 475.364 255.923C475.685 255.923 475.982 256.006 476.256 256.17C476.538 256.334 476.761 256.557 476.926 256.839C477.09 257.113 477.172 257.411 477.172 257.732C477.172 258.06 477.09 258.366 476.926 258.647C476.761 258.929 476.538 259.152 476.256 259.317C475.982 259.481 475.685 259.563 475.364 259.563C475.035 259.563 474.73 259.481 474.448 259.317C474.166 259.152 473.943 258.929 473.779 258.647C473.614 258.366 473.532 258.06 473.532 257.732Z" fill="#757575"/>
<path d="M324.419 282.587L336.559 299.276C338.727 302.26 335.223 306.06 332.075 304.133L304.762 287.444C301.856 285.669 303.114 281.198 306.52 281.198H321.693C322.771 281.198 323.784 281.714 324.419 282.587V282.587Z" fill="#F5F5F5"/>
</svg>
