<svg width="800" height="800" viewBox="0 0 800 800" fill="none" xmlns="http://www.w3.org/2000/svg">
<path fill-rule="evenodd" clip-rule="evenodd" d="M138.294 623.574H257.169H257.17C256.709 623.574 256.25 623.561 255.795 623.535C252.542 623.351 249.443 622.52 246.6 621.155C244.711 620.248 242.935 619.105 241.302 617.759C240.229 616.876 239.218 615.904 238.277 614.856C237.301 613.768 236.399 612.597 235.583 611.352C232.356 606.432 230.451 600.365 230.451 593.803V542.986L138.294 623.574ZM230.45 542.986H165.414V540.439C165.414 538.278 164.344 536.325 162.607 534.907C160.869 533.489 158.485 532.612 155.834 532.612C151.52 532.612 147.873 534.937 146.67 538.137C145.928 537.803 145.096 537.617 144.22 537.617C141.116 537.617 138.561 539.972 138.242 542.986C127.14 543.001 117.085 547.509 109.807 554.787C102.515 562.079 98 572.155 98 583.28C98 605.535 116.045 623.574 138.294 623.574" fill="#C2C2C2"/>
<path d="M300.642 534.402V601.155C300.642 613.534 309.65 623.566 320.767 623.566H389.881C400.998 623.566 410.006 613.534 410.006 601.155V570.032H379.804C374.992 570.032 370.64 567.864 367.491 564.359C364.343 560.854 362.397 556.004 362.397 550.643C362.397 539.92 370.187 531.238 379.804 531.238H409.931C408.453 499.069 384.571 473.486 355.328 473.486C340.223 473.486 326.559 480.303 316.66 491.331C306.761 502.351 300.642 517.582 300.642 534.402Z" fill="#D9DEFF"/>
<path d="M488.81 623.017C487.154 623.381 485.446 623.566 483.694 623.566H257.169C242.406 623.566 230.45 610.237 230.45 593.796V511.285C230.45 425.351 293.557 353.837 370.691 354C432.81 354.134 485.439 399.344 503.61 461.835C492.686 473.739 485.988 489.675 485.988 507.104V618.472C485.988 620.47 487.139 622.193 488.81 623.017Z" fill="#F5F5F5"/>
<path d="M410.006 534.402V601.155C410.006 613.534 400.998 623.566 389.881 623.566H320.767C309.65 623.566 300.642 613.534 300.642 601.155V570.032H330.844C335.656 570.032 340.008 567.864 343.156 564.359C346.305 560.854 348.25 556.004 348.25 550.643C348.25 539.92 340.461 531.238 330.844 531.238H300.716C302.194 499.069 326.076 473.486 355.32 473.486C370.425 473.486 384.089 480.303 393.988 491.331C403.886 502.351 410.006 517.582 410.006 534.402Z" fill="#A8A8A8"/>
<path fill-rule="evenodd" clip-rule="evenodd" d="M655.346 623.566C681.449 623.566 703.03 602.572 703 576.47C702.985 562.375 697.266 549.625 688.028 540.387C678.775 531.134 665.995 525.416 651.878 525.416H636.522C631.205 525.416 626.4 523.262 622.917 519.779C619.434 516.296 617.281 511.485 617.281 506.176C617.281 470.969 589.56 442.229 554.746 440.603C534.585 439.66 516.257 448.051 503.611 461.841C503.611 461.842 503.611 461.842 503.611 461.842C492.687 473.746 485.989 489.682 485.989 507.111V618.48C485.989 620.477 487.14 622.2 488.81 623.024C489.494 623.373 490.259 623.566 491.075 623.566H655.346Z" fill="#A8A8A8"/>
<path d="M362.426 507.572C364.362 507.572 365.931 506.002 365.931 504.067C365.931 502.131 364.362 500.562 362.426 500.562C360.491 500.562 358.921 502.131 358.921 504.067C358.921 506.002 360.491 507.572 362.426 507.572Z" fill="white"/>
<path d="M380.271 507.572C382.207 507.572 383.777 506.002 383.777 504.067C383.777 502.131 382.207 500.562 380.271 500.562C378.335 500.562 376.766 502.131 376.766 504.067C376.766 506.002 378.335 507.572 380.271 507.572Z" fill="white"/>
<path d="M371.346 517.062C368.071 517.062 365.798 515.332 365.657 515.22C364.937 514.656 364.803 513.609 365.368 512.889C365.932 512.168 366.964 512.035 367.692 512.592C367.848 512.71 371.138 515.109 375.103 512.517C375.876 512.012 376.9 512.228 377.405 513C377.91 513.765 377.695 514.797 376.923 515.302C374.91 516.624 373.002 517.062 371.346 517.062Z" fill="white"/>
<path d="M528.458 487.061C531.156 487.061 533.344 484.873 533.344 482.175C533.344 479.476 531.156 477.288 528.458 477.288C525.759 477.288 523.571 479.476 523.571 482.175C523.571 484.873 525.759 487.061 528.458 487.061Z" fill="white"/>
<path d="M553.328 487.061C556.026 487.061 558.214 484.873 558.214 482.175C558.214 479.476 556.026 477.288 553.328 477.288C550.629 477.288 548.441 479.476 548.441 482.175C548.441 484.873 550.629 487.061 553.328 487.061Z" fill="white"/>
<path d="M137.351 570.649C139.602 570.649 141.428 568.823 141.428 566.571C141.428 564.319 139.602 562.495 137.351 562.495C135.099 562.495 133.274 564.319 133.274 566.571C133.274 568.823 135.099 570.649 137.351 570.649Z" fill="#8F8F8F"/>
<path d="M158.122 570.649C160.373 570.649 162.198 568.823 162.198 566.571C162.198 564.319 160.373 562.495 158.122 562.495C155.87 562.495 154.045 564.319 154.045 566.571C154.045 568.823 155.87 570.649 158.122 570.649Z" fill="#8F8F8F"/>
<g opacity="0.8">
<path opacity="0.8" d="M154.557 576.337V577.265C154.557 580.577 151.445 583.273 147.621 583.273C143.796 583.273 140.685 580.577 140.685 577.265V576.337C140.685 575.253 141.568 574.362 142.66 574.362H152.589C153.681 574.362 154.563 575.245 154.563 576.337H154.557Z" fill="#8F8F8F"/>
</g>
<path fill-rule="evenodd" clip-rule="evenodd" d="M382.448 420.256C384.293 420.256 385.789 421.752 385.789 423.598V425.165C385.789 426.488 387.374 428.663 390.854 428.663C394.334 428.663 395.919 426.488 395.919 425.165V423.598C395.919 421.752 397.415 420.256 399.26 420.256C401.106 420.256 402.602 421.752 402.602 423.598V425.165C402.602 431.401 396.672 435.346 390.854 435.346C385.036 435.346 379.106 431.401 379.106 425.165V423.598C379.106 421.752 380.602 420.256 382.448 420.256Z" fill="#8F8F8F"/>
<path fill-rule="evenodd" clip-rule="evenodd" d="M428.54 420.256C430.386 420.256 431.881 421.752 431.881 423.598V425.165C431.881 426.488 433.467 428.663 436.946 428.663C440.426 428.663 442.011 426.488 442.011 425.165V423.598C442.011 421.752 443.507 420.256 445.352 420.256C447.198 420.256 448.694 421.752 448.694 423.598V425.165C448.694 431.401 442.764 435.346 436.946 435.346C431.128 435.346 425.198 431.401 425.198 425.165V423.598C425.198 421.752 426.694 420.256 428.54 420.256Z" fill="#8F8F8F"/>
<path d="M426.075 443.871V445.438C426.075 451.052 420.803 455.619 414.327 455.619C407.852 455.619 402.579 451.052 402.579 445.438V443.871C402.579 442.03 404.072 440.53 405.921 440.53H422.733C424.582 440.53 426.075 442.03 426.075 443.871Z" fill="#8F8F8F"/>
<rect x="231" y="177" width="338" height="106.877" rx="53.4387" fill="#F5F5F5"/>
<path d="M280.268 205.786C281.332 205.786 282.28 206.095 283.109 206.714C283.939 207.324 284.589 208.197 285.058 209.332C285.536 210.459 285.779 211.774 285.786 213.277C285.779 214.788 285.536 216.111 285.058 217.246C284.589 218.381 283.939 219.258 283.109 219.876C282.28 220.487 281.332 220.792 280.268 220.792C279.195 220.792 278.24 220.487 277.403 219.876C276.565 219.258 275.911 218.381 275.442 217.246C274.98 216.111 274.749 214.788 274.749 213.277C274.749 211.774 274.98 210.459 275.442 209.332C275.911 208.197 276.565 207.324 277.403 206.714C278.24 206.095 279.195 205.786 280.268 205.786ZM277.262 213.277C277.262 214.342 277.387 215.266 277.638 216.049C277.888 216.824 278.24 217.415 278.694 217.822C279.148 218.229 279.673 218.436 280.268 218.444C280.87 218.436 281.395 218.229 281.841 217.822C282.295 217.415 282.647 216.824 282.898 216.049C283.148 215.274 283.274 214.35 283.274 213.277C283.274 212.213 283.148 211.293 282.898 210.518C282.647 209.743 282.295 209.152 281.841 208.745C281.387 208.338 280.863 208.134 280.268 208.134C279.673 208.134 279.148 208.342 278.694 208.757C278.24 209.164 277.888 209.755 277.638 210.53C277.387 211.297 277.262 212.213 277.262 213.277ZM288.581 204.236H291.188V212.385H294.452V214.593H291.188V225.466H288.581V204.236ZM303.399 207.923C303.399 208.808 303.599 209.669 303.998 210.506C304.405 211.336 304.996 212.076 305.771 212.726C306.554 213.375 307.493 213.872 308.589 214.217L307.251 216.236C306.069 215.853 305.043 215.285 304.174 214.534C303.305 213.775 302.62 212.878 302.119 211.845C301.634 212.964 300.941 213.939 300.041 214.769C299.149 215.598 298.084 216.221 296.847 216.636L295.509 214.616C296.612 214.24 297.56 213.708 298.35 213.019C299.141 212.322 299.74 211.536 300.147 210.659C300.554 209.774 300.761 208.862 300.769 207.923V207.665H296.19V205.575H307.861V207.665H303.399V207.923ZM298.538 218.021H313.028V225.466H310.397V220.135H298.538V218.021ZM310.397 204.236H313.028V217.035H310.397V204.236ZM341.208 216.213H321.834V214.076H341.208V216.213ZM324.089 221.544C324.089 220.73 324.382 220.033 324.969 219.454C325.564 218.874 326.413 218.436 327.517 218.139C328.629 217.841 329.952 217.692 331.486 217.692C333.005 217.692 334.316 217.841 335.419 218.139C336.523 218.436 337.369 218.874 337.956 219.454C338.543 220.033 338.836 220.73 338.836 221.544C338.836 222.374 338.543 223.078 337.956 223.657C337.369 224.244 336.523 224.687 335.419 224.984C334.324 225.289 333.012 225.442 331.486 225.442C329.952 225.442 328.629 225.289 327.517 224.984C326.413 224.687 325.564 224.244 324.969 223.657C324.382 223.07 324.089 222.366 324.089 221.544ZM324.206 204.917H338.86V207.031H326.813V210.318H338.977V212.409H324.206V204.917ZM326.742 221.544C326.734 222.17 327.134 222.64 327.94 222.953C328.746 223.266 329.928 223.422 331.486 223.422C333.02 223.422 334.191 223.266 334.997 222.953C335.811 222.64 336.222 222.17 336.23 221.544C336.214 220.941 335.799 220.483 334.985 220.17C334.171 219.849 333.005 219.689 331.486 219.689C329.944 219.689 328.766 219.849 327.952 220.17C327.138 220.483 326.734 220.941 326.742 221.544ZM361.991 217.833H342.594V215.72H351.001V213.958H345.06V208.322H356.989V206.749H344.989V204.706H359.596V210.225H347.643V211.915H360.019V213.958H353.584V215.72H361.991V217.833ZM344.754 219.172H359.713V225.325H357.083V221.238H344.754V219.172ZM375.753 212.996H371.808V215.403C373.686 215.324 375.416 215.203 376.998 215.039L377.185 216.917C375.142 217.199 373.009 217.395 370.786 217.505C368.571 217.606 366.258 217.661 363.847 217.669L363.494 215.579C365.992 215.563 367.886 215.536 369.177 215.497V212.996H365.326V205.551H375.589V207.665H367.956V210.906H375.753V212.996ZM366.876 219.007H369.506V222.929H381.718V225.043H366.876V219.007ZM378.477 204.236H381.107V220.182H378.477V204.236ZM397.475 209.332C397.468 210.608 397.667 211.853 398.074 213.066C398.489 214.279 399.084 215.368 399.859 216.33C400.642 217.285 401.569 218.021 402.642 218.538L401.045 220.628C399.918 220.056 398.939 219.242 398.11 218.186C397.288 217.129 396.646 215.908 396.184 214.522C395.706 216.002 395.033 217.309 394.164 218.444C393.303 219.571 392.278 220.432 391.088 221.027L389.491 218.937C390.595 218.413 391.55 217.649 392.356 216.647C393.17 215.638 393.789 214.499 394.211 213.23C394.642 211.955 394.861 210.655 394.869 209.332V205.95H397.475V209.332ZM403.91 204.236H406.517V212.549H409.781V214.78H406.517V225.466H403.91V204.236ZM418.728 208.557C418.728 209.45 418.928 210.311 419.327 211.14C419.726 211.97 420.317 212.71 421.1 213.36C421.883 214.002 422.822 214.491 423.918 214.827L422.58 216.87C421.398 216.487 420.372 215.919 419.503 215.168C418.634 214.409 417.949 213.512 417.448 212.479C416.963 213.598 416.27 214.573 415.37 215.403C414.478 216.232 413.413 216.863 412.176 217.293L410.838 215.227C411.942 214.859 412.889 214.334 413.679 213.653C414.47 212.964 415.069 212.182 415.476 211.305C415.883 210.42 416.09 209.504 416.098 208.557V207.947H411.519V205.857H423.19V207.947H418.728V208.557ZM414.313 218.256H416.944V222.929H428.944V225.043H414.313V218.256ZM425.727 204.26H428.357V219.665H425.727V204.26ZM449.116 225.489H446.486V204.236H449.116V225.489ZM432.138 213.277C432.138 211.782 432.372 210.467 432.842 209.332C433.312 208.197 433.965 207.324 434.803 206.714C435.648 206.095 436.607 205.786 437.68 205.786C438.737 205.786 439.684 206.095 440.521 206.714C441.367 207.324 442.028 208.197 442.506 209.332C442.983 210.467 443.222 211.782 443.222 213.277C443.222 214.788 442.983 216.111 442.506 217.246C442.028 218.381 441.367 219.258 440.521 219.876C439.684 220.487 438.737 220.792 437.68 220.792C436.607 220.792 435.648 220.487 434.803 219.876C433.965 219.258 433.312 218.381 432.842 217.246C432.372 216.111 432.138 214.788 432.138 213.277ZM434.65 213.277C434.65 214.35 434.776 215.274 435.026 216.049C435.284 216.824 435.641 217.415 436.095 217.822C436.549 218.229 437.077 218.436 437.68 218.444C438.275 218.436 438.799 218.229 439.253 217.822C439.707 217.415 440.059 216.824 440.31 216.049C440.56 215.274 440.686 214.35 440.686 213.277C440.686 212.213 440.56 211.297 440.31 210.53C440.059 209.755 439.707 209.164 439.253 208.757C438.799 208.342 438.275 208.134 437.68 208.134C437.077 208.134 436.549 208.342 436.095 208.757C435.641 209.164 435.284 209.755 435.026 210.53C434.776 211.297 434.65 212.213 434.65 213.277ZM462.76 218.937H465.555V216.659H467.974V223.399C468.78 223.062 469.453 222.616 469.994 222.06C470.541 221.505 470.949 220.894 471.215 220.229C471.481 219.563 471.614 218.882 471.614 218.186V216.495H474.221V218.186C474.213 218.945 474.342 219.669 474.608 220.358C474.882 221.039 475.301 221.649 475.864 222.19C476.428 222.722 477.133 223.133 477.978 223.422L476.639 225.372C474.862 224.73 473.614 223.54 472.894 221.802C472.526 222.608 472.033 223.317 471.414 223.927C470.804 224.546 470.072 225.027 469.219 225.372L467.974 223.528V225.207H460.318V216.659H462.76V218.937ZM458.228 210.037C458.228 209.082 458.467 208.232 458.944 207.489C459.43 206.737 460.099 206.154 460.952 205.739C461.805 205.316 462.768 205.105 463.841 205.105C464.741 205.105 465.571 205.266 466.33 205.586C467.089 205.9 467.723 206.346 468.232 206.925C468.749 207.504 469.097 208.174 469.277 208.933H473.117V204.236H475.724V215.485H473.117V211.093H469.289C469.117 211.868 468.776 212.553 468.267 213.148C467.759 213.743 467.121 214.205 466.354 214.534C465.586 214.855 464.749 215.015 463.841 215.015C462.768 215.015 461.805 214.808 460.952 214.393C460.099 213.97 459.43 213.383 458.944 212.632C458.467 211.872 458.228 211.007 458.228 210.037ZM460.717 210.037C460.717 210.6 460.85 211.097 461.117 211.528C461.383 211.958 461.751 212.291 462.22 212.526C462.698 212.761 463.238 212.878 463.841 212.878C464.436 212.878 464.964 212.761 465.426 212.526C465.888 212.291 466.252 211.958 466.518 211.528C466.784 211.097 466.917 210.6 466.917 210.037C466.917 209.489 466.784 209.003 466.518 208.581C466.252 208.158 465.884 207.833 465.414 207.606C464.952 207.379 464.428 207.266 463.841 207.266C463.238 207.266 462.698 207.379 462.22 207.606C461.751 207.833 461.383 208.158 461.117 208.581C460.85 209.003 460.717 209.489 460.717 210.037ZM465.555 223.211V220.886H462.76V223.211H465.555ZM484.53 205.786C485.477 205.786 486.334 206.041 487.101 206.549C487.869 207.058 488.495 207.786 488.98 208.733C489.465 209.673 489.771 210.78 489.896 212.056H493.947V204.236H496.53V225.489H493.947V214.17H489.92C489.826 215.516 489.54 216.69 489.062 217.692C488.585 218.687 487.955 219.454 487.172 219.994C486.389 220.526 485.508 220.792 484.53 220.792C483.465 220.792 482.518 220.487 481.688 219.876C480.867 219.258 480.225 218.381 479.763 217.246C479.309 216.111 479.082 214.788 479.082 213.277C479.082 211.774 479.309 210.459 479.763 209.332C480.225 208.197 480.87 207.324 481.7 206.714C482.53 206.095 483.473 205.786 484.53 205.786ZM481.595 213.277C481.595 214.35 481.716 215.274 481.959 216.049C482.201 216.824 482.542 217.415 482.98 217.822C483.426 218.229 483.943 218.436 484.53 218.444C485.117 218.436 485.634 218.229 486.08 217.822C486.526 217.415 486.871 216.824 487.113 216.049C487.364 215.274 487.489 214.35 487.489 213.277C487.489 212.213 487.364 211.293 487.113 210.518C486.871 209.743 486.526 209.152 486.08 208.745C485.634 208.338 485.117 208.134 484.53 208.134C483.943 208.134 483.426 208.342 482.98 208.757C482.542 209.164 482.201 209.755 481.959 210.53C481.716 211.297 481.595 212.213 481.595 213.277ZM518.91 222.882H499.513V220.745H503.998V215.379C503.137 214.886 502.468 214.264 501.99 213.512C501.521 212.761 501.29 211.923 501.297 211C501.297 209.888 501.63 208.909 502.295 208.064C502.969 207.211 503.904 206.553 505.102 206.091C506.299 205.622 507.654 205.387 509.165 205.387C510.683 205.387 512.041 205.622 513.239 206.091C514.444 206.553 515.384 207.211 516.057 208.064C516.738 208.909 517.079 209.888 517.079 211C517.086 211.908 516.859 212.729 516.398 213.465C515.936 214.201 515.286 214.82 514.448 215.321V220.745H518.91V222.882ZM503.857 211C503.857 211.712 504.076 212.338 504.515 212.878C504.961 213.411 505.583 213.821 506.382 214.111C507.188 214.401 508.116 214.546 509.165 214.546C510.213 214.546 511.141 214.401 511.947 214.111C512.761 213.821 513.392 213.411 513.838 212.878C514.292 212.338 514.519 211.712 514.519 211C514.519 210.279 514.292 209.649 513.838 209.109C513.392 208.569 512.761 208.158 511.947 207.876C511.141 207.594 510.213 207.453 509.165 207.453C508.108 207.453 507.176 207.594 506.37 207.876C505.571 208.158 504.953 208.569 504.515 209.109C504.076 209.641 503.857 210.272 503.857 211ZM511.795 220.745V216.319C510.965 216.499 510.088 216.589 509.165 216.589C508.28 216.589 507.419 216.503 506.581 216.33V220.745H511.795ZM522.879 223.563C522.55 223.563 522.245 223.481 521.963 223.317C521.681 223.152 521.458 222.929 521.294 222.647C521.13 222.366 521.047 222.06 521.047 221.732C521.047 221.411 521.13 221.113 521.294 220.839C521.458 220.557 521.681 220.334 521.963 220.17C522.245 220.006 522.55 219.923 522.879 219.923C523.2 219.923 523.497 220.006 523.771 220.17C524.053 220.334 524.276 220.557 524.441 220.839C524.605 221.113 524.687 221.411 524.687 221.732C524.687 222.06 524.605 222.366 524.441 222.647C524.276 222.929 524.053 223.152 523.771 223.317C523.497 223.481 523.2 223.563 522.879 223.563ZM327.834 251.125H319.427V257.489H316.844V251.125H308.484V248.988H327.834V251.125ZM309.54 245.63C310.91 245.465 312.131 245.14 313.204 244.655C314.276 244.162 315.126 243.579 315.752 242.906C316.378 242.225 316.734 241.528 316.82 240.816H310.268V238.749H316.844V236.26H319.427V238.749H326.026V240.816H319.474C319.56 241.528 319.912 242.221 320.531 242.894C321.157 243.567 322.006 244.15 323.079 244.643C324.151 245.137 325.368 245.465 326.73 245.63L325.768 247.696C324.038 247.477 322.511 247.011 321.188 246.299C319.865 245.587 318.856 244.71 318.159 243.669C317.454 244.718 316.433 245.598 315.094 246.311C313.763 247.015 312.225 247.477 310.48 247.696L309.54 245.63ZM345.893 244.526H349.04V246.71H345.893V257.419H343.287V236.236H345.893V244.526ZM329.149 251.618C331.74 250.326 333.736 248.773 335.138 246.957C336.539 245.133 337.369 243.015 337.627 240.604H330.3V238.444H340.281C340.265 245.411 337.048 250.475 330.629 253.638L329.149 251.618ZM366.676 244.69H369.941V246.851H366.676V257.466H364.093V236.236H366.676V244.69ZM349.932 239.5H354.958V236.541H357.565V239.5H362.449V241.59H349.932V239.5ZM350.919 247.978C350.911 247.015 351.138 246.154 351.6 245.395C352.062 244.628 352.7 244.033 353.514 243.61C354.328 243.187 355.248 242.976 356.273 242.976C357.283 242.976 358.191 243.187 358.997 243.61C359.804 244.033 360.438 244.628 360.899 245.395C361.369 246.154 361.604 247.015 361.604 247.978C361.604 248.941 361.369 249.802 360.899 250.561C360.438 251.313 359.804 251.9 358.997 252.323C358.191 252.745 357.283 252.957 356.273 252.957C355.248 252.957 354.328 252.745 353.514 252.323C352.7 251.9 352.062 251.313 351.6 250.561C351.138 249.802 350.911 248.941 350.919 247.978ZM353.408 247.978C353.408 248.542 353.529 249.039 353.772 249.469C354.015 249.892 354.351 250.221 354.782 250.456C355.22 250.683 355.717 250.796 356.273 250.796C356.813 250.796 357.299 250.683 357.729 250.456C358.16 250.229 358.496 249.9 358.739 249.469C358.982 249.039 359.107 248.542 359.115 247.978C359.107 247.414 358.978 246.917 358.727 246.487C358.485 246.048 358.148 245.712 357.717 245.477C357.295 245.234 356.813 245.113 356.273 245.113C355.717 245.113 355.22 245.234 354.782 245.477C354.351 245.712 354.015 246.048 353.772 246.487C353.529 246.917 353.408 247.414 353.408 247.978ZM388.61 257.489H386.004V246.193H382.364V244.056H386.004V236.236H388.61V257.489ZM371.538 238.091H381.142V245.865H374.191V250.326C375.937 250.319 377.463 250.272 378.771 250.186C380.086 250.099 381.409 249.935 382.739 249.692L382.951 251.829C381.471 252.088 379.992 252.264 378.512 252.358C377.041 252.452 375.303 252.503 373.299 252.51H371.608V243.751H378.583V240.205H371.538V238.091ZM413.949 244.526H417.096V246.71H413.949V257.419H411.343V236.236H413.949V244.526ZM397.205 251.618C399.796 250.326 401.793 248.773 403.194 246.957C404.595 245.133 405.425 243.015 405.683 240.604H398.356V238.444H408.337C408.321 245.411 405.104 250.475 398.685 253.638L397.205 251.618ZM423.202 238.232H432.361V236.565H434.944V243.634H429.026V245.254H437.457V247.321H418.106V245.254H426.443V243.634H420.619V236.565H423.202V238.232ZM420.384 248.659H435.038V253.802H422.967V255.282H435.625V257.278H420.407V251.97H432.478V250.585H420.384V248.659ZM432.361 241.684V240.134H423.202V241.684H432.361ZM455.821 244.714H458.757V246.874H455.821V257.466H453.191V236.236H455.821V244.714ZM438.584 251.383C439.555 250.35 440.333 249.278 440.921 248.166C441.508 247.054 441.942 245.888 442.224 244.667C442.514 243.446 442.694 242.091 442.764 240.604H439.429V238.467H445.253C445.245 240.502 445.116 242.334 444.866 243.962C444.615 245.583 444.15 247.14 443.469 248.636C442.795 250.131 441.848 251.54 440.627 252.863L438.584 251.383ZM444.596 252.792C445.566 251.626 446.337 250.405 446.909 249.129C447.488 247.845 447.907 246.518 448.165 245.148C448.424 243.771 448.584 242.256 448.647 240.604H445.958V238.467H451.124C451.116 240.635 450.999 242.6 450.772 244.362C450.553 246.123 450.118 247.845 449.469 249.528C448.827 251.203 447.899 252.769 446.686 254.225L444.596 252.792ZM479.07 254.882H459.672V252.745H464.158V247.379C463.297 246.886 462.627 246.264 462.15 245.512C461.68 244.761 461.449 243.923 461.457 243C461.457 241.888 461.79 240.909 462.455 240.064C463.128 239.211 464.064 238.553 465.262 238.091C466.459 237.622 467.813 237.387 469.324 237.387C470.843 237.387 472.201 237.622 473.399 238.091C474.604 238.553 475.544 239.211 476.217 240.064C476.898 240.909 477.238 241.888 477.238 243C477.246 243.908 477.019 244.729 476.557 245.465C476.095 246.201 475.446 246.82 474.608 247.321V252.745H479.07V254.882ZM464.017 243C464.017 243.712 464.236 244.338 464.674 244.878C465.121 245.411 465.743 245.821 466.541 246.111C467.348 246.401 468.275 246.546 469.324 246.546C470.373 246.546 471.301 246.401 472.107 246.111C472.921 245.821 473.551 245.411 473.997 244.878C474.452 244.338 474.679 243.712 474.679 243C474.679 242.279 474.452 241.649 473.997 241.109C473.551 240.569 472.921 240.158 472.107 239.876C471.301 239.594 470.373 239.453 469.324 239.453C468.267 239.453 467.336 239.594 466.53 239.876C465.731 240.158 465.113 240.569 464.674 241.109C464.236 241.641 464.017 242.272 464.017 243ZM471.954 252.745V248.319C471.125 248.499 470.248 248.589 469.324 248.589C468.44 248.589 467.579 248.503 466.741 248.33V252.745H471.954ZM484.049 250.162C484.056 249.199 484.15 248.42 484.33 247.825C484.51 247.231 484.761 246.753 485.082 246.393C485.411 246.033 485.849 245.684 486.397 245.348C486.953 244.988 487.387 244.6 487.7 244.185C488.013 243.771 488.166 243.289 488.158 242.741C488.158 242.311 488.056 241.935 487.853 241.614C487.657 241.285 487.383 241.031 487.031 240.851C486.679 240.671 486.287 240.581 485.857 240.581C485.458 240.581 485.082 240.667 484.73 240.839C484.377 241.011 484.088 241.273 483.861 241.626C483.634 241.978 483.508 242.405 483.485 242.906H480.549C480.573 241.888 480.823 241.023 481.301 240.311C481.778 239.59 482.413 239.05 483.203 238.69C484.002 238.322 484.894 238.138 485.88 238.138C486.929 238.138 487.857 238.326 488.663 238.702C489.477 239.07 490.107 239.598 490.554 240.287C491.008 240.976 491.235 241.778 491.235 242.694C491.227 243.61 491.008 244.397 490.577 245.054C490.154 245.712 489.544 246.279 488.745 246.757C488.276 247.047 487.9 247.34 487.618 247.638C487.344 247.935 487.141 248.283 487.008 248.683C486.874 249.082 486.804 249.575 486.796 250.162V250.373H484.049V250.162ZM483.673 253.732C483.673 253.411 483.755 253.113 483.919 252.839C484.084 252.557 484.307 252.334 484.589 252.17C484.871 252.006 485.176 251.923 485.505 251.923C485.826 251.923 486.123 252.006 486.397 252.17C486.679 252.334 486.902 252.557 487.066 252.839C487.231 253.113 487.313 253.411 487.313 253.732C487.313 254.06 487.231 254.366 487.066 254.647C486.902 254.929 486.679 255.152 486.397 255.317C486.123 255.481 485.826 255.563 485.505 255.563C485.176 255.563 484.871 255.481 484.589 255.317C484.307 255.152 484.084 254.929 483.919 254.647C483.755 254.366 483.673 254.06 483.673 253.732Z" fill="#757575"/>
<path d="M324.419 278.587L336.559 295.277C338.727 298.26 335.223 302.06 332.075 300.133L304.762 283.444C301.856 281.669 303.114 277.198 306.52 277.198H321.693C322.771 277.198 323.784 277.714 324.419 278.587Z" fill="#F5F5F5"/>
</svg>
