<svg width="800" height="800" viewBox="0 0 800 800" fill="none" xmlns="http://www.w3.org/2000/svg">
<rect width="800" height="800" fill="#DBDBDB"/>
<path fill-rule="evenodd" clip-rule="evenodd" d="M138.294 623.574H257.169H257.17C256.709 623.574 256.25 623.561 255.795 623.535C252.542 623.351 249.443 622.52 246.6 621.155C244.711 620.248 242.935 619.105 241.302 617.759C240.229 616.876 239.218 615.904 238.277 614.856C237.301 613.768 236.399 612.597 235.583 611.352C232.356 606.432 230.451 600.365 230.451 593.803V542.986L138.294 623.574ZM230.45 542.986H165.414V540.439C165.414 538.278 164.344 536.325 162.607 534.907C160.869 533.489 158.485 532.612 155.834 532.612C151.52 532.612 147.873 534.937 146.67 538.137C145.928 537.803 145.096 537.617 144.22 537.617C141.116 537.617 138.561 539.972 138.242 542.986C127.14 543.001 117.085 547.509 109.807 554.787C102.515 562.079 98 572.155 98 583.28C98 605.535 116.045 623.574 138.294 623.574" fill="#C2C2C2"/>
<path d="M300.642 534.402V601.155C300.642 613.534 309.65 623.566 320.767 623.566H389.881C400.998 623.566 410.006 613.534 410.006 601.155V570.032H379.804C374.992 570.032 370.64 567.864 367.491 564.359C364.343 560.854 362.397 556.005 362.397 550.643C362.397 539.92 370.187 531.239 379.804 531.239H409.931C408.453 499.069 384.571 473.486 355.328 473.486C340.223 473.486 326.559 480.303 316.66 491.331C306.761 502.351 300.642 517.582 300.642 534.402Z" fill="#D9DEFF"/>
<path d="M488.81 623.017C487.154 623.381 485.446 623.566 483.694 623.566H257.169C242.406 623.566 230.45 610.237 230.45 593.796V511.285C230.45 425.351 293.557 353.837 370.691 354C432.81 354.134 485.439 399.344 503.61 461.835C492.687 473.739 485.988 489.675 485.988 507.104V618.472C485.988 620.47 487.139 622.193 488.81 623.017Z" fill="#F5F5F5"/>
<path d="M410.006 534.402V601.155C410.006 613.534 400.998 623.566 389.881 623.566H320.767C309.65 623.566 300.642 613.534 300.642 601.155V570.032H330.844C335.656 570.032 340.008 567.864 343.156 564.359C346.305 560.854 348.25 556.005 348.25 550.643C348.25 539.92 340.461 531.239 330.844 531.239H300.716C302.194 499.069 326.076 473.486 355.32 473.486C370.425 473.486 384.089 480.303 393.988 491.331C403.886 502.351 410.006 517.582 410.006 534.402Z" fill="#A8A8A8"/>
<path fill-rule="evenodd" clip-rule="evenodd" d="M655.346 623.566C681.449 623.566 703.03 602.572 703 576.47C702.985 562.375 697.266 549.625 688.028 540.387C678.775 531.134 665.995 525.416 651.878 525.416H636.522C631.205 525.416 626.4 523.262 622.917 519.779C619.434 516.296 617.281 511.485 617.281 506.176C617.281 470.969 589.56 442.229 554.746 440.603C534.585 439.66 516.257 448.051 503.611 461.841C503.611 461.842 503.611 461.842 503.611 461.842C492.687 473.746 485.989 489.682 485.989 507.111V618.48C485.989 620.477 487.14 622.2 488.81 623.024C489.494 623.373 490.259 623.566 491.075 623.566H655.346Z" fill="#A8A8A8"/>
<path d="M362.426 507.572C364.362 507.572 365.931 506.002 365.931 504.067C365.931 502.131 364.362 500.562 362.426 500.562C360.491 500.562 358.921 502.131 358.921 504.067C358.921 506.002 360.491 507.572 362.426 507.572Z" fill="white"/>
<path d="M380.271 507.572C382.207 507.572 383.777 506.002 383.777 504.067C383.777 502.131 382.207 500.562 380.271 500.562C378.335 500.562 376.766 502.131 376.766 504.067C376.766 506.002 378.335 507.572 380.271 507.572Z" fill="white"/>
<path d="M371.346 517.062C368.071 517.062 365.798 515.332 365.657 515.221C364.937 514.656 364.803 513.609 365.368 512.889C365.932 512.169 366.964 512.035 367.692 512.592C367.848 512.711 371.138 515.109 375.103 512.518C375.876 512.013 376.9 512.228 377.405 513C377.91 513.765 377.695 514.797 376.923 515.302C374.91 516.624 373.002 517.062 371.346 517.062Z" fill="white"/>
<path d="M528.458 487.061C531.156 487.061 533.344 484.874 533.344 482.175C533.344 479.476 531.156 477.289 528.458 477.289C525.759 477.289 523.571 479.476 523.571 482.175C523.571 484.874 525.759 487.061 528.458 487.061Z" fill="white"/>
<path d="M553.328 487.061C556.026 487.061 558.214 484.874 558.214 482.175C558.214 479.476 556.026 477.289 553.328 477.289C550.629 477.289 548.441 479.476 548.441 482.175C548.441 484.874 550.629 487.061 553.328 487.061Z" fill="white"/>
<path d="M137.351 570.648C139.602 570.648 141.428 568.823 141.428 566.571C141.428 564.319 139.602 562.495 137.351 562.495C135.099 562.495 133.274 564.319 133.274 566.571C133.274 568.823 135.099 570.648 137.351 570.648Z" fill="#8F8F8F"/>
<path d="M158.122 570.648C160.373 570.648 162.198 568.823 162.198 566.571C162.198 564.319 160.373 562.495 158.122 562.495C155.87 562.495 154.045 564.319 154.045 566.571C154.045 568.823 155.87 570.648 158.122 570.648Z" fill="#8F8F8F"/>
<g opacity="0.8">
<path opacity="0.8" d="M154.557 576.337V577.265C154.557 580.577 151.445 583.273 147.621 583.273C143.796 583.273 140.685 580.577 140.685 577.265V576.337C140.685 575.253 141.568 574.362 142.66 574.362H152.589C153.681 574.362 154.563 575.246 154.563 576.337H154.557Z" fill="#8F8F8F"/>
</g>
<path fill-rule="evenodd" clip-rule="evenodd" d="M382.448 420.256C384.293 420.256 385.789 421.752 385.789 423.598V425.165C385.789 426.488 387.374 428.663 390.854 428.663C394.334 428.663 395.919 426.488 395.919 425.165V423.598C395.919 421.752 397.415 420.256 399.26 420.256C401.106 420.256 402.602 421.752 402.602 423.598V425.165C402.602 431.401 396.672 435.346 390.854 435.346C385.036 435.346 379.106 431.401 379.106 425.165V423.598C379.106 421.752 380.602 420.256 382.448 420.256Z" fill="#8F8F8F"/>
<path fill-rule="evenodd" clip-rule="evenodd" d="M428.54 420.256C430.386 420.256 431.881 421.752 431.881 423.598V425.165C431.881 426.488 433.467 428.663 436.946 428.663C440.426 428.663 442.011 426.488 442.011 425.165V423.598C442.011 421.752 443.507 420.256 445.352 420.256C447.198 420.256 448.694 421.752 448.694 423.598V425.165C448.694 431.401 442.764 435.346 436.946 435.346C431.128 435.346 425.198 431.401 425.198 425.165V423.598C425.198 421.752 426.694 420.256 428.54 420.256Z" fill="#8F8F8F"/>
<path d="M426.075 443.871V445.438C426.075 451.052 420.803 455.619 414.327 455.619C407.852 455.619 402.579 451.052 402.579 445.438V443.871C402.579 442.03 404.072 440.53 405.921 440.53H422.733C424.582 440.53 426.075 442.03 426.075 443.871Z" fill="#8F8F8F"/>
<rect x="231" y="177" width="338" height="106.877" rx="53.4387" fill="#F5F5F5"/>
<path d="M283.121 205.786C284.186 205.786 285.133 206.095 285.963 206.714C286.792 207.324 287.442 208.197 287.912 209.332C288.389 210.459 288.632 211.774 288.64 213.277C288.632 214.788 288.389 216.111 287.912 217.246C287.442 218.381 286.792 219.258 285.963 219.876C285.133 220.487 284.186 220.792 283.121 220.792C282.049 220.792 281.094 220.487 280.256 219.876C279.418 219.258 278.765 218.381 278.295 217.246C277.833 216.111 277.602 214.788 277.602 213.277C277.602 211.774 277.833 210.459 278.295 209.332C278.765 208.197 279.418 207.324 280.256 206.714C281.094 206.095 282.049 205.786 283.121 205.786ZM280.115 213.277C280.115 214.342 280.24 215.266 280.491 216.049C280.741 216.824 281.094 217.415 281.548 217.822C282.002 218.229 282.526 218.436 283.121 218.444C283.724 218.436 284.248 218.229 284.694 217.822C285.148 217.415 285.501 216.824 285.751 216.049C286.002 215.274 286.127 214.35 286.127 213.277C286.127 212.213 286.002 211.293 285.751 210.518C285.501 209.743 285.148 209.152 284.694 208.745C284.24 208.338 283.716 208.134 283.121 208.134C282.526 208.134 282.002 208.342 281.548 208.757C281.094 209.164 280.741 209.755 280.491 210.53C280.24 211.297 280.115 212.213 280.115 213.277ZM291.434 204.236H294.041V212.385H297.305V214.593H294.041V225.466H291.434V204.236ZM306.253 207.923C306.253 208.808 306.452 209.669 306.851 210.506C307.258 211.336 307.849 212.076 308.624 212.726C309.407 213.375 310.347 213.872 311.443 214.217L310.104 216.236C308.922 215.853 307.896 215.285 307.028 214.534C306.159 213.775 305.474 212.878 304.973 211.845C304.487 212.964 303.795 213.939 302.894 214.769C302.002 215.598 300.937 216.221 299.701 216.636L298.362 214.616C299.466 214.24 300.413 213.708 301.204 213.019C301.994 212.322 302.593 211.536 303 210.659C303.407 209.774 303.615 208.862 303.622 207.923V207.665H299.043V205.575H310.715V207.665H306.253V207.923ZM301.391 218.021H315.881V225.466H313.251V220.135H301.391V218.021ZM313.251 204.236H315.881V217.035H313.251V204.236ZM334.339 204.659C335.897 204.659 337.251 204.823 338.402 205.152C339.553 205.481 340.437 205.958 341.056 206.585C341.682 207.203 341.995 207.939 341.995 208.792C341.995 209.63 341.682 210.354 341.056 210.964C340.437 211.567 339.553 212.029 338.402 212.35C337.251 212.671 335.897 212.831 334.339 212.831C332.797 212.831 331.447 212.671 330.288 212.35C329.138 212.029 328.249 211.567 327.623 210.964C326.997 210.354 326.684 209.63 326.684 208.792C326.684 207.939 326.997 207.203 327.623 206.585C328.249 205.958 329.138 205.481 330.288 205.152C331.447 204.823 332.797 204.659 334.339 204.659ZM324.687 214.264H344.038V216.377H324.687V214.264ZM326.965 218.068H341.69V225.207H326.965V218.068ZM329.408 208.792C329.4 209.426 329.83 209.919 330.699 210.272C331.568 210.624 332.781 210.804 334.339 210.812C335.897 210.804 337.11 210.624 337.979 210.272C338.856 209.919 339.294 209.426 339.294 208.792C339.294 208.119 338.86 207.602 337.991 207.242C337.122 206.882 335.905 206.702 334.339 206.702C332.774 206.702 331.556 206.882 330.688 207.242C329.826 207.602 329.4 208.119 329.408 208.792ZM339.153 223.094V220.135H329.549V223.094H339.153ZM353.244 207.289C353.236 208.268 353.42 209.195 353.796 210.072C354.179 210.941 354.747 211.708 355.498 212.373C356.25 213.031 357.166 213.528 358.246 213.865L356.837 215.908C355.702 215.501 354.727 214.925 353.913 214.182C353.099 213.438 352.461 212.553 351.999 211.528C351.522 212.71 350.837 213.735 349.944 214.604C349.052 215.465 347.976 216.119 346.715 216.565L345.33 214.452C346.473 214.076 347.439 213.532 348.23 212.82C349.021 212.107 349.612 211.289 350.003 210.365C350.402 209.434 350.606 208.448 350.614 207.406V205.387H353.244V207.289ZM348.852 221.379C348.844 220.526 349.13 219.794 349.709 219.184C350.289 218.565 351.118 218.096 352.199 217.775C353.287 217.454 354.574 217.293 356.062 217.293C357.557 217.293 358.849 217.454 359.937 217.775C361.025 218.096 361.858 218.565 362.438 219.184C363.025 219.794 363.318 220.526 363.318 221.379C363.318 222.233 363.025 222.965 362.438 223.575C361.858 224.186 361.025 224.648 359.937 224.961C358.849 225.282 357.557 225.442 356.062 225.442C354.574 225.442 353.287 225.282 352.199 224.961C351.118 224.648 350.289 224.186 349.709 223.575C349.13 222.965 348.844 222.233 348.852 221.379ZM351.435 221.379C351.428 222.021 351.827 222.518 352.633 222.871C353.439 223.215 354.582 223.391 356.062 223.399C357.549 223.391 358.696 223.215 359.502 222.871C360.308 222.518 360.712 222.021 360.712 221.379C360.712 220.714 360.308 220.205 359.502 219.853C358.704 219.501 357.557 219.321 356.062 219.313C354.574 219.321 353.428 219.501 352.621 219.853C351.823 220.205 351.428 220.714 351.435 221.379ZM356.414 208.346H360.641V204.236H363.248V216.73H360.641V210.483H356.414V208.346ZM375.248 212.056H377.714V204.612H380.203V224.432H377.714V214.17H375.248V219.994H366.911V206.538H375.248V212.056ZM372.806 217.927V208.604H369.354V217.927H372.806ZM382.058 204.236H384.571V225.466H382.058V204.236ZM395.068 209.332C395.061 210.639 395.276 211.911 395.714 213.148C396.153 214.385 396.787 215.485 397.616 216.448C398.446 217.411 399.421 218.131 400.54 218.608L398.99 220.698C397.793 220.143 396.747 219.336 395.855 218.279C394.971 217.215 394.278 215.974 393.777 214.557C393.276 216.084 392.567 217.422 391.651 218.573C390.743 219.724 389.659 220.597 388.399 221.191L386.802 219.007C387.953 218.514 388.951 217.771 389.796 216.777C390.642 215.775 391.287 214.628 391.734 213.336C392.18 212.045 392.407 210.71 392.415 209.332V205.95H395.068V209.332ZM402.067 204.236H404.697V225.489H402.067V204.236ZM415.828 210.272C415.828 211.438 416.047 212.593 416.486 213.735C416.932 214.87 417.566 215.892 418.388 216.8C419.218 217.7 420.188 218.381 421.3 218.843L419.867 220.91C418.638 220.377 417.57 219.591 416.662 218.55C415.754 217.501 415.049 216.283 414.548 214.898C414.047 216.385 413.339 217.7 412.423 218.843C411.507 219.986 410.442 220.847 409.229 221.426L407.726 219.383C408.814 218.882 409.769 218.146 410.591 217.176C411.413 216.205 412.047 215.113 412.493 213.9C412.94 212.686 413.167 211.477 413.174 210.272V208.487H408.501V206.326H420.478V208.487H415.828V210.272ZM422.85 204.236H425.48V225.466H422.85V204.236ZM445.23 212.526H448.377V214.71H445.23V225.419H442.623V204.236H445.23V212.526ZM428.486 219.618C431.077 218.326 433.073 216.773 434.474 214.957C435.875 213.133 436.705 211.015 436.964 208.604H429.637V206.444H439.617C439.602 213.411 436.384 218.475 429.965 221.638L428.486 219.618ZM459.907 218.937H462.702V216.659H465.121V223.399C465.927 223.062 466.6 222.616 467.14 222.06C467.688 221.505 468.095 220.894 468.361 220.229C468.628 219.563 468.761 218.882 468.761 218.186V216.495H471.367V218.186C471.359 218.945 471.489 219.669 471.755 220.358C472.029 221.039 472.448 221.649 473.011 222.19C473.575 222.722 474.279 223.133 475.125 223.422L473.786 225.372C472.009 224.73 470.761 223.54 470.04 221.802C469.673 222.608 469.179 223.317 468.561 223.927C467.95 224.546 467.218 225.027 466.365 225.372L465.121 223.528V225.207H457.465V216.659H459.907V218.937ZM455.375 210.037C455.375 209.082 455.614 208.232 456.091 207.489C456.576 206.737 457.246 206.154 458.099 205.739C458.952 205.316 459.915 205.105 460.987 205.105C461.888 205.105 462.717 205.266 463.477 205.586C464.236 205.9 464.87 206.346 465.379 206.925C465.896 207.504 466.244 208.174 466.424 208.933H470.264V204.236H472.87V215.485H470.264V211.093H466.436C466.263 211.868 465.923 212.553 465.414 213.148C464.905 213.743 464.267 214.205 463.5 214.534C462.733 214.855 461.895 215.015 460.987 215.015C459.915 215.015 458.952 214.808 458.099 214.393C457.246 213.97 456.576 213.383 456.091 212.632C455.614 211.872 455.375 211.007 455.375 210.037ZM457.864 210.037C457.864 210.6 457.997 211.097 458.263 211.528C458.529 211.958 458.897 212.291 459.367 212.526C459.845 212.761 460.385 212.878 460.987 212.878C461.582 212.878 462.111 212.761 462.573 212.526C463.034 212.291 463.398 211.958 463.665 211.528C463.931 211.097 464.064 210.6 464.064 210.037C464.064 209.489 463.931 209.003 463.665 208.581C463.398 208.158 463.031 207.833 462.561 207.606C462.099 207.379 461.575 207.266 460.987 207.266C460.385 207.266 459.845 207.379 459.367 207.606C458.897 207.833 458.529 208.158 458.263 208.581C457.997 209.003 457.864 209.489 457.864 210.037ZM462.702 223.211V220.886H459.907V223.211H462.702ZM481.677 205.786C482.624 205.786 483.481 206.041 484.248 206.549C485.015 207.058 485.642 207.786 486.127 208.733C486.612 209.673 486.918 210.78 487.043 212.056H491.094V204.236H493.677V225.489H491.094V214.17H487.066C486.972 215.516 486.687 216.69 486.209 217.692C485.732 218.687 485.101 219.454 484.319 219.994C483.536 220.526 482.655 220.792 481.677 220.792C480.612 220.792 479.665 220.487 478.835 219.876C478.013 219.258 477.371 218.381 476.909 217.246C476.455 216.111 476.228 214.788 476.228 213.277C476.228 211.774 476.455 210.459 476.909 209.332C477.371 208.197 478.017 207.324 478.847 206.714C479.677 206.095 480.62 205.786 481.677 205.786ZM478.741 213.277C478.741 214.35 478.863 215.274 479.105 216.049C479.348 216.824 479.688 217.415 480.127 217.822C480.573 218.229 481.09 218.436 481.677 218.444C482.264 218.436 482.78 218.229 483.227 217.822C483.673 217.415 484.017 216.824 484.26 216.049C484.51 215.274 484.636 214.35 484.636 213.277C484.636 212.213 484.51 211.293 484.26 210.518C484.017 209.743 483.673 209.152 483.227 208.745C482.78 208.338 482.264 208.134 481.677 208.134C481.09 208.134 480.573 208.342 480.127 208.757C479.688 209.164 479.348 209.755 479.105 210.53C478.863 211.297 478.741 212.213 478.741 213.277ZM516.057 222.882H496.659V220.745H501.145V215.379C500.284 214.886 499.614 214.264 499.137 213.512C498.667 212.761 498.436 211.923 498.444 211C498.444 209.888 498.777 208.909 499.442 208.064C500.115 207.211 501.051 206.553 502.249 206.091C503.446 205.622 504.8 205.387 506.311 205.387C507.83 205.387 509.188 205.622 510.386 206.091C511.591 206.553 512.531 207.211 513.204 208.064C513.885 208.909 514.225 209.888 514.225 211C514.233 211.908 514.006 212.729 513.544 213.465C513.082 214.201 512.433 214.82 511.595 215.321V220.745H516.057V222.882ZM501.004 211C501.004 211.712 501.223 212.338 501.661 212.878C502.108 213.411 502.73 213.821 503.528 214.111C504.335 214.401 505.262 214.546 506.311 214.546C507.36 214.546 508.288 214.401 509.094 214.111C509.908 213.821 510.538 213.411 510.985 212.878C511.439 212.338 511.666 211.712 511.666 211C511.666 210.279 511.439 209.649 510.985 209.109C510.538 208.569 509.908 208.158 509.094 207.876C508.288 207.594 507.36 207.453 506.311 207.453C505.254 207.453 504.323 207.594 503.517 207.876C502.718 208.158 502.1 208.569 501.661 209.109C501.223 209.641 501.004 210.272 501.004 211ZM508.941 220.745V216.319C508.112 216.499 507.235 216.589 506.311 216.589C505.427 216.589 504.566 216.503 503.728 216.33V220.745H508.941ZM520.026 223.563C519.697 223.563 519.392 223.481 519.11 223.317C518.828 223.152 518.605 222.929 518.441 222.647C518.276 222.366 518.194 222.06 518.194 221.732C518.194 221.411 518.276 221.113 518.441 220.839C518.605 220.557 518.828 220.334 519.11 220.17C519.392 220.006 519.697 219.923 520.026 219.923C520.347 219.923 520.644 220.006 520.918 220.17C521.2 220.334 521.423 220.557 521.587 220.839C521.752 221.113 521.834 221.411 521.834 221.732C521.834 222.06 521.752 222.366 521.587 222.647C521.423 222.929 521.2 223.152 520.918 223.317C520.644 223.481 520.347 223.563 520.026 223.563ZM325.674 243.845H319.45V246.311H327.858V248.401H308.484V246.311H316.844V243.845H310.973V236.612H313.556V241.755H325.674V243.845ZM310.691 250.209H325.462V257.466H322.856V252.323H310.691V250.209ZM338.919 236.659C340.476 236.659 341.831 236.823 342.981 237.152C344.132 237.481 345.017 237.958 345.635 238.585C346.261 239.203 346.574 239.939 346.574 240.792C346.574 241.63 346.261 242.354 345.635 242.964C345.017 243.567 344.132 244.029 342.981 244.35C341.831 244.671 340.476 244.831 338.919 244.831C337.376 244.831 336.026 244.671 334.868 244.35C333.717 244.029 332.828 243.567 332.202 242.964C331.576 242.354 331.263 241.63 331.263 240.792C331.263 239.939 331.576 239.203 332.202 238.585C332.828 237.958 333.717 237.481 334.868 237.152C336.026 236.823 337.376 236.659 338.919 236.659ZM329.267 246.264H348.617V248.377H329.267V246.264ZM331.545 250.068H346.269V257.207H331.545V250.068ZM333.987 240.792C333.979 241.426 334.41 241.919 335.279 242.272C336.147 242.624 337.361 242.804 338.919 242.812C340.476 242.804 341.69 242.624 342.559 242.272C343.435 241.919 343.874 241.426 343.874 240.792C343.874 240.119 343.439 239.602 342.57 239.242C341.701 238.882 340.484 238.702 338.919 238.702C337.353 238.702 336.136 238.882 335.267 239.242C334.406 239.602 333.979 240.119 333.987 240.792ZM343.733 255.094V252.135H334.128V255.094H343.733ZM366.676 244.69H369.941V246.851H366.676V257.466H364.093V236.236H366.676V244.69ZM349.932 239.5H354.958V236.541H357.565V239.5H362.449V241.59H349.932V239.5ZM350.919 247.978C350.911 247.015 351.138 246.154 351.6 245.395C352.062 244.628 352.7 244.033 353.514 243.61C354.328 243.187 355.248 242.976 356.273 242.976C357.283 242.976 358.191 243.187 358.997 243.61C359.804 244.033 360.438 244.628 360.899 245.395C361.369 246.154 361.604 247.015 361.604 247.978C361.604 248.941 361.369 249.802 360.899 250.561C360.438 251.313 359.804 251.9 358.997 252.323C358.191 252.745 357.283 252.957 356.273 252.957C355.248 252.957 354.328 252.745 353.514 252.323C352.7 251.9 352.062 251.313 351.6 250.561C351.138 249.802 350.911 248.941 350.919 247.978ZM353.408 247.978C353.408 248.542 353.529 249.039 353.772 249.469C354.015 249.892 354.351 250.221 354.782 250.456C355.22 250.683 355.717 250.796 356.273 250.796C356.813 250.796 357.299 250.683 357.729 250.456C358.16 250.229 358.496 249.9 358.739 249.469C358.982 249.039 359.107 248.542 359.115 247.978C359.107 247.414 358.978 246.917 358.727 246.487C358.485 246.048 358.148 245.712 357.717 245.477C357.295 245.234 356.813 245.113 356.273 245.113C355.717 245.113 355.22 245.234 354.782 245.477C354.351 245.712 354.015 246.048 353.772 246.487C353.529 246.917 353.408 247.414 353.408 247.978ZM388.61 257.489H386.004V246.193H382.364V244.056H386.004V236.236H388.61V257.489ZM371.538 238.091H381.142V245.865H374.191V250.326C375.937 250.319 377.463 250.272 378.771 250.186C380.086 250.099 381.409 249.935 382.739 249.692L382.951 251.829C381.471 252.088 379.992 252.264 378.512 252.358C377.041 252.452 375.303 252.503 373.299 252.51H371.608V243.751H378.583V240.205H371.538V238.091ZM413.949 244.526H417.096V246.71H413.949V257.419H411.343V236.236H413.949V244.526ZM397.205 251.618C399.796 250.326 401.793 248.773 403.194 246.957C404.595 245.133 405.425 243.015 405.683 240.604H398.356V238.444H408.337C408.321 245.411 405.104 250.475 398.685 253.638L397.205 251.618ZM423.202 238.232H432.361V236.565H434.944V243.634H429.026V245.254H437.457V247.321H418.106V245.254H426.443V243.634H420.619V236.565H423.202V238.232ZM420.384 248.659H435.038V253.802H422.967V255.282H435.625V257.278H420.407V251.97H432.478V250.585H420.384V248.659ZM432.361 241.684V240.134H423.202V241.684H432.361ZM455.821 244.714H458.757V246.874H455.821V257.466H453.191V236.236H455.821V244.714ZM438.584 251.383C439.555 250.35 440.333 249.278 440.921 248.166C441.508 247.054 441.942 245.888 442.224 244.667C442.514 243.446 442.694 242.091 442.764 240.604H439.429V238.467H445.253C445.245 240.502 445.116 242.334 444.866 243.962C444.615 245.583 444.15 247.14 443.469 248.636C442.795 250.131 441.848 251.54 440.627 252.863L438.584 251.383ZM444.596 252.792C445.566 251.626 446.337 250.405 446.909 249.129C447.488 247.845 447.907 246.518 448.165 245.148C448.424 243.771 448.584 242.256 448.647 240.604H445.958V238.467H451.124C451.116 240.635 450.999 242.6 450.772 244.362C450.553 246.123 450.118 247.845 449.469 249.528C448.827 251.203 447.899 252.769 446.686 254.225L444.596 252.792ZM479.07 254.882H459.672V252.745H464.158V247.379C463.297 246.886 462.627 246.264 462.15 245.512C461.68 244.761 461.449 243.923 461.457 243C461.457 241.888 461.79 240.909 462.455 240.064C463.128 239.211 464.064 238.553 465.262 238.091C466.459 237.622 467.813 237.387 469.324 237.387C470.843 237.387 472.201 237.622 473.399 238.091C474.604 238.553 475.544 239.211 476.217 240.064C476.898 240.909 477.238 241.888 477.238 243C477.246 243.908 477.019 244.729 476.557 245.465C476.095 246.201 475.446 246.82 474.608 247.321V252.745H479.07V254.882ZM464.017 243C464.017 243.712 464.236 244.338 464.674 244.878C465.121 245.411 465.743 245.821 466.541 246.111C467.348 246.401 468.275 246.546 469.324 246.546C470.373 246.546 471.301 246.401 472.107 246.111C472.921 245.821 473.551 245.411 473.997 244.878C474.452 244.338 474.679 243.712 474.679 243C474.679 242.279 474.452 241.649 473.997 241.109C473.551 240.569 472.921 240.158 472.107 239.876C471.301 239.594 470.373 239.453 469.324 239.453C468.267 239.453 467.336 239.594 466.53 239.876C465.731 240.158 465.113 240.569 464.674 241.109C464.236 241.641 464.017 242.272 464.017 243ZM471.954 252.745V248.319C471.125 248.499 470.248 248.589 469.324 248.589C468.44 248.589 467.579 248.503 466.741 248.33V252.745H471.954ZM484.049 250.162C484.056 249.199 484.15 248.42 484.33 247.825C484.51 247.231 484.761 246.753 485.082 246.393C485.411 246.033 485.849 245.684 486.397 245.348C486.953 244.988 487.387 244.6 487.7 244.185C488.013 243.771 488.166 243.289 488.158 242.741C488.158 242.311 488.056 241.935 487.853 241.614C487.657 241.285 487.383 241.031 487.031 240.851C486.679 240.671 486.287 240.581 485.857 240.581C485.458 240.581 485.082 240.667 484.73 240.839C484.377 241.011 484.088 241.273 483.861 241.626C483.634 241.978 483.508 242.405 483.485 242.906H480.549C480.573 241.888 480.823 241.023 481.301 240.311C481.778 239.59 482.413 239.05 483.203 238.69C484.002 238.322 484.894 238.138 485.88 238.138C486.929 238.138 487.857 238.326 488.663 238.702C489.477 239.07 490.107 239.598 490.554 240.287C491.008 240.976 491.235 241.778 491.235 242.694C491.227 243.61 491.008 244.397 490.577 245.054C490.154 245.712 489.544 246.279 488.745 246.757C488.276 247.047 487.9 247.34 487.618 247.638C487.344 247.935 487.141 248.283 487.008 248.683C486.874 249.082 486.804 249.575 486.796 250.162V250.373H484.049V250.162ZM483.673 253.732C483.673 253.411 483.755 253.113 483.919 252.839C484.084 252.557 484.307 252.334 484.589 252.17C484.871 252.006 485.176 251.923 485.505 251.923C485.826 251.923 486.123 252.006 486.397 252.17C486.679 252.334 486.902 252.557 487.066 252.839C487.231 253.113 487.313 253.411 487.313 253.732C487.313 254.06 487.231 254.366 487.066 254.647C486.902 254.929 486.679 255.152 486.397 255.317C486.123 255.481 485.826 255.563 485.505 255.563C485.176 255.563 484.871 255.481 484.589 255.317C484.307 255.152 484.084 254.929 483.919 254.647C483.755 254.366 483.673 254.06 483.673 253.732Z" fill="#757575"/>
<path d="M324.419 278.587L336.559 295.277C338.727 298.26 335.223 302.06 332.075 300.133L304.762 283.444C301.856 281.669 303.114 277.198 306.52 277.198H321.693C322.771 277.198 323.784 277.714 324.419 278.587V278.587Z" fill="#F5F5F5"/>
</svg>
