<svg width="450" height="450" viewBox="0 0 450 450" fill="none" xmlns="http://www.w3.org/2000/svg">
<path fill-rule="evenodd" clip-rule="evenodd" d="M79.4208 356H145.567H145.567C145.311 356 145.055 355.993 144.802 355.979C142.992 355.876 141.268 355.414 139.686 354.654C138.635 354.149 137.647 353.513 136.738 352.765C136.141 352.273 135.579 351.732 135.055 351.149C134.512 350.544 134.01 349.892 133.556 349.199C131.76 346.462 130.7 343.086 130.7 339.434V311.159L79.4208 356ZM130.7 311.159H94.5112V309.741C94.5112 308.539 93.9162 307.452 92.9493 306.663C91.9824 305.874 90.656 305.386 89.1808 305.386C86.7801 305.386 84.7512 306.679 84.0818 308.46C83.6686 308.274 83.2058 308.171 82.7182 308.171C80.991 308.171 79.5695 309.481 79.3919 311.159C73.2144 311.167 67.6195 313.675 63.57 317.724C59.5123 321.782 57 327.389 57 333.579C57 345.963 67.041 356 79.4208 356" fill="#C2C2C2"/>
<path d="M169.757 306.382V343.525C169.757 350.413 174.769 355.995 180.955 355.995H219.412C225.598 355.995 230.61 350.413 230.61 343.525V326.208H213.805C211.127 326.208 208.706 325.001 206.954 323.051C205.202 321.1 204.119 318.402 204.119 315.419C204.119 309.452 208.454 304.621 213.805 304.621H230.569C229.747 286.721 216.458 272.486 200.186 272.486C191.781 272.486 184.178 276.279 178.67 282.416C173.162 288.548 169.757 297.023 169.757 306.382Z" fill="#D9DEFF"/>
<path d="M274.46 355.69C273.538 355.893 272.588 355.995 271.613 355.995H145.567C137.353 355.995 130.7 348.579 130.7 339.43V293.518C130.7 245.702 165.815 205.909 208.735 206C243.3 206.075 272.584 231.231 282.695 266.003C276.617 272.627 272.89 281.494 272.89 291.192V353.161C272.89 354.273 273.53 355.231 274.46 355.69Z" fill="#F5F5F5"/>
<path d="M230.61 306.382V343.525C230.61 350.413 225.598 355.995 219.412 355.995H180.955C174.769 355.995 169.757 350.413 169.757 343.525V326.208H186.562C189.24 326.208 191.661 325.001 193.413 323.051C195.165 321.1 196.248 318.402 196.248 315.419C196.248 309.452 191.913 304.621 186.562 304.621H169.798C170.62 286.721 183.909 272.486 200.181 272.486C208.586 272.486 216.189 276.279 221.697 282.416C227.205 288.548 230.61 297.023 230.61 306.382Z" fill="#A8A8A8"/>
<path fill-rule="evenodd" clip-rule="evenodd" d="M367.126 355.995C381.65 355.995 393.659 344.314 393.642 329.79C393.634 321.947 390.452 314.852 385.311 309.712C380.163 304.563 373.051 301.381 365.196 301.381H356.651C353.693 301.381 351.019 300.183 349.081 298.245C347.143 296.307 345.945 293.63 345.945 290.676C345.945 271.085 330.52 255.094 311.149 254.189C299.93 253.664 289.732 258.333 282.695 266.007C282.695 266.007 282.695 266.007 282.695 266.007C276.617 272.631 272.89 281.498 272.89 291.196V353.165C272.89 354.277 273.53 355.236 274.46 355.694C274.84 355.888 275.266 355.995 275.72 355.995H367.126Z" fill="#A8A8A8"/>
<path d="M204.135 291.452C205.213 291.452 206.086 290.579 206.086 289.502C206.086 288.425 205.213 287.552 204.135 287.552C203.059 287.552 202.185 288.425 202.185 289.502C202.185 290.579 203.059 291.452 204.135 291.452Z" fill="white"/>
<path d="M214.065 291.452C215.142 291.452 216.015 290.579 216.015 289.502C216.015 288.425 215.142 287.552 214.065 287.552C212.988 287.552 212.115 288.425 212.115 289.502C212.115 290.579 212.988 291.452 214.065 291.452Z" fill="white"/>
<path d="M209.099 296.733C207.276 296.733 206.012 295.77 205.934 295.708C205.533 295.394 205.458 294.812 205.772 294.411C206.086 294.01 206.661 293.936 207.066 294.246C207.152 294.312 208.983 295.646 211.19 294.204C211.619 293.923 212.19 294.043 212.471 294.473C212.751 294.899 212.632 295.473 212.202 295.754C211.082 296.489 210.02 296.733 209.099 296.733Z" fill="white"/>
<path d="M296.521 280.04C298.023 280.04 299.24 278.822 299.24 277.321C299.24 275.819 298.023 274.602 296.521 274.602C295.019 274.602 293.802 275.819 293.802 277.321C293.802 278.822 295.019 280.04 296.521 280.04Z" fill="white"/>
<path d="M310.359 280.04C311.861 280.04 313.078 278.822 313.078 277.321C313.078 275.819 311.861 274.602 310.359 274.602C308.858 274.602 307.64 275.819 307.64 277.321C307.64 278.822 308.858 280.04 310.359 280.04Z" fill="white"/>
<path d="M78.896 326.55C80.1488 326.55 81.1645 325.535 81.1645 324.282C81.1645 323.029 80.1488 322.013 78.896 322.013C77.6431 322.013 76.6274 323.029 76.6274 324.282C76.6274 325.535 77.6431 326.55 78.896 326.55Z" fill="#8F8F8F"/>
<path d="M90.4538 326.55C91.7067 326.55 92.7223 325.535 92.7223 324.282C92.7223 323.029 91.7067 322.013 90.4538 322.013C89.201 322.013 88.1853 323.029 88.1853 324.282C88.1853 325.535 89.201 326.55 90.4538 326.55Z" fill="#8F8F8F"/>
<g opacity="0.8">
<path opacity="0.8" d="M88.4699 329.716V330.232C88.4699 332.075 86.7386 333.575 84.6106 333.575C82.4823 333.575 80.751 332.075 80.751 330.232V329.716C80.751 329.112 81.2427 328.616 81.8501 328.616H87.3749C87.9824 328.616 88.4737 329.108 88.4737 329.716H88.4699Z" fill="#8F8F8F"/>
</g>
<path fill-rule="evenodd" clip-rule="evenodd" d="M215.276 242.867C216.303 242.867 217.136 243.699 217.136 244.727V245.599C217.136 246.335 218.017 247.545 219.954 247.545C221.89 247.545 222.772 246.335 222.772 245.599V244.727C222.772 243.699 223.604 242.867 224.631 242.867C225.658 242.867 226.491 243.699 226.491 244.727V245.599C226.491 249.068 223.191 251.264 219.954 251.264C216.717 251.264 213.417 249.068 213.417 245.599V244.727C213.417 243.699 214.249 242.867 215.276 242.867Z" fill="#8F8F8F"/>
<path fill-rule="evenodd" clip-rule="evenodd" d="M240.923 242.867C241.951 242.867 242.783 243.699 242.783 244.727V245.599C242.783 246.335 243.665 247.545 245.601 247.545C247.537 247.545 248.419 246.335 248.419 245.599V244.727C248.419 243.699 249.252 242.867 250.278 242.867C251.306 242.867 252.138 243.699 252.138 244.727V245.599C252.138 249.068 248.838 251.264 245.601 251.264C242.364 251.264 239.064 249.068 239.064 245.599V244.727C239.064 243.699 239.897 242.867 240.923 242.867Z" fill="#8F8F8F"/>
<path d="M239.552 256.007V256.879C239.552 260.003 236.618 262.544 233.015 262.544C229.412 262.544 226.478 260.003 226.478 256.879V256.007C226.478 254.983 227.308 254.148 228.337 254.148H237.692C238.721 254.148 239.552 254.983 239.552 256.007Z" fill="#8F8F8F"/>
<rect x="98" y="94" width="253" height="80" rx="40" fill="#F5F5F5"/>
<path d="M134.878 115.834C135.675 115.834 136.384 116.065 137.005 116.528C137.626 116.985 138.112 117.639 138.464 118.488C138.821 119.332 139.003 120.316 139.009 121.441C139.003 122.572 138.821 123.562 138.464 124.412C138.112 125.262 137.626 125.918 137.005 126.381C136.384 126.838 135.675 127.066 134.878 127.066C134.075 127.066 133.36 126.838 132.733 126.381C132.106 125.918 131.617 125.262 131.266 124.412C130.92 123.562 130.747 122.572 130.747 121.441C130.747 120.316 130.92 119.332 131.266 118.488C131.617 117.639 132.106 116.985 132.733 116.528C133.36 116.065 134.075 115.834 134.878 115.834ZM132.628 121.441C132.628 122.238 132.722 122.93 132.909 123.516C133.097 124.096 133.36 124.538 133.7 124.843C134.04 125.147 134.433 125.303 134.878 125.309C135.329 125.303 135.722 125.147 136.056 124.843C136.396 124.538 136.659 124.096 136.847 123.516C137.034 122.936 137.128 122.244 137.128 121.441C137.128 120.645 137.034 119.956 136.847 119.376C136.659 118.796 136.396 118.354 136.056 118.049C135.716 117.744 135.323 117.592 134.878 117.592C134.433 117.592 134.04 117.747 133.7 118.058C133.36 118.362 133.097 118.805 132.909 119.385C132.722 119.959 132.628 120.645 132.628 121.441ZM141.101 114.674H143.052V120.773H145.495V122.426H143.052V130.564H141.101V114.674ZM152.192 117.434C152.192 118.096 152.342 118.74 152.641 119.367C152.945 119.988 153.388 120.542 153.968 121.028C154.554 121.515 155.257 121.887 156.077 122.145L155.075 123.656C154.19 123.369 153.423 122.944 152.772 122.382C152.122 121.813 151.609 121.143 151.234 120.369C150.871 121.207 150.353 121.937 149.679 122.558C149.011 123.179 148.214 123.645 147.288 123.955L146.286 122.443C147.112 122.162 147.821 121.764 148.413 121.248C149.005 120.727 149.453 120.138 149.758 119.481C150.062 118.819 150.218 118.137 150.224 117.434V117.24H146.796V115.676H155.532V117.24H152.192V117.434ZM148.554 124.992H159.399V130.564H157.431V126.574H148.554V124.992ZM157.431 114.674H159.399V124.254H157.431V114.674ZM180.493 123.639H165.991V122.039H180.493V123.639ZM167.679 127.629C167.679 127.02 167.898 126.498 168.338 126.064C168.783 125.631 169.419 125.303 170.245 125.08C171.077 124.857 172.067 124.746 173.216 124.746C174.353 124.746 175.334 124.857 176.16 125.08C176.986 125.303 177.619 125.631 178.059 126.064C178.498 126.498 178.718 127.02 178.718 127.629C178.718 128.25 178.498 128.777 178.059 129.211C177.619 129.65 176.986 129.981 176.16 130.204C175.34 130.433 174.358 130.547 173.216 130.547C172.067 130.547 171.077 130.433 170.245 130.204C169.419 129.981 168.783 129.65 168.338 129.211C167.898 128.771 167.679 128.244 167.679 127.629ZM167.767 115.184H178.735V116.766H169.718V119.227H178.823V120.791H167.767V115.184ZM169.665 127.629C169.659 128.098 169.958 128.449 170.562 128.684C171.165 128.918 172.05 129.035 173.216 129.035C174.364 129.035 175.24 128.918 175.844 128.684C176.453 128.449 176.761 128.098 176.767 127.629C176.755 127.178 176.444 126.835 175.835 126.601C175.226 126.36 174.353 126.24 173.216 126.24C172.062 126.24 171.18 126.36 170.57 126.601C169.961 126.835 169.659 127.178 169.665 127.629ZM196.05 124.852H181.53V123.27H187.823V121.951H183.376V117.732H192.306V116.555H183.323V115.025H194.257V119.156H185.31V120.422H194.573V121.951H189.757V123.27H196.05V124.852ZM183.147 125.854H194.345V130.459H192.376V127.4H183.147V125.854ZM206.351 121.23H203.397V123.032C204.804 122.974 206.099 122.883 207.282 122.76L207.423 124.166C205.894 124.377 204.297 124.523 202.633 124.605C200.975 124.682 199.243 124.723 197.438 124.729L197.175 123.164C199.044 123.152 200.462 123.132 201.429 123.103V121.23H198.546V115.658H206.228V117.24H200.515V119.666H206.351V121.23ZM199.706 125.73H201.675V128.666H210.815V130.248H199.706V125.73ZM208.39 114.674H210.358V126.609H208.39V114.674ZM230.521 122.9H228.657V119.543H227.075V122.742H225.247V114.99H227.075V117.961H228.657V114.691H230.521V122.9ZM217.038 118.928C217.038 118.23 217.19 117.618 217.495 117.091C217.806 116.558 218.236 116.147 218.787 115.86C219.338 115.567 219.968 115.424 220.677 115.43C221.38 115.424 222.007 115.567 222.558 115.86C223.114 116.147 223.548 116.558 223.858 117.091C224.175 117.618 224.333 118.23 224.333 118.928C224.333 119.607 224.175 120.214 223.858 120.747C223.548 121.274 223.114 121.688 222.558 121.986C222.007 122.279 221.38 122.426 220.677 122.426C219.974 122.426 219.344 122.279 218.787 121.986C218.236 121.693 217.806 121.28 217.495 120.747C217.19 120.214 217.038 119.607 217.038 118.928ZM218.796 118.928C218.79 119.314 218.866 119.657 219.024 119.956C219.183 120.249 219.405 120.478 219.692 120.642C219.979 120.8 220.308 120.879 220.677 120.879C221.04 120.879 221.362 120.8 221.644 120.642C221.931 120.478 222.153 120.249 222.312 119.956C222.476 119.657 222.558 119.314 222.558 118.928C222.558 118.529 222.476 118.181 222.312 117.882C222.153 117.577 221.931 117.343 221.644 117.179C221.362 117.009 221.04 116.924 220.677 116.924C220.308 116.924 219.979 117.009 219.692 117.179C219.405 117.343 219.183 117.577 219.024 117.882C218.866 118.181 218.79 118.529 218.796 118.928ZM219.763 123.498H230.521V127.576H221.749V128.824H231.083V130.371H219.78V126.117H228.569V125.045H219.763V123.498ZM235.161 117.838H238.712V115.588H240.646V118.523H243.845V114.674H245.796V123.885H243.845V120.141H240.646V123.129H233.21V115.588H235.161V117.838ZM238.712 121.564V119.367H235.161V121.564H238.712ZM235.231 124.57H245.796V130.371H235.231V124.57ZM243.88 128.789V126.117H237.183V128.789H243.88ZM261.265 130.582H259.296V114.674H261.265V130.582ZM248.556 121.441C248.556 120.322 248.731 119.338 249.083 118.488C249.435 117.639 249.924 116.985 250.551 116.528C251.184 116.065 251.901 115.834 252.704 115.834C253.495 115.834 254.204 116.065 254.831 116.528C255.464 116.985 255.959 117.639 256.316 118.488C256.674 119.338 256.853 120.322 256.853 121.441C256.853 122.572 256.674 123.562 256.316 124.412C255.959 125.262 255.464 125.918 254.831 126.381C254.204 126.838 253.495 127.066 252.704 127.066C251.901 127.066 251.184 126.838 250.551 126.381C249.924 125.918 249.435 125.262 249.083 124.412C248.731 123.562 248.556 122.572 248.556 121.441ZM250.437 121.441C250.437 122.244 250.53 122.936 250.718 123.516C250.911 124.096 251.178 124.538 251.518 124.843C251.857 125.147 252.253 125.303 252.704 125.309C253.149 125.303 253.542 125.147 253.882 124.843C254.222 124.538 254.485 124.096 254.673 123.516C254.86 122.936 254.954 122.244 254.954 121.441C254.954 120.645 254.86 119.959 254.673 119.385C254.485 118.805 254.222 118.362 253.882 118.058C253.542 117.747 253.149 117.592 252.704 117.592C252.253 117.592 251.857 117.747 251.518 118.058C251.178 118.362 250.911 118.805 250.718 119.385C250.53 119.959 250.437 120.645 250.437 121.441ZM271.478 125.678H273.569V123.973H275.38V129.018C275.983 128.766 276.487 128.432 276.892 128.016C277.302 127.6 277.606 127.143 277.806 126.645C278.005 126.146 278.104 125.637 278.104 125.115V123.85H280.056V125.115C280.05 125.684 280.146 126.226 280.346 126.741C280.551 127.251 280.864 127.708 281.286 128.112C281.708 128.511 282.235 128.818 282.868 129.035L281.866 130.494C280.536 130.014 279.602 129.123 279.062 127.822C278.787 128.426 278.418 128.956 277.955 129.413C277.498 129.876 276.95 130.236 276.312 130.494L275.38 129.114V130.371H269.649V123.973H271.478V125.678ZM268.085 119.016C268.085 118.301 268.264 117.665 268.621 117.108C268.984 116.546 269.485 116.109 270.124 115.799C270.763 115.482 271.483 115.324 272.286 115.324C272.96 115.324 273.581 115.444 274.149 115.685C274.718 115.919 275.192 116.253 275.573 116.687C275.96 117.12 276.221 117.621 276.355 118.189H279.229V114.674H281.181V123.094H279.229V119.807H276.364C276.235 120.387 275.98 120.899 275.6 121.345C275.219 121.79 274.741 122.136 274.167 122.382C273.593 122.622 272.966 122.742 272.286 122.742C271.483 122.742 270.763 122.587 270.124 122.276C269.485 121.96 268.984 121.521 268.621 120.958C268.264 120.39 268.085 119.742 268.085 119.016ZM269.948 119.016C269.948 119.438 270.048 119.81 270.247 120.132C270.446 120.454 270.722 120.703 271.073 120.879C271.431 121.055 271.835 121.143 272.286 121.143C272.731 121.143 273.127 121.055 273.473 120.879C273.818 120.703 274.091 120.454 274.29 120.132C274.489 119.81 274.589 119.438 274.589 119.016C274.589 118.605 274.489 118.242 274.29 117.926C274.091 117.609 273.815 117.366 273.464 117.196C273.118 117.026 272.726 116.941 272.286 116.941C271.835 116.941 271.431 117.026 271.073 117.196C270.722 117.366 270.446 117.609 270.247 117.926C270.048 118.242 269.948 118.605 269.948 119.016ZM273.569 128.877V127.137H271.478V128.877H273.569ZM287.772 115.834C288.481 115.834 289.123 116.024 289.697 116.405C290.271 116.786 290.74 117.331 291.104 118.04C291.467 118.743 291.695 119.572 291.789 120.527H294.821V114.674H296.755V130.582H294.821V122.109H291.807C291.736 123.117 291.522 123.996 291.165 124.746C290.808 125.49 290.336 126.064 289.75 126.469C289.164 126.867 288.505 127.066 287.772 127.066C286.976 127.066 286.267 126.838 285.646 126.381C285.03 125.918 284.55 125.262 284.204 124.412C283.864 123.562 283.694 122.572 283.694 121.441C283.694 120.316 283.864 119.332 284.204 118.488C284.55 117.639 285.033 116.985 285.654 116.528C286.275 116.065 286.981 115.834 287.772 115.834ZM285.575 121.441C285.575 122.244 285.666 122.936 285.848 123.516C286.029 124.096 286.284 124.538 286.612 124.843C286.946 125.147 287.333 125.303 287.772 125.309C288.212 125.303 288.599 125.147 288.933 124.843C289.267 124.538 289.524 124.096 289.706 123.516C289.894 122.936 289.987 122.244 289.987 121.441C289.987 120.645 289.894 119.956 289.706 119.376C289.524 118.796 289.267 118.354 288.933 118.049C288.599 117.744 288.212 117.592 287.772 117.592C287.333 117.592 286.946 117.747 286.612 118.058C286.284 118.362 286.029 118.805 285.848 119.385C285.666 119.959 285.575 120.645 285.575 121.441ZM313.507 128.631H298.987V127.031H302.345V123.015C301.7 122.646 301.199 122.18 300.842 121.617C300.49 121.055 300.317 120.428 300.323 119.736C300.323 118.904 300.572 118.172 301.07 117.539C301.574 116.9 302.274 116.408 303.171 116.062C304.067 115.711 305.081 115.535 306.212 115.535C307.349 115.535 308.365 115.711 309.262 116.062C310.164 116.408 310.867 116.9 311.371 117.539C311.881 118.172 312.136 118.904 312.136 119.736C312.142 120.416 311.972 121.031 311.626 121.582C311.28 122.133 310.794 122.596 310.167 122.971V127.031H313.507V128.631ZM302.239 119.736C302.239 120.27 302.403 120.738 302.731 121.143C303.065 121.541 303.531 121.849 304.129 122.065C304.732 122.282 305.427 122.391 306.212 122.391C306.997 122.391 307.691 122.282 308.295 122.065C308.904 121.849 309.376 121.541 309.71 121.143C310.05 120.738 310.22 120.27 310.22 119.736C310.22 119.197 310.05 118.726 309.71 118.321C309.376 117.917 308.904 117.609 308.295 117.398C307.691 117.188 306.997 117.082 306.212 117.082C305.421 117.082 304.724 117.188 304.12 117.398C303.522 117.609 303.06 117.917 302.731 118.321C302.403 118.72 302.239 119.191 302.239 119.736ZM308.181 127.031V123.718C307.56 123.853 306.903 123.92 306.212 123.92C305.55 123.92 304.905 123.855 304.278 123.727V127.031H308.181ZM316.478 129.141C316.231 129.141 316.003 129.079 315.792 128.956C315.581 128.833 315.414 128.666 315.291 128.455C315.168 128.244 315.106 128.016 315.106 127.77C315.106 127.529 315.168 127.307 315.291 127.102C315.414 126.891 315.581 126.724 315.792 126.601C316.003 126.478 316.231 126.416 316.478 126.416C316.718 126.416 316.94 126.478 317.146 126.601C317.356 126.724 317.523 126.891 317.646 127.102C317.77 127.307 317.831 127.529 317.831 127.77C317.831 128.016 317.77 128.244 317.646 128.455C317.523 128.666 317.356 128.833 317.146 128.956C316.94 129.079 316.718 129.141 316.478 129.141ZM170.482 149.818H164.189V154.582H162.256V149.818H155.998V148.219H170.482V149.818ZM156.789 145.705C157.814 145.582 158.729 145.339 159.531 144.976C160.334 144.606 160.97 144.17 161.438 143.666C161.907 143.156 162.174 142.635 162.238 142.102H157.334V140.555H162.256V138.691H164.189V140.555H169.129V142.102H164.225C164.289 142.635 164.553 143.153 165.016 143.657C165.484 144.161 166.12 144.598 166.923 144.967C167.726 145.336 168.637 145.582 169.656 145.705L168.936 147.252C167.641 147.088 166.498 146.739 165.508 146.206C164.518 145.673 163.762 145.017 163.24 144.237C162.713 145.022 161.948 145.682 160.946 146.215C159.95 146.742 158.799 147.088 157.492 147.252L156.789 145.705ZM184 144.879H186.355V146.514H184V154.529H182.049V138.674H184V144.879ZM171.467 150.188C173.406 149.221 174.9 148.058 175.949 146.698C176.998 145.333 177.619 143.748 177.812 141.943H172.328V140.326H179.799C179.787 145.541 177.379 149.332 172.574 151.699L171.467 150.188ZM199.557 145.002H202V146.619H199.557V154.564H197.623V138.674H199.557V145.002ZM187.023 141.117H190.785V138.902H192.736V141.117H196.393V142.682H187.023V141.117ZM187.762 147.463C187.756 146.742 187.926 146.098 188.271 145.529C188.617 144.955 189.095 144.51 189.704 144.193C190.313 143.877 191.002 143.719 191.77 143.719C192.525 143.719 193.205 143.877 193.809 144.193C194.412 144.51 194.887 144.955 195.232 145.529C195.584 146.098 195.76 146.742 195.76 147.463C195.76 148.184 195.584 148.828 195.232 149.396C194.887 149.959 194.412 150.398 193.809 150.715C193.205 151.031 192.525 151.189 191.77 151.189C191.002 151.189 190.313 151.031 189.704 150.715C189.095 150.398 188.617 149.959 188.271 149.396C187.926 148.828 187.756 148.184 187.762 147.463ZM189.625 147.463C189.625 147.885 189.716 148.257 189.897 148.579C190.079 148.896 190.331 149.142 190.653 149.317C190.981 149.487 191.354 149.572 191.77 149.572C192.174 149.572 192.537 149.487 192.859 149.317C193.182 149.147 193.434 148.901 193.615 148.579C193.797 148.257 193.891 147.885 193.896 147.463C193.891 147.041 193.794 146.669 193.606 146.347C193.425 146.019 193.173 145.767 192.851 145.591C192.534 145.409 192.174 145.318 191.77 145.318C191.354 145.318 190.981 145.409 190.653 145.591C190.331 145.767 190.079 146.019 189.897 146.347C189.716 146.669 189.625 147.041 189.625 147.463ZM215.975 154.582H214.023V146.127H211.299V144.527H214.023V138.674H215.975V154.582ZM203.195 140.062H210.385V145.881H205.182V149.221C206.488 149.215 207.631 149.18 208.609 149.115C209.594 149.051 210.584 148.928 211.58 148.746L211.738 150.346C210.631 150.539 209.523 150.671 208.416 150.741C207.314 150.812 206.014 150.85 204.514 150.855H203.248V144.299H208.469V141.645H203.195V140.062ZM234.941 144.879H237.297V146.514H234.941V154.529H232.99V138.674H234.941V144.879ZM222.408 150.188C224.348 149.221 225.842 148.058 226.891 146.698C227.939 145.333 228.561 143.748 228.754 141.943H223.27V140.326H230.74C230.729 145.541 228.32 149.332 223.516 151.699L222.408 150.188ZM241.867 140.168H248.723V138.92H250.656V144.211H246.227V145.424H252.537V146.971H238.053V145.424H244.293V144.211H239.934V138.92H241.867V140.168ZM239.758 147.973H250.727V151.822H241.691V152.93H251.166V154.424H239.775V150.451H248.811V149.414H239.758V147.973ZM248.723 142.752V141.592H241.867V142.752H248.723ZM266.283 145.02H268.48V146.637H266.283V154.564H264.314V138.674H266.283V145.02ZM253.381 150.012C254.107 149.238 254.69 148.436 255.13 147.604C255.569 146.771 255.895 145.898 256.105 144.984C256.322 144.07 256.457 143.057 256.51 141.943H254.014V140.344H258.373C258.367 141.867 258.271 143.238 258.083 144.457C257.896 145.67 257.547 146.836 257.037 147.955C256.533 149.074 255.824 150.129 254.91 151.119L253.381 150.012ZM257.881 151.066C258.607 150.193 259.185 149.279 259.612 148.324C260.046 147.363 260.359 146.37 260.553 145.345C260.746 144.313 260.866 143.18 260.913 141.943H258.9V140.344H262.768C262.762 141.967 262.674 143.438 262.504 144.756C262.34 146.074 262.015 147.363 261.528 148.623C261.048 149.877 260.354 151.049 259.445 152.139L257.881 151.066ZM283.686 152.631H269.166V151.031H272.523V147.015C271.879 146.646 271.378 146.18 271.021 145.617C270.669 145.055 270.496 144.428 270.502 143.736C270.502 142.904 270.751 142.172 271.249 141.539C271.753 140.9 272.453 140.408 273.35 140.062C274.246 139.711 275.26 139.535 276.391 139.535C277.527 139.535 278.544 139.711 279.44 140.062C280.343 140.408 281.046 140.9 281.55 141.539C282.06 142.172 282.314 142.904 282.314 143.736C282.32 144.416 282.15 145.031 281.805 145.582C281.459 146.133 280.973 146.596 280.346 146.971V151.031H283.686V152.631ZM272.418 143.736C272.418 144.27 272.582 144.738 272.91 145.143C273.244 145.541 273.71 145.849 274.308 146.065C274.911 146.282 275.605 146.391 276.391 146.391C277.176 146.391 277.87 146.282 278.474 146.065C279.083 145.849 279.555 145.541 279.889 145.143C280.229 144.738 280.398 144.27 280.398 143.736C280.398 143.197 280.229 142.726 279.889 142.321C279.555 141.917 279.083 141.609 278.474 141.398C277.87 141.188 277.176 141.082 276.391 141.082C275.6 141.082 274.902 141.188 274.299 141.398C273.701 141.609 273.238 141.917 272.91 142.321C272.582 142.72 272.418 143.191 272.418 143.736ZM278.359 151.031V147.718C277.738 147.853 277.082 147.92 276.391 147.92C275.729 147.92 275.084 147.855 274.457 147.727V151.031H278.359ZM287.412 149.098C287.418 148.377 287.488 147.794 287.623 147.349C287.758 146.903 287.945 146.546 288.186 146.276C288.432 146.007 288.76 145.746 289.17 145.494C289.586 145.225 289.911 144.935 290.146 144.624C290.38 144.313 290.494 143.953 290.488 143.543C290.488 143.221 290.412 142.939 290.26 142.699C290.113 142.453 289.908 142.263 289.645 142.128C289.381 141.993 289.088 141.926 288.766 141.926C288.467 141.926 288.186 141.99 287.922 142.119C287.658 142.248 287.441 142.444 287.271 142.708C287.102 142.972 287.008 143.291 286.99 143.666H284.793C284.811 142.904 284.998 142.257 285.355 141.724C285.713 141.185 286.188 140.78 286.779 140.511C287.377 140.235 288.045 140.098 288.783 140.098C289.568 140.098 290.263 140.238 290.866 140.52C291.476 140.795 291.947 141.19 292.281 141.706C292.621 142.222 292.791 142.822 292.791 143.508C292.785 144.193 292.621 144.782 292.299 145.274C291.982 145.767 291.525 146.191 290.928 146.549C290.576 146.766 290.295 146.985 290.084 147.208C289.879 147.431 289.727 147.691 289.627 147.99C289.527 148.289 289.475 148.658 289.469 149.098V149.256H287.412V149.098ZM287.131 151.77C287.131 151.529 287.192 151.307 287.315 151.102C287.438 150.891 287.605 150.724 287.816 150.601C288.027 150.478 288.256 150.416 288.502 150.416C288.742 150.416 288.965 150.478 289.17 150.601C289.381 150.724 289.548 150.891 289.671 151.102C289.794 151.307 289.855 151.529 289.855 151.77C289.855 152.016 289.794 152.244 289.671 152.455C289.548 152.666 289.381 152.833 289.17 152.956C288.965 153.079 288.742 153.141 288.502 153.141C288.256 153.141 288.027 153.079 287.816 152.956C287.605 152.833 287.438 152.666 287.315 152.455C287.192 152.244 287.131 152.016 287.131 151.77Z" fill="#757575"/>
<path d="M167.926 170.04L177.013 182.532C178.636 184.766 176.013 187.61 173.657 186.168L153.212 173.675C151.037 172.347 151.979 169 154.528 169H165.886C166.693 169 167.45 169.387 167.926 170.04V170.04Z" fill="#F5F5F5"/>
</svg>
