<svg width="450" height="450" viewBox="0 0 450 450" fill="none" xmlns="http://www.w3.org/2000/svg">
<path fill-rule="evenodd" clip-rule="evenodd" d="M79.4208 356H145.567H145.567C145.311 356 145.055 355.993 144.802 355.979C142.992 355.876 141.268 355.414 139.686 354.654C138.635 354.149 137.647 353.513 136.738 352.765C136.141 352.273 135.579 351.732 135.055 351.149C134.512 350.544 134.01 349.892 133.556 349.199C131.76 346.461 130.7 343.086 130.7 339.434V311.158L79.4208 356ZM130.7 311.158H94.5112V309.741C94.5112 308.539 93.9162 307.452 92.9493 306.663C91.9824 305.873 90.656 305.386 89.1808 305.386C86.7801 305.386 84.7512 306.679 84.0818 308.46C83.6686 308.274 83.2058 308.171 82.7182 308.171C80.991 308.171 79.5695 309.481 79.3919 311.158C73.2144 311.167 67.6195 313.675 63.57 317.724C59.5123 321.782 57 327.389 57 333.579C57 345.963 67.041 356 79.4208 356" fill="#C2C2C2"/>
<path d="M169.757 306.382V343.525C169.757 350.413 174.769 355.995 180.955 355.995H219.412C225.598 355.995 230.61 350.413 230.61 343.525V326.207H213.805C211.127 326.207 208.706 325.001 206.954 323.051C205.202 321.1 204.119 318.402 204.119 315.419C204.119 309.452 208.454 304.621 213.805 304.621H230.569C229.747 286.721 216.458 272.486 200.186 272.486C191.781 272.486 184.178 276.279 178.67 282.415C173.162 288.548 169.757 297.022 169.757 306.382Z" fill="#D9DEFF"/>
<path d="M274.46 355.69C273.538 355.893 272.588 355.995 271.613 355.995H145.567C137.353 355.995 130.7 348.579 130.7 339.43V293.518C130.7 245.702 165.815 205.909 208.735 206C243.3 206.075 272.584 231.231 282.695 266.003C276.617 272.627 272.89 281.494 272.89 291.192V353.161C272.89 354.273 273.53 355.231 274.46 355.69Z" fill="#F5F5F5"/>
<path d="M230.61 306.382V343.525C230.61 350.413 225.598 355.995 219.412 355.995H180.955C174.769 355.995 169.757 350.413 169.757 343.525V326.207H186.562C189.24 326.207 191.661 325.001 193.413 323.051C195.165 321.1 196.248 318.402 196.248 315.419C196.248 309.452 191.913 304.621 186.562 304.621H169.798C170.62 286.721 183.909 272.486 200.181 272.486C208.586 272.486 216.189 276.279 221.697 282.415C227.205 288.548 230.61 297.022 230.61 306.382Z" fill="#A8A8A8"/>
<path fill-rule="evenodd" clip-rule="evenodd" d="M367.126 355.995C381.65 355.995 393.659 344.314 393.642 329.79C393.634 321.947 390.452 314.852 385.311 309.712C380.163 304.563 373.051 301.381 365.196 301.381H356.651C353.693 301.381 351.019 300.183 349.081 298.245C347.143 296.307 345.945 293.63 345.945 290.676C345.945 271.085 330.52 255.094 311.149 254.189C299.93 253.664 289.732 258.333 282.695 266.006C282.695 266.007 282.695 266.007 282.695 266.007C276.617 272.631 272.89 281.498 272.89 291.196V353.165C272.89 354.277 273.53 355.235 274.46 355.694C274.84 355.888 275.266 355.995 275.72 355.995H367.126Z" fill="#A8A8A8"/>
<path d="M204.135 291.452C205.213 291.452 206.086 290.579 206.086 289.502C206.086 288.425 205.213 287.552 204.135 287.552C203.059 287.552 202.185 288.425 202.185 289.502C202.185 290.579 203.059 291.452 204.135 291.452Z" fill="white"/>
<path d="M214.065 291.452C215.142 291.452 216.015 290.579 216.015 289.502C216.015 288.425 215.142 287.552 214.065 287.552C212.988 287.552 212.115 288.425 212.115 289.502C212.115 290.579 212.988 291.452 214.065 291.452Z" fill="white"/>
<path d="M209.099 296.733C207.276 296.733 206.012 295.77 205.934 295.708C205.533 295.394 205.458 294.812 205.772 294.411C206.086 294.01 206.661 293.936 207.066 294.246C207.152 294.312 208.983 295.646 211.19 294.204C211.619 293.923 212.19 294.043 212.471 294.473C212.751 294.899 212.632 295.473 212.202 295.754C211.082 296.489 210.02 296.733 209.099 296.733Z" fill="white"/>
<path d="M296.521 280.04C298.023 280.04 299.24 278.822 299.24 277.321C299.24 275.819 298.023 274.602 296.521 274.602C295.019 274.602 293.802 275.819 293.802 277.321C293.802 278.822 295.019 280.04 296.521 280.04Z" fill="white"/>
<path d="M310.359 280.04C311.861 280.04 313.078 278.822 313.078 277.321C313.078 275.819 311.861 274.602 310.359 274.602C308.858 274.602 307.64 275.819 307.64 277.321C307.64 278.822 308.858 280.04 310.359 280.04Z" fill="white"/>
<path d="M78.896 326.55C80.1488 326.55 81.1645 325.535 81.1645 324.282C81.1645 323.029 80.1488 322.013 78.896 322.013C77.6431 322.013 76.6274 323.029 76.6274 324.282C76.6274 325.535 77.6431 326.55 78.896 326.55Z" fill="#8F8F8F"/>
<path d="M90.4538 326.55C91.7067 326.55 92.7223 325.535 92.7223 324.282C92.7223 323.029 91.7067 322.013 90.4538 322.013C89.201 322.013 88.1853 323.029 88.1853 324.282C88.1853 325.535 89.201 326.55 90.4538 326.55Z" fill="#8F8F8F"/>
<g opacity="0.8">
<path opacity="0.8" d="M88.4699 329.716V330.232C88.4699 332.075 86.7386 333.575 84.6106 333.575C82.4823 333.575 80.751 332.075 80.751 330.232V329.716C80.751 329.112 81.2427 328.617 81.8501 328.617H87.3749C87.9824 328.617 88.4737 329.108 88.4737 329.716H88.4699Z" fill="#8F8F8F"/>
</g>
<path fill-rule="evenodd" clip-rule="evenodd" d="M215.276 242.867C216.303 242.867 217.136 243.699 217.136 244.727V245.599C217.136 246.335 218.017 247.545 219.954 247.545C221.89 247.545 222.772 246.335 222.772 245.599V244.727C222.772 243.699 223.604 242.867 224.631 242.867C225.658 242.867 226.491 243.699 226.491 244.727V245.599C226.491 249.068 223.191 251.264 219.954 251.264C216.717 251.264 213.417 249.068 213.417 245.599V244.727C213.417 243.699 214.249 242.867 215.276 242.867Z" fill="#8F8F8F"/>
<path fill-rule="evenodd" clip-rule="evenodd" d="M240.923 242.867C241.951 242.867 242.783 243.699 242.783 244.727V245.599C242.783 246.335 243.665 247.545 245.601 247.545C247.537 247.545 248.419 246.335 248.419 245.599V244.727C248.419 243.699 249.252 242.867 250.278 242.867C251.306 242.867 252.138 243.699 252.138 244.727V245.599C252.138 249.068 248.838 251.264 245.601 251.264C242.364 251.264 239.064 249.068 239.064 245.599V244.727C239.064 243.699 239.897 242.867 240.923 242.867Z" fill="#8F8F8F"/>
<path d="M239.552 256.007V256.879C239.552 260.003 236.618 262.544 233.015 262.544C229.412 262.544 226.478 260.003 226.478 256.879V256.007C226.478 254.983 227.308 254.148 228.337 254.148H237.692C238.721 254.148 239.552 254.983 239.552 256.007Z" fill="#8F8F8F"/>
<rect x="98" y="94" width="253" height="80" rx="40" fill="#F5F5F5"/>
<path d="M134.878 115.834C135.675 115.834 136.384 116.065 137.005 116.528C137.626 116.985 138.112 117.639 138.464 118.488C138.821 119.332 139.003 120.316 139.009 121.441C139.003 122.572 138.821 123.562 138.464 124.412C138.112 125.262 137.626 125.918 137.005 126.381C136.384 126.838 135.675 127.066 134.878 127.066C134.075 127.066 133.36 126.838 132.733 126.381C132.106 125.918 131.617 125.262 131.266 124.412C130.92 123.562 130.747 122.572 130.747 121.441C130.747 120.316 130.92 119.332 131.266 118.488C131.617 117.639 132.106 116.985 132.733 116.528C133.36 116.065 134.075 115.834 134.878 115.834ZM132.628 121.441C132.628 122.238 132.722 122.93 132.909 123.516C133.097 124.096 133.36 124.538 133.7 124.843C134.04 125.147 134.433 125.303 134.878 125.309C135.329 125.303 135.722 125.147 136.056 124.843C136.396 124.538 136.659 124.096 136.847 123.516C137.034 122.936 137.128 122.244 137.128 121.441C137.128 120.645 137.034 119.956 136.847 119.376C136.659 118.796 136.396 118.354 136.056 118.049C135.716 117.744 135.323 117.592 134.878 117.592C134.433 117.592 134.04 117.747 133.7 118.058C133.36 118.362 133.097 118.805 132.909 119.385C132.722 119.959 132.628 120.645 132.628 121.441ZM141.101 114.674H143.052V120.773H145.495V122.426H143.052V130.564H141.101V114.674ZM152.192 117.434C152.192 118.096 152.342 118.74 152.641 119.367C152.945 119.988 153.388 120.542 153.968 121.028C154.554 121.515 155.257 121.887 156.077 122.145L155.075 123.656C154.19 123.369 153.423 122.944 152.772 122.382C152.122 121.813 151.609 121.143 151.234 120.369C150.871 121.207 150.353 121.937 149.679 122.558C149.011 123.179 148.214 123.645 147.288 123.955L146.286 122.443C147.112 122.162 147.821 121.764 148.413 121.248C149.005 120.727 149.453 120.138 149.758 119.481C150.062 118.819 150.218 118.137 150.224 117.434V117.24H146.796V115.676H155.532V117.24H152.192V117.434ZM148.554 124.992H159.399V130.564H157.431V126.574H148.554V124.992ZM157.431 114.674H159.399V124.254H157.431V114.674ZM171.687 117.434C171.687 118.102 171.827 118.743 172.108 119.358C172.396 119.974 172.82 120.524 173.383 121.011C173.951 121.497 174.64 121.875 175.448 122.145L174.464 123.656C173.591 123.363 172.838 122.936 172.205 122.373C171.578 121.811 171.086 121.148 170.729 120.387C170.371 121.219 169.861 121.942 169.199 122.558C168.543 123.167 167.761 123.627 166.853 123.938L165.815 122.426C166.642 122.15 167.348 121.755 167.934 121.239C168.525 120.724 168.971 120.138 169.27 119.481C169.568 118.819 169.718 118.137 169.718 117.434V117.24H166.36V115.676H174.991V117.24H171.687V117.434ZM167.942 124.992H178.524V130.564H176.573V126.557H167.942V124.992ZM176.573 114.674H178.524V118.646H180.739V120.281H178.524V124.254H176.573V114.674ZM187.366 116.959C187.36 117.691 187.498 118.386 187.779 119.042C188.066 119.692 188.491 120.267 189.054 120.765C189.616 121.257 190.302 121.629 191.11 121.881L190.056 123.41C189.206 123.105 188.477 122.675 187.867 122.118C187.258 121.562 186.78 120.899 186.435 120.132C186.077 121.017 185.564 121.784 184.896 122.435C184.229 123.079 183.423 123.568 182.479 123.902L181.442 122.32C182.298 122.039 183.021 121.632 183.613 121.099C184.205 120.565 184.647 119.953 184.94 119.262C185.239 118.564 185.392 117.826 185.397 117.047V115.535H187.366V116.959ZM184.079 127.506C184.073 126.867 184.287 126.319 184.721 125.862C185.154 125.399 185.775 125.048 186.584 124.808C187.398 124.567 188.362 124.447 189.476 124.447C190.595 124.447 191.562 124.567 192.376 124.808C193.19 125.048 193.814 125.399 194.248 125.862C194.688 126.319 194.907 126.867 194.907 127.506C194.907 128.145 194.688 128.692 194.248 129.149C193.814 129.606 193.19 129.952 192.376 130.187C191.562 130.427 190.595 130.547 189.476 130.547C188.362 130.547 187.398 130.427 186.584 130.187C185.775 129.952 185.154 129.606 184.721 129.149C184.287 128.692 184.073 128.145 184.079 127.506ZM186.013 127.506C186.007 127.986 186.306 128.358 186.909 128.622C187.513 128.88 188.368 129.012 189.476 129.018C190.589 129.012 191.447 128.88 192.051 128.622C192.654 128.358 192.956 127.986 192.956 127.506C192.956 127.008 192.654 126.627 192.051 126.363C191.453 126.1 190.595 125.965 189.476 125.959C188.362 125.965 187.504 126.1 186.9 126.363C186.303 126.627 186.007 127.008 186.013 127.506ZM189.739 117.75H192.903V114.674H194.854V124.025H192.903V119.35H189.739V117.75ZM206.351 121.23H203.397V123.032C204.804 122.974 206.099 122.883 207.282 122.76L207.423 124.166C205.894 124.377 204.297 124.523 202.633 124.605C200.975 124.682 199.243 124.723 197.438 124.729L197.175 123.164C199.044 123.152 200.462 123.132 201.429 123.103V121.23H198.546V115.658H206.228V117.24H200.515V119.666H206.351V121.23ZM199.706 125.73H201.675V128.666H210.815V130.248H199.706V125.73ZM208.39 114.674H210.358V126.609H208.39V114.674ZM225.335 126.697H217.776V116.168H225.335V126.697ZM223.437 125.133V117.697H219.71V125.133H223.437ZM228.183 114.674H230.151V130.582H228.183V114.674ZM238.272 117.486C238.267 118.248 238.404 118.98 238.686 119.684C238.967 120.381 239.386 121.005 239.942 121.556C240.499 122.106 241.173 122.531 241.964 122.83L240.874 124.342C240.042 124.014 239.324 123.536 238.721 122.909C238.117 122.282 237.646 121.547 237.306 120.703C236.954 121.605 236.456 122.391 235.812 123.059C235.173 123.721 234.405 124.225 233.509 124.57L232.454 123.023C233.274 122.725 233.972 122.294 234.546 121.731C235.126 121.169 235.562 120.524 235.855 119.798C236.148 119.065 236.298 118.295 236.304 117.486V115.588H238.272V117.486ZM235.319 125.326H237.306V128.666H246.147V130.248H235.319V125.326ZM240.944 120H243.845V118.436H240.944V116.854H243.845V114.691H245.796V126.486H243.845V121.564H240.944V120ZM261.265 130.582H259.296V114.674H261.265V130.582ZM248.556 121.441C248.556 120.322 248.731 119.338 249.083 118.488C249.435 117.639 249.924 116.985 250.551 116.528C251.184 116.065 251.901 115.834 252.704 115.834C253.495 115.834 254.204 116.065 254.831 116.528C255.464 116.985 255.959 117.639 256.316 118.488C256.674 119.338 256.853 120.322 256.853 121.441C256.853 122.572 256.674 123.562 256.316 124.412C255.959 125.262 255.464 125.918 254.831 126.381C254.204 126.838 253.495 127.066 252.704 127.066C251.901 127.066 251.184 126.838 250.551 126.381C249.924 125.918 249.435 125.262 249.083 124.412C248.731 123.562 248.556 122.572 248.556 121.441ZM250.437 121.441C250.437 122.244 250.53 122.936 250.718 123.516C250.911 124.096 251.178 124.538 251.518 124.843C251.857 125.147 252.253 125.303 252.704 125.309C253.149 125.303 253.542 125.147 253.882 124.843C254.222 124.538 254.485 124.096 254.673 123.516C254.86 122.936 254.954 122.244 254.954 121.441C254.954 120.645 254.86 119.959 254.673 119.385C254.485 118.805 254.222 118.362 253.882 118.058C253.542 117.747 253.149 117.592 252.704 117.592C252.253 117.592 251.857 117.747 251.518 118.058C251.178 118.362 250.911 118.805 250.718 119.385C250.53 119.959 250.437 120.645 250.437 121.441ZM271.478 125.678H273.569V123.973H275.38V129.018C275.983 128.766 276.487 128.432 276.892 128.016C277.302 127.6 277.606 127.143 277.806 126.645C278.005 126.146 278.104 125.637 278.104 125.115V123.85H280.056V125.115C280.05 125.684 280.146 126.226 280.346 126.741C280.551 127.251 280.864 127.708 281.286 128.112C281.708 128.511 282.235 128.818 282.868 129.035L281.866 130.494C280.536 130.014 279.602 129.123 279.062 127.822C278.787 128.426 278.418 128.956 277.955 129.413C277.498 129.876 276.95 130.236 276.312 130.494L275.38 129.114V130.371H269.649V123.973H271.478V125.678ZM268.085 119.016C268.085 118.301 268.264 117.665 268.621 117.108C268.984 116.546 269.485 116.109 270.124 115.799C270.763 115.482 271.483 115.324 272.286 115.324C272.96 115.324 273.581 115.444 274.149 115.685C274.718 115.919 275.192 116.253 275.573 116.687C275.96 117.12 276.221 117.621 276.355 118.189H279.229V114.674H281.181V123.094H279.229V119.807H276.364C276.235 120.387 275.98 120.899 275.6 121.345C275.219 121.79 274.741 122.136 274.167 122.382C273.593 122.622 272.966 122.742 272.286 122.742C271.483 122.742 270.763 122.587 270.124 122.276C269.485 121.96 268.984 121.521 268.621 120.958C268.264 120.39 268.085 119.742 268.085 119.016ZM269.948 119.016C269.948 119.438 270.048 119.81 270.247 120.132C270.446 120.454 270.722 120.703 271.073 120.879C271.431 121.055 271.835 121.143 272.286 121.143C272.731 121.143 273.127 121.055 273.473 120.879C273.818 120.703 274.091 120.454 274.29 120.132C274.489 119.81 274.589 119.438 274.589 119.016C274.589 118.605 274.489 118.242 274.29 117.926C274.091 117.609 273.815 117.366 273.464 117.196C273.118 117.026 272.726 116.941 272.286 116.941C271.835 116.941 271.431 117.026 271.073 117.196C270.722 117.366 270.446 117.609 270.247 117.926C270.048 118.242 269.948 118.605 269.948 119.016ZM273.569 128.877V127.137H271.478V128.877H273.569ZM287.772 115.834C288.481 115.834 289.123 116.024 289.697 116.405C290.271 116.786 290.74 117.331 291.104 118.04C291.467 118.743 291.695 119.572 291.789 120.527H294.821V114.674H296.755V130.582H294.821V122.109H291.807C291.736 123.117 291.522 123.996 291.165 124.746C290.808 125.49 290.336 126.064 289.75 126.469C289.164 126.867 288.505 127.066 287.772 127.066C286.976 127.066 286.267 126.838 285.646 126.381C285.03 125.918 284.55 125.262 284.204 124.412C283.864 123.562 283.694 122.572 283.694 121.441C283.694 120.316 283.864 119.332 284.204 118.488C284.55 117.639 285.033 116.985 285.654 116.528C286.275 116.065 286.981 115.834 287.772 115.834ZM285.575 121.441C285.575 122.244 285.666 122.936 285.848 123.516C286.029 124.096 286.284 124.538 286.612 124.843C286.946 125.147 287.333 125.303 287.772 125.309C288.212 125.303 288.599 125.147 288.933 124.843C289.267 124.538 289.524 124.096 289.706 123.516C289.894 122.936 289.987 122.244 289.987 121.441C289.987 120.645 289.894 119.956 289.706 119.376C289.524 118.796 289.267 118.354 288.933 118.049C288.599 117.744 288.212 117.592 287.772 117.592C287.333 117.592 286.946 117.747 286.612 118.058C286.284 118.362 286.029 118.805 285.848 119.385C285.666 119.959 285.575 120.645 285.575 121.441ZM313.507 128.631H298.987V127.031H302.345V123.015C301.7 122.646 301.199 122.18 300.842 121.617C300.49 121.055 300.317 120.428 300.323 119.736C300.323 118.904 300.572 118.172 301.07 117.539C301.574 116.9 302.274 116.408 303.171 116.062C304.067 115.711 305.081 115.535 306.212 115.535C307.349 115.535 308.365 115.711 309.262 116.062C310.164 116.408 310.867 116.9 311.371 117.539C311.881 118.172 312.136 118.904 312.136 119.736C312.142 120.416 311.972 121.031 311.626 121.582C311.28 122.133 310.794 122.596 310.167 122.971V127.031H313.507V128.631ZM302.239 119.736C302.239 120.27 302.403 120.738 302.731 121.143C303.065 121.541 303.531 121.849 304.129 122.065C304.732 122.282 305.427 122.391 306.212 122.391C306.997 122.391 307.691 122.282 308.295 122.065C308.904 121.849 309.376 121.541 309.71 121.143C310.05 120.738 310.22 120.27 310.22 119.736C310.22 119.197 310.05 118.726 309.71 118.321C309.376 117.917 308.904 117.609 308.295 117.398C307.691 117.188 306.997 117.082 306.212 117.082C305.421 117.082 304.724 117.188 304.12 117.398C303.522 117.609 303.06 117.917 302.731 118.321C302.403 118.72 302.239 119.191 302.239 119.736ZM308.181 127.031V123.718C307.56 123.853 306.903 123.92 306.212 123.92C305.55 123.92 304.905 123.855 304.278 123.727V127.031H308.181ZM316.478 129.141C316.231 129.141 316.003 129.079 315.792 128.956C315.581 128.833 315.414 128.666 315.291 128.455C315.168 128.244 315.106 128.016 315.106 127.77C315.106 127.529 315.168 127.307 315.291 127.102C315.414 126.891 315.581 126.724 315.792 126.601C316.003 126.478 316.231 126.416 316.478 126.416C316.718 126.416 316.94 126.478 317.146 126.601C317.356 126.724 317.523 126.891 317.646 127.102C317.77 127.307 317.831 127.529 317.831 127.77C317.831 128.016 317.77 128.244 317.646 128.455C317.523 128.666 317.356 128.833 317.146 128.956C316.94 129.079 316.718 129.141 316.478 129.141ZM171.845 147.551H164.321V140.045H171.845V147.551ZM166.132 149.15H168.083V152.666H176.942V154.248H166.132V149.15ZM169.929 146.004V141.609H166.237V146.004H169.929ZM174.358 138.674H176.31V143.332H178.524V144.967H176.31V150.275H174.358V138.674ZM193.835 146.584H179.333V145.037H193.835V146.584ZM181.038 147.674H192.007V151.664H182.972V152.877H192.446V154.406H181.056V150.258H190.091V149.15H181.038V147.674ZM181.179 139.078H191.972V140.643H183.13V142.471H192.112V144.018H181.179V139.078ZM208.196 154.582H206.245V146.127H203.521V144.527H206.245V138.674H208.196V154.582ZM195.417 140.062H202.606V145.881H197.403V149.221C198.71 149.215 199.853 149.18 200.831 149.115C201.815 149.051 202.806 148.928 203.802 148.746L203.96 150.346C202.853 150.539 201.745 150.671 200.638 150.741C199.536 150.812 198.235 150.85 196.735 150.855H195.47V144.299H200.69V141.645H195.417V140.062ZM227.163 144.879H229.519V146.514H227.163V154.529H225.212V138.674H227.163V144.879ZM214.63 150.188C216.569 149.221 218.063 148.058 219.112 146.698C220.161 145.333 220.782 143.748 220.976 141.943H215.491V140.326H222.962C222.95 145.541 220.542 149.332 215.737 151.699L214.63 150.188ZM234.089 140.168H240.944V138.92H242.878V144.211H238.448V145.424H244.759V146.971H230.274V145.424H236.515V144.211H232.155V138.92H234.089V140.168ZM231.979 147.973H242.948V151.822H233.913V152.93H243.388V154.424H231.997V150.451H241.032V149.414H231.979V147.973ZM240.944 142.752V141.592H234.089V142.752H240.944ZM258.505 145.02H260.702V146.637H258.505V154.564H256.536V138.674H258.505V145.02ZM245.603 150.012C246.329 149.238 246.912 148.436 247.352 147.604C247.791 146.771 248.116 145.898 248.327 144.984C248.544 144.07 248.679 143.057 248.731 141.943H246.235V140.344H250.595C250.589 141.867 250.492 143.238 250.305 144.457C250.117 145.67 249.769 146.836 249.259 147.955C248.755 149.074 248.046 150.129 247.132 151.119L245.603 150.012ZM250.103 151.066C250.829 150.193 251.406 149.279 251.834 148.324C252.268 147.363 252.581 146.37 252.774 145.345C252.968 144.313 253.088 143.18 253.135 141.943H251.122V140.344H254.989C254.983 141.967 254.896 143.438 254.726 144.756C254.562 146.074 254.236 147.363 253.75 148.623C253.27 149.877 252.575 151.049 251.667 152.139L250.103 151.066ZM275.907 152.631H261.388V151.031H264.745V147.015C264.101 146.646 263.6 146.18 263.242 145.617C262.891 145.055 262.718 144.428 262.724 143.736C262.724 142.904 262.973 142.172 263.471 141.539C263.975 140.9 264.675 140.408 265.571 140.062C266.468 139.711 267.481 139.535 268.612 139.535C269.749 139.535 270.766 139.711 271.662 140.062C272.564 140.408 273.268 140.9 273.771 141.539C274.281 142.172 274.536 142.904 274.536 143.736C274.542 144.416 274.372 145.031 274.026 145.582C273.681 146.133 273.194 146.596 272.567 146.971V151.031H275.907V152.631ZM264.64 143.736C264.64 144.27 264.804 144.738 265.132 145.143C265.466 145.541 265.932 145.849 266.529 146.065C267.133 146.282 267.827 146.391 268.612 146.391C269.397 146.391 270.092 146.282 270.695 146.065C271.305 145.849 271.776 145.541 272.11 145.143C272.45 144.738 272.62 144.27 272.62 143.736C272.62 143.197 272.45 142.726 272.11 142.321C271.776 141.917 271.305 141.609 270.695 141.398C270.092 141.188 269.397 141.082 268.612 141.082C267.821 141.082 267.124 141.188 266.521 141.398C265.923 141.609 265.46 141.917 265.132 142.321C264.804 142.72 264.64 143.191 264.64 143.736ZM270.581 151.031V147.718C269.96 147.853 269.304 147.92 268.612 147.92C267.95 147.92 267.306 147.855 266.679 147.727V151.031H270.581ZM279.634 149.098C279.64 148.377 279.71 147.794 279.845 147.349C279.979 146.903 280.167 146.546 280.407 146.276C280.653 146.007 280.981 145.746 281.392 145.494C281.808 145.225 282.133 144.935 282.367 144.624C282.602 144.313 282.716 143.953 282.71 143.543C282.71 143.221 282.634 142.939 282.481 142.699C282.335 142.453 282.13 142.263 281.866 142.128C281.603 141.993 281.31 141.926 280.987 141.926C280.688 141.926 280.407 141.99 280.144 142.119C279.88 142.248 279.663 142.444 279.493 142.708C279.323 142.972 279.229 143.291 279.212 143.666H277.015C277.032 142.904 277.22 142.257 277.577 141.724C277.935 141.185 278.409 140.78 279.001 140.511C279.599 140.235 280.267 140.098 281.005 140.098C281.79 140.098 282.484 140.238 283.088 140.52C283.697 140.795 284.169 141.19 284.503 141.706C284.843 142.222 285.013 142.822 285.013 143.508C285.007 144.193 284.843 144.782 284.521 145.274C284.204 145.767 283.747 146.191 283.149 146.549C282.798 146.766 282.517 146.985 282.306 147.208C282.101 147.431 281.948 147.691 281.849 147.99C281.749 148.289 281.696 148.658 281.69 149.098V149.256H279.634V149.098ZM279.353 151.77C279.353 151.529 279.414 151.307 279.537 151.102C279.66 150.891 279.827 150.724 280.038 150.601C280.249 150.478 280.478 150.416 280.724 150.416C280.964 150.416 281.187 150.478 281.392 150.601C281.603 150.724 281.77 150.891 281.893 151.102C282.016 151.307 282.077 151.529 282.077 151.77C282.077 152.016 282.016 152.244 281.893 152.455C281.77 152.666 281.603 152.833 281.392 152.956C281.187 153.079 280.964 153.141 280.724 153.141C280.478 153.141 280.249 153.079 280.038 152.956C279.827 152.833 279.66 152.666 279.537 152.455C279.414 152.244 279.353 152.016 279.353 151.77Z" fill="#757575"/>
<path d="M167.926 170.04L177.013 182.532C178.636 184.766 176.013 187.61 173.657 186.168L153.212 173.675C151.037 172.347 151.979 169 154.528 169H165.886C166.693 169 167.45 169.387 167.926 170.04V170.04Z" fill="#F5F5F5"/>
</svg>
