<svg width="450" height="450" viewBox="0 0 450 450" fill="none" xmlns="http://www.w3.org/2000/svg">
<path fill-rule="evenodd" clip-rule="evenodd" d="M79.4208 342H145.567H145.567C145.311 342 145.055 341.993 144.802 341.978C142.992 341.876 141.268 341.414 139.686 340.654C138.635 340.149 137.647 339.513 136.738 338.765C136.141 338.273 135.579 337.732 135.055 337.149C134.512 336.544 134.01 335.892 133.556 335.199C131.76 332.461 130.7 329.086 130.7 325.434V297.158L79.4208 342ZM130.7 297.158H94.5112V295.741C94.5112 294.539 93.9162 293.452 92.9493 292.663C91.9824 291.873 90.656 291.386 89.1808 291.386C86.7801 291.386 84.7512 292.679 84.0818 294.46C83.6686 294.274 83.2058 294.171 82.7182 294.171C80.991 294.171 79.5695 295.481 79.3919 297.158C73.2144 297.167 67.6195 299.675 63.57 303.724C59.5123 307.782 57 313.389 57 319.579C57 331.963 67.041 342 79.4208 342" fill="#C2C2C2"/>
<path d="M169.757 292.382V329.525C169.757 336.413 174.769 341.995 180.955 341.995H219.412C225.598 341.995 230.61 336.413 230.61 329.525V312.207H213.805C211.127 312.207 208.706 311.001 206.954 309.051C205.202 307.1 204.119 304.402 204.119 301.419C204.119 295.452 208.454 290.621 213.805 290.621H230.569C229.747 272.721 216.458 258.486 200.186 258.486C191.781 258.486 184.178 262.279 178.67 268.415C173.162 274.548 169.757 283.022 169.757 292.382Z" fill="#D9DEFF"/>
<path d="M274.46 341.69C273.538 341.893 272.588 341.995 271.613 341.995H145.567C137.353 341.995 130.7 334.579 130.7 325.43V279.518C130.7 231.702 165.815 191.909 208.735 192C243.3 192.075 272.584 217.231 282.695 252.003C276.617 258.627 272.89 267.494 272.89 277.192V339.161C272.89 340.273 273.53 341.231 274.46 341.69Z" fill="#F5F5F5"/>
<path d="M230.61 292.382V329.525C230.61 336.413 225.598 341.995 219.412 341.995H180.955C174.769 341.995 169.757 336.413 169.757 329.525V312.207H186.562C189.24 312.207 191.661 311.001 193.413 309.051C195.165 307.1 196.248 304.402 196.248 301.419C196.248 295.452 191.913 290.621 186.562 290.621H169.798C170.62 272.721 183.909 258.486 200.181 258.486C208.586 258.486 216.189 262.279 221.697 268.415C227.205 274.548 230.61 283.022 230.61 292.382Z" fill="#A8A8A8"/>
<path fill-rule="evenodd" clip-rule="evenodd" d="M367.126 341.995C381.65 341.995 393.659 330.314 393.642 315.79C393.634 307.947 390.452 300.852 385.311 295.712C380.163 290.563 373.051 287.381 365.196 287.381H356.651C353.693 287.381 351.019 286.183 349.081 284.245C347.143 282.307 345.945 279.63 345.945 276.676C345.945 257.085 330.52 241.094 311.149 240.189C299.93 239.664 289.732 244.333 282.695 252.006C282.695 252.007 282.695 252.007 282.695 252.007C276.617 258.631 272.89 267.498 272.89 277.196V339.165C272.89 340.277 273.53 341.235 274.46 341.694C274.84 341.888 275.266 341.995 275.72 341.995H367.126Z" fill="#A8A8A8"/>
<path d="M204.135 277.452C205.213 277.452 206.086 276.579 206.086 275.502C206.086 274.425 205.213 273.552 204.135 273.552C203.059 273.552 202.185 274.425 202.185 275.502C202.185 276.579 203.059 277.452 204.135 277.452Z" fill="white"/>
<path d="M214.065 277.452C215.142 277.452 216.015 276.579 216.015 275.502C216.015 274.425 215.142 273.552 214.065 273.552C212.988 273.552 212.115 274.425 212.115 275.502C212.115 276.579 212.988 277.452 214.065 277.452Z" fill="white"/>
<path d="M209.099 282.733C207.276 282.733 206.012 281.77 205.934 281.708C205.533 281.394 205.458 280.812 205.772 280.411C206.086 280.01 206.661 279.936 207.066 280.246C207.152 280.312 208.983 281.646 211.19 280.204C211.619 279.923 212.19 280.043 212.471 280.473C212.751 280.899 212.632 281.473 212.202 281.754C211.082 282.489 210.02 282.733 209.099 282.733Z" fill="white"/>
<path d="M296.521 266.04C298.023 266.04 299.24 264.822 299.24 263.321C299.24 261.819 298.023 260.602 296.521 260.602C295.019 260.602 293.802 261.819 293.802 263.321C293.802 264.822 295.019 266.04 296.521 266.04Z" fill="white"/>
<path d="M310.359 266.04C311.861 266.04 313.078 264.822 313.078 263.321C313.078 261.819 311.861 260.602 310.359 260.602C308.858 260.602 307.64 261.819 307.64 263.321C307.64 264.822 308.858 266.04 310.359 266.04Z" fill="white"/>
<path d="M78.896 312.55C80.1488 312.55 81.1645 311.535 81.1645 310.282C81.1645 309.029 80.1488 308.013 78.896 308.013C77.6431 308.013 76.6274 309.029 76.6274 310.282C76.6274 311.535 77.6431 312.55 78.896 312.55Z" fill="#8F8F8F"/>
<path d="M90.4538 312.55C91.7067 312.55 92.7223 311.535 92.7223 310.282C92.7223 309.029 91.7067 308.013 90.4538 308.013C89.201 308.013 88.1853 309.029 88.1853 310.282C88.1853 311.535 89.201 312.55 90.4538 312.55Z" fill="#8F8F8F"/>
<g opacity="0.8">
<path opacity="0.8" d="M88.4699 315.716V316.232C88.4699 318.075 86.7386 319.575 84.6106 319.575C82.4823 319.575 80.751 318.075 80.751 316.232V315.716C80.751 315.112 81.2427 314.617 81.8501 314.617H87.3749C87.9824 314.617 88.4737 315.108 88.4737 315.716H88.4699Z" fill="#8F8F8F"/>
</g>
<path fill-rule="evenodd" clip-rule="evenodd" d="M215.276 228.867C216.303 228.867 217.136 229.699 217.136 230.727V231.599C217.136 232.335 218.017 233.545 219.954 233.545C221.89 233.545 222.772 232.335 222.772 231.599V230.727C222.772 229.699 223.604 228.867 224.631 228.867C225.658 228.867 226.491 229.699 226.491 230.727V231.599C226.491 235.068 223.191 237.264 219.954 237.264C216.717 237.264 213.417 235.068 213.417 231.599V230.727C213.417 229.699 214.249 228.867 215.276 228.867Z" fill="#8F8F8F"/>
<path fill-rule="evenodd" clip-rule="evenodd" d="M240.923 228.867C241.951 228.867 242.783 229.699 242.783 230.727V231.599C242.783 232.335 243.665 233.545 245.601 233.545C247.537 233.545 248.419 232.335 248.419 231.599V230.727C248.419 229.699 249.252 228.867 250.278 228.867C251.306 228.867 252.138 229.699 252.138 230.727V231.599C252.138 235.068 248.838 237.264 245.601 237.264C242.364 237.264 239.064 235.068 239.064 231.599V230.727C239.064 229.699 239.897 228.867 240.923 228.867Z" fill="#8F8F8F"/>
<path d="M239.552 242.007V242.879C239.552 246.003 236.618 248.544 233.015 248.544C229.412 248.544 226.478 246.003 226.478 242.879V242.007C226.478 240.983 227.308 240.148 228.337 240.148H237.692C238.721 240.148 239.552 240.983 239.552 242.007Z" fill="#8F8F8F"/>
<rect x="65" y="108" width="320" height="56" rx="28" fill="#F5F5F5"/>
<path d="M109.494 133.191C109.494 134.064 109.658 134.929 109.986 135.784C110.32 136.634 110.795 137.398 111.41 138.078C112.031 138.752 112.758 139.262 113.59 139.607L112.518 141.154C111.598 140.756 110.798 140.167 110.118 139.388C109.438 138.603 108.911 137.691 108.536 136.654C108.161 137.768 107.631 138.752 106.945 139.607C106.26 140.463 105.463 141.107 104.555 141.541L103.43 140.012C104.244 139.637 104.959 139.086 105.574 138.359C106.189 137.633 106.664 136.815 106.998 135.907C107.332 134.999 107.502 134.094 107.508 133.191V131.855H104.01V130.238H112.975V131.855H109.494V133.191ZM114.75 128.674H116.719V144.564H114.75V128.674ZM121.711 135.793C122.83 135.781 123.926 135.729 124.998 135.635C126.076 135.535 127.16 135.371 128.25 135.143L128.461 136.742C127.242 136.994 126.029 137.17 124.822 137.27C123.615 137.369 122.361 137.422 121.061 137.428H119.742V129.781H121.711V135.793ZM121.43 139.027H123.398V142.666H132.117V144.248H121.43V139.027ZM129.639 128.691H131.59V133.244H133.805V134.879H131.59V140.117H129.639V128.691ZM147.287 140.697H139.729V130.168H147.287V140.697ZM145.389 139.133V131.697H141.662V139.133H145.389ZM150.135 128.674H152.104V144.582H150.135V128.674ZM160.225 131.486C160.219 132.248 160.356 132.98 160.638 133.684C160.919 134.381 161.338 135.005 161.895 135.556C162.451 136.106 163.125 136.531 163.916 136.83L162.826 138.342C161.994 138.014 161.276 137.536 160.673 136.909C160.069 136.282 159.598 135.547 159.258 134.703C158.906 135.605 158.408 136.391 157.764 137.059C157.125 137.721 156.357 138.225 155.461 138.57L154.406 137.023C155.227 136.725 155.924 136.294 156.498 135.731C157.078 135.169 157.515 134.524 157.808 133.798C158.101 133.065 158.25 132.295 158.256 131.486V129.588H160.225V131.486ZM157.271 139.326H159.258V142.666H168.1V144.248H157.271V139.326ZM162.896 134H165.797V132.436H162.896V130.854H165.797V128.691H167.748V140.486H165.797V135.564H162.896V134ZM184.482 138.447H169.998V136.883H184.482V138.447ZM171.492 132.4C171.492 131.738 171.727 131.164 172.195 130.678C172.67 130.191 173.338 129.822 174.199 129.57C175.061 129.312 176.068 129.184 177.223 129.184C178.371 129.184 179.376 129.312 180.237 129.57C181.104 129.822 181.772 130.191 182.241 130.678C182.716 131.164 182.953 131.738 182.953 132.4C182.953 133.068 182.716 133.648 182.241 134.141C181.772 134.627 181.104 135.002 180.237 135.266C179.376 135.523 178.371 135.652 177.223 135.652C176.068 135.652 175.061 135.523 174.199 135.266C173.338 135.002 172.67 134.627 172.195 134.141C171.727 133.648 171.492 133.068 171.492 132.4ZM171.791 139.625H173.742V142.666H182.848V144.248H171.791V139.625ZM173.531 132.4C173.525 132.934 173.842 133.344 174.48 133.631C175.125 133.912 176.021 134.053 177.17 134.053C178.365 134.053 179.291 133.912 179.947 133.631C180.604 133.35 180.932 132.939 180.932 132.4C180.932 131.879 180.604 131.475 179.947 131.188C179.297 130.895 178.389 130.748 177.223 130.748C176.455 130.748 175.793 130.812 175.236 130.941C174.68 131.07 174.255 131.261 173.962 131.513C173.669 131.759 173.525 132.055 173.531 132.4ZM202.359 133.684H204.574V135.301H202.359V140.557H200.408V128.691H202.359V133.684ZM189.844 130.449H193.588V128.674H195.539V130.449H199.266V132.014H189.844V130.449ZM190.652 135.705C190.652 135.102 190.816 134.571 191.145 134.114C191.473 133.651 191.933 133.294 192.524 133.042C193.116 132.79 193.793 132.664 194.555 132.664C195.311 132.664 195.981 132.79 196.567 133.042C197.159 133.294 197.619 133.651 197.947 134.114C198.275 134.571 198.439 135.102 198.439 135.705C198.439 136.303 198.275 136.83 197.947 137.287C197.619 137.738 197.162 138.09 196.576 138.342C195.99 138.588 195.316 138.711 194.555 138.711C193.787 138.711 193.107 138.588 192.516 138.342C191.93 138.09 191.473 137.738 191.145 137.287C190.816 136.83 190.652 136.303 190.652 135.705ZM192.182 139.625H194.133V142.666H202.992V144.248H192.182V139.625ZM192.551 135.705C192.545 136.174 192.721 136.54 193.078 136.804C193.441 137.067 193.925 137.199 194.528 137.199C195.149 137.199 195.645 137.07 196.014 136.812C196.389 136.549 196.576 136.18 196.576 135.705C196.576 135.23 196.392 134.858 196.022 134.589C195.653 134.313 195.164 134.176 194.555 134.176C193.945 134.176 193.456 134.313 193.087 134.589C192.724 134.858 192.545 135.23 192.551 135.705ZM217.389 131.1H212.203V134.633C213.691 134.621 214.922 134.58 215.895 134.51C216.867 134.434 217.834 134.299 218.795 134.105L219.006 135.617C218.039 135.834 217.049 135.98 216.035 136.057C215.021 136.127 213.694 136.162 212.054 136.162H211.553H210.27V129.535H217.389V131.1ZM211.799 137.305H222.188V141.523H213.75V142.789H222.68V144.371H211.816V140.047H220.236V138.869H211.799V137.305ZM220.236 128.674H222.188V131.803H224.402V133.402H222.188V136.619H220.236V128.674ZM238.43 144.582H236.461V128.674H238.43V144.582ZM225.721 135.441C225.721 134.322 225.896 133.338 226.248 132.488C226.6 131.639 227.089 130.985 227.716 130.528C228.349 130.065 229.066 129.834 229.869 129.834C230.66 129.834 231.369 130.065 231.996 130.528C232.629 130.985 233.124 131.639 233.481 132.488C233.839 133.338 234.018 134.322 234.018 135.441C234.018 136.572 233.839 137.562 233.481 138.412C233.124 139.262 232.629 139.918 231.996 140.381C231.369 140.838 230.66 141.066 229.869 141.066C229.066 141.066 228.349 140.838 227.716 140.381C227.089 139.918 226.6 139.262 226.248 138.412C225.896 137.562 225.721 136.572 225.721 135.441ZM227.602 135.441C227.602 136.244 227.695 136.936 227.883 137.516C228.076 138.096 228.343 138.538 228.683 138.843C229.022 139.147 229.418 139.303 229.869 139.309C230.314 139.303 230.707 139.147 231.047 138.843C231.387 138.538 231.65 138.096 231.838 137.516C232.025 136.936 232.119 136.244 232.119 135.441C232.119 134.645 232.025 133.959 231.838 133.385C231.65 132.805 231.387 132.362 231.047 132.058C230.707 131.747 230.314 131.592 229.869 131.592C229.418 131.592 229.022 131.747 228.683 132.058C228.343 132.362 228.076 132.805 227.883 133.385C227.695 133.959 227.602 134.645 227.602 135.441ZM251.033 133.191C251.033 134.064 251.197 134.929 251.525 135.784C251.859 136.634 252.334 137.398 252.949 138.078C253.57 138.752 254.297 139.262 255.129 139.607L254.057 141.154C253.137 140.756 252.337 140.167 251.657 139.388C250.978 138.603 250.45 137.691 250.075 136.654C249.7 137.768 249.17 138.752 248.484 139.607C247.799 140.463 247.002 141.107 246.094 141.541L244.969 140.012C245.783 139.637 246.498 139.086 247.113 138.359C247.729 137.633 248.203 136.815 248.537 135.907C248.871 134.999 249.041 134.094 249.047 133.191V131.855H245.549V130.238H254.514V131.855H251.033V133.191ZM256.289 128.674H258.258V144.564H256.289V128.674ZM275.396 136.408H273.041V144.529H271.09V128.674H273.041V134.809H275.396V136.408ZM261.158 130.221H263.092V138.992C265.494 138.951 267.75 138.711 269.859 138.271L270.07 139.924C268.822 140.176 267.577 140.352 266.335 140.451C265.093 140.551 263.812 140.604 262.494 140.609H261.158V130.221ZM280.424 129.834C281.221 129.834 281.93 130.065 282.551 130.528C283.172 130.985 283.658 131.639 284.01 132.488C284.367 133.332 284.549 134.316 284.555 135.441C284.549 136.572 284.367 137.562 284.01 138.412C283.658 139.262 283.172 139.918 282.551 140.381C281.93 140.838 281.221 141.066 280.424 141.066C279.621 141.066 278.906 140.838 278.279 140.381C277.652 139.918 277.163 139.262 276.812 138.412C276.466 137.562 276.293 136.572 276.293 135.441C276.293 134.316 276.466 133.332 276.812 132.488C277.163 131.639 277.652 130.985 278.279 130.528C278.906 130.065 279.621 129.834 280.424 129.834ZM278.174 135.441C278.174 136.238 278.268 136.93 278.455 137.516C278.643 138.096 278.906 138.538 279.246 138.843C279.586 139.147 279.979 139.303 280.424 139.309C280.875 139.303 281.268 139.147 281.602 138.843C281.941 138.538 282.205 138.096 282.393 137.516C282.58 136.936 282.674 136.244 282.674 135.441C282.674 134.645 282.58 133.956 282.393 133.376C282.205 132.796 281.941 132.354 281.602 132.049C281.262 131.744 280.869 131.592 280.424 131.592C279.979 131.592 279.586 131.747 279.246 132.058C278.906 132.362 278.643 132.805 278.455 133.385C278.268 133.959 278.174 134.645 278.174 135.441ZM286.646 128.674H288.598V132.471H290.953V134.105H288.598V137.164H290.953V138.764H288.598V144.564H286.646V128.674ZM300.938 131.627C300.943 132.213 301.061 132.781 301.289 133.332C301.518 133.877 301.863 134.372 302.326 134.817C302.789 135.257 303.357 135.605 304.031 135.863L302.994 137.357C302.309 137.1 301.714 136.73 301.21 136.25C300.712 135.77 300.316 135.21 300.023 134.571C299.719 135.31 299.303 135.963 298.775 136.531C298.254 137.094 297.627 137.527 296.895 137.832L295.84 136.338C296.543 136.027 297.135 135.617 297.615 135.107C298.096 134.598 298.453 134.044 298.688 133.446C298.928 132.843 299.051 132.236 299.057 131.627V129.658H300.938V131.627ZM298.758 141.611C298.758 141.008 298.978 140.486 299.417 140.047C299.856 139.607 300.486 139.273 301.307 139.045C302.127 138.811 303.094 138.693 304.207 138.693C305.309 138.693 306.27 138.811 307.09 139.045C307.91 139.273 308.543 139.607 308.988 140.047C309.434 140.486 309.656 141.008 309.656 141.611C309.656 142.215 309.434 142.736 308.988 143.176C308.543 143.621 307.91 143.961 307.09 144.195C306.27 144.43 305.309 144.547 304.207 144.547C303.094 144.547 302.127 144.43 301.307 144.195C300.486 143.961 299.856 143.621 299.417 143.176C298.978 142.736 298.758 142.215 298.758 141.611ZM300.709 141.611C300.703 142.074 301.002 142.432 301.605 142.684C302.209 142.93 303.059 143.053 304.154 143.053C305.273 143.053 306.141 142.93 306.756 142.684C307.371 142.438 307.682 142.08 307.688 141.611C307.682 141.148 307.374 140.794 306.765 140.548C306.155 140.296 305.303 140.17 304.207 140.17C303.094 140.17 302.229 140.296 301.614 140.548C301.005 140.794 300.703 141.148 300.709 141.611ZM304.295 128.99H306.123V132.699H307.705V128.691H309.568V138.43H307.705V134.299H306.123V137.938H304.295V128.99ZM319.641 130.361C319.641 131.252 319.573 132.084 319.438 132.857H322.893V128.674H324.844V144.547H322.893V138.729H318.85V137.146H322.893V134.422H319.078C318.123 137.592 315.914 140.023 312.451 141.717L311.432 140.17C313.383 139.197 314.865 138.031 315.879 136.672C316.893 135.312 317.487 133.725 317.663 131.908H312.17V130.361H319.641ZM341.613 142.631H327.094V141.031H330.451V137.015C329.807 136.646 329.306 136.18 328.948 135.617C328.597 135.055 328.424 134.428 328.43 133.736C328.43 132.904 328.679 132.172 329.177 131.539C329.681 130.9 330.381 130.408 331.277 130.062C332.174 129.711 333.188 129.535 334.318 129.535C335.455 129.535 336.472 129.711 337.368 130.062C338.271 130.408 338.974 130.9 339.478 131.539C339.987 132.172 340.242 132.904 340.242 133.736C340.248 134.416 340.078 135.031 339.732 135.582C339.387 136.133 338.9 136.596 338.273 136.971V141.031H341.613V142.631ZM330.346 133.736C330.346 134.27 330.51 134.738 330.838 135.143C331.172 135.541 331.638 135.849 332.235 136.065C332.839 136.282 333.533 136.391 334.318 136.391C335.104 136.391 335.798 136.282 336.401 136.065C337.011 135.849 337.482 135.541 337.816 135.143C338.156 134.738 338.326 134.27 338.326 133.736C338.326 133.197 338.156 132.726 337.816 132.321C337.482 131.917 337.011 131.609 336.401 131.398C335.798 131.188 335.104 131.082 334.318 131.082C333.527 131.082 332.83 131.188 332.227 131.398C331.629 131.609 331.166 131.917 330.838 132.321C330.51 132.72 330.346 133.191 330.346 133.736ZM336.287 141.031V137.718C335.666 137.853 335.01 137.92 334.318 137.92C333.656 137.92 333.012 137.855 332.385 137.727V141.031H336.287ZM344.584 143.141C344.338 143.141 344.109 143.079 343.898 142.956C343.688 142.833 343.521 142.666 343.397 142.455C343.274 142.244 343.213 142.016 343.213 141.77C343.213 141.529 343.274 141.307 343.397 141.102C343.521 140.891 343.688 140.724 343.898 140.601C344.109 140.478 344.338 140.416 344.584 140.416C344.824 140.416 345.047 140.478 345.252 140.601C345.463 140.724 345.63 140.891 345.753 141.102C345.876 141.307 345.938 141.529 345.938 141.77C345.938 142.016 345.876 142.244 345.753 142.455C345.63 142.666 345.463 142.833 345.252 142.956C345.047 143.079 344.824 143.141 344.584 143.141Z" fill="#757575"/>
<path d="M134.926 156.04L144.013 168.532C145.636 170.766 143.013 173.61 140.657 172.168L120.212 159.675C118.037 158.347 118.979 155 121.528 155H132.886C133.693 155 134.45 155.387 134.926 156.04V156.04Z" fill="#F5F5F5"/>
</svg>
