<svg width="450" height="450" viewBox="0 0 450 450" fill="none" xmlns="http://www.w3.org/2000/svg">
<path fill-rule="evenodd" clip-rule="evenodd" d="M79.4208 356H145.567H145.567C145.311 356 145.055 355.993 144.802 355.979C142.992 355.876 141.268 355.414 139.686 354.654C138.635 354.149 137.647 353.513 136.738 352.765C136.141 352.273 135.579 351.732 135.055 351.149C134.512 350.544 134.01 349.892 133.556 349.199C131.76 346.462 130.7 343.086 130.7 339.434V311.159L79.4208 356ZM130.7 311.159H94.5112V309.741C94.5112 308.539 93.9162 307.452 92.9493 306.663C91.9824 305.874 90.656 305.386 89.1808 305.386C86.7801 305.386 84.7512 306.679 84.0818 308.46C83.6686 308.274 83.2058 308.171 82.7182 308.171C80.991 308.171 79.5695 309.481 79.3919 311.159C73.2144 311.167 67.6195 313.675 63.57 317.724C59.5123 321.782 57 327.389 57 333.579C57 345.963 67.041 356 79.4208 356" fill="#C2C2C2"/>
<path d="M169.757 306.382V343.525C169.757 350.413 174.769 355.995 180.955 355.995H219.412C225.598 355.995 230.61 350.413 230.61 343.525V326.208H213.805C211.127 326.208 208.706 325.001 206.954 323.051C205.202 321.1 204.119 318.402 204.119 315.419C204.119 309.452 208.454 304.621 213.805 304.621H230.569C229.747 286.721 216.458 272.486 200.186 272.486C191.781 272.486 184.178 276.279 178.67 282.416C173.162 288.548 169.757 297.023 169.757 306.382Z" fill="#D9DEFF"/>
<path d="M274.46 355.69C273.538 355.893 272.588 355.995 271.613 355.995H145.567C137.353 355.995 130.7 348.579 130.7 339.43V293.518C130.7 245.702 165.815 205.909 208.735 206C243.3 206.075 272.584 231.231 282.695 266.003C276.617 272.627 272.89 281.494 272.89 291.192V353.161C272.89 354.273 273.53 355.231 274.46 355.69Z" fill="#F5F5F5"/>
<path d="M230.61 306.382V343.525C230.61 350.413 225.598 355.995 219.412 355.995H180.955C174.769 355.995 169.757 350.413 169.757 343.525V326.208H186.562C189.24 326.208 191.661 325.001 193.413 323.051C195.165 321.1 196.248 318.402 196.248 315.419C196.248 309.452 191.913 304.621 186.562 304.621H169.798C170.62 286.721 183.909 272.486 200.181 272.486C208.586 272.486 216.189 276.279 221.697 282.416C227.205 288.548 230.61 297.023 230.61 306.382Z" fill="#A8A8A8"/>
<path fill-rule="evenodd" clip-rule="evenodd" d="M367.126 355.995C381.65 355.995 393.659 344.314 393.642 329.79C393.634 321.947 390.452 314.852 385.311 309.712C380.163 304.563 373.051 301.381 365.196 301.381H356.651C353.693 301.381 351.019 300.183 349.081 298.245C347.143 296.307 345.945 293.63 345.945 290.676C345.945 271.085 330.52 255.094 311.149 254.189C299.93 253.664 289.732 258.333 282.695 266.007C282.695 266.007 282.695 266.007 282.695 266.007C276.617 272.631 272.89 281.498 272.89 291.196V353.165C272.89 354.277 273.53 355.236 274.46 355.694C274.84 355.888 275.266 355.995 275.72 355.995H367.126Z" fill="#A8A8A8"/>
<path d="M204.135 291.452C205.213 291.452 206.086 290.579 206.086 289.502C206.086 288.425 205.213 287.552 204.135 287.552C203.059 287.552 202.185 288.425 202.185 289.502C202.185 290.579 203.059 291.452 204.135 291.452Z" fill="white"/>
<path d="M214.065 291.452C215.142 291.452 216.015 290.579 216.015 289.502C216.015 288.425 215.142 287.552 214.065 287.552C212.988 287.552 212.115 288.425 212.115 289.502C212.115 290.579 212.988 291.452 214.065 291.452Z" fill="white"/>
<path d="M209.099 296.733C207.276 296.733 206.012 295.77 205.934 295.708C205.533 295.394 205.458 294.812 205.772 294.411C206.086 294.01 206.661 293.936 207.066 294.246C207.152 294.312 208.983 295.646 211.19 294.204C211.619 293.923 212.19 294.043 212.471 294.473C212.751 294.899 212.632 295.473 212.202 295.754C211.082 296.489 210.02 296.733 209.099 296.733Z" fill="white"/>
<path d="M296.521 280.04C298.023 280.04 299.24 278.822 299.24 277.321C299.24 275.819 298.023 274.602 296.521 274.602C295.019 274.602 293.802 275.819 293.802 277.321C293.802 278.822 295.019 280.04 296.521 280.04Z" fill="white"/>
<path d="M310.359 280.04C311.861 280.04 313.078 278.822 313.078 277.321C313.078 275.819 311.861 274.602 310.359 274.602C308.858 274.602 307.64 275.819 307.64 277.321C307.64 278.822 308.858 280.04 310.359 280.04Z" fill="white"/>
<path d="M78.896 326.55C80.1488 326.55 81.1645 325.535 81.1645 324.282C81.1645 323.029 80.1488 322.013 78.896 322.013C77.6431 322.013 76.6274 323.029 76.6274 324.282C76.6274 325.535 77.6431 326.55 78.896 326.55Z" fill="#8F8F8F"/>
<path d="M90.4538 326.55C91.7067 326.55 92.7223 325.535 92.7223 324.282C92.7223 323.029 91.7067 322.013 90.4538 322.013C89.201 322.013 88.1853 323.029 88.1853 324.282C88.1853 325.535 89.201 326.55 90.4538 326.55Z" fill="#8F8F8F"/>
<g opacity="0.8">
<path opacity="0.8" d="M88.4699 329.716V330.232C88.4699 332.075 86.7386 333.575 84.6106 333.575C82.4823 333.575 80.751 332.075 80.751 330.232V329.716C80.751 329.112 81.2427 328.616 81.8501 328.616H87.3749C87.9824 328.616 88.4737 329.108 88.4737 329.716H88.4699Z" fill="#8F8F8F"/>
</g>
<path fill-rule="evenodd" clip-rule="evenodd" d="M215.276 242.867C216.303 242.867 217.136 243.699 217.136 244.727V245.599C217.136 246.335 218.017 247.545 219.954 247.545C221.89 247.545 222.772 246.335 222.772 245.599V244.727C222.772 243.699 223.604 242.867 224.631 242.867C225.658 242.867 226.491 243.699 226.491 244.727V245.599C226.491 249.068 223.191 251.264 219.954 251.264C216.717 251.264 213.417 249.068 213.417 245.599V244.727C213.417 243.699 214.249 242.867 215.276 242.867Z" fill="#8F8F8F"/>
<path fill-rule="evenodd" clip-rule="evenodd" d="M240.923 242.867C241.951 242.867 242.783 243.699 242.783 244.727V245.599C242.783 246.335 243.665 247.545 245.601 247.545C247.537 247.545 248.419 246.335 248.419 245.599V244.727C248.419 243.699 249.252 242.867 250.278 242.867C251.306 242.867 252.138 243.699 252.138 244.727V245.599C252.138 249.068 248.838 251.264 245.601 251.264C242.364 251.264 239.064 249.068 239.064 245.599V244.727C239.064 243.699 239.897 242.867 240.923 242.867Z" fill="#8F8F8F"/>
<path d="M239.552 256.007V256.879C239.552 260.003 236.618 262.544 233.015 262.544C229.412 262.544 226.478 260.003 226.478 256.879V256.007C226.478 254.983 227.308 254.148 228.337 254.148H237.692C238.721 254.148 239.552 254.983 239.552 256.007Z" fill="#8F8F8F"/>
<rect x="99" y="94" width="253" height="80" rx="40" fill="#F5F5F5"/>
<path d="M135.878 115.834C136.675 115.834 137.384 116.065 138.005 116.528C138.626 116.985 139.112 117.639 139.464 118.488C139.821 119.332 140.003 120.316 140.009 121.441C140.003 122.572 139.821 123.562 139.464 124.412C139.112 125.262 138.626 125.918 138.005 126.381C137.384 126.838 136.675 127.066 135.878 127.066C135.075 127.066 134.36 126.838 133.733 126.381C133.106 125.918 132.617 125.262 132.266 124.412C131.92 123.562 131.747 122.572 131.747 121.441C131.747 120.316 131.92 119.332 132.266 118.488C132.617 117.639 133.106 116.985 133.733 116.528C134.36 116.065 135.075 115.834 135.878 115.834ZM133.628 121.441C133.628 122.238 133.722 122.93 133.909 123.516C134.097 124.096 134.36 124.538 134.7 124.843C135.04 125.147 135.433 125.303 135.878 125.309C136.329 125.303 136.722 125.147 137.056 124.843C137.396 124.538 137.659 124.096 137.847 123.516C138.034 122.936 138.128 122.244 138.128 121.441C138.128 120.645 138.034 119.956 137.847 119.376C137.659 118.796 137.396 118.354 137.056 118.049C136.716 117.744 136.323 117.592 135.878 117.592C135.433 117.592 135.04 117.747 134.7 118.058C134.36 118.362 134.097 118.805 133.909 119.385C133.722 119.959 133.628 120.645 133.628 121.441ZM142.101 114.674H144.052V120.773H146.495V122.426H144.052V130.564H142.101V114.674ZM153.192 117.434C153.192 118.096 153.342 118.74 153.641 119.367C153.945 119.988 154.388 120.542 154.968 121.028C155.554 121.515 156.257 121.887 157.077 122.145L156.075 123.656C155.19 123.369 154.423 122.944 153.772 122.382C153.122 121.813 152.609 121.143 152.234 120.369C151.871 121.207 151.353 121.937 150.679 122.558C150.011 123.179 149.214 123.645 148.288 123.955L147.286 122.443C148.112 122.162 148.821 121.764 149.413 121.248C150.005 120.727 150.453 120.138 150.758 119.481C151.062 118.819 151.218 118.137 151.224 117.434V117.24H147.796V115.676H156.532V117.24H153.192V117.434ZM149.554 124.992H160.399V130.564H158.431V126.574H149.554V124.992ZM158.431 114.674H160.399V124.254H158.431V114.674ZM181.493 123.639H166.991V122.039H181.493V123.639ZM168.679 127.629C168.679 127.02 168.898 126.498 169.338 126.064C169.783 125.631 170.419 125.303 171.245 125.08C172.077 124.857 173.067 124.746 174.216 124.746C175.353 124.746 176.334 124.857 177.16 125.08C177.986 125.303 178.619 125.631 179.059 126.064C179.498 126.498 179.718 127.02 179.718 127.629C179.718 128.25 179.498 128.777 179.059 129.211C178.619 129.65 177.986 129.981 177.16 130.204C176.34 130.433 175.358 130.547 174.216 130.547C173.067 130.547 172.077 130.433 171.245 130.204C170.419 129.981 169.783 129.65 169.338 129.211C168.898 128.771 168.679 128.244 168.679 127.629ZM168.767 115.184H179.735V116.766H170.718V119.227H179.823V120.791H168.767V115.184ZM170.665 127.629C170.659 128.098 170.958 128.449 171.562 128.684C172.165 128.918 173.05 129.035 174.216 129.035C175.364 129.035 176.24 128.918 176.844 128.684C177.453 128.449 177.761 128.098 177.767 127.629C177.755 127.178 177.444 126.835 176.835 126.601C176.226 126.36 175.353 126.24 174.216 126.24C173.062 126.24 172.18 126.36 171.57 126.601C170.961 126.835 170.659 127.178 170.665 127.629ZM197.05 124.852H182.53V123.27H188.823V121.951H184.376V117.732H193.306V116.555H184.323V115.025H195.257V119.156H186.31V120.422H195.573V121.951H190.757V123.27H197.05V124.852ZM184.147 125.854H195.345V130.459H193.376V127.4H184.147V125.854ZM207.351 121.23H204.397V123.032C205.804 122.974 207.099 122.883 208.282 122.76L208.423 124.166C206.894 124.377 205.297 124.523 203.633 124.605C201.975 124.682 200.243 124.723 198.438 124.729L198.175 123.164C200.044 123.152 201.462 123.132 202.429 123.103V121.23H199.546V115.658H207.228V117.24H201.515V119.666H207.351V121.23ZM200.706 125.73H202.675V128.666H211.815V130.248H200.706V125.73ZM209.39 114.674H211.358V126.609H209.39V114.674ZM223.61 118.488C223.604 119.443 223.754 120.375 224.059 121.283C224.369 122.191 224.814 123.006 225.395 123.727C225.98 124.441 226.675 124.992 227.478 125.379L226.282 126.943C225.438 126.516 224.706 125.906 224.085 125.115C223.47 124.324 222.989 123.41 222.644 122.373C222.286 123.48 221.782 124.459 221.132 125.309C220.487 126.152 219.72 126.797 218.829 127.242L217.634 125.678C218.46 125.285 219.175 124.714 219.778 123.964C220.388 123.208 220.851 122.355 221.167 121.406C221.489 120.451 221.653 119.479 221.659 118.488V115.957H223.61V118.488ZM228.427 114.674H230.378V120.896H232.821V122.566H230.378V130.564H228.427V114.674ZM239.519 117.908C239.519 118.576 239.668 119.221 239.967 119.842C240.266 120.463 240.708 121.017 241.294 121.503C241.88 121.983 242.583 122.35 243.403 122.602L242.401 124.131C241.517 123.844 240.749 123.419 240.099 122.856C239.448 122.288 238.936 121.617 238.561 120.844C238.197 121.682 237.679 122.411 237.005 123.032C236.337 123.653 235.54 124.125 234.614 124.447L233.612 122.9C234.438 122.625 235.147 122.232 235.739 121.723C236.331 121.207 236.779 120.621 237.084 119.965C237.389 119.303 237.544 118.617 237.55 117.908V117.451H234.122V115.887H242.858V117.451H239.519V117.908ZM236.214 125.168H238.183V128.666H247.165V130.248H236.214V125.168ZM244.757 114.691H246.726V126.223H244.757V114.691ZM262.265 130.582H260.296V114.674H262.265V130.582ZM249.556 121.441C249.556 120.322 249.731 119.338 250.083 118.488C250.435 117.639 250.924 116.985 251.551 116.528C252.184 116.065 252.901 115.834 253.704 115.834C254.495 115.834 255.204 116.065 255.831 116.528C256.464 116.985 256.959 117.639 257.316 118.488C257.674 119.338 257.853 120.322 257.853 121.441C257.853 122.572 257.674 123.562 257.316 124.412C256.959 125.262 256.464 125.918 255.831 126.381C255.204 126.838 254.495 127.066 253.704 127.066C252.901 127.066 252.184 126.838 251.551 126.381C250.924 125.918 250.435 125.262 250.083 124.412C249.731 123.562 249.556 122.572 249.556 121.441ZM251.437 121.441C251.437 122.244 251.53 122.936 251.718 123.516C251.911 124.096 252.178 124.538 252.518 124.843C252.857 125.147 253.253 125.303 253.704 125.309C254.149 125.303 254.542 125.147 254.882 124.843C255.222 124.538 255.485 124.096 255.673 123.516C255.86 122.936 255.954 122.244 255.954 121.441C255.954 120.645 255.86 119.959 255.673 119.385C255.485 118.805 255.222 118.362 254.882 118.058C254.542 117.747 254.149 117.592 253.704 117.592C253.253 117.592 252.857 117.747 252.518 118.058C252.178 118.362 251.911 118.805 251.718 119.385C251.53 119.959 251.437 120.645 251.437 121.441ZM272.478 125.678H274.569V123.973H276.38V129.018C276.983 128.766 277.487 128.432 277.892 128.016C278.302 127.6 278.606 127.143 278.806 126.645C279.005 126.146 279.104 125.637 279.104 125.115V123.85H281.056V125.115C281.05 125.684 281.146 126.226 281.346 126.741C281.551 127.251 281.864 127.708 282.286 128.112C282.708 128.511 283.235 128.818 283.868 129.035L282.866 130.494C281.536 130.014 280.602 129.123 280.062 127.822C279.787 128.426 279.418 128.956 278.955 129.413C278.498 129.876 277.95 130.236 277.312 130.494L276.38 129.114V130.371H270.649V123.973H272.478V125.678ZM269.085 119.016C269.085 118.301 269.264 117.665 269.621 117.108C269.984 116.546 270.485 116.109 271.124 115.799C271.763 115.482 272.483 115.324 273.286 115.324C273.96 115.324 274.581 115.444 275.149 115.685C275.718 115.919 276.192 116.253 276.573 116.687C276.96 117.12 277.221 117.621 277.355 118.189H280.229V114.674H282.181V123.094H280.229V119.807H277.364C277.235 120.387 276.98 120.899 276.6 121.345C276.219 121.79 275.741 122.136 275.167 122.382C274.593 122.622 273.966 122.742 273.286 122.742C272.483 122.742 271.763 122.587 271.124 122.276C270.485 121.96 269.984 121.521 269.621 120.958C269.264 120.39 269.085 119.742 269.085 119.016ZM270.948 119.016C270.948 119.438 271.048 119.81 271.247 120.132C271.446 120.454 271.722 120.703 272.073 120.879C272.431 121.055 272.835 121.143 273.286 121.143C273.731 121.143 274.127 121.055 274.473 120.879C274.818 120.703 275.091 120.454 275.29 120.132C275.489 119.81 275.589 119.438 275.589 119.016C275.589 118.605 275.489 118.242 275.29 117.926C275.091 117.609 274.815 117.366 274.464 117.196C274.118 117.026 273.726 116.941 273.286 116.941C272.835 116.941 272.431 117.026 272.073 117.196C271.722 117.366 271.446 117.609 271.247 117.926C271.048 118.242 270.948 118.605 270.948 119.016ZM274.569 128.877V127.137H272.478V128.877H274.569ZM288.772 115.834C289.481 115.834 290.123 116.024 290.697 116.405C291.271 116.786 291.74 117.331 292.104 118.04C292.467 118.743 292.695 119.572 292.789 120.527H295.821V114.674H297.755V130.582H295.821V122.109H292.807C292.736 123.117 292.522 123.996 292.165 124.746C291.808 125.49 291.336 126.064 290.75 126.469C290.164 126.867 289.505 127.066 288.772 127.066C287.976 127.066 287.267 126.838 286.646 126.381C286.03 125.918 285.55 125.262 285.204 124.412C284.864 123.562 284.694 122.572 284.694 121.441C284.694 120.316 284.864 119.332 285.204 118.488C285.55 117.639 286.033 116.985 286.654 116.528C287.275 116.065 287.981 115.834 288.772 115.834ZM286.575 121.441C286.575 122.244 286.666 122.936 286.848 123.516C287.029 124.096 287.284 124.538 287.612 124.843C287.946 125.147 288.333 125.303 288.772 125.309C289.212 125.303 289.599 125.147 289.933 124.843C290.267 124.538 290.524 124.096 290.706 123.516C290.894 122.936 290.987 122.244 290.987 121.441C290.987 120.645 290.894 119.956 290.706 119.376C290.524 118.796 290.267 118.354 289.933 118.049C289.599 117.744 289.212 117.592 288.772 117.592C288.333 117.592 287.946 117.747 287.612 118.058C287.284 118.362 287.029 118.805 286.848 119.385C286.666 119.959 286.575 120.645 286.575 121.441ZM314.507 128.631H299.987V127.031H303.345V123.015C302.7 122.646 302.199 122.18 301.842 121.617C301.49 121.055 301.317 120.428 301.323 119.736C301.323 118.904 301.572 118.172 302.07 117.539C302.574 116.9 303.274 116.408 304.171 116.062C305.067 115.711 306.081 115.535 307.212 115.535C308.349 115.535 309.365 115.711 310.262 116.062C311.164 116.408 311.867 116.9 312.371 117.539C312.881 118.172 313.136 118.904 313.136 119.736C313.142 120.416 312.972 121.031 312.626 121.582C312.28 122.133 311.794 122.596 311.167 122.971V127.031H314.507V128.631ZM303.239 119.736C303.239 120.27 303.403 120.738 303.731 121.143C304.065 121.541 304.531 121.849 305.129 122.065C305.732 122.282 306.427 122.391 307.212 122.391C307.997 122.391 308.691 122.282 309.295 122.065C309.904 121.849 310.376 121.541 310.71 121.143C311.05 120.738 311.22 120.27 311.22 119.736C311.22 119.197 311.05 118.726 310.71 118.321C310.376 117.917 309.904 117.609 309.295 117.398C308.691 117.188 307.997 117.082 307.212 117.082C306.421 117.082 305.724 117.188 305.12 117.398C304.522 117.609 304.06 117.917 303.731 118.321C303.403 118.72 303.239 119.191 303.239 119.736ZM309.181 127.031V123.718C308.56 123.853 307.903 123.92 307.212 123.92C306.55 123.92 305.905 123.855 305.278 123.727V127.031H309.181ZM317.478 129.141C317.231 129.141 317.003 129.079 316.792 128.956C316.581 128.833 316.414 128.666 316.291 128.455C316.168 128.244 316.106 128.016 316.106 127.77C316.106 127.529 316.168 127.307 316.291 127.102C316.414 126.891 316.581 126.724 316.792 126.601C317.003 126.478 317.231 126.416 317.478 126.416C317.718 126.416 317.94 126.478 318.146 126.601C318.356 126.724 318.523 126.891 318.646 127.102C318.77 127.307 318.831 127.529 318.831 127.77C318.831 128.016 318.77 128.244 318.646 128.455C318.523 128.666 318.356 128.833 318.146 128.956C317.94 129.079 317.718 129.141 317.478 129.141ZM171.482 149.818H165.189V154.582H163.256V149.818H156.998V148.219H171.482V149.818ZM157.789 145.705C158.814 145.582 159.729 145.339 160.531 144.976C161.334 144.606 161.97 144.17 162.438 143.666C162.907 143.156 163.174 142.635 163.238 142.102H158.334V140.555H163.256V138.691H165.189V140.555H170.129V142.102H165.225C165.289 142.635 165.553 143.153 166.016 143.657C166.484 144.161 167.12 144.598 167.923 144.967C168.726 145.336 169.637 145.582 170.656 145.705L169.936 147.252C168.641 147.088 167.498 146.739 166.508 146.206C165.518 145.673 164.762 145.017 164.24 144.237C163.713 145.022 162.948 145.682 161.946 146.215C160.95 146.742 159.799 147.088 158.492 147.252L157.789 145.705ZM185 144.879H187.355V146.514H185V154.529H183.049V138.674H185V144.879ZM172.467 150.188C174.406 149.221 175.9 148.058 176.949 146.698C177.998 145.333 178.619 143.748 178.812 141.943H173.328V140.326H180.799C180.787 145.541 178.379 149.332 173.574 151.699L172.467 150.188ZM200.557 145.002H203V146.619H200.557V154.564H198.623V138.674H200.557V145.002ZM188.023 141.117H191.785V138.902H193.736V141.117H197.393V142.682H188.023V141.117ZM188.762 147.463C188.756 146.742 188.926 146.098 189.271 145.529C189.617 144.955 190.095 144.51 190.704 144.193C191.313 143.877 192.002 143.719 192.77 143.719C193.525 143.719 194.205 143.877 194.809 144.193C195.412 144.51 195.887 144.955 196.232 145.529C196.584 146.098 196.76 146.742 196.76 147.463C196.76 148.184 196.584 148.828 196.232 149.396C195.887 149.959 195.412 150.398 194.809 150.715C194.205 151.031 193.525 151.189 192.77 151.189C192.002 151.189 191.313 151.031 190.704 150.715C190.095 150.398 189.617 149.959 189.271 149.396C188.926 148.828 188.756 148.184 188.762 147.463ZM190.625 147.463C190.625 147.885 190.716 148.257 190.897 148.579C191.079 148.896 191.331 149.142 191.653 149.317C191.981 149.487 192.354 149.572 192.77 149.572C193.174 149.572 193.537 149.487 193.859 149.317C194.182 149.147 194.434 148.901 194.615 148.579C194.797 148.257 194.891 147.885 194.896 147.463C194.891 147.041 194.794 146.669 194.606 146.347C194.425 146.019 194.173 145.767 193.851 145.591C193.534 145.409 193.174 145.318 192.77 145.318C192.354 145.318 191.981 145.409 191.653 145.591C191.331 145.767 191.079 146.019 190.897 146.347C190.716 146.669 190.625 147.041 190.625 147.463ZM216.975 154.582H215.023V146.127H212.299V144.527H215.023V138.674H216.975V154.582ZM204.195 140.062H211.385V145.881H206.182V149.221C207.488 149.215 208.631 149.18 209.609 149.115C210.594 149.051 211.584 148.928 212.58 148.746L212.738 150.346C211.631 150.539 210.523 150.671 209.416 150.741C208.314 150.812 207.014 150.85 205.514 150.855H204.248V144.299H209.469V141.645H204.195V140.062ZM235.941 144.879H238.297V146.514H235.941V154.529H233.99V138.674H235.941V144.879ZM223.408 150.188C225.348 149.221 226.842 148.058 227.891 146.698C228.939 145.333 229.561 143.748 229.754 141.943H224.27V140.326H231.74C231.729 145.541 229.32 149.332 224.516 151.699L223.408 150.188ZM242.867 140.168H249.723V138.92H251.656V144.211H247.227V145.424H253.537V146.971H239.053V145.424H245.293V144.211H240.934V138.92H242.867V140.168ZM240.758 147.973H251.727V151.822H242.691V152.93H252.166V154.424H240.775V150.451H249.811V149.414H240.758V147.973ZM249.723 142.752V141.592H242.867V142.752H249.723ZM267.283 145.02H269.48V146.637H267.283V154.564H265.314V138.674H267.283V145.02ZM254.381 150.012C255.107 149.238 255.69 148.436 256.13 147.604C256.569 146.771 256.895 145.898 257.105 144.984C257.322 144.07 257.457 143.057 257.51 141.943H255.014V140.344H259.373C259.367 141.867 259.271 143.238 259.083 144.457C258.896 145.67 258.547 146.836 258.037 147.955C257.533 149.074 256.824 150.129 255.91 151.119L254.381 150.012ZM258.881 151.066C259.607 150.193 260.185 149.279 260.612 148.324C261.046 147.363 261.359 146.37 261.553 145.345C261.746 144.313 261.866 143.18 261.913 141.943H259.9V140.344H263.768C263.762 141.967 263.674 143.438 263.504 144.756C263.34 146.074 263.015 147.363 262.528 148.623C262.048 149.877 261.354 151.049 260.445 152.139L258.881 151.066ZM284.686 152.631H270.166V151.031H273.523V147.015C272.879 146.646 272.378 146.18 272.021 145.617C271.669 145.055 271.496 144.428 271.502 143.736C271.502 142.904 271.751 142.172 272.249 141.539C272.753 140.9 273.453 140.408 274.35 140.062C275.246 139.711 276.26 139.535 277.391 139.535C278.527 139.535 279.544 139.711 280.44 140.062C281.343 140.408 282.046 140.9 282.55 141.539C283.06 142.172 283.314 142.904 283.314 143.736C283.32 144.416 283.15 145.031 282.805 145.582C282.459 146.133 281.973 146.596 281.346 146.971V151.031H284.686V152.631ZM273.418 143.736C273.418 144.27 273.582 144.738 273.91 145.143C274.244 145.541 274.71 145.849 275.308 146.065C275.911 146.282 276.605 146.391 277.391 146.391C278.176 146.391 278.87 146.282 279.474 146.065C280.083 145.849 280.555 145.541 280.889 145.143C281.229 144.738 281.398 144.27 281.398 143.736C281.398 143.197 281.229 142.726 280.889 142.321C280.555 141.917 280.083 141.609 279.474 141.398C278.87 141.188 278.176 141.082 277.391 141.082C276.6 141.082 275.902 141.188 275.299 141.398C274.701 141.609 274.238 141.917 273.91 142.321C273.582 142.72 273.418 143.191 273.418 143.736ZM279.359 151.031V147.718C278.738 147.853 278.082 147.92 277.391 147.92C276.729 147.92 276.084 147.855 275.457 147.727V151.031H279.359ZM288.412 149.098C288.418 148.377 288.488 147.794 288.623 147.349C288.758 146.903 288.945 146.546 289.186 146.276C289.432 146.007 289.76 145.746 290.17 145.494C290.586 145.225 290.911 144.935 291.146 144.624C291.38 144.313 291.494 143.953 291.488 143.543C291.488 143.221 291.412 142.939 291.26 142.699C291.113 142.453 290.908 142.263 290.645 142.128C290.381 141.993 290.088 141.926 289.766 141.926C289.467 141.926 289.186 141.99 288.922 142.119C288.658 142.248 288.441 142.444 288.271 142.708C288.102 142.972 288.008 143.291 287.99 143.666H285.793C285.811 142.904 285.998 142.257 286.355 141.724C286.713 141.185 287.188 140.78 287.779 140.511C288.377 140.235 289.045 140.098 289.783 140.098C290.568 140.098 291.263 140.238 291.866 140.52C292.476 140.795 292.947 141.19 293.281 141.706C293.621 142.222 293.791 142.822 293.791 143.508C293.785 144.193 293.621 144.782 293.299 145.274C292.982 145.767 292.525 146.191 291.928 146.549C291.576 146.766 291.295 146.985 291.084 147.208C290.879 147.431 290.727 147.691 290.627 147.99C290.527 148.289 290.475 148.658 290.469 149.098V149.256H288.412V149.098ZM288.131 151.77C288.131 151.529 288.192 151.307 288.315 151.102C288.438 150.891 288.605 150.724 288.816 150.601C289.027 150.478 289.256 150.416 289.502 150.416C289.742 150.416 289.965 150.478 290.17 150.601C290.381 150.724 290.548 150.891 290.671 151.102C290.794 151.307 290.855 151.529 290.855 151.77C290.855 152.016 290.794 152.244 290.671 152.455C290.548 152.666 290.381 152.833 290.17 152.956C289.965 153.079 289.742 153.141 289.502 153.141C289.256 153.141 289.027 153.079 288.816 152.956C288.605 152.833 288.438 152.666 288.315 152.455C288.192 152.244 288.131 152.016 288.131 151.77Z" fill="#757575"/>
<path d="M168.926 170.04L178.013 182.532C179.636 184.766 177.013 187.61 174.657 186.168L154.212 173.675C152.037 172.347 152.979 169 155.528 169H166.886C167.693 169 168.45 169.387 168.926 170.04Z" fill="#F5F5F5"/>
</svg>
