<svg width="450" height="450" viewBox="0 0 450 450" fill="none" xmlns="http://www.w3.org/2000/svg">
<path fill-rule="evenodd" clip-rule="evenodd" d="M79.4208 356H145.567H145.567C145.311 356 145.055 355.993 144.802 355.979C142.992 355.876 141.268 355.414 139.686 354.654C138.635 354.149 137.647 353.513 136.738 352.765C136.141 352.273 135.579 351.732 135.055 351.149C134.512 350.544 134.01 349.892 133.556 349.199C131.76 346.462 130.7 343.086 130.7 339.434V311.159L79.4208 356ZM130.7 311.159H94.5112V309.741C94.5112 308.539 93.9162 307.452 92.9493 306.663C91.9824 305.874 90.656 305.386 89.1808 305.386C86.7801 305.386 84.7512 306.679 84.0818 308.46C83.6686 308.274 83.2058 308.171 82.7182 308.171C80.991 308.171 79.5695 309.481 79.3919 311.159C73.2144 311.167 67.6195 313.675 63.57 317.724C59.5123 321.782 57 327.389 57 333.579C57 345.963 67.041 356 79.4208 356" fill="#C2C2C2"/>
<path d="M169.757 306.382V343.525C169.757 350.413 174.769 355.995 180.955 355.995H219.412C225.598 355.995 230.61 350.413 230.61 343.525V326.208H213.805C211.127 326.208 208.706 325.001 206.954 323.051C205.202 321.1 204.119 318.402 204.119 315.419C204.119 309.452 208.454 304.621 213.805 304.621H230.569C229.747 286.721 216.458 272.486 200.186 272.486C191.781 272.486 184.178 276.279 178.67 282.416C173.162 288.548 169.757 297.023 169.757 306.382Z" fill="#D9DEFF"/>
<path d="M274.46 355.69C273.538 355.893 272.588 355.995 271.613 355.995H145.567C137.353 355.995 130.7 348.579 130.7 339.43V293.518C130.7 245.702 165.815 205.909 208.735 206C243.3 206.075 272.584 231.231 282.695 266.003C276.617 272.627 272.89 281.494 272.89 291.192V353.161C272.89 354.273 273.53 355.231 274.46 355.69Z" fill="#F5F5F5"/>
<path d="M230.61 306.382V343.525C230.61 350.413 225.598 355.995 219.412 355.995H180.955C174.769 355.995 169.757 350.413 169.757 343.525V326.208H186.562C189.24 326.208 191.661 325.001 193.413 323.051C195.165 321.1 196.248 318.402 196.248 315.419C196.248 309.452 191.913 304.621 186.562 304.621H169.798C170.62 286.721 183.909 272.486 200.181 272.486C208.586 272.486 216.189 276.279 221.697 282.416C227.205 288.548 230.61 297.023 230.61 306.382Z" fill="#A8A8A8"/>
<path fill-rule="evenodd" clip-rule="evenodd" d="M367.126 355.995C381.65 355.995 393.659 344.314 393.642 329.79C393.634 321.947 390.452 314.852 385.311 309.712C380.163 304.563 373.051 301.381 365.196 301.381H356.651C353.693 301.381 351.019 300.183 349.081 298.245C347.143 296.307 345.945 293.63 345.945 290.676C345.945 271.085 330.52 255.094 311.149 254.189C299.93 253.664 289.732 258.333 282.695 266.007C282.695 266.007 282.695 266.007 282.695 266.007C276.617 272.631 272.89 281.498 272.89 291.196V353.165C272.89 354.277 273.53 355.236 274.46 355.694C274.84 355.888 275.266 355.995 275.72 355.995H367.126Z" fill="#A8A8A8"/>
<path d="M204.135 291.452C205.213 291.452 206.086 290.579 206.086 289.502C206.086 288.425 205.213 287.552 204.135 287.552C203.059 287.552 202.185 288.425 202.185 289.502C202.185 290.579 203.059 291.452 204.135 291.452Z" fill="white"/>
<path d="M214.065 291.452C215.142 291.452 216.015 290.579 216.015 289.502C216.015 288.425 215.142 287.552 214.065 287.552C212.988 287.552 212.115 288.425 212.115 289.502C212.115 290.579 212.988 291.452 214.065 291.452Z" fill="white"/>
<path d="M209.099 296.733C207.276 296.733 206.012 295.77 205.934 295.708C205.533 295.394 205.458 294.812 205.772 294.411C206.086 294.01 206.661 293.936 207.066 294.246C207.152 294.312 208.983 295.646 211.19 294.204C211.619 293.923 212.19 294.043 212.471 294.473C212.751 294.899 212.632 295.473 212.202 295.754C211.082 296.489 210.02 296.733 209.099 296.733Z" fill="white"/>
<path d="M296.521 280.04C298.023 280.04 299.24 278.822 299.24 277.321C299.24 275.819 298.023 274.602 296.521 274.602C295.019 274.602 293.802 275.819 293.802 277.321C293.802 278.822 295.019 280.04 296.521 280.04Z" fill="white"/>
<path d="M310.359 280.04C311.861 280.04 313.078 278.822 313.078 277.321C313.078 275.819 311.861 274.602 310.359 274.602C308.858 274.602 307.64 275.819 307.64 277.321C307.64 278.822 308.858 280.04 310.359 280.04Z" fill="white"/>
<path d="M78.896 326.55C80.1488 326.55 81.1645 325.535 81.1645 324.282C81.1645 323.029 80.1488 322.013 78.896 322.013C77.6431 322.013 76.6274 323.029 76.6274 324.282C76.6274 325.535 77.6431 326.55 78.896 326.55Z" fill="#8F8F8F"/>
<path d="M90.4538 326.55C91.7067 326.55 92.7223 325.535 92.7223 324.282C92.7223 323.029 91.7067 322.013 90.4538 322.013C89.201 322.013 88.1853 323.029 88.1853 324.282C88.1853 325.535 89.201 326.55 90.4538 326.55Z" fill="#8F8F8F"/>
<g opacity="0.8">
<path opacity="0.8" d="M88.4699 329.716V330.232C88.4699 332.075 86.7386 333.575 84.6106 333.575C82.4823 333.575 80.751 332.075 80.751 330.232V329.716C80.751 329.112 81.2427 328.616 81.8501 328.616H87.3749C87.9824 328.616 88.4737 329.108 88.4737 329.716H88.4699Z" fill="#8F8F8F"/>
</g>
<path fill-rule="evenodd" clip-rule="evenodd" d="M215.276 242.867C216.303 242.867 217.136 243.699 217.136 244.727V245.599C217.136 246.335 218.017 247.545 219.954 247.545C221.89 247.545 222.772 246.335 222.772 245.599V244.727C222.772 243.699 223.604 242.867 224.631 242.867C225.658 242.867 226.491 243.699 226.491 244.727V245.599C226.491 249.068 223.191 251.264 219.954 251.264C216.717 251.264 213.417 249.068 213.417 245.599V244.727C213.417 243.699 214.249 242.867 215.276 242.867Z" fill="#8F8F8F"/>
<path fill-rule="evenodd" clip-rule="evenodd" d="M240.923 242.867C241.951 242.867 242.783 243.699 242.783 244.727V245.599C242.783 246.335 243.665 247.545 245.601 247.545C247.537 247.545 248.419 246.335 248.419 245.599V244.727C248.419 243.699 249.252 242.867 250.278 242.867C251.306 242.867 252.138 243.699 252.138 244.727V245.599C252.138 249.068 248.838 251.264 245.601 251.264C242.364 251.264 239.064 249.068 239.064 245.599V244.727C239.064 243.699 239.897 242.867 240.923 242.867Z" fill="#8F8F8F"/>
<path d="M239.552 256.007V256.879C239.552 260.003 236.618 262.544 233.015 262.544C229.412 262.544 226.478 260.003 226.478 256.879V256.007C226.478 254.983 227.308 254.148 228.337 254.148H237.692C238.721 254.148 239.552 254.983 239.552 256.007Z" fill="#8F8F8F"/>
<rect x="99" y="94" width="253" height="80" rx="40" fill="#F5F5F5"/>
<path d="M138.014 115.834C138.811 115.834 139.52 116.065 140.141 116.528C140.762 116.985 141.248 117.639 141.6 118.488C141.957 119.332 142.139 120.316 142.145 121.441C142.139 122.572 141.957 123.562 141.6 124.412C141.248 125.262 140.762 125.918 140.141 126.381C139.52 126.838 138.811 127.066 138.014 127.066C137.211 127.066 136.496 126.838 135.869 126.381C135.242 125.918 134.753 125.262 134.401 124.412C134.056 123.562 133.883 122.572 133.883 121.441C133.883 120.316 134.056 119.332 134.401 118.488C134.753 117.639 135.242 116.985 135.869 116.528C136.496 116.065 137.211 115.834 138.014 115.834ZM135.764 121.441C135.764 122.238 135.857 122.93 136.045 123.516C136.232 124.096 136.496 124.538 136.836 124.843C137.176 125.147 137.568 125.303 138.014 125.309C138.465 125.303 138.857 125.147 139.191 124.843C139.531 124.538 139.795 124.096 139.982 123.516C140.17 122.936 140.264 122.244 140.264 121.441C140.264 120.645 140.17 119.956 139.982 119.376C139.795 118.796 139.531 118.354 139.191 118.049C138.852 117.744 138.459 117.592 138.014 117.592C137.568 117.592 137.176 117.747 136.836 118.058C136.496 118.362 136.232 118.805 136.045 119.385C135.857 119.959 135.764 120.645 135.764 121.441ZM144.236 114.674H146.188V120.773H148.631V122.426H146.188V130.564H144.236V114.674ZM155.328 117.434C155.328 118.096 155.478 118.74 155.776 119.367C156.081 119.988 156.523 120.542 157.104 121.028C157.689 121.515 158.393 121.887 159.213 122.145L158.211 123.656C157.326 123.369 156.559 122.944 155.908 122.382C155.258 121.813 154.745 121.143 154.37 120.369C154.007 121.207 153.488 121.937 152.814 122.558C152.146 123.179 151.35 123.645 150.424 123.955L149.422 122.443C150.248 122.162 150.957 121.764 151.549 121.248C152.141 120.727 152.589 120.138 152.894 119.481C153.198 118.819 153.354 118.137 153.359 117.434V117.24H149.932V115.676H158.668V117.24H155.328V117.434ZM151.689 124.992H162.535V130.564H160.566V126.574H151.689V124.992ZM160.566 114.674H162.535V124.254H160.566V114.674ZM176.352 114.99C177.518 114.99 178.531 115.113 179.393 115.359C180.254 115.605 180.916 115.963 181.379 116.432C181.848 116.895 182.082 117.445 182.082 118.084C182.082 118.711 181.848 119.253 181.379 119.71C180.916 120.161 180.254 120.507 179.393 120.747C178.531 120.987 177.518 121.107 176.352 121.107C175.197 121.107 174.187 120.987 173.319 120.747C172.458 120.507 171.793 120.161 171.324 119.71C170.855 119.253 170.621 118.711 170.621 118.084C170.621 117.445 170.855 116.895 171.324 116.432C171.793 115.963 172.458 115.605 173.319 115.359C174.187 115.113 175.197 114.99 176.352 114.99ZM169.127 122.18H183.611V123.762H169.127V122.18ZM170.832 125.027H181.854V130.371H170.832V125.027ZM172.66 118.084C172.654 118.559 172.977 118.928 173.627 119.191C174.277 119.455 175.186 119.59 176.352 119.596C177.518 119.59 178.426 119.455 179.076 119.191C179.732 118.928 180.061 118.559 180.061 118.084C180.061 117.58 179.735 117.193 179.085 116.924C178.435 116.654 177.523 116.52 176.352 116.52C175.18 116.52 174.269 116.654 173.618 116.924C172.974 117.193 172.654 117.58 172.66 118.084ZM179.955 128.789V126.574H172.766V128.789H179.955ZM190.502 116.959C190.496 117.691 190.634 118.386 190.915 119.042C191.202 119.692 191.627 120.267 192.189 120.765C192.752 121.257 193.438 121.629 194.246 121.881L193.191 123.41C192.342 123.105 191.612 122.675 191.003 122.118C190.394 121.562 189.916 120.899 189.57 120.132C189.213 121.017 188.7 121.784 188.032 122.435C187.364 123.079 186.559 123.568 185.615 123.902L184.578 122.32C185.434 122.039 186.157 121.632 186.749 121.099C187.341 120.565 187.783 119.953 188.076 119.262C188.375 118.564 188.527 117.826 188.533 117.047V115.535H190.502V116.959ZM187.215 127.506C187.209 126.867 187.423 126.319 187.856 125.862C188.29 125.399 188.911 125.048 189.72 124.808C190.534 124.567 191.498 124.447 192.611 124.447C193.73 124.447 194.697 124.567 195.512 124.808C196.326 125.048 196.95 125.399 197.384 125.862C197.823 126.319 198.043 126.867 198.043 127.506C198.043 128.145 197.823 128.692 197.384 129.149C196.95 129.606 196.326 129.952 195.512 130.187C194.697 130.427 193.73 130.547 192.611 130.547C191.498 130.547 190.534 130.427 189.72 130.187C188.911 129.952 188.29 129.606 187.856 129.149C187.423 128.692 187.209 128.145 187.215 127.506ZM189.148 127.506C189.143 127.986 189.441 128.358 190.045 128.622C190.648 128.88 191.504 129.012 192.611 129.018C193.725 129.012 194.583 128.88 195.187 128.622C195.79 128.358 196.092 127.986 196.092 127.506C196.092 127.008 195.79 126.627 195.187 126.363C194.589 126.1 193.73 125.965 192.611 125.959C191.498 125.965 190.64 126.1 190.036 126.363C189.438 126.627 189.143 127.008 189.148 127.506ZM192.875 117.75H196.039V114.674H197.99V124.025H196.039V119.35H192.875V117.75ZM206.973 120.527H208.818V114.955H210.682V129.791H208.818V122.109H206.973V126.469H200.732V116.396H206.973V120.527ZM205.145 124.922V117.943H202.561V124.922H205.145ZM212.07 114.674H213.951V130.564H212.07V114.674ZM221.809 118.488C221.803 119.467 221.964 120.419 222.292 121.345C222.62 122.271 223.095 123.094 223.716 123.814C224.337 124.535 225.066 125.074 225.904 125.432L224.744 126.996C223.848 126.58 223.065 125.977 222.397 125.186C221.735 124.389 221.217 123.46 220.842 122.399C220.467 123.542 219.937 124.544 219.251 125.405C218.571 126.267 217.76 126.92 216.816 127.365L215.621 125.73C216.482 125.361 217.229 124.805 217.862 124.061C218.495 123.311 218.979 122.452 219.312 121.485C219.646 120.519 219.816 119.52 219.822 118.488V115.957H221.809V118.488ZM227.047 114.674H229.016V130.582H227.047V114.674ZM237.348 119.191C237.348 120.064 237.512 120.929 237.84 121.784C238.174 122.634 238.648 123.398 239.264 124.078C239.885 124.752 240.611 125.262 241.443 125.607L240.371 127.154C239.451 126.756 238.651 126.167 237.972 125.388C237.292 124.603 236.765 123.691 236.39 122.654C236.015 123.768 235.484 124.752 234.799 125.607C234.113 126.463 233.316 127.107 232.408 127.541L231.283 126.012C232.098 125.637 232.812 125.086 233.428 124.359C234.043 123.633 234.518 122.815 234.852 121.907C235.186 120.999 235.355 120.094 235.361 119.191V117.855H231.863V116.238H240.828V117.855H237.348V119.191ZM242.604 114.674H244.572V130.564H242.604V114.674ZM259.355 120.879H261.711V122.514H259.355V130.529H257.404V114.674H259.355V120.879ZM246.822 126.188C248.762 125.221 250.256 124.058 251.305 122.698C252.354 121.333 252.975 119.748 253.168 117.943H247.684V116.326H255.154C255.143 121.541 252.734 125.332 247.93 127.699L246.822 126.188ZM270.342 125.678H272.434V123.973H274.244V129.018C274.848 128.766 275.352 128.432 275.756 128.016C276.166 127.6 276.471 127.143 276.67 126.645C276.869 126.146 276.969 125.637 276.969 125.115V123.85H278.92V125.115C278.914 125.684 279.011 126.226 279.21 126.741C279.415 127.251 279.729 127.708 280.15 128.112C280.572 128.511 281.1 128.818 281.732 129.035L280.73 130.494C279.4 130.014 278.466 129.123 277.927 127.822C277.651 128.426 277.282 128.956 276.819 129.413C276.362 129.876 275.814 130.236 275.176 130.494L274.244 129.114V130.371H268.514V123.973H270.342V125.678ZM266.949 119.016C266.949 118.301 267.128 117.665 267.485 117.108C267.849 116.546 268.35 116.109 268.988 115.799C269.627 115.482 270.348 115.324 271.15 115.324C271.824 115.324 272.445 115.444 273.014 115.685C273.582 115.919 274.057 116.253 274.438 116.687C274.824 117.12 275.085 117.621 275.22 118.189H278.094V114.674H280.045V123.094H278.094V119.807H275.229C275.1 120.387 274.845 120.899 274.464 121.345C274.083 121.79 273.605 122.136 273.031 122.382C272.457 122.622 271.83 122.742 271.15 122.742C270.348 122.742 269.627 122.587 268.988 122.276C268.35 121.96 267.849 121.521 267.485 120.958C267.128 120.39 266.949 119.742 266.949 119.016ZM268.812 119.016C268.812 119.438 268.912 119.81 269.111 120.132C269.311 120.454 269.586 120.703 269.938 120.879C270.295 121.055 270.699 121.143 271.15 121.143C271.596 121.143 271.991 121.055 272.337 120.879C272.683 120.703 272.955 120.454 273.154 120.132C273.354 119.81 273.453 119.438 273.453 119.016C273.453 118.605 273.354 118.242 273.154 117.926C272.955 117.609 272.68 117.366 272.328 117.196C271.982 117.026 271.59 116.941 271.15 116.941C270.699 116.941 270.295 117.026 269.938 117.196C269.586 117.366 269.311 117.609 269.111 117.926C268.912 118.242 268.812 118.605 268.812 119.016ZM272.434 128.877V127.137H270.342V128.877H272.434ZM286.637 115.834C287.346 115.834 287.987 116.024 288.562 116.405C289.136 116.786 289.604 117.331 289.968 118.04C290.331 118.743 290.56 119.572 290.653 120.527H293.686V114.674H295.619V130.582H293.686V122.109H290.671C290.601 123.117 290.387 123.996 290.029 124.746C289.672 125.49 289.2 126.064 288.614 126.469C288.028 126.867 287.369 127.066 286.637 127.066C285.84 127.066 285.131 126.838 284.51 126.381C283.895 125.918 283.414 125.262 283.068 124.412C282.729 123.562 282.559 122.572 282.559 121.441C282.559 120.316 282.729 119.332 283.068 118.488C283.414 117.639 283.897 116.985 284.519 116.528C285.14 116.065 285.846 115.834 286.637 115.834ZM284.439 121.441C284.439 122.244 284.53 122.936 284.712 123.516C284.894 124.096 285.148 124.538 285.477 124.843C285.811 125.147 286.197 125.303 286.637 125.309C287.076 125.303 287.463 125.147 287.797 124.843C288.131 124.538 288.389 124.096 288.57 123.516C288.758 122.936 288.852 122.244 288.852 121.441C288.852 120.645 288.758 119.956 288.57 119.376C288.389 118.796 288.131 118.354 287.797 118.049C287.463 117.744 287.076 117.592 286.637 117.592C286.197 117.592 285.811 117.747 285.477 118.058C285.148 118.362 284.894 118.805 284.712 119.385C284.53 119.959 284.439 120.645 284.439 121.441ZM312.371 128.631H297.852V127.031H301.209V123.015C300.564 122.646 300.063 122.18 299.706 121.617C299.354 121.055 299.182 120.428 299.188 119.736C299.188 118.904 299.437 118.172 299.935 117.539C300.438 116.9 301.139 116.408 302.035 116.062C302.932 115.711 303.945 115.535 305.076 115.535C306.213 115.535 307.229 115.711 308.126 116.062C309.028 116.408 309.731 116.9 310.235 117.539C310.745 118.172 311 118.904 311 119.736C311.006 120.416 310.836 121.031 310.49 121.582C310.145 122.133 309.658 122.596 309.031 122.971V127.031H312.371V128.631ZM301.104 119.736C301.104 120.27 301.268 120.738 301.596 121.143C301.93 121.541 302.396 121.849 302.993 122.065C303.597 122.282 304.291 122.391 305.076 122.391C305.861 122.391 306.556 122.282 307.159 122.065C307.769 121.849 308.24 121.541 308.574 121.143C308.914 120.738 309.084 120.27 309.084 119.736C309.084 119.197 308.914 118.726 308.574 118.321C308.24 117.917 307.769 117.609 307.159 117.398C306.556 117.188 305.861 117.082 305.076 117.082C304.285 117.082 303.588 117.188 302.984 117.398C302.387 117.609 301.924 117.917 301.596 118.321C301.268 118.72 301.104 119.191 301.104 119.736ZM307.045 127.031V123.718C306.424 123.853 305.768 123.92 305.076 123.92C304.414 123.92 303.77 123.855 303.143 123.727V127.031H307.045ZM315.342 129.141C315.096 129.141 314.867 129.079 314.656 128.956C314.445 128.833 314.278 128.666 314.155 128.455C314.032 128.244 313.971 128.016 313.971 127.77C313.971 127.529 314.032 127.307 314.155 127.102C314.278 126.891 314.445 126.724 314.656 126.601C314.867 126.478 315.096 126.416 315.342 126.416C315.582 126.416 315.805 126.478 316.01 126.601C316.221 126.724 316.388 126.891 316.511 127.102C316.634 127.307 316.695 127.529 316.695 127.77C316.695 128.016 316.634 128.244 316.511 128.455C316.388 128.666 316.221 128.833 316.01 128.956C315.805 129.079 315.582 129.141 315.342 129.141ZM169.865 144.369H165.207V146.215H171.5V147.779H156.998V146.215H163.256V144.369H158.861V138.955H160.795V142.805H169.865V144.369ZM158.65 149.133H169.707V154.564H167.756V150.715H158.65V149.133ZM179.779 138.99C180.945 138.99 181.959 139.113 182.82 139.359C183.682 139.605 184.344 139.963 184.807 140.432C185.275 140.895 185.51 141.445 185.51 142.084C185.51 142.711 185.275 143.253 184.807 143.71C184.344 144.161 183.682 144.507 182.82 144.747C181.959 144.987 180.945 145.107 179.779 145.107C178.625 145.107 177.614 144.987 176.747 144.747C175.886 144.507 175.221 144.161 174.752 143.71C174.283 143.253 174.049 142.711 174.049 142.084C174.049 141.445 174.283 140.895 174.752 140.432C175.221 139.963 175.886 139.605 176.747 139.359C177.614 139.113 178.625 138.99 179.779 138.99ZM172.555 146.18H187.039V147.762H172.555V146.18ZM174.26 149.027H185.281V154.371H174.26V149.027ZM176.088 142.084C176.082 142.559 176.404 142.928 177.055 143.191C177.705 143.455 178.613 143.59 179.779 143.596C180.945 143.59 181.854 143.455 182.504 143.191C183.16 142.928 183.488 142.559 183.488 142.084C183.488 141.58 183.163 141.193 182.513 140.924C181.862 140.654 180.951 140.52 179.779 140.52C178.607 140.52 177.696 140.654 177.046 140.924C176.401 141.193 176.082 141.58 176.088 142.084ZM183.383 152.789V150.574H176.193V152.789H183.383ZM200.557 145.002H203V146.619H200.557V154.564H198.623V138.674H200.557V145.002ZM188.023 141.117H191.785V138.902H193.736V141.117H197.393V142.682H188.023V141.117ZM188.762 147.463C188.756 146.742 188.926 146.098 189.271 145.529C189.617 144.955 190.095 144.51 190.704 144.193C191.313 143.877 192.002 143.719 192.77 143.719C193.525 143.719 194.205 143.877 194.809 144.193C195.412 144.51 195.887 144.955 196.232 145.529C196.584 146.098 196.76 146.742 196.76 147.463C196.76 148.184 196.584 148.828 196.232 149.396C195.887 149.959 195.412 150.398 194.809 150.715C194.205 151.031 193.525 151.189 192.77 151.189C192.002 151.189 191.313 151.031 190.704 150.715C190.095 150.398 189.617 149.959 189.271 149.396C188.926 148.828 188.756 148.184 188.762 147.463ZM190.625 147.463C190.625 147.885 190.716 148.257 190.897 148.579C191.079 148.896 191.331 149.142 191.653 149.317C191.981 149.487 192.354 149.572 192.77 149.572C193.174 149.572 193.537 149.487 193.859 149.317C194.182 149.147 194.434 148.901 194.615 148.579C194.797 148.257 194.891 147.885 194.896 147.463C194.891 147.041 194.794 146.669 194.606 146.347C194.425 146.019 194.173 145.767 193.851 145.591C193.534 145.409 193.174 145.318 192.77 145.318C192.354 145.318 191.981 145.409 191.653 145.591C191.331 145.767 191.079 146.019 190.897 146.347C190.716 146.669 190.625 147.041 190.625 147.463ZM216.975 154.582H215.023V146.127H212.299V144.527H215.023V138.674H216.975V154.582ZM204.195 140.062H211.385V145.881H206.182V149.221C207.488 149.215 208.631 149.18 209.609 149.115C210.594 149.051 211.584 148.928 212.58 148.746L212.738 150.346C211.631 150.539 210.523 150.671 209.416 150.741C208.314 150.812 207.014 150.85 205.514 150.855H204.248V144.299H209.469V141.645H204.195V140.062ZM235.941 144.879H238.297V146.514H235.941V154.529H233.99V138.674H235.941V144.879ZM223.408 150.188C225.348 149.221 226.842 148.058 227.891 146.698C228.939 145.333 229.561 143.748 229.754 141.943H224.27V140.326H231.74C231.729 145.541 229.32 149.332 224.516 151.699L223.408 150.188ZM242.867 140.168H249.723V138.92H251.656V144.211H247.227V145.424H253.537V146.971H239.053V145.424H245.293V144.211H240.934V138.92H242.867V140.168ZM240.758 147.973H251.727V151.822H242.691V152.93H252.166V154.424H240.775V150.451H249.811V149.414H240.758V147.973ZM249.723 142.752V141.592H242.867V142.752H249.723ZM267.283 145.02H269.48V146.637H267.283V154.564H265.314V138.674H267.283V145.02ZM254.381 150.012C255.107 149.238 255.69 148.436 256.13 147.604C256.569 146.771 256.895 145.898 257.105 144.984C257.322 144.07 257.457 143.057 257.51 141.943H255.014V140.344H259.373C259.367 141.867 259.271 143.238 259.083 144.457C258.896 145.67 258.547 146.836 258.037 147.955C257.533 149.074 256.824 150.129 255.91 151.119L254.381 150.012ZM258.881 151.066C259.607 150.193 260.185 149.279 260.612 148.324C261.046 147.363 261.359 146.37 261.553 145.345C261.746 144.313 261.866 143.18 261.913 141.943H259.9V140.344H263.768C263.762 141.967 263.674 143.438 263.504 144.756C263.34 146.074 263.015 147.363 262.528 148.623C262.048 149.877 261.354 151.049 260.445 152.139L258.881 151.066ZM284.686 152.631H270.166V151.031H273.523V147.015C272.879 146.646 272.378 146.18 272.021 145.617C271.669 145.055 271.496 144.428 271.502 143.736C271.502 142.904 271.751 142.172 272.249 141.539C272.753 140.9 273.453 140.408 274.35 140.062C275.246 139.711 276.26 139.535 277.391 139.535C278.527 139.535 279.544 139.711 280.44 140.062C281.343 140.408 282.046 140.9 282.55 141.539C283.06 142.172 283.314 142.904 283.314 143.736C283.32 144.416 283.15 145.031 282.805 145.582C282.459 146.133 281.973 146.596 281.346 146.971V151.031H284.686V152.631ZM273.418 143.736C273.418 144.27 273.582 144.738 273.91 145.143C274.244 145.541 274.71 145.849 275.308 146.065C275.911 146.282 276.605 146.391 277.391 146.391C278.176 146.391 278.87 146.282 279.474 146.065C280.083 145.849 280.555 145.541 280.889 145.143C281.229 144.738 281.398 144.27 281.398 143.736C281.398 143.197 281.229 142.726 280.889 142.321C280.555 141.917 280.083 141.609 279.474 141.398C278.87 141.188 278.176 141.082 277.391 141.082C276.6 141.082 275.902 141.188 275.299 141.398C274.701 141.609 274.238 141.917 273.91 142.321C273.582 142.72 273.418 143.191 273.418 143.736ZM279.359 151.031V147.718C278.738 147.853 278.082 147.92 277.391 147.92C276.729 147.92 276.084 147.855 275.457 147.727V151.031H279.359ZM288.412 149.098C288.418 148.377 288.488 147.794 288.623 147.349C288.758 146.903 288.945 146.546 289.186 146.276C289.432 146.007 289.76 145.746 290.17 145.494C290.586 145.225 290.911 144.935 291.146 144.624C291.38 144.313 291.494 143.953 291.488 143.543C291.488 143.221 291.412 142.939 291.26 142.699C291.113 142.453 290.908 142.263 290.645 142.128C290.381 141.993 290.088 141.926 289.766 141.926C289.467 141.926 289.186 141.99 288.922 142.119C288.658 142.248 288.441 142.444 288.271 142.708C288.102 142.972 288.008 143.291 287.99 143.666H285.793C285.811 142.904 285.998 142.257 286.355 141.724C286.713 141.185 287.188 140.78 287.779 140.511C288.377 140.235 289.045 140.098 289.783 140.098C290.568 140.098 291.263 140.238 291.866 140.52C292.476 140.795 292.947 141.19 293.281 141.706C293.621 142.222 293.791 142.822 293.791 143.508C293.785 144.193 293.621 144.782 293.299 145.274C292.982 145.767 292.525 146.191 291.928 146.549C291.576 146.766 291.295 146.985 291.084 147.208C290.879 147.431 290.727 147.691 290.627 147.99C290.527 148.289 290.475 148.658 290.469 149.098V149.256H288.412V149.098ZM288.131 151.77C288.131 151.529 288.192 151.307 288.315 151.102C288.438 150.891 288.605 150.724 288.816 150.601C289.027 150.478 289.256 150.416 289.502 150.416C289.742 150.416 289.965 150.478 290.17 150.601C290.381 150.724 290.548 150.891 290.671 151.102C290.794 151.307 290.855 151.529 290.855 151.77C290.855 152.016 290.794 152.244 290.671 152.455C290.548 152.666 290.381 152.833 290.17 152.956C289.965 153.079 289.742 153.141 289.502 153.141C289.256 153.141 289.027 153.079 288.816 152.956C288.605 152.833 288.438 152.666 288.315 152.455C288.192 152.244 288.131 152.016 288.131 151.77Z" fill="#757575"/>
<path d="M168.926 170.04L178.013 182.532C179.636 184.766 177.013 187.61 174.657 186.168L154.212 173.675C152.037 172.347 152.979 169 155.528 169H166.886C167.693 169 168.45 169.387 168.926 170.04Z" fill="#F5F5F5"/>
</svg>
