<?xml version="1.0" encoding="utf-8"?>
<!-- Generator: Adobe Illustrator 26.0.1, SVG Export Plug-In . SVG Version: 6.00 Build 0)  -->
<svg version="1.1" id="레이어_1" xmlns="http://www.w3.org/2000/svg" xmlns:xlink="http://www.w3.org/1999/xlink" x="0px"
	 y="0px" viewBox="0 0 24 24" style="enable-background:new 0 0 24 24;" xml:space="preserve">
<style type="text/css">
	.st0{fill:none;}
	.st1{fill:#FFFFFF;}
	.st2{fill:#C1C1C1;}
</style>
<rect class="st0" width="24" height="24"/>
<g>
	<g>
		<g>
			<g>
				<path class="st1" d="M3.54,10.46v9.93h16.92v-9.93H3.54z M9.45,16.98c0,0.12-0.01,0.24-0.03,0.35c0,0.03-0.01,0.06-0.02,0.09
					c-0.01,0.05-0.02,0.08-0.03,0.13c-0.02,0.08-0.04,0.15-0.07,0.22C9.27,17.89,9.22,18,9.17,18.1c-0.07,0.13-0.15,0.25-0.25,0.37
					c-0.08,0.09-0.15,0.18-0.24,0.25c-0.16,0.15-0.35,0.28-0.55,0.38c-0.02,0.01-0.03,0.02-0.04,0.02C8,19.15,7.9,19.19,7.8,19.22
					c-0.06,0.02-0.12,0.04-0.18,0.05c-0.05,0.02-0.12,0.02-0.17,0.03c-0.12,0.02-0.23,0.03-0.35,0.03c-1.31,0-2.36-1.05-2.36-2.35
					v-0.15c0-1.3,1.05-2.35,2.36-2.35c0.62,0,1.22,0.25,1.65,0.68c0.05,0.05,0.11,0.12,0.16,0.18c0.07,0.08,0.12,0.17,0.18,0.25
					c0.05,0.08,0.11,0.18,0.15,0.27c0.04,0.08,0.07,0.15,0.09,0.23c0.03,0.09,0.05,0.18,0.08,0.28c0.03,0.15,0.05,0.31,0.05,0.46
					V16.98z"/>
				<path class="st1" d="M8.76,15.16L8.76,15.16c0.05,0.05,0.1,0.12,0.15,0.18C8.87,15.28,8.82,15.22,8.76,15.16z M8.76,15.16
					L8.76,15.16c0.05,0.05,0.1,0.12,0.15,0.18C8.87,15.28,8.82,15.22,8.76,15.16z M8.76,15.16L8.76,15.16
					c0.05,0.05,0.1,0.12,0.15,0.18C8.87,15.28,8.82,15.22,8.76,15.16z M8.76,15.16L8.76,15.16c0.05,0.05,0.1,0.12,0.15,0.18
					C8.87,15.28,8.82,15.22,8.76,15.16z M8.76,15.16L8.76,15.16c0.05,0.05,0.1,0.12,0.15,0.18C8.87,15.28,8.82,15.22,8.76,15.16z"/>
			</g>
		</g>
	</g>
	<path class="st1" d="M7.92,4.43v1.73c0,0.45-0.37,0.82-0.82,0.82c-0.45,0-0.82-0.38-0.82-0.82V4.43c0-0.45,0.36-0.82,0.82-0.82
		c0.22,0,0.42,0.08,0.58,0.25C7.83,4.01,7.92,4.21,7.92,4.43z"/>
	<path class="st2" d="M21.23,4.67h-1.97V4.43c0-1.31-1.06-2.36-2.36-2.36h-0.14c-1.31,0-2.36,1.05-2.36,2.36v0.24H9.45V4.43
		c0-0.64-0.25-1.24-0.69-1.66c-0.44-0.45-1.03-0.7-1.67-0.7c-1.3,0-2.35,1.05-2.35,2.36v0.24H2.77C2.34,4.67,2,5.02,2,5.44v15.72
		c0,0.42,0.35,0.77,0.77,0.77h18.46c0.42,0,0.77-0.35,0.77-0.77V5.44C22,5.02,21.65,4.67,21.23,4.67z M15.94,4.43
		c0-0.45,0.37-0.82,0.82-0.82h0.14c0.45,0,0.82,0.37,0.82,0.82v1.73c0,0.45-0.37,0.82-0.82,0.82h-0.14c-0.45,0-0.82-0.37-0.82-0.82
		V4.43z M6.28,4.43c0-0.45,0.36-0.82,0.82-0.82c0.22,0,0.42,0.08,0.58,0.25c0.15,0.15,0.24,0.35,0.24,0.58v1.73
		c0,0.45-0.37,0.82-0.82,0.82c-0.45,0-0.82-0.38-0.82-0.82V4.43z M20.46,20.39H3.54v-9.93h16.92V20.39z"/>
	<path class="st1" d="M17.72,4.43v1.73c0,0.45-0.37,0.82-0.82,0.82h-0.14c-0.45,0-0.82-0.37-0.82-0.82V4.43
		c0-0.45,0.37-0.82,0.82-0.82h0.14C17.35,3.61,17.72,3.98,17.72,4.43z"/>
	<g>
		<path class="st2" d="M9.45,16.83v0.15c0,0.12-0.01,0.24-0.03,0.35c0,0.03-0.01,0.06-0.02,0.09c-0.01,0.05-0.02,0.08-0.03,0.13
			c-0.02,0.08-0.04,0.15-0.07,0.22C9.27,17.89,9.22,18,9.17,18.1c-0.08,0.13-0.16,0.25-0.25,0.37c-0.07,0.08-0.15,0.17-0.24,0.25
			c-0.16,0.15-0.35,0.28-0.55,0.38c-0.02,0.01-0.03,0.02-0.04,0.02C8,19.15,7.9,19.19,7.8,19.22c-0.06,0.02-0.12,0.04-0.18,0.05
			c-0.05,0.02-0.12,0.02-0.17,0.03c-0.12,0.02-0.23,0.03-0.35,0.03c-1.31,0-2.36-1.05-2.36-2.35v-0.15c0-1.3,1.05-2.35,2.36-2.35
			c0.62,0,1.22,0.25,1.65,0.68c0.05,0.05,0.11,0.12,0.16,0.18c0.07,0.08,0.12,0.17,0.18,0.25c0.05,0.08,0.11,0.18,0.15,0.27
			c0.04,0.08,0.07,0.15,0.09,0.23c0.03,0.09,0.05,0.18,0.08,0.28C9.44,16.52,9.45,16.68,9.45,16.83z"/>
	</g>
</g>
</svg>
