<?xml version="1.0" encoding="utf-8"?>
<!-- Generator: Adobe Illustrator 26.0.1, SVG Export Plug-In . SVG Version: 6.00 Build 0)  -->
<svg version="1.1" id="레이어_1" xmlns="http://www.w3.org/2000/svg" xmlns:xlink="http://www.w3.org/1999/xlink" x="0px"
	 y="0px" viewBox="0 0 24 24" style="enable-background:new 0 0 24 24;" xml:space="preserve">
<style type="text/css">
	.st0{fill:none;}
	.st1{fill:#6371F6;}
	.st2{fill:#C1C1C1;}
	.st3{fill:#FFFFFF;}
</style>
<rect class="st0" width="24" height="24"/>
<g>
	<g>
		<path class="st1" d="M3.54,13.66v0.02l3.97-4.73L3.54,13.66z M7.51,8.94L7.51,8.94c0.02-0.01,0.02-0.02,0.04-0.03
			C7.53,8.92,7.52,8.92,7.51,8.94z"/>
	</g>
	<path class="st1" d="M7.51,8.94L7.51,8.94c0.02-0.01,0.02-0.02,0.04-0.03C7.53,8.92,7.52,8.92,7.51,8.94z M3.54,13.66v0.02
		l3.97-4.73L3.54,13.66z"/>
	<path class="st2" d="M21.23,2H2.77C2.35,2,2,2.35,2,2.77v18.46C2,21.65,2.35,22,2.77,22h18.46c0.42,0,0.77-0.35,0.77-0.77V2.77
		C22,2.35,21.65,2,21.23,2z M20.46,14.86l-2.28-2.24c-0.29-0.28-0.76-0.29-1.06-0.01l-2.99,2.78L8.69,8.95
		C8.55,8.77,8.32,8.67,8.1,8.67c-0.12,0-0.22,0.02-0.33,0.07C7.72,8.76,7.68,8.79,7.63,8.83C7.6,8.85,7.57,8.88,7.55,8.91
		C7.53,8.92,7.52,8.93,7.51,8.95l-3.97,4.73V3.54h16.92V14.86z"/>
	<path class="st3" d="M3.54,3.54v10.12l3.97-4.72V8.94c0.01-0.02,0.02-0.02,0.04-0.03C7.57,8.88,7.6,8.85,7.63,8.83
		c0.05-0.04,0.09-0.07,0.14-0.09C7.88,8.69,7.98,8.67,8.1,8.67c0.22,0,0.45,0.1,0.59,0.28l5.43,6.45l2.99-2.78
		c0.3-0.28,0.77-0.28,1.06,0.01l2.28,2.24V3.54H3.54z M16.95,9.98c-1.29,0-2.34-1.05-2.34-2.33c0-1.29,1.05-2.34,2.34-2.34
		s2.34,1.05,2.34,2.34C19.29,8.94,18.25,9.98,16.95,9.98z"/>
	<g>
		<path class="st2" d="M19.29,7.65c0,1.28-1.05,2.33-2.34,2.33s-2.34-1.05-2.34-2.33c0-1.29,1.05-2.34,2.34-2.34
			S19.29,6.36,19.29,7.65z"/>
	</g>
</g>
</svg>
