<?xml version="1.0" encoding="utf-8"?>
<!-- Generator: Adobe Illustrator 26.0.1, SVG Export Plug-In . SVG Version: 6.00 Build 0)  -->
<svg version="1.1" id="레이어_1" xmlns="http://www.w3.org/2000/svg" xmlns:xlink="http://www.w3.org/1999/xlink" x="0px"
	 y="0px" viewBox="0 0 24 24" style="enable-background:new 0 0 24 24;" xml:space="preserve">
<style type="text/css">
	.st0{fill:none;}
	.st1{fill:#C1C1C1;}
</style>
<rect class="st0" width="24" height="24"/>
<g>
	<path class="st1" d="M21.2,21.63C21.06,21.86,20.81,22,20.54,22H3.45c-0.28,0-0.53-0.15-0.67-0.39c-0.13-0.25-0.13-0.54,0.02-0.78
		l4.27-7.04c0.28-0.46,1.04-0.46,1.32,0l1.89,3.12l3.72-7.42v-2.5H8.98c-0.42,0-0.77-0.35-0.77-0.77V2.77C8.21,2.35,8.56,2,8.98,2
		h5.78c0.43,0,0.77,0.35,0.77,0.77v6.7l5.71,11.42C21.35,21.12,21.34,21.41,21.2,21.63z"/>
</g>
</svg>
