<?xml version="1.0" encoding="utf-8"?>
<!-- Generator: Adobe Illustrator 26.0.1, SVG Export Plug-In . SVG Version: 6.00 Build 0)  -->
<svg version="1.1" id="레이어_1" xmlns="http://www.w3.org/2000/svg" xmlns:xlink="http://www.w3.org/1999/xlink" x="0px"
	 y="0px" viewBox="0 0 24 24" style="enable-background:new 0 0 24 24;" xml:space="preserve">
<style type="text/css">
	.st0{fill:none;}
	.st1{fill:#C1C1C1;}
</style>
<rect class="st0" width="24" height="24"/>
<g>
	<g>
		<path class="st1" d="M15.66,5.66v5.53c0,2.02-1.64,3.66-3.66,3.66c-2.02,0-3.66-1.65-3.66-3.66V5.66C8.34,3.64,9.98,2,12,2
			c0.98,0,1.9,0.38,2.59,1.07C15.28,3.76,15.66,4.68,15.66,5.66z"/>
	</g>
	<g>
		<line class="st1" x1="12" y1="17.82" x2="12" y2="17.05"/>
		<path class="st1" d="M12.05,16.28h-0.11c0.02-0.01,0.04-0.01,0.05-0.01S12.04,16.28,12.05,16.28z"/>
	</g>
	<g>
		<line class="st1" x1="16.15" y1="21.23" x2="12.77" y2="21.23"/>
		<line class="st1" x1="11.23" y1="21.23" x2="7.85" y2="21.23"/>
		<path class="st1" d="M16.92,21.23c0,0.42-0.35,0.77-0.77,0.77H7.85c-0.42,0-0.77-0.35-0.77-0.77c0-0.42,0.35-0.77,0.77-0.77h3.38
			v-2.68C7.9,17.39,5.3,14.55,5.3,11.12c0-0.42,0.35-0.77,0.77-0.77c0.43,0,0.77,0.35,0.77,0.77c0,2.83,2.28,5.13,5.11,5.16h0.11
			c2.82-0.03,5.11-2.33,5.11-5.16c0-0.42,0.35-0.77,0.77-0.77c0.42,0,0.77,0.35,0.77,0.77c0,3.43-2.6,6.27-5.93,6.65v2.68h3.38
			C16.57,20.46,16.92,20.81,16.92,21.23z"/>
	</g>
</g>
</svg>
