<svg width="400" height="400" viewBox="0 0 400 400" fill="none" xmlns="http://www.w3.org/2000/svg">
<rect width="400" height="400" fill="white"/>
<rect width="400" height="400" fill="#FFFBF0"/>
<path d="M152.332 113.001L83.2495 262.59C74.0147 278.592 85.5621 298.59 104.039 298.59H295.961C314.438 298.59 325.985 278.592 316.75 262.59L193.904 113.001C184.669 96.9995 161.575 96.9995 152.332 113.001Z" fill="#FFDC65"/>
<path d="M145.581 213.49C150.801 213.49 155.033 209.258 155.033 204.038C155.033 198.818 150.801 194.586 145.581 194.586C140.36 194.586 136.128 198.818 136.128 204.038C136.128 209.258 140.36 213.49 145.581 213.49Z" fill="#626CFA"/>
<path d="M193.71 213.49C198.93 213.49 203.162 209.258 203.162 204.038C203.162 198.818 198.93 194.586 193.71 194.586C188.49 194.586 184.258 198.818 184.258 204.038C184.258 209.258 188.49 213.49 193.71 213.49Z" fill="#626CFA"/>
<path d="M169.614 239.099C160.791 239.099 154.652 234.427 154.272 234.125C152.317 232.604 151.975 229.787 153.496 227.831C155.009 225.891 157.811 225.526 159.766 227.04C160.193 227.358 169.063 233.838 179.749 226.838C181.821 225.48 184.6 226.062 185.958 228.134C187.308 230.206 186.734 232.984 184.662 234.342C179.229 237.904 174.077 239.099 169.614 239.099Z" fill="#626CFA"/>
</svg>
