<svg width="400" height="400" viewBox="0 0 400 400" fill="none" xmlns="http://www.w3.org/2000/svg">
<rect width="400" height="400" fill="white"/>
<rect width="400" height="400" fill="#EEF2FF"/>
<path d="M262.423 320H137.437C126.702 320 118 311.298 118 300.563V161.93C118 116.68 154.68 80 199.93 80C245.18 80 281.859 116.68 281.859 161.93V300.563C281.859 311.29 273.157 320 262.423 320Z" fill="#5281FF"/>
<path d="M177.177 151.848C182.113 151.848 186.114 147.847 186.114 142.911C186.114 137.975 182.113 133.974 177.177 133.974C172.241 133.974 168.24 137.975 168.24 142.911C168.24 147.847 172.241 151.848 177.177 151.848Z" fill="white"/>
<path d="M222.683 151.848C227.619 151.848 231.62 147.847 231.62 142.911C231.62 137.975 227.619 133.974 222.683 133.974C217.747 133.974 213.746 137.975 213.746 142.911C213.746 147.847 217.747 151.848 222.683 151.848Z" fill="white"/>
<path d="M189.114 169.451C189.114 162.957 193.531 158.444 193.818 158.166C195.256 156.727 197.919 156.478 199.768 157.593C201.603 158.709 201.947 160.77 200.517 162.201C200.216 162.517 194.089 169.04 200.707 176.898C201.991 178.424 201.441 180.464 199.482 181.462C197.523 182.46 194.896 182.034 193.612 180.508C190.244 176.517 189.114 172.73 189.114 169.451Z" fill="white"/>
</svg>
