<svg width="400" height="400" viewBox="0 0 400 400" fill="none" xmlns="http://www.w3.org/2000/svg">
<rect width="400" height="400" fill="white"/>
<rect width="400" height="400" fill="#EDFBFB"/>
<path d="M200 320C266.274 320 320 266.274 320 200C320 133.726 266.274 80 200 80C133.726 80 80 133.726 80 200C80 266.274 133.726 320 200 320Z" fill="#4FD5D3"/>
<path d="M150.27 149.619C155.942 149.619 160.54 145.021 160.54 139.349C160.54 133.677 155.942 129.079 150.27 129.079C144.598 129.079 140 133.677 140 139.349C140 145.021 144.598 149.619 150.27 149.619Z" fill="white"/>
<path d="M202.587 149.619C208.258 149.619 212.856 145.021 212.856 139.349C212.856 133.677 208.258 129.079 202.587 129.079C196.915 129.079 192.317 133.677 192.317 139.349C192.317 145.021 196.915 149.619 202.587 149.619Z" fill="white"/>
<path d="M176.391 177.46C166.8 177.46 160.13 172.381 159.712 172.056C157.591 170.4 157.209 167.339 158.865 165.218C160.512 163.107 163.554 162.707 165.675 164.353C166.14 164.697 175.777 171.739 187.395 164.13C189.647 162.651 192.67 163.283 194.14 165.535C195.609 167.786 194.986 170.809 192.735 172.279C186.837 176.158 181.247 177.46 176.391 177.46Z" fill="white"/>
</svg>
