<svg width="400" height="400" viewBox="0 0 400 400" fill="none" xmlns="http://www.w3.org/2000/svg">
<rect width="400" height="400" fill="white"/>
<rect width="400" height="400" fill="#EFF0FF"/>
<path d="M300.114 201.008C300.114 236.919 288.513 265.996 265.795 287.656C243.027 309.316 212.408 320 174.722 320H144.536C114.309 320 99 306.332 99 279.322V118.844C99 107.294 102.759 98.1013 110.217 91.2591C118.018 83.8503 128.844 80 143.386 80H171.738C211.691 80 243.027 90.6841 265.795 112.302C288.513 133.954 300.114 163.372 300.114 201.008Z" fill="#626CFA"/>
<path d="M179.131 164.448C184.737 164.448 189.281 159.903 189.281 154.297C189.281 148.691 184.737 144.146 179.131 144.146C173.525 144.146 168.98 148.691 168.98 154.297C168.98 159.903 173.525 164.448 179.131 164.448Z" fill="white"/>
<path d="M230.818 164.448C236.424 164.448 240.968 159.903 240.968 154.297C240.968 148.691 236.424 144.146 230.818 144.146C225.212 144.146 220.667 148.691 220.667 154.297C220.667 159.903 225.212 164.448 230.818 164.448Z" fill="white"/>
<path d="M204.949 191.949C195.473 191.949 188.881 186.932 188.473 186.607C186.373 184.974 186.006 181.949 187.64 179.848C189.265 177.765 192.273 177.373 194.373 178.998C194.832 179.34 204.357 186.299 215.833 178.782C218.058 177.323 221.042 177.948 222.5 180.173C223.95 182.399 223.334 185.382 221.109 186.841C215.266 190.666 209.733 191.949 204.949 191.949Z" fill="white"/>
</svg>
