<svg width="400" height="400" viewBox="0 0 400 400" fill="none" xmlns="http://www.w3.org/2000/svg">
<rect width="400" height="400" fill="white"/>
<rect width="400" height="400" fill="#FFF0F0"/>
<path d="M296.03 292.444C296.03 304.557 288.195 312.589 272.183 317.014C268.43 317.926 265.115 318.218 261.749 318.218C248.723 318.218 237.523 313.173 228.191 302.783L175.307 242.356V286.201C175.307 296.584 171.554 305.193 163.77 311.392C156.659 317.014 148.094 320 138.047 320C128.723 320 120.545 317.357 114.2 311.684C106.746 305.485 103 297.168 103 286.201V119.085C103 96.2969 120.881 80 149.584 80H199.533C224.482 80 244.583 85.9142 260.639 97.4506C278.141 110.528 287.078 129.183 287.078 153.46C287.078 184.565 272.563 206.535 243.86 218.648L286.698 270.233C293.051 277.922 296.03 285.325 296.03 292.444Z" fill="#FF6865"/>
<path d="M150.218 136.667C155.82 136.667 160.36 132.126 160.36 126.525C160.36 120.924 155.82 116.383 150.218 116.383C144.617 116.383 140.077 120.924 140.077 126.525C140.077 132.126 144.617 136.667 150.218 136.667Z" fill="white"/>
<path d="M201.848 136.667C207.449 136.667 211.99 132.126 211.99 126.525C211.99 120.924 207.449 116.383 201.848 116.383C196.247 116.383 191.706 120.924 191.706 126.525C191.706 132.126 196.247 136.667 201.848 136.667Z" fill="white"/>
<path d="M173.62 171.685C168.597 171.685 164.53 167.618 164.53 162.595V151.321C164.53 146.298 168.597 142.231 173.62 142.231C178.644 142.231 182.71 146.298 182.71 151.321V162.595C182.71 167.618 178.644 171.685 173.62 171.685Z" fill="white"/>
</svg>
