<svg width="250" height="250" viewBox="0 0 250 250" fill="none" xmlns="http://www.w3.org/2000/svg">
<path fill-rule="evenodd" clip-rule="evenodd" d="M40.9206 205.442H79.0394H79.0396C78.8917 205.442 78.7446 205.438 78.5986 205.43C77.5556 205.37 76.5619 205.104 75.6502 204.666C75.0446 204.375 74.475 204.009 73.9514 203.577C73.6073 203.294 73.2832 202.983 72.9815 202.646C72.6684 202.297 72.3793 201.922 72.1176 201.523C71.0827 199.945 70.4719 198 70.4719 195.896V179.601L40.9206 205.442ZM70.4717 179.601H49.6169V178.784C49.6169 178.091 49.274 177.465 48.7168 177.01C48.1596 176.555 47.3952 176.274 46.5451 176.274C45.1616 176.274 43.9924 177.019 43.6067 178.046C43.3686 177.939 43.1019 177.879 42.8209 177.879C41.8255 177.879 41.0064 178.634 40.904 179.601C37.344 179.605 34.1198 181.051 31.7862 183.384C29.4478 185.723 28 188.954 28 192.521C28 199.658 33.7864 205.442 40.9206 205.442" fill="#C2C2C2"/>
<path d="M92.9795 176.848V198.253C92.9795 202.222 95.8679 205.439 99.4327 205.439H121.595C125.16 205.439 128.048 202.222 128.048 198.253V188.273H118.364C116.821 188.273 115.425 187.578 114.415 186.454C113.406 185.33 112.782 183.775 112.782 182.056C112.782 178.617 115.28 175.834 118.364 175.834H128.024C127.55 165.518 119.892 157.315 110.515 157.315C105.672 157.315 101.29 159.501 98.1158 163.037C94.9416 166.57 92.9795 171.454 92.9795 176.848Z" fill="#D9DEFF"/>
<path d="M153.318 205.263C152.787 205.38 152.239 205.439 151.677 205.439H79.0394C74.3055 205.439 70.4717 201.165 70.4717 195.893V169.435C70.4717 141.879 90.7075 118.948 115.442 119C135.361 119.043 152.237 133.54 158.063 153.578C154.561 157.396 152.413 162.506 152.413 168.094V203.806C152.413 204.447 152.782 204.999 153.318 205.263Z" fill="#F5F5F5"/>
<path d="M128.048 176.848V198.253C128.048 202.222 125.16 205.439 121.595 205.439H99.4327C95.8679 205.439 92.9795 202.222 92.9795 198.253V188.273H102.664C104.207 188.273 105.602 187.578 106.612 186.454C107.622 185.33 108.246 183.775 108.246 182.056C108.246 178.617 105.748 175.834 102.664 175.834H93.0033C93.4772 165.518 101.135 157.315 110.513 157.315C115.356 157.315 119.738 159.501 122.912 163.037C126.086 166.57 128.048 171.454 128.048 176.848Z" fill="#A8A8A8"/>
<path fill-rule="evenodd" clip-rule="evenodd" d="M206.719 205.439C215.089 205.439 222.01 198.708 222 190.337C221.995 185.818 220.161 181.729 217.199 178.767C214.232 175.8 210.134 173.966 205.607 173.966H200.683C198.978 173.966 197.437 173.276 196.32 172.159C195.204 171.042 194.513 169.499 194.513 167.797C194.513 156.507 185.624 147.292 174.461 146.77C167.996 146.468 162.119 149.159 158.064 153.581C158.064 153.581 158.064 153.581 158.064 153.581C154.561 157.398 152.413 162.508 152.413 168.097V203.808C152.413 204.449 152.782 205.001 153.318 205.265C153.537 205.377 153.782 205.439 154.044 205.439H206.719Z" fill="#A8A8A8"/>
<path d="M112.791 168.244C113.412 168.244 113.915 167.741 113.915 167.121C113.915 166.5 113.412 165.997 112.791 165.997C112.171 165.997 111.667 166.5 111.667 167.121C111.667 167.741 112.171 168.244 112.791 168.244Z" fill="white"/>
<path d="M118.514 168.244C119.134 168.244 119.638 167.741 119.638 167.121C119.638 166.5 119.134 165.997 118.514 165.997C117.893 165.997 117.39 166.5 117.39 167.121C117.39 167.741 117.893 168.244 118.514 168.244Z" fill="white"/>
<path d="M115.651 171.288C114.601 171.288 113.873 170.733 113.827 170.697C113.596 170.516 113.554 170.181 113.735 169.95C113.916 169.719 114.247 169.676 114.48 169.854C114.53 169.892 115.585 170.662 116.856 169.83C117.104 169.669 117.433 169.738 117.595 169.985C117.756 170.231 117.687 170.562 117.44 170.723C116.794 171.147 116.182 171.288 115.651 171.288Z" fill="white"/>
<path d="M166.031 161.668C166.896 161.668 167.598 160.966 167.598 160.101C167.598 159.235 166.896 158.534 166.031 158.534C165.166 158.534 164.464 159.235 164.464 160.101C164.464 160.966 165.166 161.668 166.031 161.668Z" fill="white"/>
<path d="M174.006 161.668C174.871 161.668 175.573 160.966 175.573 160.101C175.573 159.235 174.871 158.534 174.006 158.534C173.14 158.534 172.439 159.235 172.439 160.101C172.439 160.966 173.14 161.668 174.006 161.668Z" fill="white"/>
<path d="M40.6183 188.471C41.3403 188.471 41.9256 187.886 41.9256 187.163C41.9256 186.441 41.3403 185.856 40.6183 185.856C39.8963 185.856 39.311 186.441 39.311 187.163C39.311 187.886 39.8963 188.471 40.6183 188.471Z" fill="#8F8F8F"/>
<path d="M47.2787 188.471C48.0007 188.471 48.586 187.886 48.586 187.163C48.586 186.441 48.0007 185.856 47.2787 185.856C46.5567 185.856 45.9714 186.441 45.9714 187.163C45.9714 187.886 46.5567 188.471 47.2787 188.471Z" fill="#8F8F8F"/>
<g opacity="0.8">
<path opacity="0.8" d="M46.1355 190.295V190.592C46.1355 191.654 45.1378 192.519 43.9115 192.519C42.685 192.519 41.6873 191.654 41.6873 190.592V190.295C41.6873 189.947 41.9706 189.661 42.3207 189.661H45.5045C45.8546 189.661 46.1377 189.945 46.1377 190.295H46.1355Z" fill="#8F8F8F"/>
</g>
<path fill-rule="evenodd" clip-rule="evenodd" d="M119.211 140.246C119.803 140.246 120.283 140.725 120.283 141.317V141.82C120.283 142.244 120.791 142.941 121.907 142.941C123.023 142.941 123.531 142.244 123.531 141.82V141.317C123.531 140.725 124.011 140.246 124.602 140.246C125.194 140.246 125.674 140.725 125.674 141.317V141.82C125.674 143.819 123.772 145.085 121.907 145.085C120.041 145.085 118.14 143.819 118.14 141.82V141.317C118.14 140.725 118.619 140.246 119.211 140.246Z" fill="#8F8F8F"/>
<path fill-rule="evenodd" clip-rule="evenodd" d="M133.991 140.246C134.583 140.246 135.063 140.725 135.063 141.317V141.82C135.063 142.244 135.571 142.941 136.687 142.941C137.803 142.941 138.311 142.244 138.311 141.82V141.317C138.311 140.725 138.791 140.246 139.382 140.246C139.974 140.246 140.454 140.725 140.454 141.317V141.82C140.454 143.819 138.553 145.085 136.687 145.085C134.821 145.085 132.92 143.819 132.92 141.82V141.317C132.92 140.725 133.399 140.246 133.991 140.246Z" fill="#8F8F8F"/>
<path d="M133.201 147.818V148.321C133.201 150.121 131.51 151.585 129.434 151.585C127.357 151.585 125.667 150.121 125.667 148.321V147.818C125.667 147.228 126.145 146.747 126.738 146.747H132.129C132.722 146.747 133.201 147.228 133.201 147.818Z" fill="#8F8F8F"/>
<rect x="41" y="44" width="167.4" height="52.9329" rx="26.4665" fill="#F5F5F5"/>
<path d="M65.3736 57.8751C65.9009 57.8751 66.37 58.0282 66.781 58.3345C67.1919 58.6369 67.5137 59.0692 67.7463 59.6313C67.9828 60.1896 68.103 60.8409 68.1069 61.5853C68.103 62.3336 67.9828 62.9888 67.7463 63.5509C67.5137 64.1131 67.1919 64.5473 66.781 64.8536C66.37 65.156 65.9009 65.3072 65.3736 65.3072C64.8425 65.3072 64.3695 65.156 63.9547 64.8536C63.5398 64.5473 63.2161 64.1131 62.9835 63.5509C62.7548 62.9888 62.6404 62.3336 62.6404 61.5853C62.6404 60.8409 62.7548 60.1896 62.9835 59.6313C63.2161 59.0692 63.5398 58.6369 63.9547 58.3345C64.3695 58.0282 64.8425 57.8751 65.3736 57.8751ZM63.8849 61.5853C63.8849 62.1126 63.9469 62.5701 64.071 62.9577C64.195 63.3416 64.3695 63.6343 64.5944 63.8359C64.8192 64.0375 65.079 64.1402 65.3736 64.1441C65.6722 64.1402 65.9319 64.0375 66.1529 63.8359C66.3778 63.6343 66.5522 63.3416 66.6763 62.9577C66.8003 62.5739 66.8624 62.1165 66.8624 61.5853C66.8624 61.0581 66.8003 60.6025 66.6763 60.2187C66.5522 59.8349 66.3778 59.5422 66.1529 59.3406C65.928 59.139 65.6683 59.0382 65.3736 59.0382C65.079 59.0382 64.8192 59.1409 64.5944 59.3464C64.3695 59.548 64.195 59.8407 64.071 60.2245C63.9469 60.6045 63.8849 61.0581 63.8849 61.5853ZM69.4909 57.1075H70.7819V61.1433H72.3986V62.2366H70.7819V67.6217H69.4909V57.1075ZM76.8299 58.9335C76.8299 59.3716 76.9288 59.7981 77.1265 60.2129C77.3281 60.6238 77.6208 60.9902 78.0046 61.312C78.3923 61.6338 78.8576 61.88 79.4003 62.0505L78.7374 63.0508C78.152 62.8608 77.6441 62.5797 77.2137 62.2076C76.7834 61.8315 76.4442 61.3876 76.1961 60.8758C75.9557 61.4302 75.6126 61.9129 75.1667 62.3239C74.7248 62.7348 74.1975 63.043 73.585 63.2485L72.922 62.2483C73.4686 62.0622 73.9378 61.7985 74.3293 61.4574C74.7209 61.1123 75.0175 60.7227 75.2191 60.2885C75.4207 59.8504 75.5234 59.3987 75.5273 58.9335V58.8056H73.2593V57.7704H79.0398V58.8056H76.8299V58.9335ZM74.4224 63.9347H81.5985V67.6217H80.2959V64.9815H74.4224V63.9347ZM80.2959 57.1075H81.5985V63.4462H80.2959V57.1075ZM95.5555 63.0392H85.9601V61.9808H95.5555V63.0392ZM87.0766 65.6793C87.0766 65.2761 87.222 64.9311 87.5128 64.6442C87.8074 64.3573 88.2281 64.1402 88.7747 63.9929C89.3253 63.8456 89.9805 63.7719 90.7403 63.7719C91.4925 63.7719 92.1418 63.8456 92.6885 63.9929C93.2351 64.1402 93.6538 64.3573 93.9446 64.6442C94.2354 64.9311 94.3808 65.2761 94.3808 65.6793C94.3808 66.0903 94.2354 66.4392 93.9446 66.7261C93.6538 67.0169 93.2351 67.2359 92.6885 67.3833C92.1457 67.5345 91.4963 67.6101 90.7403 67.6101C89.9805 67.6101 89.3253 67.5345 88.7747 67.3833C88.2281 67.2359 87.8074 67.0169 87.5128 66.7261C87.222 66.4353 87.0766 66.0864 87.0766 65.6793ZM87.1348 57.4448H94.3924V58.4915H88.4258V60.1198H94.4505V61.155H87.1348V57.4448ZM88.3909 65.6793C88.387 65.9895 88.5848 66.2221 88.9841 66.3772C89.3834 66.5323 89.9688 66.6098 90.7403 66.6098C91.5002 66.6098 92.0798 66.5323 92.4791 66.3772C92.8823 66.2221 93.0859 65.9895 93.0897 65.6793C93.082 65.3808 92.8765 65.154 92.4733 64.9989C92.0701 64.84 91.4925 64.7605 90.7403 64.7605C89.9766 64.7605 89.3931 64.84 88.9899 64.9989C88.5867 65.154 88.387 65.3808 88.3909 65.6793ZM105.849 63.8417H96.2417V62.7949H100.405V61.9226H97.4629V59.1312H103.371V58.352H97.428V57.3401H104.662V60.0733H98.7423V60.9107H104.872V61.9226H101.685V62.7949H105.849V63.8417ZM97.3117 64.5046H104.721V67.5519H103.418V65.5281H97.3117V64.5046ZM112.664 61.4457H110.71V62.6379C111.641 62.5991 112.498 62.539 113.281 62.4576L113.374 63.3881C112.362 63.5277 111.305 63.6246 110.204 63.6789C109.107 63.7293 107.962 63.7564 106.768 63.7603L106.593 62.7251C107.83 62.7174 108.768 62.7038 109.408 62.6844V61.4457H107.5V57.7588H112.583V58.8056H108.803V60.4106H112.664V61.4457ZM108.268 64.4232H109.571V66.3656H115.619V67.4123H108.268V64.4232ZM114.013 57.1075H115.316V65.0048H114.013V57.1075ZM128.657 62.5507H127.424V60.3292H126.377V62.446H125.167V57.3168H126.377V59.2824H127.424V57.1191H128.657V62.5507ZM119.736 59.9221C119.736 59.4608 119.837 59.0556 120.038 58.7067C120.244 58.3539 120.529 58.0825 120.893 57.8925C121.258 57.6987 121.674 57.6037 122.143 57.6076C122.609 57.6037 123.023 57.6987 123.388 57.8925C123.756 58.0825 124.043 58.3539 124.249 58.7067C124.458 59.0556 124.563 59.4608 124.563 59.9221C124.563 60.3718 124.458 60.7731 124.249 61.1259C124.043 61.4748 123.756 61.7481 123.388 61.9459C123.023 62.1397 122.609 62.2366 122.143 62.2366C121.678 62.2366 121.261 62.1397 120.893 61.9459C120.529 61.752 120.244 61.4787 120.038 61.1259C119.837 60.7731 119.736 60.3718 119.736 59.9221ZM120.899 59.9221C120.895 60.178 120.945 60.4048 121.05 60.6025C121.155 60.7964 121.302 60.9476 121.492 61.0561C121.682 61.1608 121.899 61.2131 122.143 61.2131C122.384 61.2131 122.597 61.1608 122.783 61.0561C122.973 60.9476 123.12 60.7964 123.225 60.6025C123.334 60.4048 123.388 60.178 123.388 59.9221C123.388 59.6585 123.334 59.4278 123.225 59.2301C123.12 59.0285 122.973 58.8734 122.783 58.7649C122.597 58.6524 122.384 58.5962 122.143 58.5962C121.899 58.5962 121.682 58.6524 121.492 58.7649C121.302 58.8734 121.155 59.0285 121.05 59.2301C120.945 59.4278 120.895 59.6585 120.899 59.9221ZM121.539 62.9461H128.657V65.6445H122.853V66.4702H129.029V67.4937H121.55V64.6791H127.366V63.9696H121.539V62.9461ZM131.727 59.201H134.077V57.7123H135.356V59.6546H137.473V57.1075H138.764V63.202H137.473V60.7246H135.356V62.7019H130.436V57.7123H131.727V59.201ZM134.077 61.6667V60.2129H131.727V61.6667H134.077ZM131.774 63.6556H138.764V67.4937H131.774V63.6556ZM137.496 66.447V64.6791H133.065V66.447H137.496ZM148.999 67.6333H147.696V57.1075H148.999V67.6333ZM140.59 61.5853C140.59 60.8448 140.706 60.1935 140.939 59.6313C141.171 59.0692 141.495 58.6369 141.91 58.3345C142.329 58.0282 142.804 57.8751 143.335 57.8751C143.858 57.8751 144.327 58.0282 144.742 58.3345C145.161 58.6369 145.488 59.0692 145.725 59.6313C145.961 60.1935 146.08 60.8448 146.08 61.5853C146.08 62.3336 145.961 62.9888 145.725 63.5509C145.488 64.1131 145.161 64.5473 144.742 64.8536C144.327 65.156 143.858 65.3072 143.335 65.3072C142.804 65.3072 142.329 65.156 141.91 64.8536C141.495 64.5473 141.171 64.1131 140.939 63.5509C140.706 62.9888 140.59 62.3336 140.59 61.5853ZM141.834 61.5853C141.834 62.1165 141.896 62.5739 142.02 62.9577C142.148 63.3416 142.325 63.6343 142.55 63.8359C142.774 64.0375 143.036 64.1402 143.335 64.1441C143.629 64.1402 143.889 64.0375 144.114 63.8359C144.339 63.6343 144.513 63.3416 144.637 62.9577C144.761 62.5739 144.823 62.1165 144.823 61.5853C144.823 61.0581 144.761 60.6045 144.637 60.2245C144.513 59.8407 144.339 59.548 144.114 59.3464C143.889 59.1409 143.629 59.0382 143.335 59.0382C143.036 59.0382 142.774 59.1409 142.55 59.3464C142.325 59.548 142.148 59.8407 142.02 60.2245C141.896 60.6045 141.834 61.0581 141.834 61.5853ZM155.756 64.3883H157.14V63.2601H158.338V66.5982C158.738 66.4315 159.071 66.2105 159.339 65.9352C159.61 65.66 159.812 65.3576 159.943 65.028C160.075 64.6985 160.141 64.3612 160.141 64.0161V63.1787H161.432V64.0161C161.428 64.3922 161.492 64.7508 161.624 65.092C161.76 65.4293 161.967 65.7317 162.246 65.9992C162.525 66.2628 162.874 66.4664 163.293 66.6098L162.63 67.5752C161.75 67.2573 161.132 66.668 160.775 65.8073C160.593 66.2066 160.349 66.5575 160.042 66.8599C159.74 67.1661 159.377 67.4046 158.955 67.5752L158.338 66.6621V67.4937H154.547V63.2601H155.756V64.3883ZM153.512 59.9803C153.512 59.5073 153.63 59.0866 153.866 58.7183C154.107 58.3461 154.438 58.0573 154.861 57.8518C155.283 57.6425 155.76 57.5378 156.291 57.5378C156.737 57.5378 157.148 57.6173 157.524 57.7762C157.9 57.9313 158.214 58.1523 158.466 58.4392C158.722 58.7261 158.895 59.0576 158.984 59.4336H160.885V57.1075H162.177V62.6786H160.885V60.5037H158.99C158.904 60.8875 158.736 61.2267 158.484 61.5213C158.232 61.816 157.916 62.0447 157.536 62.2076C157.156 62.3665 156.741 62.446 156.291 62.446C155.76 62.446 155.283 62.3433 154.861 62.1378C154.438 61.9284 154.107 61.6377 153.866 61.2655C153.63 60.8894 153.512 60.461 153.512 59.9803ZM154.744 59.9803C154.744 60.2594 154.81 60.5056 154.942 60.7188C155.074 60.9321 155.256 61.0968 155.489 61.2131C155.725 61.3294 155.993 61.3876 156.291 61.3876C156.586 61.3876 156.848 61.3294 157.076 61.2131C157.305 61.0968 157.485 60.9321 157.617 60.7188C157.749 60.5056 157.815 60.2594 157.815 59.9803C157.815 59.7089 157.749 59.4685 157.617 59.2592C157.485 59.0498 157.303 58.8889 157.071 58.7765C156.842 58.6641 156.582 58.6078 156.291 58.6078C155.993 58.6078 155.725 58.6641 155.489 58.7765C155.256 58.8889 155.074 59.0498 154.942 59.2592C154.81 59.4685 154.744 59.7089 154.744 59.9803ZM157.14 66.5051V65.3537H155.756V66.5051H157.14ZM166.538 57.8751C167.007 57.8751 167.432 58.0011 167.812 58.2531C168.192 58.5051 168.502 58.8657 168.742 59.3348C168.982 59.8 169.134 60.3486 169.196 60.9805H171.202V57.1075H172.481V67.6333H171.202V62.0273H169.207C169.161 62.6941 169.019 63.2757 168.783 63.7719C168.546 64.2643 168.234 64.6442 167.846 64.9117C167.459 65.1753 167.023 65.3072 166.538 65.3072C166.011 65.3072 165.542 65.156 165.131 64.8536C164.724 64.5473 164.406 64.1131 164.177 63.5509C163.952 62.9888 163.84 62.3336 163.84 61.5853C163.84 60.8409 163.952 60.1896 164.177 59.6313C164.406 59.0692 164.726 58.6369 165.137 58.3345C165.547 58.0282 166.015 57.8751 166.538 57.8751ZM165.084 61.5853C165.084 62.1165 165.144 62.5739 165.264 62.9577C165.385 63.3416 165.553 63.6343 165.77 63.8359C165.991 64.0375 166.247 64.1402 166.538 64.1441C166.829 64.1402 167.085 64.0375 167.306 63.8359C167.527 63.6343 167.697 63.3416 167.817 62.9577C167.941 62.5739 168.004 62.1165 168.004 61.5853C168.004 61.0581 167.941 60.6025 167.817 60.2187C167.697 59.8349 167.527 59.5422 167.306 59.3406C167.085 59.139 166.829 59.0382 166.538 59.0382C166.247 59.0382 165.991 59.1409 165.77 59.3464C165.553 59.548 165.385 59.8407 165.264 60.2245C165.144 60.6045 165.084 61.0581 165.084 61.5853ZM183.565 66.3423H173.958V65.2839H176.18V62.6263C175.753 62.382 175.422 62.0738 175.186 61.7016C174.953 61.3294 174.839 60.9146 174.842 60.4571C174.842 59.9066 175.007 59.422 175.337 59.0033C175.67 58.5807 176.133 58.255 176.727 58.0263C177.32 57.7937 177.99 57.6774 178.739 57.6774C179.491 57.6774 180.163 57.7937 180.757 58.0263C181.354 58.255 181.819 58.5807 182.152 59.0033C182.49 59.422 182.658 59.9066 182.658 60.4571C182.662 60.9069 182.55 61.3139 182.321 61.6784C182.092 62.0428 181.77 62.3491 181.356 62.5972V65.2839H183.565V66.3423ZM176.11 60.4571C176.11 60.8099 176.219 61.1201 176.436 61.3876C176.657 61.6512 176.965 61.8548 177.36 61.9982C177.76 62.1417 178.219 62.2134 178.739 62.2134C179.258 62.2134 179.718 62.1417 180.117 61.9982C180.52 61.8548 180.832 61.6512 181.053 61.3876C181.278 61.1201 181.391 60.8099 181.391 60.4571C181.391 60.1005 181.278 59.7884 181.053 59.5209C180.832 59.2533 180.52 59.0498 180.117 58.9102C179.718 58.7707 179.258 58.7009 178.739 58.7009C178.215 58.7009 177.754 58.7707 177.355 58.9102C176.959 59.0498 176.653 59.2533 176.436 59.5209C176.219 59.7845 176.11 60.0966 176.11 60.4571ZM180.041 65.2839V63.0915C179.63 63.1807 179.196 63.2253 178.739 63.2253C178.301 63.2253 177.874 63.1826 177.459 63.0973V65.2839H180.041ZM185.531 66.6796C185.368 66.6796 185.217 66.6389 185.077 66.5575C184.938 66.4761 184.827 66.3656 184.746 66.226C184.665 66.0864 184.624 65.9352 184.624 65.7724C184.624 65.6134 184.665 65.4661 184.746 65.3304C184.827 65.1909 184.938 65.0804 185.077 64.9989C185.217 64.9175 185.368 64.8768 185.531 64.8768C185.69 64.8768 185.837 64.9175 185.973 64.9989C186.113 65.0804 186.223 65.1909 186.305 65.3304C186.386 65.4661 186.427 65.6134 186.427 65.7724C186.427 65.9352 186.386 66.0864 186.305 66.226C186.223 66.3656 186.113 66.4761 185.973 66.5575C185.837 66.6389 185.69 66.6796 185.531 66.6796ZM88.9317 80.4814H84.7679V83.6333H83.4885V80.4814H79.348V79.423H88.9317V80.4814ZM79.8714 77.7598C80.5498 77.6784 81.1546 77.5175 81.6858 77.2771C82.2169 77.0329 82.6376 76.744 82.9477 76.4106C83.2579 76.0733 83.4343 75.7283 83.4769 75.3755H80.2319V74.352H83.4885V73.1191H84.7679V74.352H88.0362V75.3755H84.7912C84.8338 75.7283 85.0083 76.0714 85.3146 76.4048C85.6247 76.7382 86.0454 77.027 86.5765 77.2713C87.1077 77.5155 87.7105 77.6784 88.3851 77.7598L87.9082 78.7833C87.0514 78.6747 86.2954 78.4441 85.6402 78.0913C84.985 77.7385 84.4849 77.3042 84.1399 76.7886C83.7909 77.3081 83.285 77.7443 82.6221 78.0971C81.963 78.446 81.2012 78.6747 80.3366 78.7833L79.8714 77.7598ZM97.8758 77.2131H99.4343V78.2948H97.8758V83.5984H96.5848V73.1075H97.8758V77.2131ZM89.5831 80.7256C90.8663 80.0859 91.8549 79.3164 92.5489 78.4169C93.2429 77.5136 93.6538 76.4649 93.7818 75.2708H90.153V74.2008H95.0961C95.0883 77.6512 93.4949 80.1596 90.3158 81.7259L89.5831 80.7256ZM108.169 77.2945H109.786V78.3646H108.169V83.6217H106.89V73.1075H108.169V77.2945ZM99.8763 74.7241H102.365V73.2587H103.656V74.7241H106.076V75.7593H99.8763V74.7241ZM100.365 78.9229C100.361 78.446 100.473 78.0195 100.702 77.6435C100.931 77.2635 101.247 76.9689 101.65 76.7595C102.053 76.5502 102.509 76.4455 103.017 76.4455C103.517 76.4455 103.966 76.5502 104.366 76.7595C104.765 76.9689 105.079 77.2635 105.308 77.6435C105.54 78.0195 105.657 78.446 105.657 78.9229C105.657 79.3997 105.54 79.8262 105.308 80.2022C105.079 80.5744 104.765 80.8652 104.366 81.0745C103.966 81.2839 103.517 81.3886 103.017 81.3886C102.509 81.3886 102.053 81.2839 101.65 81.0745C101.247 80.8652 100.931 80.5744 100.702 80.2022C100.473 79.8262 100.361 79.3997 100.365 78.9229ZM101.598 78.9229C101.598 79.202 101.658 79.4482 101.778 79.6614C101.898 79.8708 102.065 80.0336 102.278 80.1499C102.495 80.2623 102.741 80.3185 103.017 80.3185C103.284 80.3185 103.524 80.2623 103.738 80.1499C103.951 80.0375 104.118 79.8746 104.238 79.6614C104.358 79.4482 104.42 79.202 104.424 78.9229C104.42 78.6437 104.356 78.3975 104.232 78.1843C104.112 77.9672 103.945 77.8005 103.732 77.6842C103.523 77.564 103.284 77.5039 103.017 77.5039C102.741 77.5039 102.495 77.564 102.278 77.6842C102.065 77.8005 101.898 77.9672 101.778 78.1843C101.658 78.3975 101.598 78.6437 101.598 78.9229ZM119.032 83.6333H117.741V78.0389H115.938V76.9805H117.741V73.1075H119.032V83.6333ZM110.577 74.0263H115.334V77.8761H111.891V80.0859C112.755 80.0821 113.511 80.0588 114.159 80.0161C114.81 79.9735 115.465 79.8921 116.124 79.7719L116.229 80.8303C115.496 80.9582 114.764 81.0455 114.031 81.092C113.302 81.1385 112.441 81.1637 111.449 81.1676H110.611V76.8293H114.066V75.0731H110.577V74.0263ZM131.582 77.2131H133.14V78.2948H131.582V83.5984H130.291V73.1075H131.582V77.2131ZM123.289 80.7256C124.572 80.0859 125.561 79.3164 126.255 78.4169C126.949 77.5136 127.36 76.4649 127.488 75.2708H123.859V74.2008H128.802C128.794 77.6512 127.201 80.1596 124.022 81.7259L123.289 80.7256ZM136.164 74.0961H140.7V73.2703H141.98V76.7712H139.049V77.5737H143.224V78.5972H133.64V77.5737H137.769V76.7712H134.885V73.2703H136.164V74.0961ZM134.769 79.2601H142.026V81.8073H136.048V82.54H142.317V83.5286H134.78V80.9001H140.758V80.2139H134.769V79.2601ZM140.7 75.8058V75.0382H136.164V75.8058H140.7ZM152.319 77.3062H153.773V78.3762H152.319V83.6217H151.017V73.1075H152.319V77.3062ZM143.782 80.6093C144.263 80.0976 144.649 79.5664 144.94 79.0159C145.23 78.4654 145.446 77.8877 145.585 77.2829C145.729 76.6781 145.818 76.0074 145.853 75.2708H144.201V74.2124H147.086C147.082 75.2204 147.018 76.1276 146.894 76.934C146.77 77.7365 146.539 78.508 146.202 79.2485C145.868 79.989 145.399 80.6869 144.794 81.3421L143.782 80.6093ZM146.76 81.3072C147.241 80.7295 147.623 80.1247 147.906 79.4928C148.192 78.8569 148.4 78.1998 148.528 77.5213C148.656 76.839 148.735 76.0888 148.766 75.2708H147.435V74.2124H149.993C149.989 75.2863 149.931 76.2594 149.819 77.1317C149.71 78.004 149.495 78.8569 149.173 79.6905C148.855 80.5201 148.396 81.2955 147.795 82.0166L146.76 81.3072ZM163.834 82.3423H154.227V81.2839H156.448V78.6263C156.022 78.382 155.69 78.0738 155.454 77.7016C155.221 77.3294 155.107 76.9146 155.111 76.4571C155.111 75.9066 155.276 75.422 155.605 75.0033C155.939 74.5807 156.402 74.255 156.995 74.0263C157.588 73.7937 158.259 73.6774 159.007 73.6774C159.759 73.6774 160.432 73.7937 161.025 74.0263C161.622 74.255 162.087 74.5807 162.421 75.0033C162.758 75.422 162.927 75.9066 162.927 76.4571C162.931 76.9069 162.818 77.3139 162.589 77.6784C162.361 78.0428 162.039 78.3491 161.624 78.5972V81.2839H163.834V82.3423ZM156.379 76.4571C156.379 76.8099 156.487 77.1201 156.704 77.3876C156.925 77.6512 157.233 77.8548 157.629 77.9982C158.028 78.1417 158.488 78.2134 159.007 78.2134C159.527 78.2134 159.986 78.1417 160.385 77.9982C160.789 77.8548 161.101 77.6512 161.322 77.3876C161.547 77.1201 161.659 76.8099 161.659 76.4571C161.659 76.1005 161.547 75.7884 161.322 75.5209C161.101 75.2533 160.789 75.0498 160.385 74.9102C159.986 74.7707 159.527 74.7009 159.007 74.7009C158.484 74.7009 158.022 74.7707 157.623 74.9102C157.228 75.0498 156.921 75.2533 156.704 75.5209C156.487 75.7845 156.379 76.0966 156.379 76.4571ZM160.31 81.2839V79.0915C159.899 79.1807 159.465 79.2253 159.007 79.2253C158.569 79.2253 158.143 79.1826 157.728 79.0973V81.2839H160.31ZM166.3 80.0045C166.303 79.5277 166.35 79.1419 166.439 78.8473C166.528 78.5526 166.652 78.3161 166.811 78.1378C166.974 77.9594 167.191 77.7869 167.463 77.6202C167.738 77.4419 167.953 77.25 168.108 77.0445C168.263 76.839 168.339 76.6006 168.335 76.3292C168.335 76.116 168.285 75.9299 168.184 75.7709C168.087 75.6081 167.951 75.4821 167.777 75.3929C167.602 75.3037 167.408 75.2592 167.195 75.2592C166.997 75.2592 166.811 75.3018 166.637 75.3871C166.462 75.4724 166.319 75.6023 166.207 75.7767C166.094 75.9512 166.032 76.1625 166.02 76.4106H164.567C164.578 75.9066 164.702 75.4782 164.939 75.1254C165.175 74.7687 165.489 74.5012 165.881 74.3229C166.276 74.1407 166.718 74.0496 167.207 74.0496C167.726 74.0496 168.186 74.1426 168.585 74.3287C168.988 74.5109 169.3 74.7726 169.521 75.1138C169.746 75.4549 169.859 75.8523 169.859 76.3059C169.855 76.7595 169.746 77.1492 169.533 77.4748C169.324 77.8005 169.021 78.0816 168.626 78.3181C168.393 78.4615 168.207 78.6069 168.067 78.7542C167.932 78.9015 167.831 79.0741 167.765 79.2718C167.699 79.4695 167.664 79.7137 167.66 80.0045V80.1092H166.3V80.0045ZM166.114 81.7724C166.114 81.6134 166.154 81.4661 166.236 81.3304C166.317 81.1909 166.428 81.0804 166.567 80.9989C166.707 80.9175 166.858 80.8768 167.021 80.8768C167.18 80.8768 167.327 80.9175 167.463 80.9989C167.602 81.0804 167.713 81.1909 167.794 81.3304C167.876 81.4661 167.916 81.6134 167.916 81.7724C167.916 81.9352 167.876 82.0864 167.794 82.226C167.713 82.3656 167.602 82.4761 167.463 82.5575C167.327 82.6389 167.18 82.6796 167.021 82.6796C166.858 82.6796 166.707 82.6389 166.567 82.5575C166.428 82.4761 166.317 82.3656 166.236 82.226C166.154 82.0864 166.114 81.9352 166.114 81.7724Z" fill="#757575"/>
<path d="M87.2673 94.3127L93.2799 102.578C94.3537 104.056 92.6181 105.938 91.0591 104.984L77.5319 96.7182C76.0927 95.8392 76.7159 93.6246 78.4027 93.6246H85.9174C86.4513 93.6246 86.9527 93.8804 87.2673 94.3127V94.3127Z" fill="#F5F5F5"/>
</svg>
