<svg width="250" height="250" viewBox="0 0 250 250" fill="none" xmlns="http://www.w3.org/2000/svg">
<path fill-rule="evenodd" clip-rule="evenodd" d="M40.9206 205.442H79.0394H79.0396C78.8917 205.442 78.7446 205.438 78.5986 205.43C77.5556 205.37 76.5619 205.104 75.6502 204.666C75.0446 204.375 74.475 204.009 73.9514 203.577C73.6073 203.294 73.2832 202.983 72.9815 202.646C72.6684 202.297 72.3793 201.922 72.1176 201.523C71.0827 199.945 70.4719 198 70.4719 195.896V179.601L40.9206 205.442ZM70.4717 179.601H49.6169V178.784C49.6169 178.091 49.274 177.465 48.7168 177.01C48.1596 176.555 47.3952 176.274 46.5451 176.274C45.1616 176.274 43.9924 177.019 43.6067 178.046C43.3686 177.939 43.1019 177.879 42.8209 177.879C41.8255 177.879 41.0064 178.634 40.904 179.601C37.344 179.605 34.1198 181.051 31.7862 183.384C29.4478 185.723 28 188.954 28 192.521C28 199.658 33.7864 205.442 40.9206 205.442" fill="#C2C2C2"/>
<path d="M92.9795 176.848V198.253C92.9795 202.222 95.8679 205.439 99.4327 205.439H121.595C125.16 205.439 128.048 202.222 128.048 198.253V188.273H118.364C116.821 188.273 115.425 187.578 114.415 186.454C113.406 185.33 112.782 183.775 112.782 182.056C112.782 178.617 115.28 175.834 118.364 175.834H128.024C127.55 165.518 119.892 157.315 110.515 157.315C105.672 157.315 101.29 159.501 98.1158 163.037C94.9416 166.57 92.9795 171.454 92.9795 176.848Z" fill="#D9DEFF"/>
<path d="M153.318 205.263C152.787 205.38 152.239 205.439 151.677 205.439H79.0394C74.3055 205.439 70.4717 201.165 70.4717 195.893V169.435C70.4717 141.879 90.7075 118.948 115.442 119C135.361 119.043 152.237 133.54 158.063 153.578C154.561 157.396 152.413 162.506 152.413 168.094V203.806C152.413 204.447 152.782 204.999 153.318 205.263Z" fill="#F5F5F5"/>
<path d="M128.048 176.848V198.253C128.048 202.222 125.16 205.439 121.595 205.439H99.4327C95.8679 205.439 92.9795 202.222 92.9795 198.253V188.273H102.664C104.207 188.273 105.602 187.578 106.612 186.454C107.622 185.33 108.246 183.775 108.246 182.056C108.246 178.617 105.748 175.834 102.664 175.834H93.0033C93.4772 165.518 101.135 157.315 110.513 157.315C115.356 157.315 119.738 159.501 122.912 163.037C126.086 166.57 128.048 171.454 128.048 176.848Z" fill="#A8A8A8"/>
<path fill-rule="evenodd" clip-rule="evenodd" d="M206.719 205.439C215.089 205.439 222.01 198.708 222 190.337C221.995 185.818 220.161 181.729 217.199 178.767C214.232 175.8 210.134 173.966 205.607 173.966H200.683C198.978 173.966 197.437 173.276 196.32 172.159C195.204 171.042 194.513 169.499 194.513 167.797C194.513 156.507 185.624 147.292 174.461 146.77C167.996 146.468 162.119 149.159 158.064 153.581C158.064 153.581 158.064 153.581 158.064 153.581C154.561 157.398 152.413 162.508 152.413 168.097V203.808C152.413 204.449 152.782 205.001 153.318 205.265C153.537 205.377 153.782 205.439 154.044 205.439H206.719Z" fill="#A8A8A8"/>
<path d="M112.791 168.244C113.412 168.244 113.915 167.741 113.915 167.121C113.915 166.5 113.412 165.997 112.791 165.997C112.171 165.997 111.667 166.5 111.667 167.121C111.667 167.741 112.171 168.244 112.791 168.244Z" fill="white"/>
<path d="M118.514 168.244C119.134 168.244 119.638 167.741 119.638 167.121C119.638 166.5 119.134 165.997 118.514 165.997C117.893 165.997 117.39 166.5 117.39 167.121C117.39 167.741 117.893 168.244 118.514 168.244Z" fill="white"/>
<path d="M115.651 171.288C114.601 171.288 113.873 170.733 113.827 170.697C113.596 170.516 113.554 170.181 113.735 169.95C113.916 169.719 114.247 169.676 114.48 169.854C114.53 169.892 115.585 170.662 116.856 169.83C117.104 169.669 117.433 169.738 117.595 169.985C117.756 170.231 117.687 170.562 117.44 170.723C116.794 171.147 116.182 171.288 115.651 171.288Z" fill="white"/>
<path d="M166.031 161.668C166.896 161.668 167.598 160.966 167.598 160.101C167.598 159.235 166.896 158.534 166.031 158.534C165.166 158.534 164.464 159.235 164.464 160.101C164.464 160.966 165.166 161.668 166.031 161.668Z" fill="white"/>
<path d="M174.006 161.668C174.871 161.668 175.573 160.966 175.573 160.101C175.573 159.235 174.871 158.534 174.006 158.534C173.14 158.534 172.439 159.235 172.439 160.101C172.439 160.966 173.14 161.668 174.006 161.668Z" fill="white"/>
<path d="M40.6183 188.471C41.3403 188.471 41.9256 187.886 41.9256 187.163C41.9256 186.441 41.3403 185.856 40.6183 185.856C39.8963 185.856 39.311 186.441 39.311 187.163C39.311 187.886 39.8963 188.471 40.6183 188.471Z" fill="#8F8F8F"/>
<path d="M47.2787 188.471C48.0007 188.471 48.586 187.886 48.586 187.163C48.586 186.441 48.0007 185.856 47.2787 185.856C46.5567 185.856 45.9714 186.441 45.9714 187.163C45.9714 187.886 46.5567 188.471 47.2787 188.471Z" fill="#8F8F8F"/>
<g opacity="0.8">
<path opacity="0.8" d="M46.1355 190.295V190.592C46.1355 191.654 45.1378 192.519 43.9115 192.519C42.685 192.519 41.6873 191.654 41.6873 190.592V190.295C41.6873 189.947 41.9706 189.661 42.3207 189.661H45.5045C45.8546 189.661 46.1377 189.945 46.1377 190.295H46.1355Z" fill="#8F8F8F"/>
</g>
<path fill-rule="evenodd" clip-rule="evenodd" d="M119.211 140.246C119.803 140.246 120.283 140.725 120.283 141.317V141.82C120.283 142.244 120.791 142.941 121.907 142.941C123.023 142.941 123.531 142.244 123.531 141.82V141.317C123.531 140.725 124.011 140.246 124.602 140.246C125.194 140.246 125.674 140.725 125.674 141.317V141.82C125.674 143.819 123.772 145.085 121.907 145.085C120.041 145.085 118.14 143.819 118.14 141.82V141.317C118.14 140.725 118.619 140.246 119.211 140.246Z" fill="#8F8F8F"/>
<path fill-rule="evenodd" clip-rule="evenodd" d="M133.991 140.246C134.583 140.246 135.063 140.725 135.063 141.317V141.82C135.063 142.244 135.571 142.941 136.687 142.941C137.803 142.941 138.311 142.244 138.311 141.82V141.317C138.311 140.725 138.791 140.246 139.382 140.246C139.974 140.246 140.454 140.725 140.454 141.317V141.82C140.454 143.819 138.553 145.085 136.687 145.085C134.821 145.085 132.92 143.819 132.92 141.82V141.317C132.92 140.725 133.399 140.246 133.991 140.246Z" fill="#8F8F8F"/>
<path d="M133.201 147.818V148.321C133.201 150.121 131.51 151.585 129.434 151.585C127.357 151.585 125.667 150.121 125.667 148.321V147.818C125.667 147.228 126.145 146.747 126.738 146.747H132.129C132.722 146.747 133.201 147.228 133.201 147.818Z" fill="#8F8F8F"/>
<rect x="41" y="44" width="167.4" height="52.9329" rx="26.4665" fill="#F5F5F5"/>
<path d="M65.3736 57.8752C65.9009 57.8752 66.37 58.0283 66.781 58.3346C67.1919 58.637 67.5137 59.0693 67.7463 59.6314C67.9828 60.1897 68.103 60.841 68.1069 61.5854C68.103 62.3336 67.9828 62.9888 67.7463 63.551C67.5137 64.1131 67.1919 64.5473 66.781 64.8536C66.37 65.156 65.9009 65.3072 65.3736 65.3072C64.8425 65.3072 64.3695 65.156 63.9547 64.8536C63.5398 64.5473 63.2161 64.1131 62.9835 63.551C62.7548 62.9888 62.6404 62.3336 62.6404 61.5854C62.6404 60.841 62.7548 60.1897 62.9835 59.6314C63.2161 59.0693 63.5398 58.637 63.9547 58.3346C64.3695 58.0283 64.8425 57.8752 65.3736 57.8752ZM63.8849 61.5854C63.8849 62.1126 63.9469 62.5701 64.071 62.9578C64.195 63.3416 64.3695 63.6343 64.5944 63.8359C64.8192 64.0375 65.079 64.1403 65.3736 64.1441C65.6722 64.1403 65.9319 64.0375 66.1529 63.8359C66.3778 63.6343 66.5522 63.3416 66.6763 62.9578C66.8003 62.574 66.8624 62.1165 66.8624 61.5854C66.8624 61.0581 66.8003 60.6026 66.6763 60.2188C66.5522 59.8349 66.3778 59.5422 66.1529 59.3406C65.928 59.139 65.6683 59.0382 65.3736 59.0382C65.079 59.0382 64.8192 59.141 64.5944 59.3465C64.3695 59.5481 64.195 59.8408 64.071 60.2246C63.9469 60.6045 63.8849 61.0581 63.8849 61.5854ZM69.4909 57.1075H70.7819V61.1434H72.3986V62.2367H70.7819V67.6217H69.4909V57.1075ZM76.8299 58.9336C76.8299 59.3717 76.9288 59.7981 77.1265 60.2129C77.3281 60.6239 77.6208 60.9903 78.0046 61.3121C78.3923 61.6338 78.8576 61.88 79.4003 62.0506L78.7374 63.0509C78.152 62.8609 77.6441 62.5798 77.2137 62.2076C76.7834 61.8316 76.4442 61.3877 76.1961 60.8759C75.9557 61.4303 75.6126 61.913 75.1667 62.3239C74.7248 62.7349 74.1975 63.0431 73.585 63.2486L72.922 62.2483C73.4686 62.0622 73.9378 61.7986 74.3293 61.4574C74.7209 61.1124 75.0175 60.7228 75.2191 60.2885C75.4207 59.8505 75.5234 59.3988 75.5273 58.9336V58.8056H73.2593V57.7705H79.0398V58.8056H76.8299V58.9336ZM74.4224 63.9348H81.5985V67.6217H80.2959V64.9816H74.4224V63.9348ZM80.2959 57.1075H81.5985V63.4463H80.2959V57.1075ZM95.5555 63.0392H85.9601V61.9808H95.5555V63.0392ZM87.0766 65.6794C87.0766 65.2762 87.222 64.9312 87.5128 64.6443C87.8074 64.3574 88.2281 64.1403 88.7747 63.9929C89.3253 63.8456 89.9805 63.772 90.7403 63.772C91.4925 63.772 92.1418 63.8456 92.6885 63.9929C93.2351 64.1403 93.6538 64.3574 93.9446 64.6443C94.2354 64.9312 94.3808 65.2762 94.3808 65.6794C94.3808 66.0904 94.2354 66.4393 93.9446 66.7262C93.6538 67.0169 93.2351 67.236 92.6885 67.3833C92.1457 67.5345 91.4963 67.6101 90.7403 67.6101C89.9805 67.6101 89.3253 67.5345 88.7747 67.3833C88.2281 67.236 87.8074 67.0169 87.5128 66.7262C87.222 66.4354 87.0766 66.0865 87.0766 65.6794ZM87.1348 57.4448H94.3924V58.4916H88.4258V60.1199H94.4505V61.155H87.1348V57.4448ZM88.3909 65.6794C88.387 65.9896 88.5848 66.2222 88.9841 66.3773C89.3834 66.5323 89.9688 66.6099 90.7403 66.6099C91.5002 66.6099 92.0798 66.5323 92.4791 66.3773C92.8823 66.2222 93.0859 65.9896 93.0897 65.6794C93.082 65.3809 92.8765 65.1541 92.4733 64.999C92.0701 64.8401 91.4925 64.7606 90.7403 64.7606C89.9766 64.7606 89.3931 64.8401 88.9899 64.999C88.5867 65.1541 88.387 65.3809 88.3909 65.6794ZM105.849 63.8417H96.2417V62.795H100.405V61.9227H97.4629V59.1313H103.371V58.352H97.428V57.3401H104.662V60.0734H98.7423V60.9108H104.872V61.9227H101.685V62.795H105.849V63.8417ZM97.3117 64.5047H104.721V67.552H103.418V65.5282H97.3117V64.5047ZM112.664 61.4458H110.71V62.638C111.641 62.5992 112.498 62.5391 113.281 62.4577L113.374 63.3881C112.362 63.5277 111.305 63.6246 110.204 63.6789C109.107 63.7293 107.962 63.7565 106.768 63.7603L106.593 62.7252C107.83 62.7174 108.768 62.7039 109.408 62.6845V61.4458H107.5V57.7589H112.583V58.8056H108.803V60.4107H112.664V61.4458ZM108.268 64.4233H109.571V66.3656H115.619V67.4124H108.268V64.4233ZM114.013 57.1075H115.316V65.0048H114.013V57.1075ZM122.644 57.4448C123.171 57.4448 123.646 57.5476 124.068 57.753C124.491 57.9546 124.822 58.2357 125.063 58.5963C125.307 58.9568 125.431 59.3639 125.435 59.8175C125.431 60.275 125.307 60.684 125.063 61.0445C124.822 61.4012 124.491 61.6823 124.068 61.8878C123.646 62.0894 123.171 62.1902 122.644 62.1902C122.112 62.1902 121.634 62.0894 121.207 61.8878C120.785 61.6823 120.453 61.4012 120.213 61.0445C119.972 60.684 119.852 60.275 119.852 59.8175C119.852 59.3639 119.972 58.9568 120.213 58.5963C120.453 58.2357 120.785 57.9546 121.207 57.753C121.634 57.5476 122.112 57.4448 122.644 57.4448ZM121.108 59.8175C121.108 60.085 121.174 60.3196 121.306 60.5212C121.438 60.7189 121.62 60.872 121.853 60.9806C122.085 61.0891 122.349 61.1434 122.644 61.1434C122.938 61.1434 123.2 61.0891 123.429 60.9806C123.661 60.872 123.843 60.7189 123.975 60.5212C124.111 60.3196 124.179 60.085 124.179 59.8175C124.179 59.5577 124.111 59.329 123.975 59.1313C123.843 58.9336 123.661 58.7824 123.429 58.6777C123.2 58.5691 122.938 58.5149 122.644 58.5149C122.349 58.5149 122.085 58.5691 121.853 58.6777C121.62 58.7824 121.438 58.9336 121.306 59.1313C121.174 59.329 121.108 59.5577 121.108 59.8175ZM121.446 62.8764H128.424V65.6213H122.737V66.4703H128.738V67.4938H121.469V64.6675H127.133V63.8883H121.446V62.8764ZM127.121 57.1075H128.424V62.4228H127.121V57.1075ZM138.764 63.3533H137.473V60.7829H135.682V59.7245H137.473V57.1075H138.764V63.3533ZM129.924 62.3065C130.471 62.1204 130.938 61.8509 131.326 61.4981C131.717 61.1453 132.012 60.746 132.21 60.3002C132.408 59.8543 132.506 59.3949 132.506 58.9219V58.8405H130.32V57.7937H135.996V58.8405H133.821V58.9103C133.821 59.3445 133.916 59.7671 134.106 60.1781C134.296 60.5851 134.577 60.9515 134.949 61.2772C135.321 61.5989 135.771 61.849 136.298 62.0273L135.647 63.0509C135.077 62.857 134.584 62.5721 134.17 62.196C133.755 61.8161 133.427 61.3721 133.187 60.8643C132.95 61.4381 132.613 61.9382 132.175 62.3646C131.737 62.7911 131.212 63.1129 130.599 63.33L129.924 62.3065ZM131.634 65.6213C131.63 65.2064 131.772 64.8497 132.059 64.5512C132.346 64.2488 132.756 64.0181 133.291 63.8592C133.83 63.7002 134.468 63.6208 135.205 63.6208C135.945 63.6208 136.585 63.7002 137.124 63.8592C137.663 64.0181 138.076 64.2469 138.363 64.5454C138.653 64.8439 138.799 65.2025 138.799 65.6213C138.799 66.04 138.653 66.3986 138.363 66.6971C138.076 66.9956 137.663 67.2244 137.124 67.3833C136.585 67.5423 135.945 67.6217 135.205 67.6217C134.468 67.6217 133.83 67.5423 133.291 67.3833C132.756 67.2244 132.346 66.9937 132.059 66.6913C131.772 66.3928 131.63 66.0361 131.634 65.6213ZM132.913 65.6213C132.91 65.943 133.103 66.1912 133.495 66.3656C133.89 66.5362 134.449 66.6215 135.17 66.6215C135.922 66.6215 136.5 66.5362 136.903 66.3656C137.306 66.195 137.508 65.9469 137.508 65.6213C137.508 65.2956 137.308 65.0455 136.909 64.8711C136.513 64.6966 135.945 64.6094 135.205 64.6094C134.472 64.6094 133.906 64.6966 133.507 64.8711C133.107 65.0455 132.91 65.2956 132.913 65.6213ZM148.999 67.6334H147.696V57.1075H148.999V67.6334ZM140.59 61.5854C140.59 60.8449 140.706 60.1936 140.939 59.6314C141.171 59.0693 141.495 58.637 141.91 58.3346C142.329 58.0283 142.804 57.8752 143.335 57.8752C143.858 57.8752 144.327 58.0283 144.742 58.3346C145.161 58.637 145.488 59.0693 145.725 59.6314C145.961 60.1936 146.08 60.8449 146.08 61.5854C146.08 62.3336 145.961 62.9888 145.725 63.551C145.488 64.1131 145.161 64.5473 144.742 64.8536C144.327 65.156 143.858 65.3072 143.335 65.3072C142.804 65.3072 142.329 65.156 141.91 64.8536C141.495 64.5473 141.171 64.1131 140.939 63.551C140.706 62.9888 140.59 62.3336 140.59 61.5854ZM141.834 61.5854C141.834 62.1165 141.896 62.574 142.02 62.9578C142.148 63.3416 142.325 63.6343 142.55 63.8359C142.774 64.0375 143.036 64.1403 143.335 64.1441C143.629 64.1403 143.889 64.0375 144.114 63.8359C144.339 63.6343 144.513 63.3416 144.637 62.9578C144.761 62.574 144.823 62.1165 144.823 61.5854C144.823 61.0581 144.761 60.6045 144.637 60.2246C144.513 59.8408 144.339 59.5481 144.114 59.3465C143.889 59.141 143.629 59.0382 143.335 59.0382C143.036 59.0382 142.774 59.141 142.55 59.3465C142.325 59.5481 142.148 59.8408 142.02 60.2246C141.896 60.6045 141.834 61.0581 141.834 61.5854ZM155.756 64.3884H157.14V63.2602H158.338V66.5982C158.738 66.4315 159.071 66.2105 159.339 65.9353C159.61 65.66 159.812 65.3576 159.943 65.0281C160.075 64.6985 160.141 64.3613 160.141 64.0162V63.1788H161.432V64.0162C161.428 64.3923 161.492 64.7509 161.624 65.0921C161.76 65.4293 161.967 65.7317 162.246 65.9993C162.525 66.2629 162.874 66.4664 163.293 66.6099L162.63 67.5752C161.75 67.2573 161.132 66.668 160.775 65.8073C160.593 66.2067 160.349 66.5575 160.042 66.8599C159.74 67.1662 159.377 67.4046 158.955 67.5752L158.338 66.6622V67.4938H154.547V63.2602H155.756V64.3884ZM153.512 59.9803C153.512 59.5073 153.63 59.0867 153.866 58.7184C154.107 58.3462 154.438 58.0574 154.861 57.8519C155.283 57.6425 155.76 57.5379 156.291 57.5379C156.737 57.5379 157.148 57.6173 157.524 57.7763C157.9 57.9314 158.214 58.1524 158.466 58.4393C158.722 58.7261 158.895 59.0576 158.984 59.4337H160.885V57.1075H162.177V62.6787H160.885V60.5037H158.99C158.904 60.8875 158.736 61.2268 158.484 61.5214C158.232 61.8161 157.916 62.0448 157.536 62.2076C157.156 62.3666 156.741 62.4461 156.291 62.4461C155.76 62.4461 155.283 62.3433 154.861 62.1378C154.438 61.9285 154.107 61.6377 153.866 61.2655C153.63 60.8895 153.512 60.4611 153.512 59.9803ZM154.744 59.9803C154.744 60.2595 154.81 60.5057 154.942 60.7189C155.074 60.9321 155.256 61.0969 155.489 61.2132C155.725 61.3295 155.993 61.3877 156.291 61.3877C156.586 61.3877 156.848 61.3295 157.076 61.2132C157.305 61.0969 157.485 60.9321 157.617 60.7189C157.749 60.5057 157.815 60.2595 157.815 59.9803C157.815 59.7089 157.749 59.4686 157.617 59.2592C157.485 59.0499 157.303 58.889 157.071 58.7765C156.842 58.6641 156.582 58.6079 156.291 58.6079C155.993 58.6079 155.725 58.6641 155.489 58.7765C155.256 58.889 155.074 59.0499 154.942 59.2592C154.81 59.4686 154.744 59.7089 154.744 59.9803ZM157.14 66.5052V65.3537H155.756V66.5052H157.14ZM166.538 57.8752C167.007 57.8752 167.432 58.0012 167.812 58.2532C168.192 58.5052 168.502 58.8657 168.742 59.3348C168.982 59.8001 169.134 60.3486 169.196 60.9806H171.202V57.1075H172.481V67.6334H171.202V62.0273H169.207C169.161 62.6942 169.019 63.2757 168.783 63.772C168.546 64.2643 168.234 64.6443 167.846 64.9118C167.459 65.1754 167.023 65.3072 166.538 65.3072C166.011 65.3072 165.542 65.156 165.131 64.8536C164.724 64.5473 164.406 64.1131 164.177 63.551C163.952 62.9888 163.84 62.3336 163.84 61.5854C163.84 60.841 163.952 60.1897 164.177 59.6314C164.406 59.0693 164.726 58.637 165.137 58.3346C165.547 58.0283 166.015 57.8752 166.538 57.8752ZM165.084 61.5854C165.084 62.1165 165.144 62.574 165.264 62.9578C165.385 63.3416 165.553 63.6343 165.77 63.8359C165.991 64.0375 166.247 64.1403 166.538 64.1441C166.829 64.1403 167.085 64.0375 167.306 63.8359C167.527 63.6343 167.697 63.3416 167.817 62.9578C167.941 62.574 168.004 62.1165 168.004 61.5854C168.004 61.0581 167.941 60.6026 167.817 60.2188C167.697 59.8349 167.527 59.5422 167.306 59.3406C167.085 59.139 166.829 59.0382 166.538 59.0382C166.247 59.0382 165.991 59.141 165.77 59.3465C165.553 59.5481 165.385 59.8408 165.264 60.2246C165.144 60.6045 165.084 61.0581 165.084 61.5854ZM183.565 66.3424H173.958V65.284H176.18V62.6263C175.753 62.3821 175.422 62.0739 175.186 61.7017C174.953 61.3295 174.839 60.9147 174.842 60.4572C174.842 59.9067 175.007 59.4221 175.337 59.0033C175.67 58.5808 176.133 58.2551 176.727 58.0264C177.32 57.7937 177.99 57.6774 178.739 57.6774C179.491 57.6774 180.163 57.7937 180.757 58.0264C181.354 58.2551 181.819 58.5808 182.152 59.0033C182.49 59.4221 182.658 59.9067 182.658 60.4572C182.662 60.9069 182.55 61.314 182.321 61.6784C182.092 62.0429 181.77 62.3491 181.356 62.5973V65.284H183.565V66.3424ZM176.11 60.4572C176.11 60.81 176.219 61.1201 176.436 61.3877C176.657 61.6513 176.965 61.8548 177.36 61.9983C177.76 62.1417 178.219 62.2134 178.739 62.2134C179.258 62.2134 179.718 62.1417 180.117 61.9983C180.52 61.8548 180.832 61.6513 181.053 61.3877C181.278 61.1201 181.391 60.81 181.391 60.4572C181.391 60.1005 181.278 59.7884 181.053 59.5209C180.832 59.2534 180.52 59.0499 180.117 58.9103C179.718 58.7707 179.258 58.7009 178.739 58.7009C178.215 58.7009 177.754 58.7707 177.355 58.9103C176.959 59.0499 176.653 59.2534 176.436 59.5209C176.219 59.7845 176.11 60.0966 176.11 60.4572ZM180.041 65.284V63.0916C179.63 63.1807 179.196 63.2253 178.739 63.2253C178.301 63.2253 177.874 63.1827 177.459 63.0974V65.284H180.041ZM185.531 66.6797C185.368 66.6797 185.217 66.6389 185.077 66.5575C184.938 66.4761 184.827 66.3656 184.746 66.2261C184.665 66.0865 184.624 65.9353 184.624 65.7725C184.624 65.6135 184.665 65.4662 184.746 65.3305C184.827 65.1909 184.938 65.0804 185.077 64.999C185.217 64.9176 185.368 64.8769 185.531 64.8769C185.69 64.8769 185.837 64.9176 185.973 64.999C186.113 65.0804 186.223 65.1909 186.305 65.3305C186.386 65.4662 186.427 65.6135 186.427 65.7725C186.427 65.9353 186.386 66.0865 186.305 66.2261C186.223 66.3656 186.113 66.4761 185.973 66.5575C185.837 66.6389 185.69 66.6797 185.531 66.6797ZM88.9317 80.4814H84.7679V83.6334H83.4885V80.4814H79.348V79.423H88.9317V80.4814ZM79.8714 77.7598C80.5498 77.6784 81.1546 77.5175 81.6858 77.2772C82.2169 77.0329 82.6376 76.7441 82.9477 76.4107C83.2579 76.0734 83.4343 75.7283 83.4769 75.3755H80.2319V74.352H83.4885V73.1192H84.7679V74.352H88.0362V75.3755H84.7912C84.8338 75.7283 85.0083 76.0714 85.3146 76.4049C85.6247 76.7383 86.0454 77.0271 86.5765 77.2713C87.1077 77.5156 87.7105 77.6784 88.3851 77.7598L87.9082 78.7833C87.0514 78.6748 86.2954 78.4441 85.6402 78.0913C84.985 77.7385 84.4849 77.3043 84.1399 76.7887C83.7909 77.3082 83.285 77.7443 82.6221 78.0971C81.963 78.4461 81.2012 78.6748 80.3366 78.7833L79.8714 77.7598ZM97.8758 77.2132H99.4343V78.2949H97.8758V83.5985H96.5848V73.1075H97.8758V77.2132ZM89.5831 80.7257C90.8663 80.086 91.8549 79.3164 92.5489 78.417C93.2429 77.5137 93.6538 76.4649 93.7818 75.2709H90.153V74.2008H95.0961C95.0883 77.6513 93.4949 80.1597 90.3158 81.7259L89.5831 80.7257ZM108.169 77.2946H109.786V78.3646H108.169V83.6217H106.89V73.1075H108.169V77.2946ZM99.8763 74.7242H102.365V73.2587H103.656V74.7242H106.076V75.7593H99.8763V74.7242ZM100.365 78.9229C100.361 78.4461 100.473 78.0196 100.702 77.6435C100.931 77.2636 101.247 76.9689 101.65 76.7596C102.053 76.5502 102.509 76.4456 103.017 76.4456C103.517 76.4456 103.966 76.5502 104.366 76.7596C104.765 76.9689 105.079 77.2636 105.308 77.6435C105.54 78.0196 105.657 78.4461 105.657 78.9229C105.657 79.3998 105.54 79.8262 105.308 80.2023C105.079 80.5745 104.765 80.8653 104.366 81.0746C103.966 81.284 103.517 81.3886 103.017 81.3886C102.509 81.3886 102.053 81.284 101.65 81.0746C101.247 80.8653 100.931 80.5745 100.702 80.2023C100.473 79.8262 100.361 79.3998 100.365 78.9229ZM101.598 78.9229C101.598 79.2021 101.658 79.4482 101.778 79.6615C101.898 79.8708 102.065 80.0337 102.278 80.15C102.495 80.2624 102.741 80.3186 103.017 80.3186C103.284 80.3186 103.524 80.2624 103.738 80.15C103.951 80.0375 104.118 79.8747 104.238 79.6615C104.358 79.4482 104.42 79.2021 104.424 78.9229C104.42 78.6438 104.356 78.3976 104.232 78.1844C104.112 77.9673 103.945 77.8005 103.732 77.6842C103.523 77.5641 103.284 77.504 103.017 77.504C102.741 77.504 102.495 77.5641 102.278 77.6842C102.065 77.8005 101.898 77.9673 101.778 78.1844C101.658 78.3976 101.598 78.6438 101.598 78.9229ZM119.032 83.6334H117.741V78.039H115.938V76.9806H117.741V73.1075H119.032V83.6334ZM110.577 74.0264H115.334V77.8761H111.891V80.086C112.755 80.0821 113.511 80.0589 114.159 80.0162C114.81 79.9736 115.465 79.8921 116.124 79.772L116.229 80.8304C115.496 80.9583 114.764 81.0455 114.031 81.0921C113.302 81.1386 112.441 81.1638 111.449 81.1677H110.611V76.8294H114.066V75.0731H110.577V74.0264ZM131.582 77.2132H133.14V78.2949H131.582V83.5985H130.291V73.1075H131.582V77.2132ZM123.289 80.7257C124.572 80.086 125.561 79.3164 126.255 78.417C126.949 77.5137 127.36 76.4649 127.488 75.2709H123.859V74.2008H128.802C128.794 77.6513 127.201 80.1597 124.022 81.7259L123.289 80.7257ZM136.164 74.0961H140.7V73.2704H141.98V76.7712H139.049V77.5737H143.224V78.5973H133.64V77.5737H137.769V76.7712H134.885V73.2704H136.164V74.0961ZM134.769 79.2602H142.026V81.8073H136.048V82.5401H142.317V83.5287H134.78V80.9001H140.758V80.2139H134.769V79.2602ZM140.7 75.8059V75.0382H136.164V75.8059H140.7ZM152.319 77.3062H153.773V78.3763H152.319V83.6217H151.017V73.1075H152.319V77.3062ZM143.782 80.6094C144.263 80.0976 144.649 79.5665 144.94 79.016C145.23 78.4654 145.446 77.8878 145.585 77.283C145.729 76.6782 145.818 76.0075 145.853 75.2709H144.201V74.2125H147.086C147.082 75.2205 147.018 76.1277 146.894 76.9341C146.77 77.7366 146.539 78.5081 146.202 79.2486C145.868 79.9891 145.399 80.6869 144.794 81.3421L143.782 80.6094ZM146.76 81.3072C147.241 80.7296 147.623 80.1248 147.906 79.4928C148.192 78.857 148.4 78.1999 148.528 77.5214C148.656 76.8391 148.735 76.0889 148.766 75.2709H147.435V74.2125H149.993C149.989 75.2864 149.931 76.2595 149.819 77.1318C149.71 78.0041 149.495 78.857 149.173 79.6905C148.855 80.5202 148.396 81.2956 147.795 82.0167L146.76 81.3072ZM163.834 82.3424H154.227V81.284H156.448V78.6263C156.022 78.3821 155.69 78.0739 155.454 77.7017C155.221 77.3295 155.107 76.9147 155.111 76.4572C155.111 75.9067 155.276 75.4221 155.605 75.0033C155.939 74.5808 156.402 74.2551 156.995 74.0264C157.588 73.7937 158.259 73.6774 159.007 73.6774C159.759 73.6774 160.432 73.7937 161.025 74.0264C161.622 74.2551 162.087 74.5808 162.421 75.0033C162.758 75.4221 162.927 75.9067 162.927 76.4572C162.931 76.9069 162.818 77.314 162.589 77.6784C162.361 78.0429 162.039 78.3491 161.624 78.5973V81.284H163.834V82.3424ZM156.379 76.4572C156.379 76.81 156.487 77.1201 156.704 77.3877C156.925 77.6513 157.233 77.8548 157.629 77.9983C158.028 78.1417 158.488 78.2134 159.007 78.2134C159.527 78.2134 159.986 78.1417 160.385 77.9983C160.789 77.8548 161.101 77.6513 161.322 77.3877C161.547 77.1201 161.659 76.81 161.659 76.4572C161.659 76.1005 161.547 75.7884 161.322 75.5209C161.101 75.2534 160.789 75.0499 160.385 74.9103C159.986 74.7707 159.527 74.7009 159.007 74.7009C158.484 74.7009 158.022 74.7707 157.623 74.9103C157.228 75.0499 156.921 75.2534 156.704 75.5209C156.487 75.7845 156.379 76.0966 156.379 76.4572ZM160.31 81.284V79.0916C159.899 79.1807 159.465 79.2253 159.007 79.2253C158.569 79.2253 158.143 79.1827 157.728 79.0974V81.284H160.31ZM166.3 80.0046C166.303 79.5277 166.35 79.142 166.439 78.8473C166.528 78.5527 166.652 78.3162 166.811 78.1378C166.974 77.9595 167.191 77.787 167.463 77.6203C167.738 77.4419 167.953 77.25 168.108 77.0445C168.263 76.8391 168.339 76.6006 168.335 76.3293C168.335 76.116 168.285 75.9299 168.184 75.771C168.087 75.6081 167.951 75.4821 167.777 75.393C167.602 75.3038 167.408 75.2592 167.195 75.2592C166.997 75.2592 166.811 75.3019 166.637 75.3872C166.462 75.4725 166.319 75.6023 166.207 75.7768C166.094 75.9513 166.032 76.1625 166.02 76.4107H164.567C164.578 75.9067 164.702 75.4783 164.939 75.1255C165.175 74.7688 165.489 74.5013 165.881 74.3229C166.276 74.1407 166.718 74.0496 167.207 74.0496C167.726 74.0496 168.186 74.1427 168.585 74.3288C168.988 74.511 169.3 74.7727 169.521 75.1138C169.746 75.455 169.859 75.8524 169.859 76.306C169.855 76.7596 169.746 77.1492 169.533 77.4749C169.324 77.8005 169.021 78.0816 168.626 78.3181C168.393 78.4616 168.207 78.6069 168.067 78.7543C167.932 78.9016 167.831 79.0741 167.765 79.2718C167.699 79.4696 167.664 79.7138 167.66 80.0046V80.1093H166.3V80.0046ZM166.114 81.7725C166.114 81.6135 166.154 81.4662 166.236 81.3305C166.317 81.1909 166.428 81.0804 166.567 80.999C166.707 80.9176 166.858 80.8769 167.021 80.8769C167.18 80.8769 167.327 80.9176 167.463 80.999C167.602 81.0804 167.713 81.1909 167.794 81.3305C167.876 81.4662 167.916 81.6135 167.916 81.7725C167.916 81.9353 167.876 82.0865 167.794 82.2261C167.713 82.3656 167.602 82.4761 167.463 82.5575C167.327 82.6389 167.18 82.6797 167.021 82.6797C166.858 82.6797 166.707 82.6389 166.567 82.5575C166.428 82.4761 166.317 82.3656 166.236 82.2261C166.154 82.0865 166.114 81.9353 166.114 81.7725Z" fill="#757575"/>
<path d="M87.2673 94.3127L93.2799 102.578C94.3537 104.056 92.6181 105.938 91.0591 104.984L77.5319 96.7182C76.0927 95.8392 76.7159 93.6246 78.4027 93.6246H85.9174C86.4513 93.6246 86.9527 93.8804 87.2673 94.3127V94.3127Z" fill="#F5F5F5"/>
</svg>
