<svg width="250" height="250" viewBox="0 0 250 250" fill="none" xmlns="http://www.w3.org/2000/svg">
<path fill-rule="evenodd" clip-rule="evenodd" d="M40.9206 205.442H79.0394H79.0396C78.8917 205.442 78.7446 205.438 78.5986 205.43C77.5556 205.37 76.5619 205.104 75.6502 204.666C75.0446 204.375 74.475 204.009 73.9514 203.577C73.6073 203.294 73.2832 202.983 72.9815 202.646C72.6684 202.297 72.3793 201.922 72.1176 201.523C71.0827 199.945 70.4719 198 70.4719 195.896V179.601L40.9206 205.442ZM70.4717 179.601H49.6169V178.784C49.6169 178.091 49.274 177.465 48.7168 177.01C48.1596 176.555 47.3952 176.274 46.5451 176.274C45.1616 176.274 43.9924 177.019 43.6067 178.046C43.3686 177.939 43.1019 177.879 42.8209 177.879C41.8255 177.879 41.0064 178.634 40.904 179.601C37.344 179.605 34.1198 181.051 31.7862 183.384C29.4478 185.723 28 188.954 28 192.521C28 199.658 33.7864 205.442 40.9206 205.442" fill="#C2C2C2"/>
<path d="M92.9795 176.848V198.253C92.9795 202.222 95.8679 205.439 99.4327 205.439H121.595C125.16 205.439 128.048 202.222 128.048 198.253V188.273H118.364C116.821 188.273 115.425 187.578 114.415 186.454C113.406 185.33 112.782 183.775 112.782 182.056C112.782 178.617 115.28 175.834 118.364 175.834H128.024C127.55 165.518 119.892 157.315 110.515 157.315C105.672 157.315 101.29 159.501 98.1158 163.037C94.9416 166.57 92.9795 171.454 92.9795 176.848Z" fill="#D9DEFF"/>
<path d="M153.318 205.263C152.787 205.38 152.239 205.439 151.677 205.439H79.0394C74.3055 205.439 70.4717 201.165 70.4717 195.893V169.435C70.4717 141.879 90.7075 118.948 115.442 119C135.361 119.043 152.237 133.54 158.063 153.578C154.561 157.396 152.413 162.506 152.413 168.094V203.806C152.413 204.447 152.782 204.999 153.318 205.263Z" fill="#F5F5F5"/>
<path d="M128.048 176.848V198.253C128.048 202.222 125.16 205.439 121.595 205.439H99.4327C95.8679 205.439 92.9795 202.222 92.9795 198.253V188.273H102.664C104.207 188.273 105.602 187.578 106.612 186.454C107.622 185.33 108.246 183.775 108.246 182.056C108.246 178.617 105.748 175.834 102.664 175.834H93.0033C93.4772 165.518 101.135 157.315 110.513 157.315C115.356 157.315 119.738 159.501 122.912 163.037C126.086 166.57 128.048 171.454 128.048 176.848Z" fill="#A8A8A8"/>
<path fill-rule="evenodd" clip-rule="evenodd" d="M206.719 205.439C215.089 205.439 222.01 198.708 222 190.337C221.995 185.818 220.161 181.729 217.199 178.767C214.232 175.8 210.134 173.966 205.607 173.966H200.683C198.978 173.966 197.437 173.276 196.32 172.159C195.204 171.042 194.513 169.499 194.513 167.797C194.513 156.507 185.624 147.292 174.461 146.77C167.996 146.468 162.119 149.159 158.064 153.581C158.064 153.581 158.064 153.581 158.064 153.581C154.561 157.398 152.413 162.508 152.413 168.097V203.808C152.413 204.449 152.782 205.001 153.318 205.265C153.537 205.377 153.782 205.439 154.044 205.439H206.719Z" fill="#A8A8A8"/>
<path d="M112.791 168.245C113.412 168.245 113.915 167.741 113.915 167.121C113.915 166.5 113.412 165.997 112.791 165.997C112.171 165.997 111.667 166.5 111.667 167.121C111.667 167.741 112.171 168.245 112.791 168.245Z" fill="white"/>
<path d="M118.514 168.245C119.134 168.245 119.638 167.741 119.638 167.121C119.638 166.5 119.134 165.997 118.514 165.997C117.893 165.997 117.39 166.5 117.39 167.121C117.39 167.741 117.893 168.245 118.514 168.245Z" fill="white"/>
<path d="M115.651 171.288C114.601 171.288 113.873 170.733 113.827 170.697C113.596 170.516 113.554 170.18 113.735 169.949C113.916 169.718 114.247 169.676 114.48 169.854C114.53 169.892 115.585 170.661 116.856 169.83C117.104 169.668 117.433 169.738 117.595 169.985C117.756 170.23 117.687 170.561 117.44 170.723C116.794 171.147 116.182 171.288 115.651 171.288Z" fill="white"/>
<path d="M166.031 161.668C166.896 161.668 167.598 160.966 167.598 160.101C167.598 159.235 166.896 158.534 166.031 158.534C165.166 158.534 164.464 159.235 164.464 160.101C164.464 160.966 165.166 161.668 166.031 161.668Z" fill="white"/>
<path d="M174.006 161.668C174.871 161.668 175.573 160.966 175.573 160.101C175.573 159.235 174.871 158.534 174.006 158.534C173.14 158.534 172.439 159.235 172.439 160.101C172.439 160.966 173.14 161.668 174.006 161.668Z" fill="white"/>
<path d="M40.6183 188.471C41.3403 188.471 41.9256 187.886 41.9256 187.163C41.9256 186.441 41.3403 185.856 40.6183 185.856C39.8963 185.856 39.311 186.441 39.311 187.163C39.311 187.886 39.8963 188.471 40.6183 188.471Z" fill="#8F8F8F"/>
<path d="M47.2787 188.471C48.0007 188.471 48.586 187.886 48.586 187.163C48.586 186.441 48.0007 185.856 47.2787 185.856C46.5567 185.856 45.9714 186.441 45.9714 187.163C45.9714 187.886 46.5567 188.471 47.2787 188.471Z" fill="#8F8F8F"/>
<g opacity="0.8">
<path opacity="0.8" d="M46.1355 190.295V190.593C46.1355 191.655 45.1378 192.519 43.9115 192.519C42.685 192.519 41.6873 191.655 41.6873 190.593V190.295C41.6873 189.947 41.9706 189.661 42.3207 189.661H45.5045C45.8546 189.661 46.1377 189.945 46.1377 190.295H46.1355Z" fill="#8F8F8F"/>
</g>
<path fill-rule="evenodd" clip-rule="evenodd" d="M119.211 140.246C119.803 140.246 120.283 140.725 120.283 141.317V141.82C120.283 142.244 120.791 142.941 121.907 142.941C123.023 142.941 123.531 142.244 123.531 141.82V141.317C123.531 140.725 124.011 140.246 124.602 140.246C125.194 140.246 125.674 140.725 125.674 141.317V141.82C125.674 143.819 123.772 145.084 121.907 145.084C120.041 145.084 118.14 143.819 118.14 141.82V141.317C118.14 140.725 118.619 140.246 119.211 140.246Z" fill="#8F8F8F"/>
<path fill-rule="evenodd" clip-rule="evenodd" d="M133.991 140.246C134.583 140.246 135.063 140.725 135.063 141.317V141.82C135.063 142.244 135.571 142.941 136.687 142.941C137.803 142.941 138.311 142.244 138.311 141.82V141.317C138.311 140.725 138.791 140.246 139.382 140.246C139.974 140.246 140.454 140.725 140.454 141.317V141.82C140.454 143.819 138.553 145.084 136.687 145.084C134.821 145.084 132.92 143.819 132.92 141.82V141.317C132.92 140.725 133.399 140.246 133.991 140.246Z" fill="#8F8F8F"/>
<path d="M133.201 147.818V148.321C133.201 150.121 131.51 151.585 129.434 151.585C127.357 151.585 125.667 150.121 125.667 148.321V147.818C125.667 147.228 126.145 146.747 126.738 146.747H132.129C132.722 146.747 133.201 147.228 133.201 147.818Z" fill="#8F8F8F"/>
<rect x="41" y="44" width="167.4" height="52.9329" rx="26.4665" fill="#F5F5F5"/>
<path d="M83.6028 60.0966C83.6028 60.6743 83.7113 61.2461 83.9284 61.8122C84.1494 62.3743 84.4635 62.8803 84.8705 63.33C85.2815 63.7758 85.7622 64.1131 86.3127 64.3419L85.6033 65.3654C84.9946 65.1017 84.4654 64.7121 84.0157 64.1965C83.5659 63.677 83.217 63.0741 82.9689 62.3879C82.7208 63.1245 82.3699 63.7758 81.9163 64.3419C81.4627 64.9079 80.9355 65.3344 80.3345 65.6213L79.5902 64.6094C80.1291 64.3613 80.602 63.9968 81.0091 63.5161C81.4162 63.0353 81.7302 62.4945 81.9512 61.8936C82.1722 61.2927 82.2846 60.6937 82.2885 60.0966V59.2127H79.974V58.1427H85.9057V59.2127H83.6028V60.0966ZM87.0804 57.1075H88.383V67.6217H87.0804V57.1075ZM91.6862 61.818C92.4267 61.8102 93.1516 61.7753 93.8611 61.7133C94.5745 61.6474 95.2917 61.5389 96.0128 61.3877L96.1524 62.4461C95.346 62.6128 94.5435 62.7291 93.7448 62.795C92.9462 62.8609 92.1165 62.8958 91.2558 62.8997H90.3835V57.8403H91.6862V61.818ZM91.5001 63.9581H92.8027V66.3656H98.5716V67.4124H91.5001V63.9581ZM96.9316 57.1192H98.2227V60.1315H99.6881V61.2132H98.2227V64.6792H96.9316V57.1192ZM108.609 65.063H103.608V58.0961H108.609V65.063ZM107.353 64.0278V59.108H104.887V64.0278H107.353ZM110.493 57.1075H111.796V67.6334H110.493V57.1075ZM117.169 58.9685C117.165 59.4725 117.256 59.9571 117.442 60.4223C117.629 60.8837 117.906 61.2965 118.274 61.661C118.642 62.0254 119.088 62.3065 119.612 62.5042L118.891 63.5045C118.34 63.2873 117.865 62.9714 117.466 62.5565C117.066 62.1417 116.754 61.6552 116.529 61.0969C116.297 61.6939 115.967 62.2134 115.541 62.6554C115.118 63.0935 114.61 63.4269 114.017 63.6557L113.319 62.6321C113.862 62.4344 114.324 62.1495 114.703 61.7773C115.087 61.4051 115.376 60.9786 115.57 60.4979C115.764 60.0133 115.863 59.5035 115.867 58.9685V57.7123H117.169V58.9685ZM115.215 64.1558H116.529V66.3656H122.38V67.4124H115.215V64.1558ZM118.937 60.6317H120.856V59.5965H118.937V58.5497H120.856V57.1192H122.147V64.9234H120.856V61.6668H118.937V60.6317ZM133.22 63.5742H123.636V62.5391H133.22V63.5742ZM124.624 59.5733C124.624 59.1352 124.78 58.7552 125.09 58.4334C125.404 58.1117 125.846 57.8674 126.416 57.7007C126.986 57.5301 127.652 57.4448 128.416 57.4448C129.176 57.4448 129.841 57.5301 130.411 57.7007C130.985 57.8674 131.427 58.1117 131.737 58.4334C132.051 58.7552 132.208 59.1352 132.208 59.5733C132.208 60.0152 132.051 60.399 131.737 60.7247C131.427 61.0465 130.985 61.2946 130.411 61.4691C129.841 61.6397 129.176 61.7249 128.416 61.7249C127.652 61.7249 126.986 61.6397 126.416 61.4691C125.846 61.2946 125.404 61.0465 125.09 60.7247C124.78 60.399 124.624 60.0152 124.624 59.5733ZM124.822 64.3535H126.113V66.3656H132.138V67.4124H124.822V64.3535ZM125.974 59.5733C125.97 59.9261 126.179 60.1974 126.602 60.3874C127.028 60.5735 127.621 60.6665 128.381 60.6665C129.172 60.6665 129.785 60.5735 130.219 60.3874C130.653 60.2013 130.87 59.9299 130.87 59.5733C130.87 59.2282 130.653 58.9607 130.219 58.7707C129.789 58.5769 129.188 58.48 128.416 58.48C127.908 58.48 127.47 58.5226 127.102 58.6079C126.734 58.6932 126.452 58.8192 126.259 58.9859C126.065 59.1487 125.97 59.3445 125.974 59.5733ZM145.048 60.4223H146.514V61.4923H145.048V64.9699H143.757V57.1192H145.048V60.4223ZM136.767 58.2822H139.244V57.1075H140.535V58.2822H143.001V59.3174H136.767V58.2822ZM137.302 61.7598C137.302 61.3605 137.411 61.0097 137.628 60.7073C137.845 60.401 138.149 60.1645 138.541 59.9978C138.932 59.8311 139.38 59.7477 139.884 59.7477C140.384 59.7477 140.828 59.8311 141.216 59.9978C141.607 60.1645 141.912 60.401 142.129 60.7073C142.346 61.0097 142.454 61.3605 142.454 61.7598C142.454 62.1553 142.346 62.5042 142.129 62.8066C141.912 63.1051 141.609 63.3377 141.222 63.5045C140.834 63.6673 140.388 63.7487 139.884 63.7487C139.376 63.7487 138.926 63.6673 138.535 63.5045C138.147 63.3377 137.845 63.1051 137.628 62.8066C137.411 62.5042 137.302 62.1553 137.302 61.7598ZM138.314 64.3535H139.605V66.3656H145.467V67.4124H138.314V64.3535ZM138.558 61.7598C138.554 62.07 138.671 62.3123 138.907 62.4868C139.147 62.6612 139.467 62.7485 139.867 62.7485C140.278 62.7485 140.605 62.6632 140.849 62.4926C141.098 62.3181 141.222 62.0739 141.222 61.7598C141.222 61.4458 141.099 61.1996 140.855 61.0213C140.611 60.8391 140.287 60.748 139.884 60.748C139.481 60.748 139.157 60.8391 138.913 61.0213C138.673 61.1996 138.554 61.4458 138.558 61.7598ZM154.992 58.7126H151.561V61.0504C152.546 61.0426 153.36 61.0155 154.004 60.9689C154.647 60.9185 155.287 60.8294 155.923 60.7014L156.062 61.7017C155.423 61.8451 154.768 61.9421 154.097 61.9925C153.426 62.039 152.548 62.0622 151.462 62.0622H151.131H150.282V57.6774H154.992V58.7126ZM151.294 62.8182H158.168V65.6096H152.585V66.447H158.493V67.4938H151.305V64.6326H156.877V63.8534H151.294V62.8182ZM156.877 57.1075H158.168V59.1778H159.633V60.2362H158.168V62.3646H156.877V57.1075ZM168.914 67.6334H167.612V57.1075H168.914V67.6334ZM160.505 61.5854C160.505 60.8449 160.622 60.1936 160.854 59.6314C161.087 59.0693 161.411 58.637 161.826 58.3346C162.244 58.0283 162.719 57.8752 163.25 57.8752C163.774 57.8752 164.243 58.0283 164.658 58.3346C165.076 58.637 165.404 59.0693 165.64 59.6314C165.877 60.1936 165.995 60.8449 165.995 61.5854C165.995 62.3336 165.877 62.9888 165.64 63.551C165.404 64.1131 165.076 64.5473 164.658 64.8536C164.243 65.156 163.774 65.3072 163.25 65.3072C162.719 65.3072 162.244 65.156 161.826 64.8536C161.411 64.5473 161.087 64.1131 160.854 63.551C160.622 62.9888 160.505 62.3336 160.505 61.5854ZM161.75 61.5854C161.75 62.1165 161.812 62.574 161.936 62.9578C162.064 63.3416 162.24 63.6343 162.465 63.8359C162.69 64.0375 162.952 64.1403 163.25 64.1441C163.545 64.1403 163.805 64.0375 164.03 63.8359C164.254 63.6343 164.429 63.3416 164.553 62.9578C164.677 62.574 164.739 62.1165 164.739 61.5854C164.739 61.0581 164.677 60.6045 164.553 60.2246C164.429 59.8408 164.254 59.5481 164.03 59.3465C163.805 59.141 163.545 59.0382 163.25 59.0382C162.952 59.0382 162.69 59.141 162.465 59.3465C162.24 59.5481 162.064 59.8408 161.936 60.2246C161.812 60.6045 161.75 61.0581 161.75 61.5854ZM95.0998 76.0966C95.0998 76.6743 95.2083 77.2461 95.4255 77.8122C95.6464 78.3743 95.9605 78.8803 96.3675 79.33C96.7785 79.7758 97.2592 80.1131 97.8098 80.3419L97.1003 81.3654C96.4916 81.1017 95.9624 80.7121 95.5127 80.1965C95.063 79.677 94.714 79.0741 94.4659 78.3879C94.2178 79.1245 93.8669 79.7758 93.4133 80.3419C92.9597 80.9079 92.4325 81.3344 91.8315 81.6213L91.0872 80.6094C91.6261 80.3613 92.0991 79.9968 92.5061 79.5161C92.9132 79.0353 93.2272 78.4945 93.4482 77.8936C93.6692 77.2927 93.7816 76.6937 93.7855 76.0966V75.2127H91.471V74.1427H97.4027V75.2127H95.0998V76.0966ZM98.5774 73.1075H99.88V83.6217H98.5774V73.1075ZM111.22 78.2251H109.662V83.5985H108.37V73.1075H109.662V77.1667H111.22V78.2251ZM101.799 74.131H103.078V79.9348C104.668 79.9077 106.161 79.7487 107.556 79.4579L107.696 80.5512C106.87 80.7179 106.046 80.8342 105.224 80.9001C104.402 80.9661 103.555 81.0009 102.683 81.0048H101.799V74.131ZM114.546 73.8752C115.074 73.8752 115.543 74.0283 115.954 74.3346C116.365 74.637 116.686 75.0693 116.919 75.6314C117.156 76.1897 117.276 76.841 117.28 77.5854C117.276 78.3336 117.156 78.9888 116.919 79.551C116.686 80.1131 116.365 80.5473 115.954 80.8536C115.543 81.156 115.074 81.3072 114.546 81.3072C114.015 81.3072 113.542 81.156 113.127 80.8536C112.713 80.5473 112.389 80.1131 112.156 79.551C111.928 78.9888 111.813 78.3336 111.813 77.5854C111.813 76.841 111.928 76.1897 112.156 75.6314C112.389 75.0693 112.713 74.637 113.127 74.3346C113.542 74.0283 114.015 73.8752 114.546 73.8752ZM113.058 77.5854C113.058 78.1126 113.12 78.5701 113.244 78.9578C113.368 79.3416 113.542 79.6343 113.767 79.8359C113.992 80.0375 114.252 80.1403 114.546 80.1441C114.845 80.1403 115.105 80.0375 115.326 79.8359C115.551 79.6343 115.725 79.3416 115.849 78.9578C115.973 78.574 116.035 78.1165 116.035 77.5854C116.035 77.0581 115.973 76.6026 115.849 76.2188C115.725 75.8349 115.551 75.5422 115.326 75.3406C115.101 75.139 114.841 75.0382 114.546 75.0382C114.252 75.0382 113.992 75.141 113.767 75.3465C113.542 75.5481 113.368 75.8408 113.244 76.2246C113.12 76.6045 113.058 77.0581 113.058 77.5854ZM118.664 73.1075H119.955V75.6198H121.513V76.7014H119.955V78.7252H121.513V79.7836H119.955V83.6217H118.664V73.1075ZM128.12 75.0615C128.123 75.4492 128.201 75.8253 128.352 76.1897C128.503 76.5502 128.732 76.8778 129.038 77.1725C129.345 77.4633 129.721 77.6939 130.167 77.8645L129.48 78.8531C129.027 78.6825 128.633 78.4383 128.3 78.1204C127.97 77.8025 127.709 77.4322 127.515 77.0097C127.313 77.4981 127.038 77.9304 126.689 78.3065C126.344 78.6787 125.929 78.9656 125.444 79.1672L124.747 78.1785C125.212 77.9731 125.603 77.7017 125.921 77.3644C126.239 77.0271 126.476 76.6607 126.631 76.2653C126.79 75.866 126.871 75.4647 126.875 75.0615V73.7589H128.12V75.0615ZM126.677 81.6678C126.677 81.2685 126.823 80.9234 127.113 80.6326C127.404 80.3419 127.821 80.1209 128.364 79.9697C128.907 79.8146 129.546 79.7371 130.283 79.7371C131.012 79.7371 131.648 79.8146 132.19 79.9697C132.733 80.1209 133.152 80.3419 133.446 80.6326C133.741 80.9234 133.888 81.2685 133.888 81.6678C133.888 82.0671 133.741 82.4121 133.446 82.7029C133.152 82.9976 132.733 83.2224 132.19 83.3775C131.648 83.5326 131.012 83.6101 130.283 83.6101C129.546 83.6101 128.907 83.5326 128.364 83.3775C127.821 83.2224 127.404 82.9976 127.113 82.7029C126.823 82.4121 126.677 82.0671 126.677 81.6678ZM127.968 81.6678C127.964 81.9741 128.162 82.2105 128.562 82.3773C128.961 82.5401 129.523 82.6215 130.248 82.6215C130.988 82.6215 131.562 82.5401 131.969 82.3773C132.376 82.2144 132.582 81.9779 132.586 81.6678C132.582 81.3615 132.378 81.1269 131.975 80.9641C131.572 80.7974 131.008 80.7141 130.283 80.7141C129.546 80.7141 128.974 80.7974 128.567 80.9641C128.164 81.1269 127.964 81.3615 127.968 81.6678ZM130.341 73.3169H131.551V75.771H132.597V73.1192H133.83V79.5626H132.597V76.8294H131.551V79.2369H130.341V73.3169ZM140.495 74.2241C140.495 74.8134 140.45 75.3639 140.361 75.8757H142.646V73.1075H143.937V83.6101H142.646V79.7603H139.971V78.7136H142.646V76.9108H140.122C139.491 79.0082 138.029 80.6171 135.738 81.7376L135.063 80.7141C136.354 80.0705 137.335 79.299 138.006 78.3995C138.676 77.5001 139.07 76.4494 139.186 75.2476H135.552V74.2241H140.495ZM155.033 82.3424H145.426V81.284H147.648V78.6263C147.221 78.3821 146.89 78.0739 146.653 77.7017C146.421 77.3295 146.306 76.9147 146.31 76.4572C146.31 75.9067 146.475 75.4221 146.804 75.0033C147.138 74.5808 147.601 74.2551 148.194 74.0264C148.787 73.7937 149.458 73.6774 150.206 73.6774C150.958 73.6774 151.631 73.7937 152.224 74.0264C152.821 74.2551 153.287 74.5808 153.62 75.0033C153.957 75.4221 154.126 75.9067 154.126 76.4572C154.13 76.9069 154.017 77.314 153.789 77.6784C153.56 78.0429 153.238 78.3491 152.823 78.5973V81.284H155.033V82.3424ZM147.578 76.4572C147.578 76.81 147.686 77.1201 147.903 77.3877C148.124 77.6513 148.433 77.8548 148.828 77.9983C149.227 78.1417 149.687 78.2134 150.206 78.2134C150.726 78.2134 151.185 78.1417 151.585 77.9983C151.988 77.8548 152.3 77.6513 152.521 77.3877C152.746 77.1201 152.858 76.81 152.858 76.4572C152.858 76.1005 152.746 75.7884 152.521 75.5209C152.3 75.2534 151.988 75.0499 151.585 74.9103C151.185 74.7707 150.726 74.7009 150.206 74.7009C149.683 74.7009 149.222 74.7707 148.822 74.9103C148.427 75.0499 148.121 75.2534 147.903 75.5209C147.686 75.7845 147.578 76.0966 147.578 76.4572ZM151.509 81.284V79.0916C151.098 79.1807 150.664 79.2253 150.206 79.2253C149.768 79.2253 149.342 79.1827 148.927 79.0974V81.284H151.509ZM156.999 82.6797C156.836 82.6797 156.685 82.6389 156.545 82.5575C156.406 82.4761 156.295 82.3656 156.214 82.2261C156.132 82.0865 156.092 81.9353 156.092 81.7725C156.092 81.6135 156.132 81.4662 156.214 81.3305C156.295 81.1909 156.406 81.0804 156.545 80.999C156.685 80.9176 156.836 80.8769 156.999 80.8769C157.158 80.8769 157.305 80.9176 157.441 80.999C157.58 81.0804 157.691 81.1909 157.772 81.3305C157.854 81.4662 157.894 81.6135 157.894 81.7725C157.894 81.9353 157.854 82.0865 157.772 82.2261C157.691 82.3656 157.58 82.4761 157.441 82.5575C157.305 82.6389 157.158 82.6797 156.999 82.6797Z" fill="#757575"/>
<path d="M87.2673 94.3127L93.2799 102.578C94.3537 104.056 92.6181 105.938 91.0591 104.984L77.5319 96.7182C76.0927 95.8392 76.7159 93.6246 78.4027 93.6246H85.9174C86.4513 93.6246 86.9527 93.8804 87.2673 94.3127V94.3127Z" fill="#F5F5F5"/>
</svg>
