<svg width="250" height="250" viewBox="0 0 250 250" fill="none" xmlns="http://www.w3.org/2000/svg">
<path fill-rule="evenodd" clip-rule="evenodd" d="M40.9206 205.442H79.0394H79.0396C78.8917 205.442 78.7446 205.438 78.5986 205.43C77.5556 205.371 76.5619 205.104 75.6502 204.666C75.0446 204.375 74.475 204.009 73.9514 203.577C73.6073 203.294 73.2832 202.983 72.9815 202.646C72.6684 202.298 72.3793 201.922 72.1176 201.523C71.0827 199.945 70.4719 198 70.4719 195.896V179.601L40.9206 205.442ZM70.4717 179.601H49.6169V178.784C49.6169 178.091 49.274 177.465 48.7168 177.01C48.1596 176.555 47.3952 176.274 46.5451 176.274C45.1616 176.274 43.9924 177.019 43.6067 178.046C43.3686 177.939 43.1019 177.879 42.8209 177.879C41.8255 177.879 41.0064 178.634 40.904 179.601C37.344 179.605 34.1198 181.051 31.7862 183.384C29.4478 185.723 28 188.954 28 192.521C28 199.658 33.7864 205.442 40.9206 205.442" fill="#C2C2C2"/>
<path d="M92.9795 176.848V198.253C92.9795 202.222 95.8679 205.439 99.4327 205.439H121.595C125.16 205.439 128.048 202.222 128.048 198.253V188.273H118.364C116.821 188.273 115.425 187.578 114.415 186.454C113.406 185.33 112.782 183.775 112.782 182.056C112.782 178.617 115.28 175.833 118.364 175.833H128.024C127.55 165.518 119.892 157.315 110.515 157.315C105.672 157.315 101.29 159.501 98.1158 163.037C94.9416 166.57 92.9795 171.454 92.9795 176.848Z" fill="#D9DEFF"/>
<path d="M153.318 205.263C152.787 205.38 152.239 205.439 151.677 205.439H79.0394C74.3055 205.439 70.4717 201.165 70.4717 195.893V169.435C70.4717 141.879 90.7075 118.948 115.442 119C135.361 119.043 152.237 133.54 158.063 153.578C154.561 157.396 152.413 162.506 152.413 168.094V203.806C152.413 204.447 152.782 204.999 153.318 205.263Z" fill="#F5F5F5"/>
<path d="M128.048 176.848V198.253C128.048 202.222 125.16 205.439 121.595 205.439H99.4327C95.8679 205.439 92.9795 202.222 92.9795 198.253V188.273H102.664C104.207 188.273 105.602 187.578 106.612 186.454C107.622 185.33 108.246 183.775 108.246 182.056C108.246 178.617 105.748 175.833 102.664 175.833H93.0033C93.4772 165.518 101.135 157.315 110.513 157.315C115.356 157.315 119.738 159.501 122.912 163.037C126.086 166.57 128.048 171.454 128.048 176.848Z" fill="#A8A8A8"/>
<path fill-rule="evenodd" clip-rule="evenodd" d="M206.719 205.439C215.089 205.439 222.01 198.708 222 190.337C221.995 185.818 220.161 181.729 217.199 178.767C214.232 175.8 210.134 173.966 205.607 173.966H200.683C198.978 173.966 197.437 173.276 196.32 172.159C195.204 171.042 194.513 169.499 194.513 167.797C194.513 156.507 185.624 147.292 174.461 146.77C167.996 146.468 162.119 149.159 158.064 153.581C158.064 153.581 158.064 153.581 158.064 153.581C154.561 157.398 152.413 162.508 152.413 168.097V203.808C152.413 204.449 152.782 205.001 153.318 205.265C153.537 205.377 153.782 205.439 154.044 205.439H206.719Z" fill="#A8A8A8"/>
<path d="M112.791 168.245C113.412 168.245 113.915 167.741 113.915 167.121C113.915 166.5 113.412 165.997 112.791 165.997C112.171 165.997 111.667 166.5 111.667 167.121C111.667 167.741 112.171 168.245 112.791 168.245Z" fill="white"/>
<path d="M118.514 168.245C119.134 168.245 119.638 167.741 119.638 167.121C119.638 166.5 119.134 165.997 118.514 165.997C117.893 165.997 117.39 166.5 117.39 167.121C117.39 167.741 117.893 168.245 118.514 168.245Z" fill="white"/>
<path d="M115.651 171.288C114.601 171.288 113.873 170.733 113.827 170.697C113.596 170.516 113.554 170.18 113.735 169.949C113.916 169.718 114.247 169.676 114.48 169.854C114.53 169.892 115.585 170.661 116.856 169.83C117.104 169.668 117.433 169.738 117.595 169.985C117.756 170.23 117.687 170.561 117.44 170.723C116.794 171.147 116.182 171.288 115.651 171.288Z" fill="white"/>
<path d="M166.031 161.668C166.896 161.668 167.598 160.966 167.598 160.101C167.598 159.235 166.896 158.534 166.031 158.534C165.166 158.534 164.464 159.235 164.464 160.101C164.464 160.966 165.166 161.668 166.031 161.668Z" fill="white"/>
<path d="M174.006 161.668C174.871 161.668 175.573 160.966 175.573 160.101C175.573 159.235 174.871 158.534 174.006 158.534C173.14 158.534 172.439 159.235 172.439 160.101C172.439 160.966 173.14 161.668 174.006 161.668Z" fill="white"/>
<path d="M40.6183 188.471C41.3403 188.471 41.9256 187.886 41.9256 187.163C41.9256 186.441 41.3403 185.856 40.6183 185.856C39.8963 185.856 39.311 186.441 39.311 187.163C39.311 187.886 39.8963 188.471 40.6183 188.471Z" fill="#8F8F8F"/>
<path d="M47.2787 188.471C48.0007 188.471 48.586 187.886 48.586 187.163C48.586 186.441 48.0007 185.856 47.2787 185.856C46.5567 185.856 45.9714 186.441 45.9714 187.163C45.9714 187.886 46.5567 188.471 47.2787 188.471Z" fill="#8F8F8F"/>
<g opacity="0.8">
<path opacity="0.8" d="M46.1355 190.295V190.592C46.1355 191.655 45.1378 192.519 43.9115 192.519C42.685 192.519 41.6873 191.655 41.6873 190.592V190.295C41.6873 189.947 41.9706 189.661 42.3207 189.661H45.5045C45.8546 189.661 46.1377 189.945 46.1377 190.295H46.1355Z" fill="#8F8F8F"/>
</g>
<path fill-rule="evenodd" clip-rule="evenodd" d="M119.211 140.246C119.803 140.246 120.283 140.725 120.283 141.317V141.82C120.283 142.244 120.791 142.941 121.907 142.941C123.023 142.941 123.531 142.244 123.531 141.82V141.317C123.531 140.725 124.011 140.246 124.602 140.246C125.194 140.246 125.674 140.725 125.674 141.317V141.82C125.674 143.819 123.772 145.085 121.907 145.085C120.041 145.085 118.14 143.819 118.14 141.82V141.317C118.14 140.725 118.619 140.246 119.211 140.246Z" fill="#8F8F8F"/>
<path fill-rule="evenodd" clip-rule="evenodd" d="M133.991 140.246C134.583 140.246 135.063 140.725 135.063 141.317V141.82C135.063 142.244 135.571 142.941 136.687 142.941C137.803 142.941 138.311 142.244 138.311 141.82V141.317C138.311 140.725 138.791 140.246 139.382 140.246C139.974 140.246 140.454 140.725 140.454 141.317V141.82C140.454 143.819 138.553 145.085 136.687 145.085C134.821 145.085 132.92 143.819 132.92 141.82V141.317C132.92 140.725 133.399 140.246 133.991 140.246Z" fill="#8F8F8F"/>
<path d="M133.201 147.818V148.321C133.201 150.121 131.51 151.585 129.434 151.585C127.357 151.585 125.667 150.121 125.667 148.321V147.818C125.667 147.228 126.145 146.747 126.738 146.747H132.129C132.722 146.747 133.201 147.228 133.201 147.818Z" fill="#8F8F8F"/>
<rect x="41" y="44" width="167.4" height="52.9329" rx="26.4665" fill="#F5F5F5"/>
<path d="M65.3734 57.8751C65.9006 57.8751 66.3698 58.0283 66.7807 58.3345C67.1917 58.6369 67.5134 59.0692 67.7461 59.6314C67.9826 60.1897 68.1027 60.841 68.1066 61.5853C68.1027 62.3336 67.9826 62.9888 67.7461 63.5509C67.5134 64.1131 67.1917 64.5473 66.7807 64.8536C66.3698 65.156 65.9006 65.3072 65.3734 65.3072C64.8422 65.3072 64.3693 65.156 63.9544 64.8536C63.5396 64.5473 63.2159 64.1131 62.9833 63.5509C62.7545 62.9888 62.6402 62.3336 62.6402 61.5853C62.6402 60.841 62.7545 60.1897 62.9833 59.6314C63.2159 59.0692 63.5396 58.6369 63.9544 58.3345C64.3693 58.0283 64.8422 57.8751 65.3734 57.8751ZM63.8846 61.5853C63.8846 62.1126 63.9467 62.5701 64.0707 62.9578C64.1948 63.3416 64.3693 63.6343 64.5941 63.8359C64.819 64.0375 65.0787 64.1402 65.3734 64.1441C65.6719 64.1402 65.9317 64.0375 66.1526 63.8359C66.3775 63.6343 66.552 63.3416 66.676 62.9578C66.8001 62.574 66.8621 62.1165 66.8621 61.5853C66.8621 61.0581 66.8001 60.6025 66.676 60.2187C66.552 59.8349 66.3775 59.5422 66.1526 59.3406C65.9278 59.139 65.668 59.0382 65.3734 59.0382C65.0787 59.0382 64.819 59.1409 64.5941 59.3464C64.3693 59.548 64.1948 59.8407 64.0707 60.2245C63.9467 60.6045 63.8846 61.0581 63.8846 61.5853ZM69.4907 57.1075H70.7817V61.1434H72.3984V62.2367H70.7817V67.6217H69.4907V57.1075ZM76.8297 58.9335C76.8297 59.3716 76.9286 59.7981 77.1263 60.2129C77.3279 60.6239 77.6206 60.9902 78.0044 61.312C78.3921 61.6338 78.8573 61.88 79.4001 62.0506L78.7371 63.0508C78.1517 62.8609 77.6438 62.5798 77.2135 62.2076C76.7832 61.8315 76.4439 61.3876 76.1958 60.8759C75.9554 61.4303 75.6123 61.9129 75.1665 62.3239C74.7245 62.7349 74.1973 63.0431 73.5847 63.2485L72.9218 62.2483C73.4684 62.0622 73.9375 61.7986 74.3291 61.4574C74.7206 61.1124 75.0172 60.7227 75.2188 60.2885C75.4204 59.8504 75.5232 59.3988 75.527 58.9335V58.8056H73.259V57.7705H79.0395V58.8056H76.8297V58.9335ZM74.4221 63.9348H81.5983V67.6217H80.2957V64.9815H74.4221V63.9348ZM80.2957 57.1075H81.5983V63.4463H80.2957V57.1075ZM89.7282 58.9335C89.7282 59.3755 89.8213 59.8 90.0073 60.2071C90.1973 60.6142 90.4784 60.9786 90.8506 61.3004C91.2266 61.6222 91.6822 61.8722 92.2172 62.0506L91.5659 63.0508C90.9882 62.857 90.49 62.574 90.0713 62.2018C89.6565 61.8296 89.3308 61.3915 89.0943 60.8875C88.8578 61.438 88.5206 61.9168 88.0825 62.3239C87.6482 62.7271 87.1307 63.0314 86.5298 63.2369L85.8435 62.2367C86.3902 62.0545 86.8574 61.7928 87.245 61.4516C87.6366 61.1104 87.9313 60.7227 88.129 60.2885C88.3267 59.8504 88.4256 59.3988 88.4256 58.9335V58.8056H86.2041V57.7705H91.9148V58.8056H89.7282V58.9335ZM87.2509 63.9348H94.2526V67.6217H92.9616V64.9699H87.2509V63.9348ZM92.9616 57.1075H94.2526V59.7361H95.7181V60.8177H94.2526V63.4463H92.9616V57.1075ZM100.103 58.6195C100.099 59.1041 100.19 59.5635 100.376 59.9977C100.566 60.4281 100.847 60.808 101.219 61.1376C101.592 61.4632 102.045 61.7094 102.58 61.8761L101.882 62.888C101.32 62.6864 100.838 62.4014 100.434 62.0331C100.031 61.6648 99.7152 61.2267 99.4864 60.7189C99.2499 61.3043 98.9107 61.8121 98.4687 62.2425C98.0268 62.6689 97.4937 62.9927 96.8695 63.2137L96.1833 62.1669C96.7493 61.9808 97.2281 61.7113 97.6197 61.3585C98.0113 61.0057 98.304 60.6006 98.4978 60.1431C98.6955 59.6818 98.7963 59.1933 98.8002 58.6777V57.6774H100.103V58.6195ZM97.9279 65.598C97.924 65.1754 98.0655 64.8129 98.3524 64.5105C98.6393 64.2042 99.0503 63.9716 99.5853 63.8126C100.124 63.6537 100.762 63.5742 101.499 63.5742C102.239 63.5742 102.879 63.6537 103.418 63.8126C103.957 63.9716 104.369 64.2042 104.656 64.5105C104.947 64.8129 105.092 65.1754 105.092 65.598C105.092 66.0205 104.947 66.383 104.656 66.6854C104.369 66.9878 103.957 67.2166 103.418 67.3717C102.879 67.5306 102.239 67.6101 101.499 67.6101C100.762 67.6101 100.124 67.5306 99.5853 67.3717C99.0503 67.2166 98.6393 66.9878 98.3524 66.6854C98.0655 66.383 97.924 66.0205 97.9279 65.598ZM99.2073 65.598C99.2034 65.9159 99.4011 66.1621 99.8005 66.3365C100.2 66.5071 100.766 66.5943 101.499 66.5982C102.235 66.5943 102.803 66.5071 103.202 66.3365C103.602 66.1621 103.801 65.9159 103.801 65.598C103.801 65.2684 103.602 65.0164 103.202 64.842C102.807 64.6675 102.239 64.5783 101.499 64.5745C100.762 64.5783 100.194 64.6675 99.7946 64.842C99.3992 65.0164 99.2034 65.2684 99.2073 65.598ZM101.673 59.1429H103.767V57.1075H105.058V63.2951H103.767V60.2013H101.673V59.1429ZM112.664 61.4458H110.71V62.6379C111.641 62.5992 112.497 62.5391 113.281 62.4577L113.374 63.3881C112.362 63.5277 111.305 63.6246 110.204 63.6789C109.107 63.7293 107.961 63.7564 106.767 63.7603L106.593 62.7252C107.83 62.7174 108.768 62.7038 109.407 62.6845V61.4458H107.5V57.7588H112.583V58.8056H108.803V60.4106H112.664V61.4458ZM108.268 64.4233H109.57V66.3656H115.618V67.4124H108.268V64.4233ZM114.013 57.1075H115.316V65.0048H114.013V57.1075ZM125.225 65.0629H120.224V58.0961H125.225V65.0629ZM123.969 64.0278V59.108H121.503V64.0278H123.969ZM127.109 57.1075H128.412V67.6333H127.109V57.1075ZM133.786 58.9684C133.782 59.4724 133.873 59.957 134.059 60.4223C134.245 60.8836 134.522 61.2965 134.89 61.6609C135.259 62.0254 135.705 62.3065 136.228 62.5042L135.507 63.5044C134.956 63.2873 134.481 62.9713 134.082 62.5565C133.683 62.1417 133.371 61.6551 133.146 61.0969C132.913 61.6939 132.584 62.2134 132.157 62.6554C131.735 63.0935 131.227 63.4269 130.634 63.6556L129.936 62.6321C130.479 62.4344 130.94 62.1494 131.32 61.7773C131.704 61.4051 131.992 60.9786 132.186 60.4979C132.38 60.0133 132.479 59.5034 132.483 58.9684V57.7123H133.786V58.9684ZM131.832 64.1557H133.146V66.3656H138.996V67.4124H131.832V64.1557ZM135.553 60.6316H137.473V59.5965H135.553V58.5497H137.473V57.1191H138.764V64.9234H137.473V61.6668H135.553V60.6316ZM148.999 67.6333H147.696V57.1075H148.999V67.6333ZM140.59 61.5853C140.59 60.8449 140.706 60.1935 140.938 59.6314C141.171 59.0692 141.495 58.6369 141.91 58.3345C142.328 58.0283 142.803 57.8751 143.334 57.8751C143.858 57.8751 144.327 58.0283 144.742 58.3345C145.16 58.6369 145.488 59.0692 145.725 59.6314C145.961 60.1935 146.079 60.8449 146.079 61.5853C146.079 62.3336 145.961 62.9888 145.725 63.5509C145.488 64.1131 145.16 64.5473 144.742 64.8536C144.327 65.156 143.858 65.3072 143.334 65.3072C142.803 65.3072 142.328 65.156 141.91 64.8536C141.495 64.5473 141.171 64.1131 140.938 63.5509C140.706 62.9888 140.59 62.3336 140.59 61.5853ZM141.834 61.5853C141.834 62.1165 141.896 62.574 142.02 62.9578C142.148 63.3416 142.324 63.6343 142.549 63.8359C142.774 64.0375 143.036 64.1402 143.334 64.1441C143.629 64.1402 143.889 64.0375 144.114 63.8359C144.339 63.6343 144.513 63.3416 144.637 62.9578C144.761 62.574 144.823 62.1165 144.823 61.5853C144.823 61.0581 144.761 60.6045 144.637 60.2245C144.513 59.8407 144.339 59.548 144.114 59.3464C143.889 59.1409 143.629 59.0382 143.334 59.0382C143.036 59.0382 142.774 59.1409 142.549 59.3464C142.324 59.548 142.148 59.8407 142.02 60.2245C141.896 60.6045 141.834 61.0581 141.834 61.5853ZM155.756 64.3884H157.14V63.2602H158.338V66.5982C158.737 66.4315 159.071 66.2105 159.338 65.9353C159.61 65.66 159.811 65.3576 159.943 65.0281C160.075 64.6985 160.141 64.3612 160.141 64.0162V63.1788H161.432V64.0162C161.428 64.3922 161.492 64.7509 161.624 65.092C161.759 65.4293 161.967 65.7317 162.246 65.9992C162.525 66.2629 162.874 66.4664 163.293 66.6098L162.63 67.5752C161.75 67.2573 161.131 66.668 160.775 65.8073C160.593 66.2066 160.348 66.5575 160.042 66.8599C159.74 67.1662 159.377 67.4046 158.955 67.5752L158.338 66.6622V67.4938H154.546V63.2602H155.756V64.3884ZM153.511 59.9803C153.511 59.5073 153.63 59.0867 153.866 58.7184C154.106 58.3462 154.438 58.0573 154.861 57.8519C155.283 57.6425 155.76 57.5378 156.291 57.5378C156.737 57.5378 157.148 57.6173 157.524 57.7763C157.9 57.9313 158.214 58.1523 158.466 58.4392C158.722 58.7261 158.894 59.0576 158.984 59.4337H160.885V57.1075H162.176V62.6786H160.885V60.5037H158.989C158.904 60.8875 158.735 61.2267 158.483 61.5214C158.231 61.816 157.916 62.0448 157.536 62.2076C157.156 62.3665 156.741 62.446 156.291 62.446C155.76 62.446 155.283 62.3433 154.861 62.1378C154.438 61.9285 154.106 61.6377 153.866 61.2655C153.63 60.8894 153.511 60.461 153.511 59.9803ZM154.744 59.9803C154.744 60.2594 154.81 60.5056 154.942 60.7189C155.074 60.9321 155.256 61.0969 155.489 61.2132C155.725 61.3295 155.993 61.3876 156.291 61.3876C156.586 61.3876 156.847 61.3295 157.076 61.2132C157.305 61.0969 157.485 60.9321 157.617 60.7189C157.749 60.5056 157.815 60.2594 157.815 59.9803C157.815 59.7089 157.749 59.4685 157.617 59.2592C157.485 59.0498 157.303 58.8889 157.07 58.7765C156.842 58.6641 156.582 58.6079 156.291 58.6079C155.993 58.6079 155.725 58.6641 155.489 58.7765C155.256 58.8889 155.074 59.0498 154.942 59.2592C154.81 59.4685 154.744 59.7089 154.744 59.9803ZM157.14 66.5052V65.3537H155.756V66.5052H157.14ZM166.538 57.8751C167.007 57.8751 167.431 58.0011 167.811 58.2531C168.191 58.5051 168.501 58.8657 168.742 59.3348C168.982 59.8 169.133 60.3486 169.195 60.9805H171.202V57.1075H172.481V67.6333H171.202V62.0273H169.207C169.161 62.6941 169.019 63.2757 168.783 63.7719C168.546 64.2643 168.234 64.6442 167.846 64.9117C167.459 65.1754 167.022 65.3072 166.538 65.3072C166.011 65.3072 165.541 65.156 165.13 64.8536C164.723 64.5473 164.405 64.1131 164.177 63.5509C163.952 62.9888 163.839 62.3336 163.839 61.5853C163.839 60.841 163.952 60.1897 164.177 59.6314C164.405 59.0692 164.725 58.6369 165.136 58.3345C165.547 58.0283 166.014 57.8751 166.538 57.8751ZM165.084 61.5853C165.084 62.1165 165.144 62.574 165.264 62.9578C165.384 63.3416 165.553 63.6343 165.77 63.8359C165.991 64.0375 166.247 64.1402 166.538 64.1441C166.829 64.1402 167.084 64.0375 167.305 63.8359C167.526 63.6343 167.697 63.3416 167.817 62.9578C167.941 62.574 168.003 62.1165 168.003 61.5853C168.003 61.0581 167.941 60.6025 167.817 60.2187C167.697 59.8349 167.526 59.5422 167.305 59.3406C167.084 59.139 166.829 59.0382 166.538 59.0382C166.247 59.0382 165.991 59.1409 165.77 59.3464C165.553 59.548 165.384 59.8407 165.264 60.2245C165.144 60.6045 165.084 61.0581 165.084 61.5853ZM183.565 66.3423H173.958V65.2839H176.18V62.6263C175.753 62.3821 175.422 62.0738 175.185 61.7017C174.953 61.3295 174.838 60.9146 174.842 60.4572C174.842 59.9066 175.007 59.422 175.336 59.0033C175.67 58.5807 176.133 58.2551 176.726 58.0263C177.32 57.7937 177.99 57.6774 178.738 57.6774C179.491 57.6774 180.163 57.7937 180.756 58.0263C181.353 58.2551 181.819 58.5807 182.152 59.0033C182.489 59.422 182.658 59.9066 182.658 60.4572C182.662 60.9069 182.549 61.314 182.321 61.6784C182.092 62.0428 181.77 62.3491 181.355 62.5972V65.2839H183.565V66.3423ZM176.11 60.4572C176.11 60.81 176.218 61.1201 176.436 61.3876C176.657 61.6513 176.965 61.8548 177.36 61.9982C177.76 62.1417 178.219 62.2134 178.738 62.2134C179.258 62.2134 179.717 62.1417 180.117 61.9982C180.52 61.8548 180.832 61.6513 181.053 61.3876C181.278 61.1201 181.39 60.81 181.39 60.4572C181.39 60.1005 181.278 59.7884 181.053 59.5209C180.832 59.2534 180.52 59.0498 180.117 58.9103C179.717 58.7707 179.258 58.7009 178.738 58.7009C178.215 58.7009 177.754 58.7707 177.354 58.9103C176.959 59.0498 176.653 59.2534 176.436 59.5209C176.218 59.7845 176.11 60.0966 176.11 60.4572ZM180.041 65.2839V63.0915C179.63 63.1807 179.196 63.2253 178.738 63.2253C178.3 63.2253 177.874 63.1826 177.459 63.0973V65.2839H180.041ZM185.531 66.6796C185.368 66.6796 185.217 66.6389 185.077 66.5575C184.938 66.4761 184.827 66.3656 184.746 66.226C184.664 66.0865 184.624 65.9353 184.624 65.7724C184.624 65.6135 184.664 65.4661 184.746 65.3305C184.827 65.1909 184.938 65.0804 185.077 64.999C185.217 64.9176 185.368 64.8769 185.531 64.8769C185.69 64.8769 185.837 64.9176 185.973 64.999C186.112 65.0804 186.223 65.1909 186.304 65.3305C186.386 65.4661 186.426 65.6135 186.426 65.7724C186.426 65.9353 186.386 66.0865 186.304 66.226C186.223 66.3656 186.112 66.4761 185.973 66.5575C185.837 66.6389 185.69 66.6796 185.531 66.6796ZM89.8329 78.981H84.8549V74.0147H89.8329V78.981ZM86.0529 80.0394H87.3439V82.3656H93.2058V83.4124H86.0529V80.0394ZM88.5651 77.9575V75.0498H86.1227V77.9575H88.5651ZM91.4961 73.1075H92.7871V76.1897H94.2526V77.2713H92.7871V80.7838H91.4961V73.1075ZM104.383 78.3413H94.7876V77.3178H104.383V78.3413ZM95.9158 79.0625H103.173V81.7026H97.1952V82.5052H103.464V83.517H95.9274V80.7722H101.906V80.0394H95.9158V79.0625ZM96.0088 73.375H103.15V74.4101H97.2998V75.6197H103.243V76.6433H96.0088V73.375ZM113.885 83.6333H112.594V78.0389H110.792V76.9805H112.594V73.1075H113.885V83.6333ZM105.43 74.0263H110.187V77.8761H106.744V80.086C107.609 80.0821 108.365 80.0588 109.012 80.0162C109.663 79.9735 110.319 79.8921 110.978 79.7719L111.082 80.8303C110.35 80.9583 109.617 81.0455 108.884 81.092C108.155 81.1385 107.295 81.1637 106.302 81.1676H105.465V76.8293H108.919V75.0731H105.43V74.0263ZM126.435 77.2132H127.993V78.2948H126.435V83.5985H125.144V73.1075H126.435V77.2132ZM118.142 80.7257C119.425 80.086 120.414 79.3164 121.108 78.4169C121.802 77.5136 122.213 76.4649 122.341 75.2708H118.712V74.2008H123.655C123.647 77.6513 122.054 80.1596 118.875 81.7259L118.142 80.7257ZM131.017 74.0961H135.553V73.2703H136.833V76.7712H133.902V77.5737H138.077V78.5972H128.494V77.5737H132.622V76.7712H129.738V73.2703H131.017V74.0961ZM129.622 79.2602H136.879V81.8073H130.901V82.5401H137.17V83.5287H129.633V80.9001H135.612V80.2139H129.622V79.2602ZM135.553 75.8058V75.0382H131.017V75.8058H135.553ZM147.173 77.3062H148.626V78.3762H147.173V83.6217H145.87V73.1075H147.173V77.3062ZM138.636 80.6093C139.116 80.0976 139.502 79.5665 139.793 79.0159C140.084 78.4654 140.299 77.8877 140.438 77.2829C140.582 76.6781 140.671 76.0074 140.706 75.2708H139.054V74.2124H141.939C141.935 75.2204 141.871 76.1276 141.747 76.934C141.623 77.7365 141.392 78.5081 141.055 79.2485C140.721 79.989 140.252 80.6869 139.647 81.3421L138.636 80.6093ZM141.613 81.3072C142.094 80.7295 142.476 80.1247 142.759 79.4928C143.046 78.857 143.253 78.1998 143.381 77.5214C143.509 76.839 143.588 76.0889 143.619 75.2708H142.288V74.2124H144.846C144.843 75.2863 144.784 76.2594 144.672 77.1317C144.563 78.0041 144.348 78.857 144.026 79.6905C143.709 80.5202 143.249 81.2956 142.648 82.0167L141.613 81.3072ZM158.687 82.3423H149.08V81.2839H151.301V78.6263C150.875 78.3821 150.544 78.0738 150.307 77.7017C150.074 77.3295 149.96 76.9146 149.964 76.4572C149.964 75.9066 150.129 75.422 150.458 75.0033C150.792 74.5807 151.255 74.2551 151.848 74.0263C152.441 73.7937 153.112 73.6774 153.86 73.6774C154.612 73.6774 155.285 73.7937 155.878 74.0263C156.475 74.2551 156.94 74.5807 157.274 75.0033C157.611 75.422 157.78 75.9066 157.78 76.4572C157.784 76.9069 157.671 77.314 157.443 77.6784C157.214 78.0428 156.892 78.3491 156.477 78.5972V81.2839H158.687V82.3423ZM151.232 76.4572C151.232 76.81 151.34 77.1201 151.557 77.3876C151.778 77.6513 152.087 77.8548 152.482 77.9982C152.881 78.1417 153.341 78.2134 153.86 78.2134C154.38 78.2134 154.839 78.1417 155.239 77.9982C155.642 77.8548 155.954 77.6513 156.175 77.3876C156.4 77.1201 156.512 76.81 156.512 76.4572C156.512 76.1005 156.4 75.7884 156.175 75.5209C155.954 75.2534 155.642 75.0498 155.239 74.9103C154.839 74.7707 154.38 74.7009 153.86 74.7009C153.337 74.7009 152.876 74.7707 152.476 74.9103C152.081 75.0498 151.774 75.2534 151.557 75.5209C151.34 75.7845 151.232 76.0966 151.232 76.4572ZM155.163 81.2839V79.0915C154.752 79.1807 154.318 79.2253 153.86 79.2253C153.422 79.2253 152.996 79.1826 152.581 79.0973V81.2839H155.163ZM161.153 80.0045C161.157 79.5277 161.203 79.1419 161.292 78.8473C161.381 78.5526 161.506 78.3161 161.665 78.1378C161.827 77.9595 162.044 77.7869 162.316 77.6202C162.591 77.4419 162.806 77.25 162.961 77.0445C163.116 76.839 163.192 76.6006 163.188 76.3292C163.188 76.116 163.138 75.9299 163.037 75.7709C162.94 75.6081 162.804 75.4821 162.63 75.3929C162.455 75.3038 162.262 75.2592 162.048 75.2592C161.851 75.2592 161.665 75.3018 161.49 75.3871C161.316 75.4724 161.172 75.6023 161.06 75.7768C160.947 75.9512 160.885 76.1625 160.874 76.4106H159.42C159.431 75.9066 159.555 75.4782 159.792 75.1254C160.028 74.7688 160.342 74.5013 160.734 74.3229C161.129 74.1407 161.571 74.0496 162.06 74.0496C162.579 74.0496 163.039 74.1426 163.438 74.3287C163.841 74.5109 164.153 74.7726 164.374 75.1138C164.599 75.455 164.712 75.8524 164.712 76.306C164.708 76.7596 164.599 77.1492 164.386 77.4749C164.177 77.8005 163.874 78.0816 163.479 78.3181C163.246 78.4615 163.06 78.6069 162.921 78.7542C162.785 78.9016 162.684 79.0741 162.618 79.2718C162.552 79.4695 162.517 79.7138 162.514 80.0045V80.1092H161.153V80.0045ZM160.967 81.7724C160.967 81.6135 161.007 81.4661 161.089 81.3305C161.17 81.1909 161.281 81.0804 161.42 80.999C161.56 80.9176 161.711 80.8769 161.874 80.8769C162.033 80.8769 162.18 80.9176 162.316 80.999C162.455 81.0804 162.566 81.1909 162.647 81.3305C162.729 81.4661 162.769 81.6135 162.769 81.7724C162.769 81.9353 162.729 82.0865 162.647 82.226C162.566 82.3656 162.455 82.4761 162.316 82.5575C162.18 82.6389 162.033 82.6796 161.874 82.6796C161.711 82.6796 161.56 82.6389 161.42 82.5575C161.281 82.4761 161.17 82.3656 161.089 82.226C161.007 82.0865 160.967 81.9353 160.967 81.7724Z" fill="#757575"/>
<path d="M87.2673 94.3127L93.2799 102.578C94.3537 104.056 92.6181 105.938 91.0591 104.984L77.5319 96.7182C76.0927 95.8392 76.7159 93.6246 78.4027 93.6246H85.9174C86.4513 93.6246 86.9527 93.8803 87.2673 94.3127V94.3127Z" fill="#F5F5F5"/>
</svg>
