<svg width="250" height="250" viewBox="0 0 250 250" fill="none" xmlns="http://www.w3.org/2000/svg">
<rect width="250" height="250" fill="#DBDBDB"/>
<path fill-rule="evenodd" clip-rule="evenodd" d="M40.9206 205.442H79.0394H79.0396C78.8917 205.442 78.7446 205.438 78.5986 205.43C77.5556 205.371 76.5619 205.104 75.6502 204.666C75.0446 204.375 74.475 204.009 73.9514 203.578C73.6073 203.294 73.2832 202.983 72.9815 202.646C72.6684 202.298 72.3793 201.922 72.1176 201.523C71.0827 199.945 70.4719 198 70.4719 195.896V179.601L40.9206 205.442ZM70.4717 179.601H49.6169V178.784C49.6169 178.091 49.274 177.465 48.7168 177.01C48.1596 176.555 47.3952 176.274 46.5451 176.274C45.1616 176.274 43.9924 177.02 43.6067 178.046C43.3686 177.939 43.1019 177.879 42.8209 177.879C41.8255 177.879 41.0064 178.634 40.904 179.601C37.344 179.606 34.1198 181.051 31.7862 183.385C29.4478 185.723 28 188.954 28 192.521C28 199.658 33.7864 205.442 40.9206 205.442" fill="#C2C2C2"/>
<path d="M92.9795 176.848V198.253C92.9795 202.222 95.8679 205.439 99.4327 205.439H121.595C125.16 205.439 128.048 202.222 128.048 198.253V188.273H118.364C116.821 188.273 115.425 187.578 114.415 186.454C113.406 185.33 112.782 183.775 112.782 182.056C112.782 178.617 115.28 175.833 118.364 175.833H128.024C127.55 165.518 119.892 157.314 110.515 157.314C105.672 157.314 101.29 159.5 98.1158 163.037C94.9416 166.57 92.9795 171.454 92.9795 176.848Z" fill="#D9DEFF"/>
<path d="M153.318 205.263C152.787 205.38 152.239 205.439 151.677 205.439H79.0394C74.3055 205.439 70.4717 201.165 70.4717 195.893V169.435C70.4717 141.879 90.7075 118.948 115.442 119C135.361 119.043 152.237 133.54 158.063 153.578C154.561 157.396 152.413 162.506 152.413 168.094V203.806C152.413 204.447 152.782 204.999 153.318 205.263Z" fill="#F5F5F5"/>
<path d="M128.048 176.848V198.253C128.048 202.222 125.16 205.439 121.595 205.439H99.4327C95.8679 205.439 92.9795 202.222 92.9795 198.253V188.273H102.664C104.207 188.273 105.602 187.578 106.612 186.454C107.622 185.33 108.246 183.775 108.246 182.056C108.246 178.617 105.748 175.833 102.664 175.833H93.0033C93.4772 165.518 101.135 157.314 110.513 157.314C115.356 157.314 119.738 159.5 122.912 163.037C126.086 166.57 128.048 171.454 128.048 176.848Z" fill="#A8A8A8"/>
<path fill-rule="evenodd" clip-rule="evenodd" d="M206.719 205.439C215.089 205.439 222.01 198.708 222 190.337C221.995 185.818 220.161 181.729 217.199 178.767C214.232 175.8 210.134 173.966 205.607 173.966H200.683C198.978 173.966 197.437 173.276 196.32 172.159C195.204 171.042 194.513 169.499 194.513 167.797C194.513 156.507 185.624 147.292 174.461 146.77C167.996 146.468 162.119 149.159 158.064 153.581C158.064 153.581 158.064 153.581 158.064 153.581C154.561 157.398 152.413 162.508 152.413 168.097V203.808C152.413 204.449 152.782 205.001 153.318 205.265C153.537 205.377 153.782 205.439 154.044 205.439H206.719Z" fill="#A8A8A8"/>
<path d="M112.791 168.244C113.412 168.244 113.915 167.741 113.915 167.121C113.915 166.5 113.412 165.997 112.791 165.997C112.171 165.997 111.667 166.5 111.667 167.121C111.667 167.741 112.171 168.244 112.791 168.244Z" fill="white"/>
<path d="M118.514 168.244C119.134 168.244 119.638 167.741 119.638 167.121C119.638 166.5 119.134 165.997 118.514 165.997C117.893 165.997 117.39 166.5 117.39 167.121C117.39 167.741 117.893 168.244 118.514 168.244Z" fill="white"/>
<path d="M115.651 171.288C114.601 171.288 113.873 170.733 113.827 170.697C113.596 170.516 113.554 170.181 113.735 169.95C113.916 169.719 114.247 169.676 114.48 169.854C114.53 169.892 115.585 170.662 116.856 169.83C117.104 169.669 117.433 169.738 117.595 169.985C117.756 170.231 117.687 170.562 117.44 170.723C116.794 171.147 116.182 171.288 115.651 171.288Z" fill="white"/>
<path d="M166.031 161.667C166.896 161.667 167.598 160.966 167.598 160.101C167.598 159.235 166.896 158.534 166.031 158.534C165.166 158.534 164.464 159.235 164.464 160.101C164.464 160.966 165.166 161.667 166.031 161.667Z" fill="white"/>
<path d="M174.006 161.667C174.871 161.667 175.573 160.966 175.573 160.101C175.573 159.235 174.871 158.534 174.006 158.534C173.14 158.534 172.439 159.235 172.439 160.101C172.439 160.966 173.14 161.667 174.006 161.667Z" fill="white"/>
<path d="M40.6183 188.471C41.3403 188.471 41.9256 187.886 41.9256 187.163C41.9256 186.441 41.3403 185.856 40.6183 185.856C39.8963 185.856 39.311 186.441 39.311 187.163C39.311 187.886 39.8963 188.471 40.6183 188.471Z" fill="#8F8F8F"/>
<path d="M47.2787 188.471C48.0007 188.471 48.586 187.886 48.586 187.163C48.586 186.441 48.0007 185.856 47.2787 185.856C46.5567 185.856 45.9714 186.441 45.9714 187.163C45.9714 187.886 46.5567 188.471 47.2787 188.471Z" fill="#8F8F8F"/>
<g opacity="0.8">
<path opacity="0.8" d="M46.1355 190.295V190.592C46.1355 191.654 45.1378 192.519 43.9115 192.519C42.685 192.519 41.6873 191.654 41.6873 190.592V190.295C41.6873 189.947 41.9706 189.661 42.3207 189.661H45.5045C45.8546 189.661 46.1377 189.945 46.1377 190.295H46.1355Z" fill="#8F8F8F"/>
</g>
<path fill-rule="evenodd" clip-rule="evenodd" d="M119.211 140.246C119.803 140.246 120.283 140.725 120.283 141.317V141.82C120.283 142.244 120.791 142.941 121.907 142.941C123.023 142.941 123.531 142.244 123.531 141.82V141.317C123.531 140.725 124.011 140.246 124.602 140.246C125.194 140.246 125.674 140.725 125.674 141.317V141.82C125.674 143.819 123.772 145.085 121.907 145.085C120.041 145.085 118.14 143.819 118.14 141.82V141.317C118.14 140.725 118.619 140.246 119.211 140.246Z" fill="#8F8F8F"/>
<path fill-rule="evenodd" clip-rule="evenodd" d="M133.991 140.246C134.583 140.246 135.063 140.725 135.063 141.317V141.82C135.063 142.244 135.571 142.941 136.687 142.941C137.803 142.941 138.311 142.244 138.311 141.82V141.317C138.311 140.725 138.791 140.246 139.382 140.246C139.974 140.246 140.454 140.725 140.454 141.317V141.82C140.454 143.819 138.553 145.085 136.687 145.085C134.821 145.085 132.92 143.819 132.92 141.82V141.317C132.92 140.725 133.399 140.246 133.991 140.246Z" fill="#8F8F8F"/>
<path d="M133.201 147.818V148.321C133.201 150.121 131.51 151.585 129.434 151.585C127.357 151.585 125.667 150.121 125.667 148.321V147.818C125.667 147.228 126.145 146.747 126.738 146.747H132.129C132.722 146.747 133.201 147.228 133.201 147.818Z" fill="#8F8F8F"/>
<rect x="41" y="44" width="167.4" height="52.9329" rx="26.4665" fill="#F5F5F5"/>
<path d="M65.3736 57.8752C65.9009 57.8752 66.37 58.0284 66.781 58.3346C67.1919 58.637 67.5137 59.0693 67.7463 59.6315C67.9828 60.1897 68.103 60.8411 68.1069 61.5854C68.103 62.3337 67.9828 62.9889 67.7463 63.551C67.5137 64.1132 67.1919 64.5474 66.781 64.8537C66.37 65.1561 65.9009 65.3073 65.3736 65.3073C64.8425 65.3073 64.3695 65.1561 63.9547 64.8537C63.5398 64.5474 63.2161 64.1132 62.9835 63.551C62.7548 62.9889 62.6404 62.3337 62.6404 61.5854C62.6404 60.8411 62.7548 60.1897 62.9835 59.6315C63.2161 59.0693 63.5398 58.637 63.9547 58.3346C64.3695 58.0284 64.8425 57.8752 65.3736 57.8752ZM63.8849 61.5854C63.8849 62.1127 63.9469 62.5702 64.071 62.9579C64.195 63.3417 64.3695 63.6344 64.5944 63.836C64.8192 64.0376 65.079 64.1403 65.3736 64.1442C65.6722 64.1403 65.9319 64.0376 66.1529 63.836C66.3778 63.6344 66.5522 63.3417 66.6763 62.9579C66.8003 62.5741 66.8624 62.1166 66.8624 61.5854C66.8624 61.0582 66.8003 60.6026 66.6763 60.2188C66.5522 59.835 66.3778 59.5423 66.1529 59.3407C65.928 59.1391 65.6683 59.0383 65.3736 59.0383C65.079 59.0383 64.8192 59.141 64.5944 59.3465C64.3695 59.5481 64.195 59.8408 64.071 60.2246C63.9469 60.6046 63.8849 61.0582 63.8849 61.5854ZM69.4909 57.1076H70.7819V61.1435H72.3986V62.2368H70.7819V67.6218H69.4909V57.1076ZM76.8299 58.9336C76.8299 59.3717 76.9288 59.7982 77.1265 60.213C77.3281 60.624 77.6208 60.9903 78.0046 61.3121C78.3923 61.6339 78.8576 61.8801 79.4003 62.0507L78.7374 63.0509C78.152 62.8609 77.6441 62.5799 77.2137 62.2077C76.7834 61.8316 76.4442 61.3877 76.1961 60.876C75.9557 61.4304 75.6126 61.913 75.1667 62.324C74.7248 62.7349 74.1975 63.0432 73.585 63.2486L72.922 62.2484C73.4686 62.0623 73.9378 61.7987 74.3293 61.4575C74.7209 61.1125 75.0175 60.7228 75.2191 60.2886C75.4207 59.8505 75.5234 59.3989 75.5273 58.9336V58.8057H73.2593V57.7705H79.0398V58.8057H76.8299V58.9336ZM74.4224 63.9349H81.5985V67.6218H80.2959V64.9816H74.4224V63.9349ZM80.2959 57.1076H81.5985V63.4464H80.2959V57.1076ZM95.5555 63.0393H85.9601V61.9809H95.5555V63.0393ZM87.0766 65.6795C87.0766 65.2763 87.222 64.9312 87.5128 64.6443C87.8074 64.3574 88.2281 64.1403 88.7747 63.993C89.3253 63.8457 89.9805 63.772 90.7403 63.772C91.4925 63.772 92.1418 63.8457 92.6885 63.993C93.2351 64.1403 93.6538 64.3574 93.9446 64.6443C94.2354 64.9312 94.3808 65.2763 94.3808 65.6795C94.3808 66.0904 94.2354 66.4393 93.9446 66.7262C93.6538 67.017 93.2351 67.2361 92.6885 67.3834C92.1457 67.5346 91.4963 67.6102 90.7403 67.6102C89.9805 67.6102 89.3253 67.5346 88.7747 67.3834C88.2281 67.2361 87.8074 67.017 87.5128 66.7262C87.222 66.4355 87.0766 66.0865 87.0766 65.6795ZM87.1348 57.4449H94.3924V58.4917H88.4258V60.12H94.4505V61.1551H87.1348V57.4449ZM88.3909 65.6795C88.387 65.9896 88.5848 66.2222 88.9841 66.3773C89.3834 66.5324 89.9688 66.6099 90.7403 66.6099C91.5002 66.6099 92.0798 66.5324 92.4791 66.3773C92.8823 66.2222 93.0859 65.9896 93.0897 65.6795C93.082 65.3809 92.8765 65.1541 92.4733 64.9991C92.0701 64.8401 91.4925 64.7606 90.7403 64.7606C89.9766 64.7606 89.3931 64.8401 88.9899 64.9991C88.5867 65.1541 88.387 65.3809 88.3909 65.6795ZM105.849 63.8418H96.2417V62.795H100.405V61.9227H97.4629V59.1313H103.371V58.3521H97.428V57.3402H104.662V60.0734H98.7423V60.9109H104.872V61.9227H101.685V62.795H105.849V63.8418ZM97.3117 64.5048H104.721V67.552H103.418V65.5283H97.3117V64.5048ZM112.664 61.4459H110.71V62.638C111.641 62.5993 112.498 62.5392 113.281 62.4577L113.374 63.3882C112.362 63.5278 111.305 63.6247 110.204 63.679C109.107 63.7294 107.962 63.7565 106.768 63.7604L106.593 62.7253C107.83 62.7175 108.768 62.7039 109.408 62.6845V61.4459H107.5V57.7589H112.583V58.8057H108.803V60.4107H112.664V61.4459ZM108.268 64.4233H109.571V66.3657H115.619V67.4125H108.268V64.4233ZM114.013 57.1076H115.316V65.0049H114.013V57.1076ZM123.423 59.6315C123.419 60.2634 123.518 60.8798 123.719 61.4808C123.925 62.0817 124.219 62.6206 124.603 63.0974C124.991 63.5704 125.45 63.9349 125.982 64.1907L125.191 65.2259C124.632 64.9429 124.148 64.5397 123.737 64.0163C123.33 63.4929 123.012 62.8881 122.783 62.2019C122.547 62.9346 122.213 63.5821 121.783 64.1442C121.356 64.7025 120.849 65.1289 120.259 65.4236L119.468 64.3885C120.015 64.1287 120.488 63.7507 120.887 63.2545C121.29 62.7543 121.597 62.1902 121.806 61.5622C122.019 60.9302 122.128 60.2867 122.132 59.6315V57.9566H123.423V59.6315ZM126.61 57.1076H127.901V61.2249H129.517V62.3298H127.901V67.6218H126.61V57.1076ZM133.949 59.2477C133.949 59.6896 134.047 60.1161 134.245 60.527C134.443 60.938 134.736 61.3044 135.123 61.6261C135.511 61.9441 135.976 62.1864 136.519 62.3531L135.856 63.3649C135.271 63.175 134.763 62.8939 134.332 62.5217C133.902 62.1457 133.563 61.7017 133.315 61.19C133.074 61.7444 132.731 62.2271 132.285 62.638C131.843 63.049 131.316 63.3611 130.704 63.5743L130.041 62.5508C130.587 62.3686 131.056 62.1088 131.448 61.7715C131.84 61.4304 132.136 61.0427 132.338 60.6085C132.539 60.1704 132.642 59.7168 132.646 59.2477V58.9453H130.378V57.9101H136.158V58.9453H133.949V59.2477ZM131.762 64.0512H133.065V66.3657H139.008V67.4125H131.762V64.0512ZM137.415 57.1192H138.717V64.749H137.415V57.1192ZM148.999 67.6334H147.696V57.1076H148.999V67.6334ZM140.59 61.5854C140.59 60.8449 140.706 60.1936 140.939 59.6315C141.171 59.0693 141.495 58.637 141.91 58.3346C142.329 58.0284 142.804 57.8752 143.335 57.8752C143.858 57.8752 144.327 58.0284 144.742 58.3346C145.161 58.637 145.488 59.0693 145.725 59.6315C145.961 60.1936 146.08 60.8449 146.08 61.5854C146.08 62.3337 145.961 62.9889 145.725 63.551C145.488 64.1132 145.161 64.5474 144.742 64.8537C144.327 65.1561 143.858 65.3073 143.335 65.3073C142.804 65.3073 142.329 65.1561 141.91 64.8537C141.495 64.5474 141.171 64.1132 140.939 63.551C140.706 62.9889 140.59 62.3337 140.59 61.5854ZM141.834 61.5854C141.834 62.1166 141.896 62.5741 142.02 62.9579C142.148 63.3417 142.325 63.6344 142.55 63.836C142.774 64.0376 143.036 64.1403 143.335 64.1442C143.629 64.1403 143.889 64.0376 144.114 63.836C144.339 63.6344 144.513 63.3417 144.637 62.9579C144.761 62.5741 144.823 62.1166 144.823 61.5854C144.823 61.0582 144.761 60.6046 144.637 60.2246C144.513 59.8408 144.339 59.5481 144.114 59.3465C143.889 59.141 143.629 59.0383 143.335 59.0383C143.036 59.0383 142.774 59.141 142.55 59.3465C142.325 59.5481 142.148 59.8408 142.02 60.2246C141.896 60.6046 141.834 61.0582 141.834 61.5854ZM155.756 64.3885H157.14V63.2603H158.338V66.5983C158.738 66.4316 159.071 66.2106 159.339 65.9353C159.61 65.6601 159.812 65.3577 159.943 65.0281C160.075 64.6986 160.141 64.3613 160.141 64.0163V63.1789H161.432V64.0163C161.428 64.3923 161.492 64.7509 161.624 65.0921C161.76 65.4294 161.967 65.7318 162.246 65.9993C162.525 66.2629 162.874 66.4665 163.293 66.6099L162.63 67.5753C161.75 67.2574 161.132 66.6681 160.775 65.8074C160.593 66.2067 160.349 66.5576 160.042 66.86C159.74 67.1663 159.377 67.4047 158.955 67.5753L158.338 66.6623V67.4939H154.547V63.2603H155.756V64.3885ZM153.512 59.9804C153.512 59.5074 153.63 59.0868 153.866 58.7185C154.107 58.3463 154.438 58.0574 154.861 57.852C155.283 57.6426 155.76 57.5379 156.291 57.5379C156.737 57.5379 157.148 57.6174 157.524 57.7764C157.9 57.9314 158.214 58.1524 158.466 58.4393C158.722 58.7262 158.895 59.0577 158.984 59.4337H160.885V57.1076H162.177V62.6787H160.885V60.5038H158.99C158.904 60.8876 158.736 61.2268 158.484 61.5215C158.232 61.8161 157.916 62.0449 157.536 62.2077C157.156 62.3666 156.741 62.4461 156.291 62.4461C155.76 62.4461 155.283 62.3434 154.861 62.1379C154.438 61.9285 154.107 61.6378 153.866 61.2656C153.63 60.8895 153.512 60.4611 153.512 59.9804ZM154.744 59.9804C154.744 60.2595 154.81 60.5057 154.942 60.7189C155.074 60.9322 155.256 61.0969 155.489 61.2133C155.725 61.3296 155.993 61.3877 156.291 61.3877C156.586 61.3877 156.848 61.3296 157.076 61.2133C157.305 61.0969 157.485 60.9322 157.617 60.7189C157.749 60.5057 157.815 60.2595 157.815 59.9804C157.815 59.709 157.749 59.4686 157.617 59.2593C157.485 59.0499 157.303 58.889 157.071 58.7766C156.842 58.6642 156.582 58.608 156.291 58.608C155.993 58.608 155.725 58.6642 155.489 58.7766C155.256 58.889 155.074 59.0499 154.942 59.2593C154.81 59.4686 154.744 59.709 154.744 59.9804ZM157.14 66.5053V65.3538H155.756V66.5053H157.14ZM166.538 57.8752C167.007 57.8752 167.432 58.0012 167.812 58.2532C168.192 58.5052 168.502 58.8658 168.742 59.3349C168.982 59.8001 169.134 60.3487 169.196 60.9806H171.202V57.1076H172.481V67.6334H171.202V62.0274H169.207C169.161 62.6942 169.019 63.2758 168.783 63.772C168.546 64.2644 168.234 64.6443 167.846 64.9118C167.459 65.1755 167.023 65.3073 166.538 65.3073C166.011 65.3073 165.542 65.1561 165.131 64.8537C164.724 64.5474 164.406 64.1132 164.177 63.551C163.952 62.9889 163.84 62.3337 163.84 61.5854C163.84 60.8411 163.952 60.1897 164.177 59.6315C164.406 59.0693 164.726 58.637 165.137 58.3346C165.547 58.0284 166.015 57.8752 166.538 57.8752ZM165.084 61.5854C165.084 62.1166 165.144 62.5741 165.264 62.9579C165.385 63.3417 165.553 63.6344 165.77 63.836C165.991 64.0376 166.247 64.1403 166.538 64.1442C166.829 64.1403 167.085 64.0376 167.306 63.836C167.527 63.6344 167.697 63.3417 167.817 62.9579C167.941 62.5741 168.004 62.1166 168.004 61.5854C168.004 61.0582 167.941 60.6026 167.817 60.2188C167.697 59.835 167.527 59.5423 167.306 59.3407C167.085 59.1391 166.829 59.0383 166.538 59.0383C166.247 59.0383 165.991 59.141 165.77 59.3465C165.553 59.5481 165.385 59.8408 165.264 60.2246C165.144 60.6046 165.084 61.0582 165.084 61.5854ZM183.565 66.3424H173.958V65.284H176.18V62.6264C175.753 62.3821 175.422 62.0739 175.186 61.7017C174.953 61.3296 174.839 60.9147 174.842 60.4573C174.842 59.9067 175.007 59.4221 175.337 59.0034C175.67 58.5808 176.133 58.2552 176.727 58.0264C177.32 57.7938 177.99 57.6775 178.739 57.6775C179.491 57.6775 180.163 57.7938 180.757 58.0264C181.354 58.2552 181.819 58.5808 182.152 59.0034C182.49 59.4221 182.658 59.9067 182.658 60.4573C182.662 60.907 182.55 61.3141 182.321 61.6785C182.092 62.0429 181.77 62.3492 181.356 62.5973V65.284H183.565V66.3424ZM176.11 60.4573C176.11 60.8101 176.219 61.1202 176.436 61.3877C176.657 61.6513 176.965 61.8549 177.36 61.9983C177.76 62.1418 178.219 62.2135 178.739 62.2135C179.258 62.2135 179.718 62.1418 180.117 61.9983C180.52 61.8549 180.832 61.6513 181.053 61.3877C181.278 61.1202 181.391 60.8101 181.391 60.4573C181.391 60.1006 181.278 59.7885 181.053 59.521C180.832 59.2535 180.52 59.0499 180.117 58.9104C179.718 58.7708 179.258 58.701 178.739 58.701C178.215 58.701 177.754 58.7708 177.355 58.9104C176.959 59.0499 176.653 59.2535 176.436 59.521C176.219 59.7846 176.11 60.0967 176.11 60.4573ZM180.041 65.284V63.0916C179.63 63.1808 179.196 63.2254 178.739 63.2254C178.301 63.2254 177.874 63.1827 177.459 63.0974V65.284H180.041ZM185.531 66.6797C185.368 66.6797 185.217 66.639 185.077 66.5576C184.938 66.4762 184.827 66.3657 184.746 66.2261C184.665 66.0865 184.624 65.9353 184.624 65.7725C184.624 65.6136 184.665 65.4662 184.746 65.3305C184.827 65.191 184.938 65.0805 185.077 64.9991C185.217 64.9177 185.368 64.8769 185.531 64.8769C185.69 64.8769 185.837 64.9177 185.973 64.9991C186.113 65.0805 186.223 65.191 186.305 65.3305C186.386 65.4662 186.427 65.6136 186.427 65.7725C186.427 65.9353 186.386 66.0865 186.305 66.2261C186.223 66.3657 186.113 66.4762 185.973 66.5576C185.837 66.639 185.69 66.6797 185.531 66.6797ZM88.9317 80.4815H84.7679V83.6334H83.4885V80.4815H79.348V79.4231H88.9317V80.4815ZM79.8714 77.7599C80.5498 77.6785 81.1546 77.5176 81.6858 77.2772C82.2169 77.033 82.6376 76.7441 82.9477 76.4107C83.2579 76.0734 83.4343 75.7284 83.4769 75.3756H80.2319V74.3521H83.4885V73.1192H84.7679V74.3521H88.0362V75.3756H84.7912C84.8338 75.7284 85.0083 76.0715 85.3146 76.4049C85.6247 76.7383 86.0454 77.0272 86.5765 77.2714C87.1077 77.5157 87.7105 77.6785 88.3851 77.7599L87.9082 78.7834C87.0514 78.6749 86.2954 78.4442 85.6402 78.0914C84.985 77.7386 84.4849 77.3044 84.1399 76.7887C83.7909 77.3082 83.285 77.7444 82.6221 78.0972C81.963 78.4461 81.2012 78.6749 80.3366 78.7834L79.8714 77.7599ZM97.8758 77.2133H99.4343V78.2949H97.8758V83.5985H96.5848V73.1076H97.8758V77.2133ZM89.5831 80.7257C90.8663 80.0861 91.8549 79.3165 92.5489 78.417C93.2429 77.5137 93.6538 76.465 93.7818 75.2709H90.153V74.2009H95.0961C95.0883 77.6513 93.4949 80.1597 90.3158 81.726L89.5831 80.7257ZM108.169 77.2947H109.786V78.3647H108.169V83.6218H106.89V73.1076H108.169V77.2947ZM99.8763 74.7243H102.365V73.2588H103.656V74.7243H106.076V75.7594H99.8763V74.7243ZM100.365 78.923C100.361 78.4461 100.473 78.0197 100.702 77.6436C100.931 77.2637 101.247 76.969 101.65 76.7597C102.053 76.5503 102.509 76.4456 103.017 76.4456C103.517 76.4456 103.966 76.5503 104.366 76.7597C104.765 76.969 105.079 77.2637 105.308 77.6436C105.54 78.0197 105.657 78.4461 105.657 78.923C105.657 79.3998 105.54 79.8263 105.308 80.2024C105.079 80.5745 104.765 80.8653 104.366 81.0747C103.966 81.284 103.517 81.3887 103.017 81.3887C102.509 81.3887 102.053 81.284 101.65 81.0747C101.247 80.8653 100.931 80.5745 100.702 80.2024C100.473 79.8263 100.361 79.3998 100.365 78.923ZM101.598 78.923C101.598 79.2021 101.658 79.4483 101.778 79.6615C101.898 79.8709 102.065 80.0337 102.278 80.15C102.495 80.2625 102.741 80.3187 103.017 80.3187C103.284 80.3187 103.524 80.2625 103.738 80.15C103.951 80.0376 104.118 79.8748 104.238 79.6615C104.358 79.4483 104.42 79.2021 104.424 78.923C104.42 78.6438 104.356 78.3977 104.232 78.1844C104.112 77.9673 103.945 77.8006 103.732 77.6843C103.523 77.5641 103.284 77.504 103.017 77.504C102.741 77.504 102.495 77.5641 102.278 77.6843C102.065 77.8006 101.898 77.9673 101.778 78.1844C101.658 78.3977 101.598 78.6438 101.598 78.923ZM119.032 83.6334H117.741V78.039H115.938V76.9806H117.741V73.1076H119.032V83.6334ZM110.577 74.0264H115.334V77.8762H111.891V80.0861C112.755 80.0822 113.511 80.0589 114.159 80.0163C114.81 79.9736 115.465 79.8922 116.124 79.772L116.229 80.8304C115.496 80.9584 114.764 81.0456 114.031 81.0921C113.302 81.1386 112.441 81.1638 111.449 81.1677H110.611V76.8294H114.066V75.0732H110.577V74.0264ZM131.582 77.2133H133.14V78.2949H131.582V83.5985H130.291V73.1076H131.582V77.2133ZM123.289 80.7257C124.572 80.0861 125.561 79.3165 126.255 78.417C126.949 77.5137 127.36 76.465 127.488 75.2709H123.859V74.2009H128.802C128.794 77.6513 127.201 80.1597 124.022 81.726L123.289 80.7257ZM136.164 74.0962H140.7V73.2704H141.98V76.7713H139.049V77.5738H143.224V78.5973H133.64V77.5738H137.769V76.7713H134.885V73.2704H136.164V74.0962ZM134.769 79.2603H142.026V81.8074H136.048V82.5401H142.317V83.5288H134.78V80.9002H140.758V80.214H134.769V79.2603ZM140.7 75.8059V75.0383H136.164V75.8059H140.7ZM152.319 77.3063H153.773V78.3763H152.319V83.6218H151.017V73.1076H152.319V77.3063ZM143.782 80.6094C144.263 80.0977 144.649 79.5665 144.94 79.016C145.23 78.4655 145.446 77.8878 145.585 77.283C145.729 76.6782 145.818 76.0075 145.853 75.2709H144.201V74.2125H147.086C147.082 75.2205 147.018 76.1277 146.894 76.9341C146.77 77.7366 146.539 78.5081 146.202 79.2486C145.868 79.9891 145.399 80.687 144.794 81.3422L143.782 80.6094ZM146.76 81.3073C147.241 80.7296 147.623 80.1248 147.906 79.4929C148.192 78.8571 148.4 78.1999 148.528 77.5215C148.656 76.8391 148.735 76.0889 148.766 75.2709H147.435V74.2125H149.993C149.989 75.2864 149.931 76.2595 149.819 77.1318C149.71 78.0041 149.495 78.8571 149.173 79.6906C148.855 80.5203 148.396 81.2957 147.795 82.0168L146.76 81.3073ZM163.834 82.3424H154.227V81.284H156.448V78.6264C156.022 78.3821 155.69 78.0739 155.454 77.7017C155.221 77.3296 155.107 76.9147 155.111 76.4573C155.111 75.9067 155.276 75.4221 155.605 75.0034C155.939 74.5808 156.402 74.2552 156.995 74.0264C157.588 73.7938 158.259 73.6775 159.007 73.6775C159.759 73.6775 160.432 73.7938 161.025 74.0264C161.622 74.2552 162.087 74.5808 162.421 75.0034C162.758 75.4221 162.927 75.9067 162.927 76.4573C162.931 76.907 162.818 77.3141 162.589 77.6785C162.361 78.0429 162.039 78.3492 161.624 78.5973V81.284H163.834V82.3424ZM156.379 76.4573C156.379 76.8101 156.487 77.1202 156.704 77.3877C156.925 77.6513 157.233 77.8549 157.629 77.9983C158.028 78.1418 158.488 78.2135 159.007 78.2135C159.527 78.2135 159.986 78.1418 160.385 77.9983C160.789 77.8549 161.101 77.6513 161.322 77.3877C161.547 77.1202 161.659 76.8101 161.659 76.4573C161.659 76.1006 161.547 75.7885 161.322 75.521C161.101 75.2535 160.789 75.0499 160.385 74.9104C159.986 74.7708 159.527 74.701 159.007 74.701C158.484 74.701 158.022 74.7708 157.623 74.9104C157.228 75.0499 156.921 75.2535 156.704 75.521C156.487 75.7846 156.379 76.0967 156.379 76.4573ZM160.31 81.284V79.0916C159.899 79.1808 159.465 79.2254 159.007 79.2254C158.569 79.2254 158.143 79.1827 157.728 79.0974V81.284H160.31ZM166.3 80.0046C166.303 79.5278 166.35 79.142 166.439 78.8474C166.528 78.5527 166.652 78.3162 166.811 78.1379C166.974 77.9596 167.191 77.787 167.463 77.6203C167.738 77.442 167.953 77.2501 168.108 77.0446C168.263 76.8391 168.339 76.6007 168.335 76.3293C168.335 76.1161 168.285 75.93 168.184 75.771C168.087 75.6082 167.951 75.4822 167.777 75.393C167.602 75.3039 167.408 75.2593 167.195 75.2593C166.997 75.2593 166.811 75.3019 166.637 75.3872C166.462 75.4725 166.319 75.6024 166.207 75.7769C166.094 75.9513 166.032 76.1626 166.02 76.4107H164.567C164.578 75.9067 164.702 75.4783 164.939 75.1255C165.175 74.7689 165.489 74.5013 165.881 74.323C166.276 74.1408 166.718 74.0497 167.207 74.0497C167.726 74.0497 168.186 74.1427 168.585 74.3288C168.988 74.511 169.3 74.7727 169.521 75.1139C169.746 75.4551 169.859 75.8525 169.859 76.3061C169.855 76.7597 169.746 77.1493 169.533 77.4749C169.324 77.8006 169.021 78.0817 168.626 78.3182C168.393 78.4616 168.207 78.607 168.067 78.7543C167.932 78.9017 167.831 79.0742 167.765 79.2719C167.699 79.4696 167.664 79.7139 167.66 80.0046V80.1093H166.3V80.0046ZM166.114 81.7725C166.114 81.6136 166.154 81.4662 166.236 81.3305C166.317 81.191 166.428 81.0805 166.567 80.9991C166.707 80.9177 166.858 80.8769 167.021 80.8769C167.18 80.8769 167.327 80.9177 167.463 80.9991C167.602 81.0805 167.713 81.191 167.794 81.3305C167.876 81.4662 167.916 81.6136 167.916 81.7725C167.916 81.9353 167.876 82.0865 167.794 82.2261C167.713 82.3657 167.602 82.4762 167.463 82.5576C167.327 82.639 167.18 82.6797 167.021 82.6797C166.858 82.6797 166.707 82.639 166.567 82.5576C166.428 82.4762 166.317 82.3657 166.236 82.2261C166.154 82.0865 166.114 81.9353 166.114 81.7725Z" fill="#757575"/>
<path d="M87.2673 94.3126L93.2799 102.578C94.3537 104.056 92.6181 105.938 91.0591 104.984L77.5319 96.7181C76.0927 95.8391 76.7159 93.6245 78.4027 93.6245H85.9174C86.4513 93.6245 86.9527 93.8803 87.2673 94.3126V94.3126Z" fill="#F5F5F5"/>
</svg>
