<svg width="250" height="250" viewBox="0 0 250 250" fill="none" xmlns="http://www.w3.org/2000/svg">
<rect width="250" height="250" fill="#DBDBDB"/>
<path fill-rule="evenodd" clip-rule="evenodd" d="M40.9206 205.442H79.0394H79.0396C78.8917 205.442 78.7446 205.438 78.5986 205.43C77.5556 205.371 76.5619 205.104 75.6502 204.666C75.0446 204.375 74.475 204.009 73.9514 203.578C73.6073 203.294 73.2832 202.983 72.9815 202.646C72.6684 202.298 72.3793 201.922 72.1176 201.523C71.0827 199.945 70.4719 198 70.4719 195.896V179.601L40.9206 205.442ZM70.4717 179.601H49.6169V178.784C49.6169 178.091 49.274 177.465 48.7168 177.01C48.1596 176.555 47.3952 176.274 46.5451 176.274C45.1616 176.274 43.9924 177.02 43.6067 178.046C43.3686 177.939 43.1019 177.879 42.8209 177.879C41.8255 177.879 41.0064 178.634 40.904 179.601C37.344 179.606 34.1198 181.051 31.7862 183.385C29.4478 185.723 28 188.954 28 192.521C28 199.658 33.7864 205.442 40.9206 205.442" fill="#C2C2C2"/>
<path d="M92.9795 176.848V198.253C92.9795 202.222 95.8679 205.439 99.4327 205.439H121.595C125.16 205.439 128.048 202.222 128.048 198.253V188.273H118.364C116.821 188.273 115.425 187.578 114.415 186.454C113.406 185.33 112.782 183.775 112.782 182.056C112.782 178.617 115.28 175.833 118.364 175.833H128.024C127.55 165.518 119.892 157.314 110.515 157.314C105.672 157.314 101.29 159.5 98.1158 163.037C94.9416 166.57 92.9795 171.454 92.9795 176.848Z" fill="#D9DEFF"/>
<path d="M153.318 205.263C152.787 205.38 152.239 205.439 151.677 205.439H79.0394C74.3055 205.439 70.4717 201.165 70.4717 195.893V169.435C70.4717 141.879 90.7075 118.948 115.442 119C135.361 119.043 152.237 133.54 158.063 153.578C154.561 157.396 152.413 162.506 152.413 168.094V203.806C152.413 204.447 152.782 204.999 153.318 205.263Z" fill="#F5F5F5"/>
<path d="M128.048 176.848V198.253C128.048 202.222 125.16 205.439 121.595 205.439H99.4327C95.8679 205.439 92.9795 202.222 92.9795 198.253V188.273H102.664C104.207 188.273 105.602 187.578 106.612 186.454C107.622 185.33 108.246 183.775 108.246 182.056C108.246 178.617 105.748 175.833 102.664 175.833H93.0033C93.4772 165.518 101.135 157.314 110.513 157.314C115.356 157.314 119.738 159.5 122.912 163.037C126.086 166.57 128.048 171.454 128.048 176.848Z" fill="#A8A8A8"/>
<path fill-rule="evenodd" clip-rule="evenodd" d="M206.719 205.439C215.089 205.439 222.01 198.708 222 190.337C221.995 185.818 220.161 181.729 217.199 178.767C214.232 175.8 210.134 173.966 205.607 173.966H200.683C198.978 173.966 197.437 173.276 196.32 172.159C195.204 171.042 194.513 169.499 194.513 167.797C194.513 156.507 185.624 147.292 174.461 146.77C167.996 146.468 162.119 149.159 158.064 153.581C158.064 153.581 158.064 153.581 158.064 153.581C154.561 157.398 152.413 162.508 152.413 168.097V203.808C152.413 204.449 152.782 205.001 153.318 205.265C153.537 205.377 153.782 205.439 154.044 205.439H206.719Z" fill="#A8A8A8"/>
<path d="M112.791 168.244C113.412 168.244 113.915 167.741 113.915 167.121C113.915 166.5 113.412 165.997 112.791 165.997C112.171 165.997 111.667 166.5 111.667 167.121C111.667 167.741 112.171 168.244 112.791 168.244Z" fill="white"/>
<path d="M118.514 168.244C119.134 168.244 119.638 167.741 119.638 167.121C119.638 166.5 119.134 165.997 118.514 165.997C117.893 165.997 117.39 166.5 117.39 167.121C117.39 167.741 117.893 168.244 118.514 168.244Z" fill="white"/>
<path d="M115.651 171.288C114.601 171.288 113.873 170.733 113.827 170.697C113.596 170.516 113.554 170.181 113.735 169.95C113.916 169.719 114.247 169.676 114.48 169.854C114.53 169.892 115.585 170.662 116.856 169.83C117.104 169.669 117.433 169.738 117.595 169.985C117.756 170.231 117.687 170.562 117.44 170.723C116.794 171.147 116.182 171.288 115.651 171.288Z" fill="white"/>
<path d="M166.031 161.667C166.896 161.667 167.598 160.966 167.598 160.101C167.598 159.235 166.896 158.534 166.031 158.534C165.166 158.534 164.464 159.235 164.464 160.101C164.464 160.966 165.166 161.667 166.031 161.667Z" fill="white"/>
<path d="M174.006 161.667C174.871 161.667 175.573 160.966 175.573 160.101C175.573 159.235 174.871 158.534 174.006 158.534C173.14 158.534 172.439 159.235 172.439 160.101C172.439 160.966 173.14 161.667 174.006 161.667Z" fill="white"/>
<path d="M40.6183 188.471C41.3403 188.471 41.9256 187.886 41.9256 187.163C41.9256 186.441 41.3403 185.856 40.6183 185.856C39.8963 185.856 39.311 186.441 39.311 187.163C39.311 187.886 39.8963 188.471 40.6183 188.471Z" fill="#8F8F8F"/>
<path d="M47.2787 188.471C48.0007 188.471 48.586 187.886 48.586 187.163C48.586 186.441 48.0007 185.856 47.2787 185.856C46.5567 185.856 45.9714 186.441 45.9714 187.163C45.9714 187.886 46.5567 188.471 47.2787 188.471Z" fill="#8F8F8F"/>
<g opacity="0.8">
<path opacity="0.8" d="M46.1355 190.295V190.592C46.1355 191.654 45.1378 192.519 43.9115 192.519C42.685 192.519 41.6873 191.654 41.6873 190.592V190.295C41.6873 189.947 41.9706 189.661 42.3207 189.661H45.5045C45.8546 189.661 46.1377 189.945 46.1377 190.295H46.1355Z" fill="#8F8F8F"/>
</g>
<path fill-rule="evenodd" clip-rule="evenodd" d="M119.211 140.246C119.803 140.246 120.283 140.725 120.283 141.317V141.82C120.283 142.244 120.791 142.941 121.907 142.941C123.023 142.941 123.531 142.244 123.531 141.82V141.317C123.531 140.725 124.011 140.246 124.602 140.246C125.194 140.246 125.674 140.725 125.674 141.317V141.82C125.674 143.819 123.772 145.085 121.907 145.085C120.041 145.085 118.14 143.819 118.14 141.82V141.317C118.14 140.725 118.619 140.246 119.211 140.246Z" fill="#8F8F8F"/>
<path fill-rule="evenodd" clip-rule="evenodd" d="M133.991 140.246C134.583 140.246 135.063 140.725 135.063 141.317V141.82C135.063 142.244 135.571 142.941 136.687 142.941C137.803 142.941 138.311 142.244 138.311 141.82V141.317C138.311 140.725 138.791 140.246 139.382 140.246C139.974 140.246 140.454 140.725 140.454 141.317V141.82C140.454 143.819 138.553 145.085 136.687 145.085C134.821 145.085 132.92 143.819 132.92 141.82V141.317C132.92 140.725 133.399 140.246 133.991 140.246Z" fill="#8F8F8F"/>
<path d="M133.201 147.818V148.321C133.201 150.121 131.51 151.585 129.434 151.585C127.357 151.585 125.667 150.121 125.667 148.321V147.818C125.667 147.228 126.145 146.747 126.738 146.747H132.129C132.722 146.747 133.201 147.228 133.201 147.818Z" fill="#8F8F8F"/>
<rect x="41" y="44" width="167.4" height="52.9329" rx="26.4665" fill="#F5F5F5"/>
<path d="M66.8138 57.8752C67.341 57.8752 67.8101 58.0284 68.2211 58.3346C68.632 58.637 68.9538 59.0693 69.1864 59.6315C69.4229 60.1897 69.5431 60.8411 69.547 61.5854C69.5431 62.3337 69.4229 62.9889 69.1864 63.551C68.9538 64.1132 68.632 64.5474 68.2211 64.8537C67.8101 65.1561 67.341 65.3073 66.8138 65.3073C66.2826 65.3073 65.8096 65.1561 65.3948 64.8537C64.98 64.5474 64.6563 64.1132 64.4236 63.551C64.1949 62.9889 64.0805 62.3337 64.0805 61.5854C64.0805 60.8411 64.1949 60.1897 64.4236 59.6315C64.6563 59.0693 64.98 58.637 65.3948 58.3346C65.8096 58.0284 66.2826 57.8752 66.8138 57.8752ZM65.325 61.5854C65.325 62.1127 65.3871 62.5702 65.5111 62.9579C65.6352 63.3417 65.8096 63.6344 66.0345 63.836C66.2594 64.0376 66.5191 64.1403 66.8138 64.1442C67.1123 64.1403 67.372 64.0376 67.593 63.836C67.8179 63.6344 67.9924 63.3417 68.1164 62.9579C68.2405 62.5741 68.3025 62.1166 68.3025 61.5854C68.3025 61.0582 68.2405 60.6026 68.1164 60.2188C67.9924 59.835 67.8179 59.5423 67.593 59.3407C67.3682 59.1391 67.1084 59.0383 66.8138 59.0383C66.5191 59.0383 66.2594 59.141 66.0345 59.3465C65.8096 59.5481 65.6352 59.8408 65.5111 60.2246C65.3871 60.6046 65.325 61.0582 65.325 61.5854ZM70.9311 57.1076H72.2221V61.1435H73.8388V62.2368H72.2221V67.6218H70.9311V57.1076ZM78.2701 58.9336C78.2701 59.3717 78.3689 59.7982 78.5667 60.213C78.7683 60.624 79.061 60.9903 79.4448 61.3121C79.8325 61.6339 80.2977 61.8801 80.8405 62.0507L80.1775 63.0509C79.5921 62.8609 79.0842 62.5799 78.6539 62.2077C78.2236 61.8316 77.8843 61.3877 77.6362 60.876C77.3958 61.4304 77.0527 61.913 76.6069 62.324C76.1649 62.7349 75.6376 63.0432 75.0251 63.2486L74.3621 62.2484C74.9088 62.0623 75.3779 61.7987 75.7695 61.4575C76.161 61.1125 76.4576 60.7228 76.6592 60.2886C76.8608 59.8505 76.9636 59.3989 76.9674 58.9336V58.8057H74.6994V57.7705H80.4799V58.8057H78.2701V58.9336ZM75.8625 63.9349H83.0387V67.6218H81.736V64.9816H75.8625V63.9349ZM81.736 57.1076H83.0387V63.4464H81.736V57.1076ZM92.1805 57.3169C92.952 57.3169 93.6227 57.3984 94.1926 57.5612C94.7625 57.724 95.2006 57.9605 95.5069 58.2707C95.817 58.5769 95.9721 58.9414 95.9721 59.364C95.9721 59.7788 95.817 60.1374 95.5069 60.4398C95.2006 60.7383 94.7625 60.9671 94.1926 61.126C93.6227 61.285 92.952 61.3645 92.1805 61.3645C91.4167 61.3645 90.7479 61.285 90.1742 61.126C89.6043 60.9671 89.1642 60.7383 88.8541 60.4398C88.5439 60.1374 88.3888 59.7788 88.3888 59.364C88.3888 58.9414 88.5439 58.5769 88.8541 58.2707C89.1642 57.9605 89.6043 57.724 90.1742 57.5612C90.7479 57.3984 91.4167 57.3169 92.1805 57.3169ZM87.4002 62.0739H96.984V63.1207H87.4002V62.0739ZM88.5284 63.9581H95.8209V67.4939H88.5284V63.9581ZM89.738 59.364C89.7341 59.678 89.9474 59.9222 90.3777 60.0967C90.808 60.2712 91.409 60.3603 92.1805 60.3642C92.952 60.3603 93.5529 60.2712 93.9832 60.0967C94.4175 59.9222 94.6346 59.678 94.6346 59.364C94.6346 59.0305 94.4194 58.7747 93.9891 58.5963C93.5587 58.418 92.9559 58.3288 92.1805 58.3288C91.4051 58.3288 90.8022 58.418 90.3719 58.5963C89.9454 58.7747 89.7341 59.0305 89.738 59.364ZM94.5648 66.4471V64.9816H89.8078V66.4471H94.5648ZM101.543 58.6196C101.539 59.1042 101.63 59.5636 101.817 59.9978C102.007 60.4282 102.288 60.8081 102.66 61.1377C103.032 61.4633 103.486 61.7095 104.021 61.8762L103.323 62.8881C102.761 62.6865 102.278 62.4015 101.875 62.0332C101.472 61.6649 101.156 61.2268 100.927 60.7189C100.69 61.3044 100.351 61.8122 99.9091 62.2426C99.4671 62.669 98.9341 62.9928 98.3099 63.2137L97.6237 62.167C98.1897 61.9809 98.6685 61.7114 99.0601 61.3586C99.4516 61.0058 99.7443 60.6007 99.9382 60.1432C100.136 59.6819 100.237 59.1934 100.241 58.6777V57.6775H101.543V58.6196ZM99.3683 65.5981C99.3644 65.1755 99.5059 64.813 99.7928 64.5106C100.08 64.2043 100.491 63.9717 101.026 63.8127C101.565 63.6538 102.202 63.5743 102.939 63.5743C103.679 63.5743 104.319 63.6538 104.858 63.8127C105.397 63.9717 105.81 64.2043 106.097 64.5106C106.387 64.813 106.533 65.1755 106.533 65.5981C106.533 66.0206 106.387 66.3831 106.097 66.6855C105.81 66.9879 105.397 67.2167 104.858 67.3717C104.319 67.5307 103.679 67.6102 102.939 67.6102C102.202 67.6102 101.565 67.5307 101.026 67.3717C100.491 67.2167 100.08 66.9879 99.7928 66.6855C99.5059 66.3831 99.3644 66.0206 99.3683 65.5981ZM100.648 65.5981C100.644 65.916 100.842 66.1621 101.241 66.3366C101.64 66.5072 102.206 66.5944 102.939 66.5983C103.676 66.5944 104.244 66.5072 104.643 66.3366C105.042 66.1621 105.242 65.916 105.242 65.5981C105.242 65.2685 105.042 65.0165 104.643 64.8421C104.247 64.6676 103.679 64.5784 102.939 64.5745C102.202 64.5784 101.634 64.6676 101.235 64.8421C100.84 65.0165 100.644 65.2685 100.648 65.5981ZM103.113 59.143H105.207V57.1076H106.498V63.2952H105.207V60.2014H103.113V59.143ZM112.441 60.9806H113.662V57.2937H114.895V67.1101H113.662V62.0274H112.441V64.9118H108.312V58.2474H112.441V60.9806ZM111.232 63.8883V59.2709H109.522V63.8883H111.232ZM115.814 57.1076H117.059V67.6218H115.814V57.1076ZM122.258 59.6315C122.254 60.2789 122.36 60.9089 122.577 61.5215C122.795 62.134 123.109 62.6787 123.52 63.1556C123.931 63.6325 124.413 63.9891 124.968 64.2256L124.2 65.2608C123.607 64.9855 123.089 64.5862 122.647 64.0628C122.209 63.5355 121.866 62.921 121.618 62.2193C121.37 62.9753 121.019 63.6383 120.565 64.2082C120.116 64.7781 119.579 65.2104 118.954 65.505L118.164 64.4233C118.734 64.1791 119.228 63.8108 119.647 63.3184C120.065 62.8222 120.385 62.2542 120.606 61.6145C120.827 60.9748 120.939 60.3138 120.943 59.6315V57.9566H122.258V59.6315ZM125.724 57.1076H127.026V67.6334H125.724V57.1076ZM132.539 60.0967C132.539 60.6744 132.648 61.2462 132.865 61.8122C133.086 62.3744 133.4 62.8803 133.807 63.3301C134.218 63.7759 134.699 64.1132 135.249 64.3419L134.54 65.3654C133.931 65.1018 133.402 64.7122 132.952 64.1965C132.502 63.677 132.153 63.0742 131.905 62.388C131.657 63.1246 131.306 63.7759 130.853 64.3419C130.399 64.908 129.872 65.3344 129.271 65.6213L128.527 64.6094C129.066 64.3613 129.538 63.9969 129.946 63.5161C130.353 63.0354 130.667 62.4946 130.888 61.8937C131.109 61.2927 131.221 60.6937 131.225 60.0967V59.2128H128.91V58.1427H134.842V59.2128H132.539V60.0967ZM136.017 57.1076H137.319V67.6218H136.017V57.1076ZM147.101 61.2133H148.659V62.2949H147.101V67.5985H145.81V57.1076H147.101V61.2133ZM138.808 64.7257C140.091 64.0861 141.08 63.3165 141.774 62.417C142.468 61.5137 142.879 60.465 143.007 59.2709H139.378V58.2009H144.321C144.313 61.6513 142.72 64.1597 139.541 65.726L138.808 64.7257ZM154.37 64.3885H155.754V63.2603H156.952V66.5983C157.352 66.4316 157.685 66.2106 157.952 65.9353C158.224 65.6601 158.425 65.3577 158.557 65.0281C158.689 64.6986 158.755 64.3613 158.755 64.0163V63.1789H160.046V64.0163C160.042 64.3923 160.106 64.7509 160.238 65.0921C160.374 65.4294 160.581 65.7318 160.86 65.9993C161.139 66.2629 161.488 66.4665 161.907 66.6099L161.244 67.5753C160.364 67.2574 159.746 66.6681 159.389 65.8074C159.207 66.2067 158.962 66.5576 158.656 66.86C158.354 67.1663 157.991 67.4047 157.569 67.5753L156.952 66.6623V67.4939H153.161V63.2603H154.37V64.3885ZM152.125 59.9804C152.125 59.5074 152.244 59.0868 152.48 58.7185C152.721 58.3463 153.052 58.0574 153.475 57.852C153.897 57.6426 154.374 57.5379 154.905 57.5379C155.351 57.5379 155.762 57.6174 156.138 57.7764C156.514 57.9314 156.828 58.1524 157.08 58.4393C157.336 58.7262 157.509 59.0577 157.598 59.4337H159.499V57.1076H160.79V62.6787H159.499V60.5038H157.604C157.518 60.8876 157.35 61.2268 157.098 61.5215C156.846 61.8161 156.53 62.0449 156.15 62.2077C155.77 62.3666 155.355 62.4461 154.905 62.4461C154.374 62.4461 153.897 62.3434 153.475 62.1379C153.052 61.9285 152.721 61.6378 152.48 61.2656C152.244 60.8895 152.125 60.4611 152.125 59.9804ZM153.358 59.9804C153.358 60.2595 153.424 60.5057 153.556 60.7189C153.688 60.9322 153.87 61.0969 154.103 61.2133C154.339 61.3296 154.607 61.3877 154.905 61.3877C155.2 61.3877 155.462 61.3296 155.69 61.2133C155.919 61.0969 156.099 60.9322 156.231 60.7189C156.363 60.5057 156.429 60.2595 156.429 59.9804C156.429 59.709 156.363 59.4686 156.231 59.2593C156.099 59.0499 155.917 58.889 155.684 58.7766C155.456 58.6642 155.196 58.608 154.905 58.608C154.607 58.608 154.339 58.6642 154.103 58.7766C153.87 58.889 153.688 59.0499 153.556 59.2593C153.424 59.4686 153.358 59.709 153.358 59.9804ZM155.754 66.5053V65.3538H154.37V66.5053H155.754ZM165.152 57.8752C165.621 57.8752 166.046 58.0012 166.425 58.2532C166.805 58.5052 167.116 58.8658 167.356 59.3349C167.596 59.8001 167.747 60.3487 167.81 60.9806H169.816V57.1076H171.095V67.6334H169.816V62.0274H167.821C167.775 62.6942 167.633 63.2758 167.397 63.772C167.16 64.2644 166.848 64.6443 166.46 64.9118C166.073 65.1755 165.637 65.3073 165.152 65.3073C164.625 65.3073 164.156 65.1561 163.745 64.8537C163.337 64.5474 163.02 64.1132 162.791 63.551C162.566 62.9889 162.454 62.3337 162.454 61.5854C162.454 60.8411 162.566 60.1897 162.791 59.6315C163.02 59.0693 163.339 58.637 163.75 58.3346C164.161 58.0284 164.629 57.8752 165.152 57.8752ZM163.698 61.5854C163.698 62.1166 163.758 62.5741 163.878 62.9579C163.999 63.3417 164.167 63.6344 164.384 63.836C164.605 64.0376 164.861 64.1403 165.152 64.1442C165.443 64.1403 165.699 64.0376 165.92 63.836C166.141 63.6344 166.311 63.3417 166.431 62.9579C166.555 62.5741 166.617 62.1166 166.617 61.5854C166.617 61.0582 166.555 60.6026 166.431 60.2188C166.311 59.835 166.141 59.5423 165.92 59.3407C165.699 59.1391 165.443 59.0383 165.152 59.0383C164.861 59.0383 164.605 59.141 164.384 59.3465C164.167 59.5481 163.999 59.8408 163.878 60.2246C163.758 60.6046 163.698 61.0582 163.698 61.5854ZM182.179 66.3424H172.572V65.284H174.794V62.6264C174.367 62.3821 174.036 62.0739 173.799 61.7017C173.567 61.3296 173.452 60.9147 173.456 60.4573C173.456 59.9067 173.621 59.4221 173.951 59.0034C174.284 58.5808 174.747 58.2552 175.34 58.0264C175.934 57.7938 176.604 57.6775 177.353 57.6775C178.105 57.6775 178.777 57.7938 179.371 58.0264C179.968 58.2552 180.433 58.5808 180.766 59.0034C181.104 59.4221 181.272 59.9067 181.272 60.4573C181.276 60.907 181.164 61.3141 180.935 61.6785C180.706 62.0429 180.384 62.3492 179.97 62.5973V65.284H182.179V66.3424ZM174.724 60.4573C174.724 60.8101 174.833 61.1202 175.05 61.3877C175.271 61.6513 175.579 61.8549 175.974 61.9983C176.374 62.1418 176.833 62.2135 177.353 62.2135C177.872 62.2135 178.332 62.1418 178.731 61.9983C179.134 61.8549 179.446 61.6513 179.667 61.3877C179.892 61.1202 180.004 60.8101 180.004 60.4573C180.004 60.1006 179.892 59.7885 179.667 59.521C179.446 59.2535 179.134 59.0499 178.731 58.9104C178.332 58.7708 177.872 58.701 177.353 58.701C176.829 58.701 176.368 58.7708 175.969 58.9104C175.573 59.0499 175.267 59.2535 175.05 59.521C174.833 59.7846 174.724 60.0967 174.724 60.4573ZM178.655 65.284V63.0916C178.244 63.1808 177.81 63.2254 177.353 63.2254C176.914 63.2254 176.488 63.1827 176.073 63.0974V65.284H178.655ZM184.145 66.6797C183.982 66.6797 183.831 66.639 183.691 66.5576C183.552 66.4762 183.441 66.3657 183.36 66.2261C183.278 66.0865 183.238 65.9353 183.238 65.7725C183.238 65.6136 183.278 65.4662 183.36 65.3305C183.441 65.191 183.552 65.0805 183.691 64.9991C183.831 64.9177 183.982 64.8769 184.145 64.8769C184.304 64.8769 184.451 64.9177 184.587 64.9991C184.726 65.0805 184.837 65.191 184.918 65.3305C185 65.4662 185.041 65.6136 185.041 65.7725C185.041 65.9353 185 66.0865 184.918 66.2261C184.837 66.3657 184.726 66.4762 184.587 66.5576C184.451 66.639 184.304 66.6797 184.145 66.6797ZM87.8887 76.876H84.8066V78.0972H88.9704V79.1323H79.375V78.0972H83.5155V76.876H80.6079V73.2937H81.8872V75.8408H87.8887V76.876ZM80.4683 80.0279H87.784V83.6218H86.493V81.0747H80.4683V80.0279ZM94.4485 73.3169C95.22 73.3169 95.8907 73.3984 96.4606 73.5612C97.0305 73.724 97.4686 73.9605 97.7749 74.2707C98.085 74.5769 98.2401 74.9414 98.2401 75.364C98.2401 75.7788 98.085 76.1374 97.7749 76.4398C97.4686 76.7383 97.0305 76.9671 96.4606 77.126C95.8907 77.285 95.22 77.3645 94.4485 77.3645C93.6847 77.3645 93.0159 77.285 92.4422 77.126C91.8723 76.9671 91.4322 76.7383 91.1221 76.4398C90.8119 76.1374 90.6568 75.7788 90.6568 75.364C90.6568 74.9414 90.8119 74.5769 91.1221 74.2707C91.4322 73.9605 91.8723 73.724 92.4422 73.5612C93.0159 73.3984 93.6847 73.3169 94.4485 73.3169ZM89.6682 78.0739H99.252V79.1207H89.6682V78.0739ZM90.7964 79.9581H98.0889V83.4939H90.7964V79.9581ZM92.006 75.364C92.0021 75.678 92.2154 75.9222 92.6457 76.0967C93.076 76.2712 93.677 76.3603 94.4485 76.3642C95.22 76.3603 95.8209 76.2712 96.2512 76.0967C96.6855 75.9222 96.9026 75.678 96.9026 75.364C96.9026 75.0305 96.6874 74.7747 96.2571 74.5963C95.8267 74.418 95.2239 74.3288 94.4485 74.3288C93.6731 74.3288 93.0702 74.418 92.6399 74.5963C92.2134 74.7747 92.0021 75.0305 92.006 75.364ZM96.8328 82.4471V80.9816H92.0758V82.4471H96.8328ZM108.196 77.2947H109.813V78.3647H108.196V83.6218H106.917V73.1076H108.196V77.2947ZM99.9033 74.7243H102.392V73.2588H103.683V74.7243H106.103V75.7594H99.9033V74.7243ZM100.392 78.923C100.388 78.4461 100.5 78.0197 100.729 77.6436C100.958 77.2637 101.274 76.969 101.677 76.7597C102.08 76.5503 102.536 76.4456 103.044 76.4456C103.544 76.4456 103.993 76.5503 104.393 76.7597C104.792 76.969 105.106 77.2637 105.335 77.6436C105.567 78.0197 105.684 78.4461 105.684 78.923C105.684 79.3998 105.567 79.8263 105.335 80.2024C105.106 80.5745 104.792 80.8653 104.393 81.0747C103.993 81.284 103.544 81.3887 103.044 81.3887C102.536 81.3887 102.08 81.284 101.677 81.0747C101.274 80.8653 100.958 80.5745 100.729 80.2024C100.5 79.8263 100.388 79.3998 100.392 78.923ZM101.625 78.923C101.625 79.2021 101.685 79.4483 101.805 79.6615C101.925 79.8709 102.092 80.0337 102.305 80.15C102.522 80.2625 102.768 80.3187 103.044 80.3187C103.311 80.3187 103.551 80.2625 103.765 80.15C103.978 80.0376 104.145 79.8748 104.265 79.6615C104.385 79.4483 104.447 79.2021 104.451 78.923C104.447 78.6438 104.383 78.3977 104.259 78.1844C104.139 77.9673 103.972 77.8006 103.759 77.6843C103.55 77.5641 103.311 77.504 103.044 77.504C102.768 77.504 102.522 77.5641 102.305 77.6843C102.092 77.8006 101.925 77.9673 101.805 78.1844C101.685 78.3977 101.625 78.6438 101.625 78.923ZM119.059 83.6334H117.768V78.039H115.965V76.9806H117.768V73.1076H119.059V83.6334ZM110.604 74.0264H115.361V77.8762H111.918V80.0861C112.782 80.0822 113.538 80.0589 114.186 80.0163C114.837 79.9736 115.492 79.8922 116.151 79.772L116.256 80.8304C115.523 80.9584 114.791 81.0456 114.058 81.0921C113.329 81.1386 112.468 81.1638 111.476 81.1677H110.639V76.8294H114.093V75.0732H110.604V74.0264ZM131.609 77.2133H133.167V78.2949H131.609V83.5985H130.318V73.1076H131.609V77.2133ZM123.316 80.7257C124.599 80.0861 125.588 79.3165 126.282 78.417C126.976 77.5137 127.387 76.465 127.515 75.2709H123.886V74.2009H128.829C128.821 77.6513 127.228 80.1597 124.049 81.726L123.316 80.7257ZM136.191 74.0962H140.727V73.2704H142.007V76.7713H139.076V77.5738H143.251V78.5973H133.667V77.5738H137.796V76.7713H134.912V73.2704H136.191V74.0962ZM134.796 79.2603H142.053V81.8074H136.075V82.5401H142.344V83.5288H134.807V80.9002H140.785V80.214H134.796V79.2603ZM140.727 75.8059V75.0383H136.191V75.8059H140.727ZM152.346 77.3063H153.8V78.3763H152.346V83.6218H151.044V73.1076H152.346V77.3063ZM143.809 80.6094C144.29 80.0977 144.676 79.5665 144.967 79.016C145.257 78.4655 145.473 77.8878 145.612 77.283C145.756 76.6782 145.845 76.0075 145.88 75.2709H144.228V74.2125H147.113C147.109 75.2205 147.045 76.1277 146.921 76.9341C146.797 77.7366 146.566 78.5081 146.229 79.2486C145.895 79.9891 145.426 80.687 144.821 81.3422L143.809 80.6094ZM146.787 81.3073C147.268 80.7296 147.65 80.1248 147.933 79.4929C148.219 78.8571 148.427 78.1999 148.555 77.5215C148.683 76.8391 148.762 76.0889 148.793 75.2709H147.462V74.2125H150.02C150.016 75.2864 149.958 76.2595 149.846 77.1318C149.737 78.0041 149.522 78.8571 149.2 79.6906C148.882 80.5203 148.423 81.2957 147.822 82.0168L146.787 81.3073ZM163.861 82.3424H154.254V81.284H156.475V78.6264C156.049 78.3821 155.717 78.0739 155.481 77.7017C155.248 77.3296 155.134 76.9147 155.138 76.4573C155.138 75.9067 155.303 75.4221 155.632 75.0034C155.966 74.5808 156.429 74.2552 157.022 74.0264C157.615 73.7938 158.286 73.6775 159.034 73.6775C159.786 73.6775 160.459 73.7938 161.052 74.0264C161.649 74.2552 162.114 74.5808 162.448 75.0034C162.785 75.4221 162.954 75.9067 162.954 76.4573C162.958 76.907 162.845 77.3141 162.616 77.6785C162.388 78.0429 162.066 78.3492 161.651 78.5973V81.284H163.861V82.3424ZM156.406 76.4573C156.406 76.8101 156.514 77.1202 156.731 77.3877C156.952 77.6513 157.26 77.8549 157.656 77.9983C158.055 78.1418 158.515 78.2135 159.034 78.2135C159.554 78.2135 160.013 78.1418 160.412 77.9983C160.816 77.8549 161.128 77.6513 161.349 77.3877C161.574 77.1202 161.686 76.8101 161.686 76.4573C161.686 76.1006 161.574 75.7885 161.349 75.521C161.128 75.2535 160.816 75.0499 160.412 74.9104C160.013 74.7708 159.554 74.701 159.034 74.701C158.511 74.701 158.049 74.7708 157.65 74.9104C157.255 75.0499 156.948 75.2535 156.731 75.521C156.514 75.7846 156.406 76.0967 156.406 76.4573ZM160.337 81.284V79.0916C159.926 79.1808 159.492 79.2254 159.034 79.2254C158.596 79.2254 158.17 79.1827 157.755 79.0974V81.284H160.337ZM166.327 80.0046C166.33 79.5278 166.377 79.142 166.466 78.8474C166.555 78.5527 166.679 78.3162 166.838 78.1379C167.001 77.9596 167.218 77.787 167.49 77.6203C167.765 77.442 167.98 77.2501 168.135 77.0446C168.29 76.8391 168.366 76.6007 168.362 76.3293C168.362 76.1161 168.312 75.93 168.211 75.771C168.114 75.6082 167.978 75.4822 167.804 75.393C167.629 75.3039 167.435 75.2593 167.222 75.2593C167.024 75.2593 166.838 75.3019 166.664 75.3872C166.489 75.4725 166.346 75.6024 166.234 75.7769C166.121 75.9513 166.059 76.1626 166.047 76.4107H164.594C164.605 75.9067 164.729 75.4783 164.966 75.1255C165.202 74.7689 165.516 74.5013 165.908 74.323C166.303 74.1408 166.745 74.0497 167.234 74.0497C167.753 74.0497 168.213 74.1427 168.612 74.3288C169.015 74.511 169.327 74.7727 169.548 75.1139C169.773 75.4551 169.886 75.8525 169.886 76.3061C169.882 76.7597 169.773 77.1493 169.56 77.4749C169.351 77.8006 169.048 78.0817 168.653 78.3182C168.42 78.4616 168.234 78.607 168.094 78.7543C167.959 78.9017 167.858 79.0742 167.792 79.2719C167.726 79.4696 167.691 79.7139 167.687 80.0046V80.1093H166.327V80.0046ZM166.141 81.7725C166.141 81.6136 166.181 81.4662 166.263 81.3305C166.344 81.191 166.455 81.0805 166.594 80.9991C166.734 80.9177 166.885 80.8769 167.048 80.8769C167.207 80.8769 167.354 80.9177 167.49 80.9991C167.629 81.0805 167.74 81.191 167.821 81.3305C167.903 81.4662 167.943 81.6136 167.943 81.7725C167.943 81.9353 167.903 82.0865 167.821 82.2261C167.74 82.3657 167.629 82.4762 167.49 82.5576C167.354 82.639 167.207 82.6797 167.048 82.6797C166.885 82.6797 166.734 82.639 166.594 82.5576C166.455 82.4762 166.344 82.3657 166.263 82.2261C166.181 82.0865 166.141 81.9353 166.141 81.7725Z" fill="#757575"/>
<path d="M87.2673 94.3126L93.2799 102.578C94.3537 104.056 92.6181 105.938 91.0591 104.984L77.5319 96.7181C76.0927 95.8391 76.7159 93.6245 78.4027 93.6245H85.9174C86.4513 93.6245 86.9527 93.8803 87.2673 94.3126V94.3126Z" fill="#F5F5F5"/>
</svg>
