<svg width="100" height="100" viewBox="0 0 100 100" fill="none" xmlns="http://www.w3.org/2000/svg">
<path d="M50 100C77.6142 100 100 77.6142 100 50C100 22.3858 77.6142 0 50 0C22.3858 0 0 22.3858 0 50C0 77.6142 22.3858 100 50 100Z" fill="#FFDC65"/>
<path d="M54.7977 47.2361C57.4475 47.2361 59.5955 45.0881 59.5955 42.4384C59.5955 39.7886 57.4475 37.6406 54.7977 37.6406C52.148 37.6406 50 39.7886 50 42.4384C50 45.0881 52.148 47.2361 54.7977 47.2361Z" fill="#626CFA"/>
<path d="M79.2099 47.2361C81.8596 47.2361 84.0076 45.0881 84.0076 42.4384C84.0076 39.7886 81.8596 37.6406 79.2099 37.6406C76.5601 37.6406 74.4121 39.7886 74.4121 42.4384C74.4121 45.0881 76.5601 47.2361 79.2099 47.2361Z" fill="#626CFA"/>
<path d="M76.7752 53.2812V54.5982C76.7752 59.3372 72.3302 63.1942 66.8622 63.1942C61.3942 63.1942 56.9492 59.3372 56.9492 54.5982V53.2812C56.9492 51.729 58.2074 50.459 59.7714 50.459H73.953C75.517 50.459 76.7752 51.729 76.7752 53.2812Z" fill="#626CFA"/>
</svg>
