<?xml version="1.0" standalone="no"?>
<!DOCTYPE svg PUBLIC "-//W3C//DTD SVG 20010904//EN"
 "http://www.w3.org/TR/2001/REC-SVG-20010904/DTD/svg10.dtd">
<svg version="1.0" xmlns="http://www.w3.org/2000/svg"
 width="550.000000pt" height="366.000000pt" viewBox="0 0 550.000000 366.000000"
 preserveAspectRatio="xMidYMid meet">

<g transform="translate(0.000000,366.000000) scale(0.100000,-0.100000)"
fill="#000000" stroke="none">
<path d="M2620 3150 c-376 -33 -730 -188 -981 -428 -153 -146 -248 -301 -297
-481 -22 -85 -25 -116 -26 -261 0 -140 4 -177 22 -245 26 -96 85 -221 143
-306 93 -137 268 -294 425 -380 67 -37 73 -43 68 -67 -3 -15 -27 -142 -53
-282 -27 -140 -48 -256 -47 -256 0 -1 139 85 309 191 l307 194 183 -6 c260 -8
457 20 689 97 512 171 841 535 888 983 34 333 -135 676 -463 935 -101 80 -194
133 -316 182 -255 103 -585 153 -851 130z"/>
</g>
</svg>
